<?xml version="1.0" standalone="no"?>
<!DOCTYPE svg PUBLIC "-//W3C//DTD SVG 1.1//EN" "http://www.w3.org/Graphics/SVG/1.1/DTD/svg11.dtd" >
<svg xmlns="http://www.w3.org/2000/svg" xmlns:xlink="http://www.w3.org/1999/xlink" version="1.1">
<metadata>
Created by FontForge 20170731 at Mon Apr 16 00:15:05 2018
 By Aleksey,,,
Copyright (c) 2018 Schick Toikka. All rights reserved. Scto Grotesk A is a trademark of Schick Toikka. Unauthorised copying or modification of any of its data is illegal.
</metadata>
<defs>
<font id="SctoGroteskA-Thin" horiz-adv-x="825" >
  <font-face 
    font-family="Scto Grotesk A"
    font-weight="250"
    font-stretch="normal"
    units-per-em="1000"
    panose-1="2 11 2 5 3 1 1 1 1 1"
    ascent="800"
    descent="-200"
    x-height="488"
    cap-height="694"
    bbox="-210 -217 1204 925"
    underline-thickness="39"
    underline-position="-251"
    unicode-range="U+0020-FB02"
  />
<missing-glyph horiz-adv-x="630" 
d="M575 694v-869h-520v869h520zM335 261l202 -363v727zM314 222l-200 -359h399zM292 261l-199 361v-721zM117 656l197 -356l197 356h-394z" />
    <glyph glyph-name="fi" unicode="fi" horiz-adv-x="562" 
d="M426 488h42v-488h-42v488zM413 591v67h67v-67h-67zM304 694v-40q-21 6 -56 6q-87 0 -87 -106v-66h143v-40h-143v-448h-42v448h-85v40h85v64q0 71 34 110t95 39q26 0 56 -7z" />
    <glyph glyph-name="fl" unicode="fl" horiz-adv-x="562" 
d="M426 694h42v-694h-42v694zM304 694v-40q-21 6 -56 6q-87 0 -87 -106v-66h143v-40h-143v-448h-42v448h-85v40h85v64q0 71 34 110t95 39q26 0 56 -7z" />
    <glyph glyph-name=".notdef" horiz-adv-x="630" 
d="M575 694v-869h-520v869h520zM335 261l202 -363v727zM314 222l-200 -359h399zM292 261l-199 361v-721zM117 656l197 -356l197 356h-394z" />
    <glyph glyph-name=".null" horiz-adv-x="0" 
 />
    <glyph glyph-name="nonmarkingreturn" horiz-adv-x="333" 
 />
    <glyph glyph-name="space" unicode=" " horiz-adv-x="225" 
 />
    <glyph glyph-name="exclam" unicode="!" horiz-adv-x="262" 
d="M143 217h-24l-11 345v132h46v-132zM90 0v82h82v-82h-82z" />
    <glyph glyph-name="quotedbl" unicode="&#x22;" horiz-adv-x="357" 
d="M123 694l-12 -215h-32l-12 215h56zM292 694l-12 -215h-32l-12 215h56z" />
    <glyph glyph-name="numbersign" unicode="#" horiz-adv-x="708" 
d="M95 449v38h144l29 187h39l-29 -187h184l29 187h39l-29 -187h152v-38h-158l-31 -203h149v-38h-155l-28 -187h-39l28 187h-184l-28 -187h-39l28 187h-141v38h147l31 203h-138zM272 449l-31 -203h184l31 203h-184z" />
    <glyph glyph-name="dollar" unicode="$" horiz-adv-x="636" 
d="M107 525q0 74 54 125t139 55v95h39v-97q78 -9 129 -64t56 -134h-47q-5 66 -43 107t-95 50v-295l54 -18q146 -49 146 -177q0 -75 -54 -125t-146 -57v-96h-39v96q-96 4 -155 56.5t-65 144.5h47q14 -153 173 -161v306l-47 16q-146 50 -146 173zM382 308l-43 14v-291
q71 5 114 42.5t43 97.5q0 97 -114 137zM150 526q0 -93 114 -133l36 -13v283q-66 -3 -108 -40t-42 -97z" />
    <glyph glyph-name="percent" unicode="%" horiz-adv-x="853" 
d="M248 0h-44l399 694h44zM84 529q0 -63 34 -100.5t89 -37.5t89 37.5t34 100.5t-34 100.5t-89 37.5t-89 -37.5t-34 -100.5zM372 529q0 -84 -49 -130.5t-116 -46.5t-116 46.5t-49 130.5t49 130.5t116 46.5t116 -46.5t49 -130.5zM523 166q0 -63 34 -100.5t89 -37.5t89 37.5
t34 100.5t-34 100.5t-89 37.5t-89 -37.5t-34 -100.5zM811 166q0 -84 -49 -130.5t-116 -46.5t-116 46.5t-49 130.5t49 130.5t116 46.5t116 -46.5t49 -130.5z" />
    <glyph glyph-name="ampersand" unicode="&#x26;" horiz-adv-x="667" 
d="M586 0l-89 91q-89 -102 -236 -102q-92 0 -150.5 47t-58.5 121q0 65 40.5 112.5t136.5 98.5q-97 103 -97 184q0 62 46 107.5t119 45.5q67 0 114 -45t47 -109q0 -58 -40 -103.5t-120 -88.5l196 -203q55 90 55 215h43q-3 -147 -69 -245l123 -126h-60zM261 30q129 0 207 91
l-209 217q-93 -51 -127.5 -90.5t-34.5 -90.5q0 -53 47 -90t117 -37zM176 552q0 -38 22.5 -75t70.5 -88q75 39 110 77t35 85t-33.5 79.5t-83.5 32.5q-55 0 -88 -33t-33 -78z" />
    <glyph glyph-name="quotesingle" unicode="'" horiz-adv-x="190" 
d="M122 694l-12 -215h-30l-12 215h54z" />
    <glyph glyph-name="parenleft" unicode="(" horiz-adv-x="278" 
d="M103 305q0 -214 149 -404h-47q-145 182 -145 404t145 404h47q-149 -190 -149 -404z" />
    <glyph glyph-name="parenright" unicode=")" horiz-adv-x="278" 
d="M176 305q0 214 -149 404h47q145 -182 145 -404t-145 -404h-47q149 190 149 404z" />
    <glyph glyph-name="asterisk" unicode="*" horiz-adv-x="438" 
d="M134 371l-34 25l91 117l-142 43l13 40l140 -51l-4 149h42l-4 -149l140 51l13 -40l-143 -43l92 -117l-34 -25l-85 122z" />
    <glyph glyph-name="plus" unicode="+" horiz-adv-x="650" 
d="M99 301v41h206v207h41v-207h206v-41h-206v-206h-41v206h-206z" />
    <glyph glyph-name="comma" unicode="," horiz-adv-x="250" 
d="M161 82v-117q0 -103 -103 -103v31q68 0 68 71v36h-47v82h82z" />
    <glyph glyph-name="hyphen" unicode="-" horiz-adv-x="378" 
d="M62 244v42h255v-42h-255z" />
    <glyph glyph-name="period" unicode="." horiz-adv-x="252" 
d="M85 0v82h82v-82h-82z" />
    <glyph glyph-name="slash" unicode="/" horiz-adv-x="405" 
d="M375 709l-301 -808h-44l301 808h44z" />
    <glyph glyph-name="zero" unicode="0" horiz-adv-x="609" 
d="M304 -11q-111 0 -173 91.5t-62 266.5t62 266.5t173 91.5t173.5 -91.5t62.5 -266.5t-62.5 -266.5t-173.5 -91.5zM304 32q91 0 140.5 81t49.5 234t-49.5 234t-140.5 81q-90 0 -139.5 -81t-49.5 -234t49.5 -234t139.5 -81z" />
    <glyph glyph-name="one" unicode="1" horiz-adv-x="408" 
d="M270 0h-44v640l-169 -128v53l170 129h43v-694z" />
    <glyph glyph-name="two" unicode="2" horiz-adv-x="554" 
d="M79 0v42l256 290q48 53 73.5 97.5t25.5 94.5q0 62 -43.5 100t-110.5 38q-72 0 -120 -46.5t-48 -124.5h-46q1 94 61.5 154t151.5 60t146 -53.5t55 -129.5q0 -93 -117 -224l-226 -256h357v-42h-415z" />
    <glyph glyph-name="three" unicode="3" horiz-adv-x="578" 
d="M284 -11q-96 0 -158 56t-68 151h46q4 -73 52.5 -118.5t127.5 -45.5t127 41.5t48 109.5q0 72 -49 113t-141 41h-19v39h19q87 0 129 44t42 104q0 61 -44 99.5t-111 38.5q-71 0 -117 -45t-49 -119h-46q4 90 63.5 148.5t147.5 58.5t144.5 -53.5t56.5 -127.5q0 -55 -31 -101
t-79 -65q56 -15 93 -59.5t37 -115.5q0 -85 -62 -139.5t-159 -54.5z" />
    <glyph glyph-name="four" unicode="4" horiz-adv-x="621" 
d="M455 0h-45v172h-354v41l348 481h51v-480h107v-42h-107v-172zM410 214v416l-301 -416h301z" />
    <glyph glyph-name="five" unicode="5" horiz-adv-x="559" 
d="M282 -11q-94 0 -155 55.5t-68 151.5h46q4 -72 52 -118t125 -46q83 0 130.5 51.5t47.5 139.5q0 82 -46.5 134.5t-123.5 52.5q-56 0 -98 -29.5t-62 -78.5h-45l46 392h335v-42h-297l-32 -272q22 31 63 52t90 21q96 0 155.5 -66t59.5 -164q0 -104 -60 -169t-163 -65z" />
    <glyph glyph-name="six" unicode="6" horiz-adv-x="595" 
d="M309 453q96 0 156.5 -64.5t60.5 -167.5t-60.5 -167.5t-156.5 -64.5q-106 0 -173 86t-67 273q0 177 63.5 267t171.5 90q83 0 138 -49.5t61 -121.5h-46q-5 53 -47.5 90.5t-105.5 37.5q-81 0 -137 -73.5t-56 -239.5q0 -11 1 -30t1 -21q15 75 68.5 115t127.5 40zM309 410
q-78 0 -126.5 -51.5t-48.5 -137.5t48.5 -137.5t126.5 -51.5q77 0 124.5 52t47.5 137t-47.5 137t-124.5 52z" />
    <glyph glyph-name="seven" unicode="7" horiz-adv-x="529" 
d="M55 652v42h419v-39l-283 -655h-48l282 652h-370z" />
    <glyph glyph-name="eight" unicode="8" horiz-adv-x="582" 
d="M291 -11q-98 0 -159 55.5t-61 140.5q0 64 34 109t92 65q-48 21 -77 65.5t-29 96.5q0 77 56.5 130.5t143.5 53.5t143.5 -53.5t56.5 -130.5q0 -52 -29 -96.5t-77 -65.5q58 -20 92 -65t34 -109q0 -85 -61 -140.5t-159 -55.5zM291 32q80 0 127 43.5t47 109.5t-47 109.5
t-127 43.5t-127 -43.5t-47 -109.5t47 -109.5t127 -43.5zM291 378q69 0 112 41.5t43 101.5t-42.5 100.5t-112.5 40.5t-112.5 -40.5t-42.5 -100.5t43 -101.5t112 -41.5z" />
    <glyph glyph-name="nine" unicode="9" horiz-adv-x="595" 
d="M286 241q-96 0 -156.5 64.5t-60.5 167.5t60.5 167.5t156.5 64.5q106 0 173 -86t67 -273q0 -177 -63.5 -267t-171.5 -90q-83 0 -138 49.5t-61 121.5h46q5 -53 47.5 -90.5t105.5 -37.5q81 0 137 73.5t56 239.5q0 11 -1 30t-1 21q-15 -75 -68.5 -115t-127.5 -40zM286 284
q78 0 126.5 51.5t48.5 137.5t-48.5 137.5t-126.5 51.5q-77 0 -124.5 -52t-47.5 -137t47.5 -137t124.5 -52z" />
    <glyph glyph-name="colon" unicode=":" horiz-adv-x="262" 
d="M90 0v82h82v-82h-82zM90 406v82h82v-82h-82z" />
    <glyph glyph-name="semicolon" unicode=";" horiz-adv-x="260" 
d="M88 406v82h82v-82h-82zM170 82v-117q0 -103 -103 -103v31q68 0 68 71v36h-47v82h82z" />
    <glyph glyph-name="less" unicode="&#x3c;" horiz-adv-x="650" 
d="M94 305v38l416 213v-46l-367 -186l367 -187v-46z" />
    <glyph glyph-name="equal" unicode="=" horiz-adv-x="650" 
d="M92 195v41h466v-41h-466zM92 410v41h466v-41h-466z" />
    <glyph glyph-name="greater" unicode="&#x3e;" horiz-adv-x="650" 
d="M556 342v-38l-416 -213v46l366 186l-366 187v46z" />
    <glyph glyph-name="question" unicode="?" horiz-adv-x="465" 
d="M432 531q0 -43 -20 -78.5t-48.5 -59t-57 -46t-48.5 -51t-20 -61.5v-18h-38v15q0 42 19.5 76t47 56.5t54.5 44.5t46.5 53t19.5 70q0 53 -40 91.5t-111 38.5q-73 0 -112.5 -39.5t-43.5 -108.5h-45q2 82 56.5 136.5t144.5 54.5q84 0 140 -50t56 -124zM179 0v82h82v-82h-82z
" />
    <glyph glyph-name="at" unicode="@" horiz-adv-x="945" 
d="M460 11q-86 0 -145 62.5t-59 172.5q0 111 57.5 172.5t146.5 61.5q104 0 155 -83v75h42v-334q0 -84 60 -84q51 0 85.5 61.5t34.5 164.5q0 148 -97 245.5t-262 97.5q-166 0 -268.5 -106.5t-102.5 -272.5q0 -160 103 -262.5t266 -102.5q88 0 156 24v-46q-64 -21 -156 -21
q-190 0 -302 118t-112 290q0 186 117 304t299 118q184 0 293 -109.5t109 -276.5q0 -127 -46 -198t-117 -71q-86 0 -102 83q-51 -83 -155 -83zM460 54q75 0 116 53t41 139t-41 138.5t-116 52.5q-76 0 -117.5 -52.5t-41.5 -138.5t42 -139t117 -53z" />
    <glyph glyph-name="A" unicode="A" horiz-adv-x="701" 
d="M620 0l-97 229h-348l-96 -229h-47l292 694h51l294 -694h-49zM349 642l-156 -371h312z" />
    <glyph glyph-name="B" unicode="B" horiz-adv-x="677" 
d="M103 0v694h256q96 0 154 -44.5t58 -132.5q0 -51 -28 -92.5t-73 -59.5q59 -12 99.5 -58.5t40.5 -114.5q0 -90 -59.5 -141t-168.5 -51h-279zM525 517q0 66 -46.5 100.5t-119.5 34.5h-212v-272h212q73 0 119.5 35.5t46.5 101.5zM564 192q0 71 -50.5 108.5t-131.5 37.5h-235
v-296h235q81 0 131.5 38.5t50.5 111.5z" />
    <glyph glyph-name="C" unicode="C" horiz-adv-x="710" 
d="M104 347q0 -144 77 -229.5t194 -85.5q84 0 148 51.5t82 142.5h49q-19 -105 -93.5 -171t-185.5 -66q-139 0 -228 99t-89 259t89 259t228 99q111 0 185.5 -66t93.5 -171h-49q-18 91 -82 142.5t-148 51.5q-117 0 -194 -85.5t-77 -229.5z" />
    <glyph glyph-name="D" unicode="D" horiz-adv-x="717" 
d="M659 347q0 -156 -90 -251.5t-235 -95.5h-231v694h231q145 0 235 -96t90 -251zM613 347q0 132 -75 218.5t-207 86.5h-184v-610h184q132 0 207 86.5t75 218.5z" />
    <glyph glyph-name="E" unicode="E" horiz-adv-x="637" 
d="M103 0v694h468v-42h-424v-274h388v-42h-388v-294h428v-42h-472z" />
    <glyph glyph-name="F" unicode="F" horiz-adv-x="578" 
d="M103 0v694h440v-42h-396v-265h344v-42h-344v-345h-44z" />
    <glyph glyph-name="G" unicode="G" horiz-adv-x="752" 
d="M380 296v44h281v-340h-38v143q-31 -71 -96.5 -112.5t-149.5 -41.5q-139 0 -229 99t-90 259t89 259t228 99q111 0 185.5 -66t93.5 -171h-49q-18 91 -82 142.5t-148 51.5q-117 0 -194 -85.5t-77 -229.5t78 -230t195 -86q45 0 86.5 15t76.5 45t56.5 83t22.5 122h-239z" />
    <glyph glyph-name="H" unicode="H" horiz-adv-x="728" 
d="M103 0v694h44v-305h434v305h44v-694h-44v347h-434v-347h-44z" />
    <glyph glyph-name="I" unicode="I" horiz-adv-x="250" 
d="M103 0v694h44v-694h-44z" />
    <glyph glyph-name="J" unicode="J" horiz-adv-x="573" 
d="M266 32q81 0 128.5 49.5t47.5 138.5v474h44v-475q0 -107 -58.5 -168.5t-161.5 -61.5q-57 0 -100 19.5t-68 52.5t-37.5 72t-12.5 83v23h44v-22q0 -89 47 -137t127 -48z" />
    <glyph glyph-name="K" unicode="K" horiz-adv-x="645" 
d="M103 0v694h44v-385l410 385h63l-311 -291l307 -403h-56l-283 372l-130 -122v-250h-44z" />
    <glyph glyph-name="L" unicode="L" horiz-adv-x="574" 
d="M103 0v694h44v-652h388v-42h-432z" />
    <glyph glyph-name="M" unicode="M" horiz-adv-x="896" 
d="M422 0l-275 640v-640h-44v694h68l277 -644l277 644h68v-694h-44v640l-275 -640h-52z" />
    <glyph glyph-name="N" unicode="N" horiz-adv-x="744" 
d="M641 694v-694h-61l-433 637v-637h-44v694h61l433 -637v637h44z" />
    <glyph glyph-name="O" unicode="O" horiz-adv-x="758" 
d="M700 347q0 -160 -90 -259t-231 -99t-231 99t-90 259t90 259t231 99t231 -99t90 -259zM654 347q0 147 -78.5 231t-196.5 84t-196.5 -84t-78.5 -231t78.5 -231t196.5 -84t196.5 84t78.5 231z" />
    <glyph glyph-name="P" unicode="P" horiz-adv-x="636" 
d="M592 494q0 -96 -60.5 -148t-176.5 -52h-208v-294h-44v694h252q116 0 176.5 -52t60.5 -148zM546 494q0 158 -190 158h-209v-316h209q190 0 190 158z" />
    <glyph glyph-name="Q" unicode="Q" horiz-adv-x="758" 
d="M379 -11q-141 0 -231 99t-90 259t90 259t231 99t231 -99t90 -259q0 -104 -40 -184.5t-110 -125.5l139 -164h-58l-121 142q-61 -26 -131 -26zM379 30q117 0 196 85t79 232t-79 232t-196 85t-196 -85t-79 -232t79 -232t196 -85z" />
    <glyph glyph-name="R" unicode="R" horiz-adv-x="690" 
d="M103 0v694h285q105 0 163.5 -51.5t58.5 -136.5q0 -74 -45.5 -124t-128.5 -61l205 -321h-52l-203 318h-239v-318h-44zM147 360h240q86 0 131.5 38t45.5 108t-45.5 108t-131.5 38h-240v-292z" />
    <glyph glyph-name="S" unicode="S" horiz-adv-x="636" 
d="M318 -11q-116 0 -185.5 50.5t-76.5 151.5h47q5 -80 61.5 -120t153.5 -40q98 0 155 39.5t57 108.5q0 96 -112 124l-193 48q-68 17 -107 59t-39 107q0 81 66.5 134.5t170.5 53.5q103 0 170 -54.5t71 -145.5h-47q-4 78 -58 118t-136 40q-84 0 -138 -39.5t-54 -105.5
q0 -96 112 -124l193 -48q68 -17 107 -59t39 -107q0 -84 -69.5 -137.5t-187.5 -53.5z" />
    <glyph glyph-name="T" unicode="T" horiz-adv-x="624" 
d="M34 652v42h556v-42h-256v-652h-44v652h-256z" />
    <glyph glyph-name="U" unicode="U" horiz-adv-x="688" 
d="M344 -11q-114 0 -187 69t-73 197v439h44v-437q0 -105 59 -166t157 -61t157 61t59 166v437h44v-439q0 -128 -73 -197t-187 -69z" />
    <glyph glyph-name="V" unicode="V" horiz-adv-x="639" 
d="M78 694l240 -644l244 644h46l-264 -694h-53l-260 694h47z" />
    <glyph glyph-name="W" unicode="W" horiz-adv-x="987" 
d="M748 0h-56l-198 641l-199 -641h-56l-205 694h47l187 -644l199 644h54l198 -644l188 644h46z" />
    <glyph glyph-name="X" unicode="X" horiz-adv-x="633" 
d="M84 0h-55l262 346l-262 348h55l234 -312l234 312h55l-262 -348l262 -346h-55l-234 311z" />
    <glyph glyph-name="Y" unicode="Y" horiz-adv-x="620" 
d="M288 0v273l-276 421h53l245 -380l246 380h52l-276 -421v-273h-44z" />
    <glyph glyph-name="Z" unicode="Z" horiz-adv-x="600" 
d="M77 694h473v-42l-459 -610h470v-42h-523v42l459 610h-420v42z" />
    <glyph glyph-name="bracketleft" unicode="[" horiz-adv-x="305" 
d="M281 670h-147v-730h147v-39h-188v808h188v-39z" />
    <glyph glyph-name="backslash" unicode="\" horiz-adv-x="405" 
d="M331 -99l-301 808h44l301 -808h-44z" />
    <glyph glyph-name="bracketright" unicode="]" horiz-adv-x="305" 
d="M212 -99h-188v39h147v730h-147v39h188v-808z" />
    <glyph glyph-name="asciicircum" unicode="^" horiz-adv-x="435" 
d="M37 444l158 250h46l158 -250h-49l-133 208l-131 -208h-49z" />
    <glyph glyph-name="underscore" unicode="_" horiz-adv-x="500" 
d="M41 -81v40h418v-40h-418z" />
    <glyph glyph-name="grave" unicode="`" horiz-adv-x="283" 
d="M38 694h68l74 -136h-40z" />
    <glyph glyph-name="a" unicode="a" horiz-adv-x="530" 
d="M443 0h-41v92q-26 -52 -79 -76t-109 -24q-66 0 -111 33.5t-45 99.5q0 114 154 142l191 33v37q0 59 -40 88.5t-108 29.5q-59 0 -95 -26t-42 -75h-45q7 73 60 107.5t122 34.5q82 0 135 -37t53 -114v-345zM217 32q76 0 131 48.5t55 134.5v44l-190 -33q-110 -19 -110 -103
q0 -40 30.5 -65.5t83.5 -25.5z" />
    <glyph glyph-name="b" unicode="b" horiz-adv-x="579" 
d="M307 496q93 0 154.5 -67.5t61.5 -184.5t-62.5 -184.5t-151.5 -67.5q-118 0 -175 103v-95h-41v694h42v-299q54 101 172 101zM306 453q-81 0 -126.5 -58t-45.5 -151t45.5 -151t126.5 -58t126.5 58t45.5 151t-45.5 151t-126.5 58z" />
    <glyph glyph-name="c" unicode="c" horiz-adv-x="530" 
d="M100 244q0 -92 45.5 -150.5t130.5 -58.5q58 0 101 32.5t52 90.5h46q-11 -74 -65.5 -120t-133.5 -46q-97 0 -159 68t-62 184t62 184t159 68q79 0 133.5 -46t65.5 -120h-46q-9 58 -52 90.5t-101 32.5q-85 0 -130.5 -58.5t-45.5 -150.5z" />
    <glyph glyph-name="d" unicode="d" horiz-adv-x="579" 
d="M272 496q118 0 172 -101v299h42v-694h-41v95q-57 -103 -175 -103q-89 0 -151.5 67.5t-62.5 184.5t61.5 184.5t154.5 67.5zM273 453q-81 0 -126.5 -58t-45.5 -151t45.5 -151t126.5 -58t126.5 58t45.5 151t-45.5 151t-126.5 58z" />
    <glyph glyph-name="e" unicode="e" horiz-adv-x="540" 
d="M55 245q0 115 61.5 183t156.5 68q88 0 147.5 -63t59.5 -185q0 -9 -1 -17h-379q2 -83 48 -139.5t123 -56.5q125 0 155 108h45q-14 -74 -68.5 -112.5t-128.5 -38.5q-95 0 -157 68.5t-62 184.5zM100 271h335q-3 88 -48 135.5t-114 47.5q-71 0 -118 -47t-55 -136z" />
    <glyph glyph-name="f" unicode="f" horiz-adv-x="334" 
d="M304 694v-40q-21 6 -56 6q-87 0 -87 -106v-66h143v-40h-143v-448h-42v448h-85v40h85v64q0 71 34 110t95 39q26 0 56 -7z" />
    <glyph glyph-name="g" unicode="g" horiz-adv-x="566" 
d="M473 488v-483q0 -91 -56 -140t-150 -49q-88 0 -136 40t-56 107h45q5 -50 45 -77.5t103 -27.5q162 0 162 154v95q-23 -43 -68 -69t-96 -26q-87 0 -148.5 63t-61.5 179t61.5 179t148.5 63q54 0 98.5 -26.5t67.5 -71.5v90h41zM100 254q0 -89 44 -144.5t122 -55.5t122 55.5
t44 144.5t-44 144.5t-122 55.5t-122 -55.5t-44 -144.5z" />
    <glyph glyph-name="h" unicode="h" horiz-adv-x="560" 
d="M432 0v293q0 82 -37.5 122t-100.5 40q-67 0 -113 -51.5t-46 -116.5v-287h-42v694h42v-293q23 43 65 69t95 26q80 0 129.5 -52t49.5 -150v-294h-42z" />
    <glyph glyph-name="i" unicode="i" horiz-adv-x="228" 
d="M93 488h42v-488h-42v488zM80 591v67h67v-67h-67z" />
    <glyph glyph-name="j" unicode="j" horiz-adv-x="228" 
d="M-36 -174v40q24 -4 41 -4q88 0 88 102v524h42v-516q0 -150 -126 -150q-25 0 -45 4zM81 591v67h67v-67h-67z" />
    <glyph glyph-name="k" unicode="k" horiz-adv-x="495" 
d="M249 290l221 -290h-52l-204 266l-79 -71v-195h-42v694h42v-445l272 239h63z" />
    <glyph glyph-name="l" unicode="l" horiz-adv-x="228" 
d="M93 694h42v-694h-42v694z" />
    <glyph glyph-name="m" unicode="m" horiz-adv-x="849" 
d="M763 317v-317h-42v316q0 68 -34.5 103.5t-94.5 35.5q-57 0 -100 -44t-43 -116v-295h-42v304q0 78 -33.5 114.5t-91.5 36.5q-60 0 -103.5 -47.5t-43.5 -123.5v-284h-42v488h41v-86q16 40 56.5 67.5t89.5 27.5q114 0 156 -100q22 43 63.5 71.5t95.5 28.5q73 0 120.5 -45.5
t47.5 -134.5z" />
    <glyph glyph-name="n" unicode="n" horiz-adv-x="560" 
d="M135 0h-42v488h41v-89q23 45 65 71t96 26q80 0 129.5 -52t49.5 -150v-294h-42v293q0 82 -37.5 122t-100.5 40q-67 0 -113 -51.5t-46 -116.5v-287z" />
    <glyph glyph-name="o" unicode="o" horiz-adv-x="552" 
d="M276 -8q-97 0 -159 69t-62 183t62 183t159 69t159 -69.5t62 -182.5t-62 -182.5t-159 -69.5zM276 35q82 0 129 58t47 151t-47 151t-129 58t-129 -58t-47 -151t47 -151t129 -58z" />
    <glyph glyph-name="p" unicode="p" horiz-adv-x="579" 
d="M307 -8q-118 0 -172 101v-268h-42v663h41v-95q57 103 175 103q89 0 151.5 -67.5t62.5 -184.5t-61.5 -184.5t-154.5 -67.5zM306 35q81 0 126.5 58t45.5 151t-45.5 151t-126.5 58t-126.5 -58t-45.5 -151t45.5 -151t126.5 -58z" />
    <glyph glyph-name="q" unicode="q" horiz-adv-x="578" 
d="M272 -8q-93 0 -154.5 67.5t-61.5 184.5t62.5 184.5t151.5 67.5q118 0 175 -103v95h41v-663h-42v268q-54 -101 -172 -101zM273 35q81 0 126.5 58t45.5 151t-45.5 151t-126.5 58t-126.5 -58t-45.5 -151t45.5 -151t126.5 -58z" />
    <glyph glyph-name="r" unicode="r" horiz-adv-x="349" 
d="M324 494v-43q-14 2 -37 2q-58 0 -105 -51.5t-47 -123.5v-278h-42v488h41v-98q19 53 64.5 79.5t91.5 26.5q20 0 34 -2z" />
    <glyph glyph-name="s" unicode="s" horiz-adv-x="496" 
d="M75 358q0 61 49.5 99.5t124.5 38.5q70 0 121 -36.5t57 -105.5h-45q-5 48 -41 74t-92 26q-59 0 -94.5 -26t-35.5 -70q0 -35 22.5 -54t68.5 -28l102 -21q124 -25 124 -123q0 -61 -49.5 -100.5t-135.5 -39.5q-85 0 -135.5 40t-57.5 107h45q4 -44 40.5 -74.5t107.5 -30.5
q69 0 105 28.5t36 69.5q0 35 -22.5 54t-68.5 28l-102 21q-124 25 -124 123z" />
    <glyph glyph-name="t" unicode="t" horiz-adv-x="344" 
d="M31 448v40h87v133h40v-133h144v-40h-144v-320q0 -95 83 -95q37 0 61 8v-40q-30 -9 -67 -9q-56 0 -87.5 32.5t-31.5 97.5v326h-85z" />
    <glyph glyph-name="u" unicode="u" horiz-adv-x="552" 
d="M417 488h42v-488h-41v89q-23 -45 -64.5 -71t-95.5 -26q-81 0 -126.5 53.5t-45.5 148.5v294h42v-293q0 -162 133 -162q70 0 113 55t43 126v274z" />
    <glyph glyph-name="v" unicode="v" horiz-adv-x="481" 
d="M241 53l166 435h44l-188 -488h-45l-188 488h45z" />
    <glyph glyph-name="w" unicode="w" horiz-adv-x="726" 
d="M363 437l-130 -437h-51l-146 488h44l127 -439l129 439h54l129 -440l127 440h44l-145 -488h-51z" />
    <glyph glyph-name="x" unicode="x" horiz-adv-x="476" 
d="M91 0h-52l174 243l-174 245h51l148 -212l148 212h51l-174 -244l174 -244h-51l-148 210z" />
    <glyph glyph-name="y" unicode="y" horiz-adv-x="481" 
d="M240 -74q-39 -104 -133 -104q-28 0 -52 4v40q23 -4 51 -4q36 0 58.5 18t37.5 56l20 51l-190 501h45l166 -444l166 444h44z" />
    <glyph glyph-name="z" unicode="z" horiz-adv-x="466" 
d="M60 488h359v-38l-317 -409h308v-41h-362v38l317 409h-305v41z" />
    <glyph glyph-name="braceleft" unicode="{" horiz-adv-x="348" 
d="M323 -60v-39h-58q-67 0 -98 30.5t-31 103.5v140q0 56 -22 80.5t-74 29.5v40q52 5 74 29.5t22 80.5v140q0 73 31 103.5t98 30.5h58v-39h-58q-49 0 -68.5 -21t-19.5 -74v-140q0 -113 -86 -130q86 -17 86 -130v-140q0 -53 19.5 -74t68.5 -21h58z" />
    <glyph glyph-name="bar" unicode="|" horiz-adv-x="282" 
d="M120 -99v808h42v-808h-42z" />
    <glyph glyph-name="braceright" unicode="}" horiz-adv-x="348" 
d="M25 -99v39h58q49 0 68.5 21t19.5 74v140q0 113 86 130q-86 17 -86 130v140q0 53 -19.5 74t-68.5 21h-58v39h58q67 0 98 -30.5t31 -103.5v-140q0 -56 22 -80.5t74 -29.5v-40q-52 -5 -74 -29.5t-22 -80.5v-140q0 -73 -31 -103.5t-98 -30.5h-58z" />
    <glyph glyph-name="asciitilde" unicode="~" horiz-adv-x="650" 
d="M455 272q-40 0 -133.5 31t-126.5 31q-20 0 -33 -14t-13 -41v-12h-40v15q0 43 22.5 67.5t63.5 24.5q40 0 133.5 -31t126.5 -31q47 0 47 55v12h40v-14q0 -43 -22.5 -68t-64.5 -25z" />
    <glyph glyph-name="uni00A0" unicode="&#xa0;" horiz-adv-x="225" 
 />
    <glyph glyph-name="exclamdown" unicode="&#xa1;" horiz-adv-x="262" 
d="M119 271h24l11 -345v-132h-46v132zM90 406v82h82v-82h-82z" />
    <glyph glyph-name="cent" unicode="&#xa2;" horiz-adv-x="560" 
d="M306 0h-40v95q-87 10 -140.5 77t-53.5 174t53.5 174t140.5 76v98h40v-97q74 -4 124.5 -49t61.5 -116h-46q-9 56 -47.5 88t-92.5 36v-421q53 4 92 36.5t48 88.5h46q-11 -71 -61.5 -116.5t-124.5 -49.5v-94zM117 346q0 -85 38.5 -143t110.5 -67v419q-72 -9 -110.5 -67
t-38.5 -142z" />
    <glyph glyph-name="sterling" unicode="&#xa3;" horiz-adv-x="620" 
d="M84 288v40h86q-4 9 -14 32.5t-14.5 36.5t-11 33.5t-9.5 39.5t-3 40q0 85 55.5 140t146.5 55q96 0 152.5 -60.5t58.5 -158.5h-47q-2 82 -46 129t-118 47q-71 0 -113.5 -42t-42.5 -110q0 -24 5.5 -49.5t11.5 -42.5t18 -46.5t17 -43.5h247v-40h-234q9 -40 9 -71
q0 -112 -77 -175h379v-42h-455v42q109 53 109 176q0 30 -11 70h-99z" />
    <glyph glyph-name="currency" unicode="&#xa4;" horiz-adv-x="537" 
d="M268 133q-71 0 -117 41l-60 -60l-30 30l62 62q-33 48 -33 115q0 68 34 117l-63 63l30 30l61 -62q49 41 116 41t116 -41l62 62l30 -30l-64 -64q34 -49 34 -116t-33 -115l63 -62l-30 -30l-61 60q-46 -41 -117 -41zM268 174q64 0 100 41t36 106t-36 106.5t-100 41.5
t-100 -41.5t-36 -106.5t36 -106t100 -41z" />
    <glyph glyph-name="yen" unicode="&#xa5;" horiz-adv-x="663" 
d="M353 0h-44v140h-200v40h200v94h-200v40h172l-260 380h51l259 -380l260 380h50l-260 -380h172v-40h-200v-94h200v-40h-200v-140z" />
    <glyph glyph-name="brokenbar" unicode="&#xa6;" horiz-adv-x="282" 
d="M120 -99v354h42v-354h-42zM120 354v355h42v-355h-42z" />
    <glyph glyph-name="section" unicode="&#xa7;" horiz-adv-x="526" 
d="M471 236q0 -43 -26.5 -78t-75.5 -52q51 -45 51 -109q0 -63 -48.5 -103t-122.5 -40q-71 0 -122 36t-56 103h45q5 -48 41 -73t92 -25q58 0 92.5 28t34.5 74q0 37 -24.5 64t-77.5 57l-117 67q-54 31 -78 62.5t-24 76.5q0 43 26.5 77.5t75.5 50.5q-51 46 -51 110
q0 63 48.5 103t122.5 40q71 0 122 -36t56 -103h-45q-5 48 -41 73t-92 25q-58 0 -92.5 -28t-34.5 -74q0 -37 24.5 -64t77.5 -57l117 -67q54 -31 78 -62t24 -76zM346 337q-150 85 -158 91q-44 -13 -66 -41t-22 -60q0 -60 80 -105l158 -91q44 13 66 40.5t22 60.5q0 60 -80 105z
" />
    <glyph glyph-name="dieresis" unicode="&#xa8;" horiz-adv-x="358" 
d="M57 591v67h67v-67h-67zM234 591v67h67v-67h-67z" />
    <glyph glyph-name="copyright" unicode="&#xa9;" horiz-adv-x="827" 
d="M55 347q0 151 103.5 254.5t254.5 103.5t255 -103.5t104 -254.5t-104 -254.5t-255 -103.5t-254.5 103.5t-103.5 254.5zM95 347q0 -134 92.5 -227t225.5 -93t226 93.5t93 226.5t-93 226.5t-226 93.5t-225.5 -93t-92.5 -227zM272 346q0 -76 38.5 -122t109.5 -46
q47 0 81 26.5t40 75.5h45q-8 -65 -52.5 -105t-113.5 -40q-85 0 -139 56t-54 155q0 100 54 155.5t139 55.5q70 0 114.5 -39.5t52.5 -104.5h-46q-6 48 -40 74.5t-81 26.5q-71 0 -109.5 -45.5t-38.5 -122.5z" />
    <glyph glyph-name="ordfeminine" unicode="&#xaa;" horiz-adv-x="412" 
d="M65 243v38h287v-38h-287zM340 371h-39v53q-42 -59 -124 -59q-50 0 -81.5 23.5t-31.5 68.5q0 81 114 100l121 20v16q0 37 -25 54.5t-66 17.5t-66 -16t-25 -43h-42q0 48 39 73.5t94 25.5q58 0 95 -27.5t37 -82.5v-224zM177 404q51 0 86.5 29t35.5 81v25l-120 -20
q-73 -12 -73 -62q0 -24 18.5 -38.5t52.5 -14.5z" />
    <glyph glyph-name="guillemotleft" unicode="&#xab;" horiz-adv-x="476" 
d="M109 234l121 -200h-44l-130 200l130 200h44zM287 234l121 -200h-44l-130 200l130 200h44z" />
    <glyph glyph-name="logicalnot" unicode="&#xac;" horiz-adv-x="650" 
d="M85 302v41h455v-273h-41v232h-414z" />
    <glyph glyph-name="uni00AD" unicode="&#xad;" horiz-adv-x="378" 
d="M62 244v42h255v-42h-255z" />
    <glyph glyph-name="registered" unicode="&#xae;" horiz-adv-x="567" 
d="M55 477q0 95 67 162t161 67q95 0 162 -67t67 -162q0 -94 -67 -161t-162 -67t-161.5 66.5t-66.5 161.5zM89 477q0 -82 56 -139t138 -57q81 0 138 57t57 139t-57 139.5t-138 57.5t-137.5 -57.5t-56.5 -139.5zM199 364v237h93q43 0 67 -18.5t24 -53.5q0 -52 -51 -67l60 -98
h-40l-55 91h-62v-91h-36zM345 529q0 41 -54 41h-56v-84h56q54 0 54 43z" />
    <glyph glyph-name="macron" unicode="&#xaf;" horiz-adv-x="370" 
d="M315 611h-260v40h260v-40z" />
    <glyph glyph-name="degree" unicode="&#xb0;" horiz-adv-x="390" 
d="M59 569q0 58 38.5 97t97.5 39t97.5 -39t38.5 -97q0 -57 -38.5 -96t-97.5 -39t-97.5 39t-38.5 96zM101 569q0 -42 27.5 -69.5t66.5 -27.5t66.5 27.5t27.5 69.5t-27.5 70t-66.5 28t-66.5 -28t-27.5 -70z" />
    <glyph glyph-name="plusminus" unicode="&#xb1;" horiz-adv-x="650" 
d="M72 370v41h232v204h41v-204h233v-41h-233v-206h-41v206h-232zM72 0v41h506v-41h-506z" />
    <glyph glyph-name="twosuperior" unicode="&#xb2;" horiz-adv-x="326" 
d="M292 320h-242v36l142 143q30 31 42 51t12 46q0 31 -22 50.5t-56 19.5q-39 0 -62 -24t-23 -59h-39q0 49 34 83.5t90 34.5q54 0 85 -30t31 -75q0 -33 -13.5 -59t-45.5 -57l-125 -124h192v-36z" />
    <glyph glyph-name="threesuperior" unicode="&#xb3;" horiz-adv-x="341" 
d="M173 313q-60 0 -96.5 30t-36.5 83h39q0 -35 26 -56.5t68 -21.5t64.5 20t22.5 55q0 33 -25.5 51.5t-74.5 18.5h-15v38h15q44 0 65.5 19t21.5 49t-22.5 48.5t-56.5 18.5q-38 0 -61.5 -22t-23.5 -60h-39q0 52 34 84.5t90 32.5q54 0 85.5 -29.5t31.5 -72.5q0 -60 -54 -84
q32 -11 49.5 -36t17.5 -56q0 -51 -33 -80.5t-92 -29.5z" />
    <glyph glyph-name="acute" unicode="&#xb4;" horiz-adv-x="283" 
d="M178 694h68l-102 -136h-40z" />
    <glyph glyph-name="mu" unicode="&#xb5;" horiz-adv-x="577" 
d="M433 488h42v-488h-41v89q-23 -45 -64.5 -71t-95.5 -26q-89 0 -130 59v-226h-42v663h42v-293q0 -162 133 -162q70 0 113 55t43 126v274z" />
    <glyph glyph-name="paragraph" unicode="&#xb6;" horiz-adv-x="598" 
d="M52 484q0 210 250 210h69v-694h-44v274h-25q-250 0 -250 210zM451 0v694h44v-694h-44z" />
    <glyph glyph-name="periodcentered" unicode="&#xb7;" horiz-adv-x="252" 
d="M85 228v82h82v-82h-82z" />
    <glyph glyph-name="cedilla" unicode="&#xb8;" horiz-adv-x="318" 
d="M255 -106q0 -35 -29.5 -53t-74.5 -18q-42 0 -75 11v37q33 -13 76 -13q65 0 65 36q0 32 -55 32q-22 0 -49 -10l-16 25l51 70h30l-34 -58q8 2 29 2q36 0 59 -15.5t23 -45.5z" />
    <glyph glyph-name="onesuperior" unicode="&#xb9;" horiz-adv-x="272" 
d="M178 320h-36v332l-102 -66v41l103 67h35v-374z" />
    <glyph glyph-name="ordmasculine" unicode="&#xba;" horiz-adv-x="409" 
d="M64 243v38h287v-38h-287zM205 365q-67 0 -112 47t-45 123t45 123t112 47t112 -47t45 -123t-45 -123t-112 -47zM205 405q54 0 84 36.5t30 93.5t-30 93.5t-84 36.5t-84 -36.5t-30 -93.5t30 -93.5t84 -36.5z" />
    <glyph glyph-name="guillemotright" unicode="&#xbb;" horiz-adv-x="476" 
d="M246 34l121 200l-121 200h44l130 -200l-130 -200h-44zM68 34l121 200l-121 200h44l130 -200l-130 -200h-44z" />
    <glyph glyph-name="onequarter" unicode="&#xbc;" horiz-adv-x="732" 
d="M637 0h-36v84h-194v37l184 253h46v-254h60v-36h-60v-84zM601 120v209l-153 -209h153zM75 0l526 694h46l-526 -694h-46zM168 320h-36v332l-102 -66v41l103 67h35v-374z" />
    <glyph glyph-name="onehalf" unicode="&#xbd;" horiz-adv-x="762" 
d="M728 0h-242v36l142 143q30 31 42 51t12 46q0 31 -22 50.5t-56 19.5q-39 0 -62 -24t-23 -59h-39q0 49 34 83.5t90 34.5q54 0 85 -30t31 -75q0 -33 -13.5 -59t-45.5 -57l-125 -124h192v-36zM75 0l526 694h46l-526 -694h-46zM168 320h-36v332l-102 -66v41l103 67h35v-374z
" />
    <glyph glyph-name="threequarters" unicode="&#xbe;" horiz-adv-x="805" 
d="M710 0h-36v84h-194v37l184 253h46v-254h60v-36h-60v-84zM674 120v209l-153 -209h153zM173 313q-60 0 -96.5 30t-36.5 83h39q0 -35 26 -56.5t68 -21.5t64.5 20t22.5 55q0 33 -25.5 51.5t-74.5 18.5h-15v38h15q44 0 65.5 19t21.5 49t-22.5 48.5t-56.5 18.5q-38 0 -61.5 -22
t-23.5 -60h-39q0 52 34 84.5t90 32.5q54 0 85.5 -29.5t31.5 -72.5q0 -60 -54 -84q32 -11 49.5 -36t17.5 -56q0 -51 -33 -80.5t-92 -29.5zM147 0l526 694h46l-526 -694h-46z" />
    <glyph glyph-name="questiondown" unicode="&#xbf;" horiz-adv-x="464" 
d="M32 -43q0 43 20 78.5t48.5 59t57 46t48.5 51t20 61.5v18h38v-15q0 -42 -19.5 -76t-46.5 -56.5t-54.5 -44.5t-47 -53t-19.5 -70q0 -53 40 -91.5t111 -38.5q73 0 112.5 39.5t43.5 108.5h45q-2 -82 -56.5 -136.5t-144.5 -54.5q-84 0 -140 50t-56 124zM285 488v-82h-82v82h82
z" />
    <glyph glyph-name="Agrave" unicode="&#xc0;" horiz-adv-x="701" 
d="M620 0l-97 229h-348l-96 -229h-47l292 694h51l294 -694h-49zM349 642l-156 -371h312zM223 885h68l74 -136h-40z" />
    <glyph glyph-name="Aacute" unicode="&#xc1;" horiz-adv-x="701" 
d="M620 0l-97 229h-348l-96 -229h-47l292 694h51l294 -694h-49zM349 642l-156 -371h312zM404 885h68l-102 -136h-40z" />
    <glyph glyph-name="Acircumflex" unicode="&#xc2;" horiz-adv-x="701" 
d="M620 0l-97 229h-348l-96 -229h-47l292 694h51l294 -694h-49zM349 642l-156 -371h312zM322 885h51l105 -136h-47l-84 92l-84 -92h-47z" />
    <glyph glyph-name="Atilde" unicode="&#xc3;" horiz-adv-x="701" 
d="M620 0l-97 229h-348l-96 -229h-47l292 694h51l294 -694h-49zM349 642l-156 -371h312zM414 754q-30 0 -73.5 34.5t-59.5 34.5q-38 0 -38 -65h-39q0 105 77 105q30 0 74 -34.5t60 -34.5q38 0 38 65h38q0 -105 -77 -105z" />
    <glyph glyph-name="Adieresis" unicode="&#xc4;" horiz-adv-x="701" 
d="M620 0l-97 229h-348l-96 -229h-47l292 694h51l294 -694h-49zM349 642l-156 -371h312zM225 769v67h67v-67h-67zM402 769v67h67v-67h-67z" />
    <glyph glyph-name="Aring" unicode="&#xc5;" horiz-adv-x="701" 
d="M252 748q0 39 28 66.5t69 27.5t69 -27.5t28 -66.5q0 -29 -15.5 -52t-41.5 -34l280 -662h-49l-97 229h-348l-96 -229h-47l278 661q-27 11 -42.5 34.5t-15.5 52.5zM349 642l-156 -371h312zM289 748q0 -25 17.5 -42t42.5 -17t42.5 17t17.5 42t-17.5 42t-42.5 17t-42.5 -17
t-17.5 -42z" />
    <glyph glyph-name="AE" unicode="&#xc6;" horiz-adv-x="1043" 
d="M981 0h-472v229h-301l-166 -229h-53l506 694h482v-42h-424v-274h388v-42h-388v-294h428v-42zM509 271v371l-270 -371h270z" />
    <glyph glyph-name="Ccedilla" unicode="&#xc7;" horiz-adv-x="710" 
d="M439 -106q0 -35 -29.5 -53t-74.5 -18q-42 0 -75 11v37q32 -13 76 -13q65 0 65 36q0 32 -55 32q-22 0 -49 -10l-16 25l38 53q-117 19 -189 114.5t-72 238.5q0 160 89 259t228 99q111 0 185.5 -66t93.5 -171h-49q-18 91 -82 142.5t-148 51.5q-117 0 -194 -85.5t-77 -229.5
t77 -229.5t194 -85.5q84 0 148 51.5t82 142.5h49q-19 -105 -93.5 -171t-185.5 -66q-5 0 -13 0.5t-13 0.5l-21 -37q8 2 29 2q36 0 59 -15.5t23 -45.5z" />
    <glyph glyph-name="Egrave" unicode="&#xc8;" horiz-adv-x="637" 
d="M103 0v694h468v-42h-424v-274h388v-42h-388v-294h428v-42h-472zM212 885h68l74 -136h-40z" />
    <glyph glyph-name="Eacute" unicode="&#xc9;" horiz-adv-x="637" 
d="M393 885h68l-102 -136h-40zM103 0v694h468v-42h-424v-274h388v-42h-388v-294h428v-42h-472z" />
    <glyph glyph-name="Ecircumflex" unicode="&#xca;" horiz-adv-x="637" 
d="M311 885h51l105 -136h-47l-84 92l-84 -92h-47zM103 0v694h468v-42h-424v-274h388v-42h-388v-294h428v-42h-472z" />
    <glyph glyph-name="Edieresis" unicode="&#xcb;" horiz-adv-x="637" 
d="M213 769v67h67v-67h-67zM390 769v67h67v-67h-67zM103 0v694h468v-42h-424v-274h388v-42h-388v-294h428v-42h-472z" />
    <glyph glyph-name="Igrave" unicode="&#xcc;" horiz-adv-x="250" 
d="M103 0v694h44v-694h-44zM1 885h68l74 -136h-40z" />
    <glyph glyph-name="Iacute" unicode="&#xcd;" horiz-adv-x="250" 
d="M103 0v694h44v-694h-44zM181 885h68l-102 -136h-40z" />
    <glyph glyph-name="Icircumflex" unicode="&#xce;" horiz-adv-x="250" 
d="M103 0v694h44v-694h-44zM100 885h51l105 -136h-47l-84 92l-84 -92h-47z" />
    <glyph glyph-name="Idieresis" unicode="&#xcf;" horiz-adv-x="250" 
d="M103 0v694h44v-694h-44zM3 769v67h67v-67h-67zM180 769v67h67v-67h-67z" />
    <glyph glyph-name="Eth" unicode="&#xd0;" horiz-adv-x="736" 
d="M677 347q0 -156 -90 -251.5t-235 -95.5h-231v327h-83v39h83v328h231q145 0 235 -96t90 -251zM631 347q0 132 -75 218.5t-207 86.5h-184v-286h172v-39h-172v-285h184q132 0 207 86.5t75 218.5z" />
    <glyph glyph-name="Ntilde" unicode="&#xd1;" horiz-adv-x="742" 
d="M641 694v-694h-61l-433 637v-637h-44v694h61l433 -637v637h44zM437 754q-30 0 -73.5 34.5t-59.5 34.5q-38 0 -38 -65h-39q0 105 77 105q30 0 74 -34.5t60 -34.5q38 0 38 65h38q0 -105 -77 -105z" />
    <glyph glyph-name="Ograve" unicode="&#xd2;" horiz-adv-x="758" 
d="M700 347q0 -160 -90 -259t-231 -99t-231 99t-90 259t90 259t231 99t231 -99t90 -259zM654 347q0 147 -78.5 231t-196.5 84t-196.5 -84t-78.5 -231t78.5 -231t196.5 -84t196.5 84t78.5 231zM254 885h68l74 -136h-40z" />
    <glyph glyph-name="Oacute" unicode="&#xd3;" horiz-adv-x="758" 
d="M435 885h68l-102 -136h-40zM700 347q0 -160 -90 -259t-231 -99t-231 99t-90 259t90 259t231 99t231 -99t90 -259zM654 347q0 147 -78.5 231t-196.5 84t-196.5 -84t-78.5 -231t78.5 -231t196.5 -84t196.5 84t78.5 231z" />
    <glyph glyph-name="Ocircumflex" unicode="&#xd4;" horiz-adv-x="758" 
d="M353 885h51l105 -136h-47l-84 92l-84 -92h-47zM700 347q0 -160 -90 -259t-231 -99t-231 99t-90 259t90 259t231 99t231 -99t90 -259zM654 347q0 147 -78.5 231t-196.5 84t-196.5 -84t-78.5 -231t78.5 -231t196.5 -84t196.5 84t78.5 231z" />
    <glyph glyph-name="Otilde" unicode="&#xd5;" horiz-adv-x="758" 
d="M700 347q0 -160 -90 -259t-231 -99t-231 99t-90 259t90 259t231 99t231 -99t90 -259zM654 347q0 147 -78.5 231t-196.5 84t-196.5 -84t-78.5 -231t78.5 -231t196.5 -84t196.5 84t78.5 231zM445 754q-30 0 -73.5 34.5t-59.5 34.5q-38 0 -38 -65h-39q0 105 77 105
q30 0 74 -34.5t60 -34.5q38 0 38 65h38q0 -105 -77 -105z" />
    <glyph glyph-name="Odieresis" unicode="&#xd6;" horiz-adv-x="758" 
d="M256 769v67h67v-67h-67zM433 769v67h67v-67h-67zM700 347q0 -160 -90 -259t-231 -99t-231 99t-90 259t90 259t231 99t231 -99t90 -259zM654 347q0 147 -78.5 231t-196.5 84t-196.5 -84t-78.5 -231t78.5 -231t196.5 -84t196.5 84t78.5 231z" />
    <glyph glyph-name="multiply" unicode="&#xd7;" horiz-adv-x="650" 
d="M149 113l-29 29l175 180l-175 181l29 29l175 -180l176 181l29 -29l-177 -182l177 -181l-29 -29l-176 181z" />
    <glyph glyph-name="Oslash" unicode="&#xd8;" horiz-adv-x="768" 
d="M384 -11q-119 0 -204 72l-60 -75h-53l84 104q-88 99 -88 257q0 160 90 259t231 99q118 0 203 -72l60 75h54l-84 -105q88 -99 88 -256q0 -160 -90 -259t-231 -99zM659 347q0 135 -71 221l-380 -472q73 -64 176 -64q118 0 196.5 84t78.5 231zM109 347q0 -135 70 -221
l380 472q-73 64 -175 64q-118 0 -196.5 -84t-78.5 -231z" />
    <glyph glyph-name="Ugrave" unicode="&#xd9;" horiz-adv-x="688" 
d="M344 -11q-114 0 -187 69t-73 197v439h44v-437q0 -105 59 -166t157 -61t157 61t59 166v437h44v-439q0 -128 -73 -197t-187 -69zM218 885h68l74 -136h-40z" />
    <glyph glyph-name="Uacute" unicode="&#xda;" horiz-adv-x="688" 
d="M399 885h68l-102 -136h-40zM344 -11q-114 0 -187 69t-73 197v439h44v-437q0 -105 59 -166t157 -61t157 61t59 166v437h44v-439q0 -128 -73 -197t-187 -69z" />
    <glyph glyph-name="Ucircumflex" unicode="&#xdb;" horiz-adv-x="688" 
d="M317 885h51l105 -136h-47l-84 92l-84 -92h-47zM344 -11q-114 0 -187 69t-73 197v439h44v-437q0 -105 59 -166t157 -61t157 61t59 166v437h44v-439q0 -128 -73 -197t-187 -69z" />
    <glyph glyph-name="Udieresis" unicode="&#xdc;" horiz-adv-x="688" 
d="M220 769v67h67v-67h-67zM397 769v67h67v-67h-67zM344 -11q-114 0 -187 69t-73 197v439h44v-437q0 -105 59 -166t157 -61t157 61t59 166v437h44v-439q0 -128 -73 -197t-187 -69z" />
    <glyph glyph-name="Yacute" unicode="&#xdd;" horiz-adv-x="620" 
d="M288 0v273l-276 421h53l245 -380l246 380h52l-276 -421v-273h-44zM361 885h68l-102 -136h-40z" />
    <glyph glyph-name="Thorn" unicode="&#xde;" horiz-adv-x="636" 
d="M592 347q0 -96 -60.5 -148t-176.5 -52h-208v-147h-44v694h44v-147h208q116 0 176.5 -52t60.5 -148zM546 347q0 158 -190 158h-209v-316h209q190 0 190 158z" />
    <glyph glyph-name="germandbls" unicode="&#xdf;" horiz-adv-x="570" 
d="M275 9v42q46 -21 101 -21q53 0 89.5 28.5t36.5 71.5q0 39 -16.5 61.5t-64.5 52.5l-57 36q-36 23 -50 40.5t-14 45.5q0 20 12.5 39.5t31 36t36.5 33.5t30.5 38.5t12.5 44.5q0 47 -35 74.5t-92 27.5q-61 0 -98 -32.5t-37 -101.5v-526h-42v448h-85v40h85v44q0 79 48.5 124.5
t128.5 45.5q88 0 129.5 -43t41.5 -101q0 -34 -19 -64.5t-42.5 -49t-42.5 -39t-19 -37.5q0 -22 39 -48l73 -47q48 -30 69 -61t21 -82q0 -59 -46 -98.5t-123 -39.5q-59 0 -102 17z" />
    <glyph glyph-name="agrave" unicode="&#xe0;" horiz-adv-x="530" 
d="M443 0h-41v92q-26 -52 -79 -76t-109 -24q-66 0 -111 33.5t-45 99.5q0 114 154 142l191 33v37q0 59 -40 88.5t-108 29.5q-59 0 -95 -26t-42 -75h-45q7 73 60 107.5t122 34.5q82 0 135 -37t53 -114v-345zM217 32q76 0 131 48.5t55 134.5v44l-190 -33q-110 -19 -110 -103
q0 -40 30.5 -65.5t83.5 -25.5zM153 694h68l74 -136h-40z" />
    <glyph glyph-name="aacute" unicode="&#xe1;" horiz-adv-x="530" 
d="M443 0h-41v92q-26 -52 -79 -76t-109 -24q-66 0 -111 33.5t-45 99.5q0 114 154 142l191 33v37q0 59 -40 88.5t-108 29.5q-59 0 -95 -26t-42 -75h-45q7 73 60 107.5t122 34.5q82 0 135 -37t53 -114v-345zM217 32q76 0 131 48.5t55 134.5v44l-190 -33q-110 -19 -110 -103
q0 -40 30.5 -65.5t83.5 -25.5zM324 694h68l-102 -136h-40z" />
    <glyph glyph-name="acircumflex" unicode="&#xe2;" horiz-adv-x="530" 
d="M443 0h-41v92q-26 -52 -79 -76t-109 -24q-66 0 -111 33.5t-45 99.5q0 114 154 142l191 33v37q0 59 -40 88.5t-108 29.5q-59 0 -95 -26t-42 -75h-45q7 73 60 107.5t122 34.5q82 0 135 -37t53 -114v-345zM217 32q76 0 131 48.5t55 134.5v44l-190 -33q-110 -19 -110 -103
q0 -40 30.5 -65.5t83.5 -25.5zM242 694h51l105 -136h-47l-84 92l-84 -92h-47z" />
    <glyph glyph-name="atilde" unicode="&#xe3;" horiz-adv-x="530" 
d="M443 0h-41v92q-26 -52 -79 -76t-109 -24q-66 0 -111 33.5t-45 99.5q0 114 154 142l191 33v37q0 59 -40 88.5t-108 29.5q-59 0 -95 -26t-42 -75h-45q7 73 60 107.5t122 34.5q82 0 135 -37t53 -114v-345zM217 32q76 0 131 48.5t55 134.5v44l-190 -33q-110 -19 -110 -103
q0 -40 30.5 -65.5t83.5 -25.5zM334 576q-30 0 -73.5 34.5t-59.5 34.5q-38 0 -38 -65h-39q0 105 77 105q30 0 74 -34.5t60 -34.5q38 0 38 65h38q0 -105 -77 -105z" />
    <glyph glyph-name="adieresis" unicode="&#xe4;" horiz-adv-x="530" 
d="M443 0h-41v92q-26 -52 -79 -76t-109 -24q-66 0 -111 33.5t-45 99.5q0 114 154 142l191 33v37q0 59 -40 88.5t-108 29.5q-59 0 -95 -26t-42 -75h-45q7 73 60 107.5t122 34.5q82 0 135 -37t53 -114v-345zM217 32q76 0 131 48.5t55 134.5v44l-190 -33q-110 -19 -110 -103
q0 -40 30.5 -65.5t83.5 -25.5zM144 591v67h67v-67h-67zM321 591v67h67v-67h-67z" />
    <glyph glyph-name="aring" unicode="&#xe5;" horiz-adv-x="530" 
d="M443 0h-41v92q-26 -52 -79 -76t-109 -24q-66 0 -111 33.5t-45 99.5q0 114 154 142l191 33v37q0 59 -40 88.5t-108 29.5q-59 0 -95 -26t-42 -75h-45q7 73 60 107.5t122 34.5q82 0 135 -37t53 -114v-345zM217 32q76 0 131 48.5t55 134.5v44l-190 -33q-110 -19 -110 -103
q0 -40 30.5 -65.5t83.5 -25.5zM170 645q0 39 28 66.5t69 27.5t69 -27.5t28 -66.5t-28 -66.5t-69 -27.5t-69 27.5t-28 66.5zM207 645q0 -25 17.5 -42t42.5 -17t42.5 17t17.5 42t-17.5 42t-42.5 17t-42.5 -17t-17.5 -42z" />
    <glyph glyph-name="ae" unicode="&#xe6;" horiz-adv-x="883" 
d="M238 271h165v65q0 61 -40 90t-105 29q-128 0 -140 -101h-45q7 73 60.5 107.5t125.5 34.5q65 0 112.5 -26t63.5 -79q27 50 75.5 77.5t107.5 27.5q88 0 147.5 -63t59.5 -185q0 -10 -1 -18h-379q2 -83 48 -139t123 -56q125 0 155 108h45q-14 -74 -68.5 -112.5t-128.5 -38.5
q-66 0 -117 33.5t-78 96.5q-27 -64 -80.5 -97t-122.5 -33q-73 0 -118 35t-45 100q0 66 47 105t133 39zM445 271h335q-3 88 -48 135.5t-114 47.5q-71 0 -118 -47t-55 -136zM403 213v17h-164q-136 0 -136 -103q0 -42 31 -68t87 -26q74 0 128 48t54 132z" />
    <glyph glyph-name="ccedilla" unicode="&#xe7;" horiz-adv-x="530" 
d="M355 -106q0 -35 -29.5 -53t-74.5 -18q-42 0 -75 11v37q32 -13 76 -13q65 0 65 36q0 32 -55 32q-22 0 -49 -10l-16 25l39 55q-81 13 -131 79t-50 169q0 116 62 184t159 68q79 0 133.5 -46t65.5 -120h-46q-9 58 -52 90.5t-101 32.5q-85 0 -130.5 -58.5t-45.5 -150.5
t45.5 -150.5t130.5 -58.5q58 0 101 32.5t52 90.5h46q-11 -74 -65.5 -120t-133.5 -46h-9l-23 -39q8 2 29 2q36 0 59 -15.5t23 -45.5z" />
    <glyph glyph-name="egrave" unicode="&#xe8;" horiz-adv-x="540" 
d="M55 245q0 115 61.5 183t156.5 68q88 0 147.5 -63t59.5 -185q0 -9 -1 -17h-379q2 -83 48 -139.5t123 -56.5q125 0 155 108h45q-14 -74 -68.5 -112.5t-128.5 -38.5q-95 0 -157 68.5t-62 184.5zM100 271h335q-3 88 -48 135.5t-114 47.5q-71 0 -118 -47t-55 -136zM148 694h68
l74 -136h-40z" />
    <glyph glyph-name="eacute" unicode="&#xe9;" horiz-adv-x="540" 
d="M329 694h68l-102 -136h-40zM55 245q0 115 61.5 183t156.5 68q88 0 147.5 -63t59.5 -185q0 -9 -1 -17h-379q2 -83 48 -139.5t123 -56.5q125 0 155 108h45q-14 -74 -68.5 -112.5t-128.5 -38.5q-95 0 -157 68.5t-62 184.5zM100 271h335q-3 88 -48 135.5t-114 47.5
q-71 0 -118 -47t-55 -136z" />
    <glyph glyph-name="ecircumflex" unicode="&#xea;" horiz-adv-x="540" 
d="M247 694h51l105 -136h-47l-84 92l-84 -92h-47zM55 245q0 115 61.5 183t156.5 68q88 0 147.5 -63t59.5 -185q0 -9 -1 -17h-379q2 -83 48 -139.5t123 -56.5q125 0 155 108h45q-14 -74 -68.5 -112.5t-128.5 -38.5q-95 0 -157 68.5t-62 184.5zM100 271h335q-3 88 -48 135.5
t-114 47.5q-71 0 -118 -47t-55 -136z" />
    <glyph glyph-name="edieresis" unicode="&#xeb;" horiz-adv-x="540" 
d="M150 591v67h67v-67h-67zM327 591v67h67v-67h-67zM55 245q0 115 61.5 183t156.5 68q88 0 147.5 -63t59.5 -185q0 -9 -1 -17h-379q2 -83 48 -139.5t123 -56.5q125 0 155 108h45q-14 -74 -68.5 -112.5t-128.5 -38.5q-95 0 -157 68.5t-62 184.5zM100 271h335q-3 88 -48 135.5
t-114 47.5q-71 0 -118 -47t-55 -136z" />
    <glyph glyph-name="igrave" unicode="&#xec;" horiz-adv-x="228" 
d="M93 488h42v-488h-42v488zM-9 694h68l74 -136h-40z" />
    <glyph glyph-name="iacute" unicode="&#xed;" horiz-adv-x="228" 
d="M172 694h68l-102 -136h-40zM93 488h42v-488h-42v488z" />
    <glyph glyph-name="icircumflex" unicode="&#xee;" horiz-adv-x="228" 
d="M90 694h51l105 -136h-47l-84 92l-84 -92h-47zM93 488h42v-488h-42v488z" />
    <glyph glyph-name="idieresis" unicode="&#xef;" horiz-adv-x="228" 
d="M-8 591v67h67v-67h-67zM169 591v67h67v-67h-67zM93 488h42v-488h-42v488z" />
    <glyph glyph-name="eth" unicode="&#xf0;" horiz-adv-x="552" 
d="M201 552l-11 36l90 26q-51 46 -104 80h64q36 -22 84 -67l116 34l11 -36l-97 -29q144 -157 144 -353q0 -104 -58.5 -177.5t-162.5 -73.5q-97 0 -159 68.5t-62 182.5q0 116 62.5 184.5t154.5 68.5q81 0 140 -59q-38 80 -102 147zM101 243q0 -93 47 -150.5t129 -57.5
t129 57.5t47 150.5q0 94 -46.5 152t-129.5 58t-129.5 -58t-46.5 -152z" />
    <glyph glyph-name="ntilde" unicode="&#xf1;" horiz-adv-x="560" 
d="M135 0h-42v488h41v-89q23 45 65 71t96 26q80 0 129.5 -52t49.5 -150v-294h-42v293q0 82 -37.5 122t-100.5 40q-67 0 -113 -51.5t-46 -116.5v-287zM350 576q-30 0 -73.5 34.5t-59.5 34.5q-38 0 -38 -65h-39q0 105 77 105q30 0 74 -34.5t60 -34.5q38 0 38 65h38
q0 -105 -77 -105z" />
    <glyph glyph-name="ograve" unicode="&#xf2;" horiz-adv-x="553" 
d="M276 -8q-97 0 -159 69t-62 183t62 183t159 69t159 -69.5t62 -182.5t-62 -182.5t-159 -69.5zM276 35q82 0 129 58t47 151t-47 151t-129 58t-129 -58t-47 -151t47 -151t129 -58zM152 694h68l74 -136h-40z" />
    <glyph glyph-name="oacute" unicode="&#xf3;" horiz-adv-x="553" 
d="M333 694h68l-102 -136h-40zM276 -8q-97 0 -159 69t-62 183t62 183t159 69t159 -69.5t62 -182.5t-62 -182.5t-159 -69.5zM276 35q82 0 129 58t47 151t-47 151t-129 58t-129 -58t-47 -151t47 -151t129 -58z" />
    <glyph glyph-name="ocircumflex" unicode="&#xf4;" horiz-adv-x="553" 
d="M251 694h51l105 -136h-47l-84 92l-84 -92h-47zM276 -8q-97 0 -159 69t-62 183t62 183t159 69t159 -69.5t62 -182.5t-62 -182.5t-159 -69.5zM276 35q82 0 129 58t47 151t-47 151t-129 58t-129 -58t-47 -151t47 -151t129 -58z" />
    <glyph glyph-name="otilde" unicode="&#xf5;" horiz-adv-x="553" 
d="M276 -8q-97 0 -159 69t-62 183t62 183t159 69t159 -69.5t62 -182.5t-62 -182.5t-159 -69.5zM276 35q82 0 129 58t47 151t-47 151t-129 58t-129 -58t-47 -151t47 -151t129 -58zM343 576q-30 0 -73.5 34.5t-59.5 34.5q-38 0 -38 -65h-39q0 105 77 105q30 0 74 -34.5
t60 -34.5q38 0 38 65h38q0 -105 -77 -105z" />
    <glyph glyph-name="odieresis" unicode="&#xf6;" horiz-adv-x="553" 
d="M154 591v67h67v-67h-67zM331 591v67h67v-67h-67zM276 -8q-97 0 -159 69t-62 183t62 183t159 69t159 -69.5t62 -182.5t-62 -182.5t-159 -69.5zM276 35q82 0 129 58t47 151t-47 151t-129 58t-129 -58t-47 -151t47 -151t129 -58z" />
    <glyph glyph-name="divide" unicode="&#xf7;" horiz-adv-x="650" 
d="M98 302v40h454v-40h-454zM285 79v81h81v-81h-81zM285 483v81h81v-81h-81z" />
    <glyph glyph-name="oslash" unicode="&#xf8;" horiz-adv-x="564" 
d="M503 244q0 -113 -62 -182.5t-159 -69.5q-85 0 -145 55l-52 -61h-48l75 88q-51 66 -51 170q0 114 62 183t159 69q83 0 142 -53l53 62h50l-77 -90q53 -69 53 -171zM458 244q0 82 -37 137l-256 -301q45 -45 117 -45q82 0 129 58t47 151zM106 244q0 -82 35 -135l255 301
q-46 43 -114 43q-82 0 -129 -58t-47 -151z" />
    <glyph glyph-name="ugrave" unicode="&#xf9;" horiz-adv-x="552" 
d="M417 488h42v-488h-41v89q-23 -45 -64.5 -71t-95.5 -26q-81 0 -126.5 53.5t-45.5 148.5v294h42v-293q0 -162 133 -162q70 0 113 55t43 126v274zM148 694h68l74 -136h-40z" />
    <glyph glyph-name="uacute" unicode="&#xfa;" horiz-adv-x="552" 
d="M329 694h68l-102 -136h-40zM417 488h42v-488h-41v89q-23 -45 -64.5 -71t-95.5 -26q-81 0 -126.5 53.5t-45.5 148.5v294h42v-293q0 -162 133 -162q70 0 113 55t43 126v274z" />
    <glyph glyph-name="ucircumflex" unicode="&#xfb;" horiz-adv-x="552" 
d="M247 694h51l105 -136h-47l-84 92l-84 -92h-47zM417 488h42v-488h-41v89q-23 -45 -64.5 -71t-95.5 -26q-81 0 -126.5 53.5t-45.5 148.5v294h42v-293q0 -162 133 -162q70 0 113 55t43 126v274z" />
    <glyph glyph-name="udieresis" unicode="&#xfc;" horiz-adv-x="552" 
d="M149 591v67h67v-67h-67zM326 591v67h67v-67h-67zM417 488h42v-488h-41v89q-23 -45 -64.5 -71t-95.5 -26q-81 0 -126.5 53.5t-45.5 148.5v294h42v-293q0 -162 133 -162q70 0 113 55t43 126v274z" />
    <glyph glyph-name="yacute" unicode="&#xfd;" horiz-adv-x="481" 
d="M240 -74q-39 -104 -133 -104q-28 0 -52 4v40q23 -4 51 -4q36 0 58.5 18t37.5 56l20 51l-190 501h45l166 -444l166 444h44zM295 694h68l-102 -136h-40z" />
    <glyph glyph-name="thorn" unicode="&#xfe;" horiz-adv-x="578" 
d="M307 496q93 0 154.5 -67.5t61.5 -184.5t-61.5 -184.5t-154.5 -67.5q-118 0 -172 101v-268h-42v869h42v-299q54 101 172 101zM306 453q-81 0 -126.5 -58t-45.5 -151t45.5 -151t126.5 -58t126.5 58t45.5 151t-45.5 151t-126.5 58z" />
    <glyph glyph-name="ydieresis" unicode="&#xff;" horiz-adv-x="481" 
d="M240 -74q-39 -104 -133 -104q-28 0 -52 4v40q23 -4 51 -4q36 0 58.5 18t37.5 56l20 51l-190 501h45l166 -444l166 444h44zM115 591v67h67v-67h-67zM292 591v67h67v-67h-67z" />
    <glyph glyph-name="Amacron" unicode="&#x100;" horiz-adv-x="701" 
d="M620 0l-97 229h-348l-96 -229h-47l292 694h51l294 -694h-49zM349 642l-156 -371h312zM478 789h-260v40h260v-40z" />
    <glyph glyph-name="amacron" unicode="&#x101;" horiz-adv-x="530" 
d="M443 0h-41v92q-26 -52 -79 -76t-109 -24q-66 0 -111 33.5t-45 99.5q0 114 154 142l191 33v37q0 59 -40 88.5t-108 29.5q-59 0 -95 -26t-42 -75h-45q7 73 60 107.5t122 34.5q82 0 135 -37t53 -114v-345zM217 32q76 0 131 48.5t55 134.5v44l-190 -33q-110 -19 -110 -103
q0 -40 30.5 -65.5t83.5 -25.5zM397 611h-260v40h260v-40z" />
    <glyph glyph-name="Abreve" unicode="&#x102;" horiz-adv-x="701" 
d="M620 0l-97 229h-348l-96 -229h-47l292 694h51l294 -694h-49zM349 642l-156 -371h312zM348 744q-56 0 -88 36t-32 92h41q0 -37 20.5 -63t58.5 -26t58.5 26t20.5 63h41q0 -56 -32 -92t-88 -36z" />
    <glyph glyph-name="abreve" unicode="&#x103;" horiz-adv-x="530" 
d="M443 0h-41v92q-26 -52 -79 -76t-109 -24q-66 0 -111 33.5t-45 99.5q0 114 154 142l191 33v37q0 59 -40 88.5t-108 29.5q-59 0 -95 -26t-42 -75h-45q7 73 60 107.5t122 34.5q82 0 135 -37t53 -114v-345zM217 32q76 0 131 48.5t55 134.5v44l-190 -33q-110 -19 -110 -103
q0 -40 30.5 -65.5t83.5 -25.5zM268 564q-56 0 -88 36t-32 92h41q0 -37 20.5 -63t58.5 -26t58.5 26t20.5 63h41q0 -56 -32 -92t-88 -36z" />
    <glyph glyph-name="Aogonek" unicode="&#x104;" horiz-adv-x="701" 
d="M621 -3l-98 232h-348l-96 -229h-47l292 694h51l294 -694q-42 -30 -66 -61t-24 -52q0 -33 42 -33q27 0 54 9v-38q-23 -9 -56 -9q-85 0 -85 67q0 45 87 114zM349 642l-156 -371h312z" />
    <glyph glyph-name="aogonek" unicode="&#x105;" horiz-adv-x="530" 
d="M443 1q-82 -70 -82 -114q0 -33 42 -33q27 0 54 9v-38q-23 -9 -56 -9q-85 0 -85 67q0 49 86 117v92q-26 -52 -79 -76t-109 -24q-66 0 -111 33.5t-45 99.5q0 114 154 142l191 33v37q0 59 -40 88.5t-108 29.5q-59 0 -95 -26t-42 -75h-45q7 73 60 107.5t122 34.5
q82 0 135 -37t53 -114v-344zM217 32q76 0 131 48.5t55 134.5v44l-190 -33q-110 -19 -110 -103q0 -40 30.5 -65.5t83.5 -25.5z" />
    <glyph glyph-name="Cacute" unicode="&#x106;" horiz-adv-x="710" 
d="M430 885h68l-102 -136h-40zM104 347q0 -144 77 -229.5t194 -85.5q84 0 148 51.5t82 142.5h49q-19 -105 -93.5 -171t-185.5 -66q-139 0 -228 99t-89 259t89 259t228 99q111 0 185.5 -66t93.5 -171h-49q-18 91 -82 142.5t-148 51.5q-117 0 -194 -85.5t-77 -229.5z" />
    <glyph glyph-name="cacute" unicode="&#x107;" horiz-adv-x="530" 
d="M333 694h68l-102 -136h-40zM100 244q0 -92 45.5 -150.5t130.5 -58.5q58 0 101 32.5t52 90.5h46q-11 -74 -65.5 -120t-133.5 -46q-97 0 -159 68t-62 184t62 184t159 68q79 0 133.5 -46t65.5 -120h-46q-9 58 -52 90.5t-101 32.5q-85 0 -130.5 -58.5t-45.5 -150.5z" />
    <glyph glyph-name="Ccircumflex" unicode="&#x108;" horiz-adv-x="710" 
d="M348 885h51l105 -136h-47l-84 92l-84 -92h-47zM104 347q0 -144 77 -229.5t194 -85.5q84 0 148 51.5t82 142.5h49q-19 -105 -93.5 -171t-185.5 -66q-139 0 -228 99t-89 259t89 259t228 99q111 0 185.5 -66t93.5 -171h-49q-18 91 -82 142.5t-148 51.5q-117 0 -194 -85.5
t-77 -229.5z" />
    <glyph glyph-name="ccircumflex" unicode="&#x109;" horiz-adv-x="530" 
d="M251 694h51l105 -136h-47l-84 92l-84 -92h-47zM100 244q0 -92 45.5 -150.5t130.5 -58.5q58 0 101 32.5t52 90.5h46q-11 -74 -65.5 -120t-133.5 -46q-97 0 -159 68t-62 184t62 184t159 68q79 0 133.5 -46t65.5 -120h-46q-9 58 -52 90.5t-101 32.5q-85 0 -130.5 -58.5
t-45.5 -150.5z" />
    <glyph glyph-name="Cdotaccent" unicode="&#x10a;" horiz-adv-x="710" 
d="M104 347q0 -144 77 -229.5t194 -85.5q84 0 148 51.5t82 142.5h49q-19 -105 -93.5 -171t-185.5 -66q-139 0 -228 99t-89 259t89 259t228 99q111 0 185.5 -66t93.5 -171h-49q-18 91 -82 142.5t-148 51.5q-117 0 -194 -85.5t-77 -229.5zM346 769v67h67v-67h-67z" />
    <glyph glyph-name="cdotaccent" unicode="&#x10b;" horiz-adv-x="530" 
d="M100 244q0 -92 45.5 -150.5t130.5 -58.5q58 0 101 32.5t52 90.5h46q-11 -74 -65.5 -120t-133.5 -46q-97 0 -159 68t-62 184t62 184t159 68q79 0 133.5 -46t65.5 -120h-46q-9 58 -52 90.5t-101 32.5q-85 0 -130.5 -58.5t-45.5 -150.5zM249 591v67h67v-67h-67z" />
    <glyph glyph-name="Ccaron" unicode="&#x10c;" horiz-adv-x="710" 
d="M398 749h-51l-105 136h47l84 -92l84 92h47zM104 347q0 -144 77 -229.5t194 -85.5q84 0 148 51.5t82 142.5h49q-19 -105 -93.5 -171t-185.5 -66q-139 0 -228 99t-89 259t89 259t228 99q111 0 185.5 -66t93.5 -171h-49q-18 91 -82 142.5t-148 51.5q-117 0 -194 -85.5
t-77 -229.5z" />
    <glyph glyph-name="ccaron" unicode="&#x10d;" horiz-adv-x="530" 
d="M301 558h-51l-105 136h47l84 -92l84 92h47zM100 244q0 -92 45.5 -150.5t130.5 -58.5q58 0 101 32.5t52 90.5h46q-11 -74 -65.5 -120t-133.5 -46q-97 0 -159 68t-62 184t62 184t159 68q79 0 133.5 -46t65.5 -120h-46q-9 58 -52 90.5t-101 32.5q-85 0 -130.5 -58.5
t-45.5 -150.5z" />
    <glyph glyph-name="Dcaron" unicode="&#x10e;" horiz-adv-x="715" 
d="M382 749h-51l-105 136h47l84 -92l84 92h47zM659 347q0 -156 -90 -251.5t-235 -95.5h-231v694h231q145 0 235 -96t90 -251zM613 347q0 132 -75 218.5t-207 86.5h-184v-610h184q132 0 207 86.5t75 218.5z" />
    <glyph glyph-name="dcaron" unicode="&#x10f;" horiz-adv-x="651" 
d="M599 694h56l-60 -168h-34zM272 496q118 0 172 -101v299h42v-694h-41v95q-57 -103 -175 -103q-89 0 -151.5 67.5t-62.5 184.5t61.5 184.5t154.5 67.5zM273 453q-81 0 -126.5 -58t-45.5 -151t45.5 -151t126.5 -58t126.5 58t45.5 151t-45.5 151t-126.5 58z" />
    <glyph glyph-name="Dcroat" unicode="&#x110;" horiz-adv-x="736" 
d="M677 347q0 -156 -90 -251.5t-235 -95.5h-231v327h-83v39h83v328h231q145 0 235 -96t90 -251zM631 347q0 132 -75 218.5t-207 86.5h-184v-286h172v-39h-172v-285h184q132 0 207 86.5t75 218.5z" />
    <glyph glyph-name="dcroat" unicode="&#x111;" horiz-adv-x="591" 
d="M559 557h-73v-557h-41v95q-57 -103 -175 -103q-89 0 -151.5 67.5t-62.5 184.5t61.5 184.5t154.5 67.5q118 0 172 -101v162h-113v38h113v99h42v-99h73v-38zM273 453q-81 0 -126.5 -58t-45.5 -151t45.5 -151t126.5 -58t126.5 58t45.5 151t-45.5 151t-126.5 58z" />
    <glyph glyph-name="Emacron" unicode="&#x112;" horiz-adv-x="637" 
d="M103 0v694h468v-42h-424v-274h388v-42h-388v-294h428v-42h-472zM466 789h-260v40h260v-40z" />
    <glyph glyph-name="emacron" unicode="&#x113;" horiz-adv-x="540" 
d="M55 245q0 115 61.5 183t156.5 68q88 0 147.5 -63t59.5 -185q0 -9 -1 -17h-379q2 -83 48 -139.5t123 -56.5q125 0 155 108h45q-14 -74 -68.5 -112.5t-128.5 -38.5q-95 0 -157 68.5t-62 184.5zM100 271h335q-3 88 -48 135.5t-114 47.5q-71 0 -118 -47t-55 -136zM402 611
h-260v40h260v-40z" />
    <glyph glyph-name="Ebreve" unicode="&#x114;" horiz-adv-x="637" 
d="M103 0v694h468v-42h-424v-274h388v-42h-388v-294h428v-42h-472zM337 744q-56 0 -88 36t-32 92h41q0 -37 20.5 -63t58.5 -26t58.5 26t20.5 63h41q0 -56 -32 -92t-88 -36z" />
    <glyph glyph-name="ebreve" unicode="&#x115;" horiz-adv-x="540" 
d="M55 245q0 115 61.5 183t156.5 68q88 0 147.5 -63t59.5 -185q0 -9 -1 -17h-379q2 -83 48 -139.5t123 -56.5q125 0 155 108h45q-14 -74 -68.5 -112.5t-128.5 -38.5q-95 0 -157 68.5t-62 184.5zM100 271h335q-3 88 -48 135.5t-114 47.5q-71 0 -118 -47t-55 -136zM273 566
q-56 0 -88 36t-32 92h41q0 -37 20.5 -63t58.5 -26t58.5 26t20.5 63h41q0 -56 -32 -92t-88 -36z" />
    <glyph glyph-name="Edotaccent" unicode="&#x116;" horiz-adv-x="637" 
d="M103 0v694h468v-42h-424v-274h388v-42h-388v-294h428v-42h-472zM308 769v67h67v-67h-67z" />
    <glyph glyph-name="edotaccent" unicode="&#x117;" horiz-adv-x="540" 
d="M55 245q0 115 61.5 183t156.5 68q88 0 147.5 -63t59.5 -185q0 -9 -1 -17h-379q2 -83 48 -139.5t123 -56.5q125 0 155 108h45q-14 -74 -68.5 -112.5t-128.5 -38.5q-95 0 -157 68.5t-62 184.5zM100 271h335q-3 88 -48 135.5t-114 47.5q-71 0 -118 -47t-55 -136zM245 591v67
h67v-67h-67z" />
    <glyph glyph-name="Eogonek" unicode="&#x118;" horiz-adv-x="637" 
d="M103 0v694h468v-42h-424v-274h388v-42h-388v-294h428v-42q-79 -71 -79 -113q0 -33 42 -33q27 0 54 9v-38q-23 -9 -56 -9q-85 0 -85 67q0 49 86 117h-434z" />
    <glyph glyph-name="eogonek" unicode="&#x119;" horiz-adv-x="540" 
d="M55 245q0 115 61.5 183t156.5 68q88 0 147.5 -63t59.5 -185q0 -10 -1 -18h-379q2 -83 48 -139t123 -56q125 0 155 108h45q-3 -13 -6.5 -25t-9.5 -23t-10 -19t-12 -17.5t-12 -14.5t-14 -14t-12 -11t-13 -11l-10 -8q-83 -68 -83 -113q0 -33 42 -33q27 0 54 9v-38
q-23 -9 -56 -9q-85 0 -85 67q0 48 82 114q-28 -5 -52 -5q-95 0 -157 68.5t-62 184.5zM100 271h335q-3 88 -48 135.5t-114 47.5q-71 0 -118 -47t-55 -136z" />
    <glyph glyph-name="Ecaron" unicode="&#x11a;" horiz-adv-x="637" 
d="M361 749h-51l-105 136h47l84 -92l84 92h47zM103 0v694h468v-42h-424v-274h388v-42h-388v-294h428v-42h-472z" />
    <glyph glyph-name="ecaron" unicode="&#x11b;" horiz-adv-x="540" 
d="M297 558h-51l-105 136h47l84 -92l84 92h47zM55 245q0 115 61.5 183t156.5 68q88 0 147.5 -63t59.5 -185q0 -9 -1 -17h-379q2 -83 48 -139.5t123 -56.5q125 0 155 108h45q-14 -74 -68.5 -112.5t-128.5 -38.5q-95 0 -157 68.5t-62 184.5zM100 271h335q-3 88 -48 135.5
t-114 47.5q-71 0 -118 -47t-55 -136z" />
    <glyph glyph-name="Gcircumflex" unicode="&#x11c;" horiz-adv-x="752" 
d="M348 885h51l105 -136h-47l-84 92l-84 -92h-47zM380 296v44h281v-340h-38v143q-31 -71 -96.5 -112.5t-149.5 -41.5q-139 0 -229 99t-90 259t89 259t228 99q111 0 185.5 -66t93.5 -171h-49q-18 91 -82 142.5t-148 51.5q-117 0 -194 -85.5t-77 -229.5t78 -230t195 -86
q45 0 86.5 15t76.5 45t56.5 83t22.5 122h-239z" />
    <glyph glyph-name="gcircumflex" unicode="&#x11d;" horiz-adv-x="566" 
d="M267 694h51l105 -136h-47l-84 92l-84 -92h-47zM473 488v-483q0 -91 -56 -140t-150 -49q-88 0 -136 40t-56 107h45q5 -50 45 -77.5t103 -27.5q162 0 162 154v95q-23 -43 -68 -69t-96 -26q-87 0 -148.5 63t-61.5 179t61.5 179t148.5 63q54 0 98.5 -26.5t67.5 -71.5v90h41z
M100 254q0 -89 44 -144.5t122 -55.5t122 55.5t44 144.5t-44 144.5t-122 55.5t-122 -55.5t-44 -144.5z" />
    <glyph glyph-name="Gbreve" unicode="&#x11e;" horiz-adv-x="752" 
d="M380 296v44h281v-340h-38v143q-31 -71 -96.5 -112.5t-149.5 -41.5q-139 0 -229 99t-90 259t89 259t228 99q111 0 185.5 -66t93.5 -171h-49q-18 91 -82 142.5t-148 51.5q-117 0 -194 -85.5t-77 -229.5t78 -230t195 -86q45 0 86.5 15t76.5 45t56.5 83t22.5 122h-239z
M374 744q-56 0 -88 36t-32 92h41q0 -37 20.5 -63t58.5 -26t58.5 26t20.5 63h41q0 -56 -32 -92t-88 -36z" />
    <glyph glyph-name="gbreve" unicode="&#x11f;" horiz-adv-x="566" 
d="M473 488v-483q0 -91 -56 -140t-150 -49q-88 0 -136 40t-56 107h45q5 -50 45 -77.5t103 -27.5q162 0 162 154v95q-23 -43 -68 -69t-96 -26q-87 0 -148.5 63t-61.5 179t61.5 179t148.5 63q54 0 98.5 -26.5t67.5 -71.5v90h41zM100 254q0 -89 44 -144.5t122 -55.5t122 55.5
t44 144.5t-44 144.5t-122 55.5t-122 -55.5t-44 -144.5zM293 566q-56 0 -88 36t-32 92h41q0 -37 20.5 -63t58.5 -26t58.5 26t20.5 63h41q0 -56 -32 -92t-88 -36z" />
    <glyph glyph-name="Gdotaccent" unicode="&#x120;" horiz-adv-x="752" 
d="M380 296v44h281v-340h-38v143q-31 -71 -96.5 -112.5t-149.5 -41.5q-139 0 -229 99t-90 259t89 259t228 99q111 0 185.5 -66t93.5 -171h-49q-18 91 -82 142.5t-148 51.5q-117 0 -194 -85.5t-77 -229.5t78 -230t195 -86q45 0 86.5 15t76.5 45t56.5 83t22.5 122h-239z
M346 769v67h67v-67h-67z" />
    <glyph glyph-name="gdotaccent" unicode="&#x121;" horiz-adv-x="566" 
d="M473 488v-483q0 -91 -56 -140t-150 -49q-88 0 -136 40t-56 107h45q5 -50 45 -77.5t103 -27.5q162 0 162 154v95q-23 -43 -68 -69t-96 -26q-87 0 -148.5 63t-61.5 179t61.5 179t148.5 63q54 0 98.5 -26.5t67.5 -71.5v90h41zM100 254q0 -89 44 -144.5t122 -55.5t122 55.5
t44 144.5t-44 144.5t-122 55.5t-122 -55.5t-44 -144.5zM265 591v67h67v-67h-67z" />
    <glyph glyph-name="Gcommaaccent" unicode="&#x122;" horiz-adv-x="752" 
d="M413 -45v-84q0 -72 -69 -72v35q33 0 33 37v16h-32v68h68zM380 296v44h281v-340h-38v143q-31 -71 -96.5 -112.5t-149.5 -41.5q-139 0 -229 99t-90 259t89 259t228 99q111 0 185.5 -66t93.5 -171h-49q-18 91 -82 142.5t-148 51.5q-117 0 -194 -85.5t-77 -229.5t78 -230
t195 -86q45 0 86.5 15t76.5 45t56.5 83t22.5 122h-239z" />
    <glyph glyph-name="gcommaaccent" unicode="&#x123;" horiz-adv-x="566" 
d="M473 488v-483q0 -91 -56 -140t-150 -49q-88 0 -136 40t-56 107h45q5 -50 45 -77.5t103 -27.5q162 0 162 154v95q-23 -43 -68 -69t-96 -26q-87 0 -148.5 63t-61.5 179t61.5 179t148.5 63q54 0 98.5 -26.5t67.5 -71.5v90h41zM100 254q0 -89 44 -144.5t122 -55.5t122 55.5
t44 144.5t-44 144.5t-122 55.5t-122 -55.5t-44 -144.5zM255 553v84q0 72 69 72v-35q-33 0 -33 -37v-16h32v-68h-68z" />
    <glyph glyph-name="Hcircumflex" unicode="&#x124;" horiz-adv-x="728" 
d="M338 885h51l105 -136h-47l-84 92l-84 -92h-47zM103 0v694h44v-305h434v305h44v-694h-44v347h-434v-347h-44z" />
    <glyph glyph-name="hcircumflex" unicode="&#x125;" horiz-adv-x="560" 
d="M89 865h51l105 -136h-47l-84 92l-84 -92h-47zM432 0v293q0 82 -37.5 122t-100.5 40q-67 0 -113 -51.5t-46 -116.5v-287h-42v694h42v-293q23 43 65 69t95 26q80 0 129.5 -52t49.5 -150v-294h-42z" />
    <glyph glyph-name="Hbar" unicode="&#x126;" horiz-adv-x="754" 
d="M722 486h-84v-486h-44v297h-434v-297h-44v486h-84v39h84v169h44v-169h434v169h44v-169h84v-39zM160 339h434v147h-434v-147z" />
    <glyph glyph-name="hbar" unicode="&#x127;" horiz-adv-x="580" 
d="M445 0v293q0 82 -37.5 122t-100.5 40q-67 0 -113 -51.5t-46 -116.5v-287h-42v557h-73v38h73v99h42v-99h112v-38h-112v-156q23 43 65 69t95 26q80 0 129.5 -52t49.5 -150v-294h-42z" />
    <glyph glyph-name="Itilde" unicode="&#x128;" horiz-adv-x="250" 
d="M103 0v694h44v-694h-44zM201 754q-30 0 -73.5 34.5t-59.5 34.5q-38 0 -38 -65h-39q0 105 77 105q30 0 74 -34.5t60 -34.5q38 0 38 65h38q0 -105 -77 -105z" />
    <glyph glyph-name="itilde" unicode="&#x129;" horiz-adv-x="228" 
d="M93 488h42v-488h-42v488zM182 576q-30 0 -73.5 34.5t-59.5 34.5q-38 0 -38 -65h-39q0 105 77 105q30 0 74 -34.5t60 -34.5q38 0 38 65h38q0 -105 -77 -105z" />
    <glyph glyph-name="Imacron" unicode="&#x12a;" horiz-adv-x="250" 
d="M103 0v694h44v-694h-44zM255 789h-260v40h260v-40z" />
    <glyph glyph-name="imacron" unicode="&#x12b;" horiz-adv-x="228" 
d="M93 488h42v-488h-42v488zM245 611h-260v40h260v-40z" />
    <glyph glyph-name="Ibreve" unicode="&#x12c;" horiz-adv-x="250" 
d="M103 0v694h44v-694h-44zM126 744q-56 0 -88 36t-32 92h41q0 -37 20.5 -63t58.5 -26t58.5 26t20.5 63h41q0 -56 -32 -92t-88 -36z" />
    <glyph glyph-name="ibreve" unicode="&#x12d;" horiz-adv-x="228" 
d="M93 488h42v-488h-42v488zM116 566q-56 0 -88 36t-32 92h41q0 -37 20.5 -63t58.5 -26t58.5 26t20.5 63h41q0 -56 -32 -92t-88 -36z" />
    <glyph glyph-name="Iogonek" unicode="&#x12e;" horiz-adv-x="250" 
d="M108 -184q-85 0 -85 67q0 47 80 112v699h44v-694q-79 -71 -79 -113q0 -33 42 -33q27 0 54 9v-38q-23 -9 -56 -9z" />
    <glyph glyph-name="iogonek" unicode="&#x12f;" horiz-adv-x="228" 
d="M96 -184q-85 0 -85 67q0 48 82 114v491h42v-488q-79 -71 -79 -113q0 -33 42 -33q27 0 54 9v-38q-23 -9 -56 -9zM80 591v67h67v-67h-67z" />
    <glyph glyph-name="Idotaccent" unicode="&#x130;" horiz-adv-x="250" 
d="M103 0v694h44v-694h-44zM92 769v67h67v-67h-67z" />
    <glyph glyph-name="dotlessi" unicode="&#x131;" horiz-adv-x="228" 
d="M93 488h42v-488h-42v488z" />
    <glyph glyph-name="IJ" unicode="&#x132;" horiz-adv-x="820" 
d="M103 0v694h44v-694h-44zM515 32q81 0 128.5 49.5t47.5 138.5v474h44v-475q0 -107 -58.5 -168.5t-161.5 -61.5q-57 0 -100 19.5t-68 52.5t-37.5 72t-12.5 83v23h44v-22q0 -89 47 -137t127 -48z" />
    <glyph glyph-name="ij" unicode="&#x133;" horiz-adv-x="455" 
d="M93 488h42v-488h-42v488zM80 591v67h67v-67h-67zM190 -174v40q24 -4 41 -4q88 0 88 102v524h42v-516q0 -150 -126 -150q-25 0 -45 4zM307 591v67h67v-67h-67z" />
    <glyph glyph-name="Jcircumflex" unicode="&#x134;" horiz-adv-x="573" 
d="M438 885h51l105 -136h-47l-84 92l-84 -92h-47zM266 32q81 0 128.5 49.5t47.5 138.5v474h44v-475q0 -107 -58.5 -168.5t-161.5 -61.5q-57 0 -100 19.5t-68 52.5t-37.5 72t-12.5 83v23h44v-22q0 -89 47 -137t127 -48z" />
    <glyph glyph-name="jcircumflex" unicode="&#x135;" horiz-adv-x="227" 
d="M-37 -174v40q24 -4 41 -4q88 0 88 102v524h42v-516q0 -150 -126 -150q-25 0 -45 4zM88 694h51l105 -136h-47l-84 92l-84 -92h-47z" />
    <glyph glyph-name="Kcommaaccent" unicode="&#x136;" horiz-adv-x="645" 
d="M370 -45v-84q0 -72 -69 -72v35q33 0 33 37v16h-32v68h68zM103 0v694h44v-385l410 385h63l-311 -291l307 -403h-56l-283 372l-130 -122v-250h-44z" />
    <glyph glyph-name="kcommaaccent" unicode="&#x137;" horiz-adv-x="495" 
d="M306 -45v-84q0 -72 -69 -72v35q33 0 33 37v16h-32v68h68zM249 290l221 -290h-52l-204 266l-79 -71v-195h-42v694h42v-445l272 239h63z" />
    <glyph glyph-name="kgreenlandic" unicode="&#x138;" horiz-adv-x="495" 
d="M135 0h-42v488h42v-239l272 239h63l-221 -198l221 -290h-52l-204 266l-79 -71v-195z" />
    <glyph glyph-name="Lacute" unicode="&#x139;" horiz-adv-x="574" 
d="M181 885h68l-102 -136h-40zM103 0v694h44v-652h388v-42h-432z" />
    <glyph glyph-name="lacute" unicode="&#x13a;" horiz-adv-x="228" 
d="M169 865h68l-102 -136h-40zM93 694h42v-694h-42v694z" />
    <glyph glyph-name="Lcommaaccent" unicode="&#x13b;" horiz-adv-x="574" 
d="M352 -45v-84q0 -72 -69 -72v35q33 0 33 37v16h-32v68h68zM103 0v694h44v-652h388v-42h-432z" />
    <glyph glyph-name="lcommaaccent" unicode="&#x13c;" horiz-adv-x="228" 
d="M150 -45v-84q0 -72 -69 -72v35q33 0 33 37v16h-32v68h68zM93 694h42v-694h-42v694z" />
    <glyph glyph-name="Lcaron" unicode="&#x13d;" horiz-adv-x="574" 
d="M377 694h56l-60 -168h-34zM103 0v694h44v-652h388v-42h-432z" />
    <glyph glyph-name="lcaron" unicode="&#x13e;" horiz-adv-x="300" 
d="M249 694h56l-60 -168h-34zM93 694h42v-694h-42v694z" />
    <glyph glyph-name="Ldot" unicode="&#x13f;" horiz-adv-x="578" 
d="M103 0v694h44v-652h388v-42h-432zM352 299v82h82v-82h-82z" />
    <glyph glyph-name="ldot" unicode="&#x140;" horiz-adv-x="324" 
d="M93 694h42v-694h-42v694zM234 223v82h82v-82h-82z" />
    <glyph glyph-name="Lslash" unicode="&#x141;" horiz-adv-x="595" 
d="M38 243v45l85 47v359h44v-335l157 87v-45l-157 -87v-272h388v-42h-432v290z" />
    <glyph glyph-name="lslash" unicode="&#x142;" horiz-adv-x="252" 
d="M147 0h-42v255l-73 -51v45l73 51v394h42v-363l73 51v-45l-73 -51v-286z" />
    <glyph glyph-name="Nacute" unicode="&#x143;" horiz-adv-x="742" 
d="M427 885h68l-102 -136h-40zM641 694v-694h-61l-433 637v-637h-44v694h61l433 -637v637h44z" />
    <glyph glyph-name="nacute" unicode="&#x144;" horiz-adv-x="560" 
d="M292 694h68l-102 -136h-40zM135 0h-42v488h41v-89q23 45 65 71t96 26q80 0 129.5 -52t49.5 -150v-294h-42v293q0 82 -37.5 122t-100.5 40q-67 0 -113 -51.5t-46 -116.5v-287z" />
    <glyph glyph-name="Ncommaaccent" unicode="&#x145;" horiz-adv-x="742" 
d="M405 -45v-84q0 -72 -69 -72v35q33 0 33 37v16h-32v68h68zM641 694v-694h-61l-433 637v-637h-44v694h61l433 -637v637h44z" />
    <glyph glyph-name="ncommaaccent" unicode="&#x146;" horiz-adv-x="560" 
d="M318 -45v-84q0 -72 -69 -72v35q33 0 33 37v16h-32v68h68zM135 0h-42v488h41v-89q23 45 65 71t96 26q80 0 129.5 -52t49.5 -150v-294h-42v293q0 82 -37.5 122t-100.5 40q-67 0 -113 -51.5t-46 -116.5v-287z" />
    <glyph glyph-name="Ncaron" unicode="&#x147;" horiz-adv-x="742" 
d="M395 749h-51l-105 136h47l84 -92l84 92h47zM641 694v-694h-61l-433 637v-637h-44v694h61l433 -637v637h44z" />
    <glyph glyph-name="ncaron" unicode="&#x148;" horiz-adv-x="560" 
d="M317 558h-51l-105 136h47l84 -92l84 92h47zM135 0h-42v488h41v-89q23 45 65 71t96 26q80 0 129.5 -52t49.5 -150v-294h-42v293q0 82 -37.5 122t-100.5 40q-67 0 -113 -51.5t-46 -116.5v-287z" />
    <glyph glyph-name="napostrophe" unicode="&#x149;" horiz-adv-x="679" 
d="M111 694v-97q0 -106 -96 -109v30q63 4 63 77v21h-45v78h78zM254 0h-42v488h41v-89q23 45 65 71t96 26q80 0 129.5 -52t49.5 -150v-294h-42v293q0 82 -37.5 122t-100.5 40q-67 0 -113 -51.5t-46 -116.5v-287z" />
    <glyph glyph-name="Eng" unicode="&#x14a;" horiz-adv-x="744" 
d="M515 -178q-25 0 -45 4v40q24 -4 41 -4q86 0 86 102v36h-17l-433 637v-637h-44v694h61l433 -637v637h44v-722q0 -150 -126 -150z" />
    <glyph glyph-name="eng" unicode="&#x14b;" horiz-adv-x="560" 
d="M135 0h-42v488h41v-89q23 45 65 71t96 26q80 0 129.5 -52t49.5 -150v-322q0 -150 -126 -150q-25 0 -45 4v40q24 -4 41 -4q88 0 88 102v329q0 82 -37.5 122t-100.5 40q-67 0 -113 -51.5t-46 -116.5v-287z" />
    <glyph glyph-name="Omacron" unicode="&#x14c;" horiz-adv-x="758" 
d="M509 789h-260v40h260v-40zM700 347q0 -160 -90 -259t-231 -99t-231 99t-90 259t90 259t231 99t231 -99t90 -259zM654 347q0 147 -78.5 231t-196.5 84t-196.5 -84t-78.5 -231t78.5 -231t196.5 -84t196.5 84t78.5 231z" />
    <glyph glyph-name="omacron" unicode="&#x14d;" horiz-adv-x="553" 
d="M406 611h-260v40h260v-40zM276 -8q-97 0 -159 69t-62 183t62 183t159 69t159 -69.5t62 -182.5t-62 -182.5t-159 -69.5zM276 35q82 0 129 58t47 151t-47 151t-129 58t-129 -58t-47 -151t47 -151t129 -58z" />
    <glyph glyph-name="Obreve" unicode="&#x14e;" horiz-adv-x="758" 
d="M700 347q0 -160 -90 -259t-231 -99t-231 99t-90 259t90 259t231 99t231 -99t90 -259zM654 347q0 147 -78.5 231t-196.5 84t-196.5 -84t-78.5 -231t78.5 -231t196.5 -84t196.5 84t78.5 231zM379 744q-56 0 -88 36t-32 92h41q0 -37 20.5 -63t58.5 -26t58.5 26t20.5 63h41
q0 -56 -32 -92t-88 -36z" />
    <glyph glyph-name="obreve" unicode="&#x14f;" horiz-adv-x="553" 
d="M276 -8q-97 0 -159 69t-62 183t62 183t159 69t159 -69.5t62 -182.5t-62 -182.5t-159 -69.5zM276 35q82 0 129 58t47 151t-47 151t-129 58t-129 -58t-47 -151t47 -151t129 -58zM277 566q-56 0 -88 36t-32 92h41q0 -37 20.5 -63t58.5 -26t58.5 26t20.5 63h41q0 -56 -32 -92
t-88 -36z" />
    <glyph glyph-name="Ohungarumlaut" unicode="&#x150;" horiz-adv-x="758" 
d="M352 885h62l-85 -139h-36zM458 885h62l-85 -139h-36zM700 347q0 -160 -90 -259t-231 -99t-231 99t-90 259t90 259t231 99t231 -99t90 -259zM654 347q0 147 -78.5 231t-196.5 84t-196.5 -84t-78.5 -231t78.5 -231t196.5 -84t196.5 84t78.5 231z" />
    <glyph glyph-name="ohungarumlaut" unicode="&#x151;" horiz-adv-x="553" 
d="M250 694h62l-85 -139h-36zM356 694h62l-85 -139h-36zM276 -8q-97 0 -159 69t-62 183t62 183t159 69t159 -69.5t62 -182.5t-62 -182.5t-159 -69.5zM276 35q82 0 129 58t47 151t-47 151t-129 58t-129 -58t-47 -151t47 -151t129 -58z" />
    <glyph glyph-name="OE" unicode="&#x152;" horiz-adv-x="1185" 
d="M651 0v148q-40 -77 -111.5 -118t-161.5 -41q-141 0 -230.5 99t-89.5 259t89.5 259t230.5 99q90 0 161.5 -41t111.5 -119v149h468v-42h-424v-274h388v-42h-388v-294h428v-42h-472zM651 347q0 147 -78 231t-195 84t-195.5 -84t-78.5 -231t78.5 -231t195.5 -84t195 84
t78 231z" />
    <glyph glyph-name="oe" unicode="&#x153;" horiz-adv-x="940" 
d="M674 -8q-68 0 -120 35t-78 101q-26 -65 -78.5 -100.5t-121.5 -35.5q-97 0 -159 69t-62 183t62 183t159 69q68 0 120.5 -35.5t78.5 -101.5q25 66 77.5 101.5t120.5 35.5q88 0 147.5 -63t59.5 -185q0 -10 -1 -18h-379q2 -83 48 -139t123 -56q125 0 155 108h45
q-14 -74 -68.5 -112.5t-128.5 -38.5zM100 244q0 -93 47 -151t129 -58t129 58t47 151t-47 151t-129 58t-129 -58t-47 -151zM500 271h335q-3 88 -48 135.5t-114 47.5q-71 0 -118 -47t-55 -136z" />
    <glyph glyph-name="Racute" unicode="&#x154;" horiz-adv-x="690" 
d="M381 885h68l-102 -136h-40zM103 0v694h285q105 0 163.5 -51.5t58.5 -136.5q0 -74 -45.5 -124t-128.5 -61l205 -321h-52l-203 318h-239v-318h-44zM147 360h240q86 0 131.5 38t45.5 108t-45.5 108t-131.5 38h-240v-292z" />
    <glyph glyph-name="racute" unicode="&#x155;" horiz-adv-x="349" 
d="M210 694h68l-102 -136h-40zM324 494v-43q-14 2 -37 2q-58 0 -105 -51.5t-47 -123.5v-278h-42v488h41v-98q19 53 64.5 79.5t91.5 26.5q20 0 34 -2z" />
    <glyph glyph-name="Rcommaaccent" unicode="&#x156;" horiz-adv-x="690" 
d="M382 -45v-84q0 -72 -69 -72v35q33 0 33 37v16h-32v68h68zM103 0v694h285q105 0 163.5 -51.5t58.5 -136.5q0 -74 -45.5 -124t-128.5 -61l205 -321h-52l-203 318h-239v-318h-44zM147 360h240q86 0 131.5 38t45.5 108t-45.5 108t-131.5 38h-240v-292z" />
    <glyph glyph-name="rcommaaccent" unicode="&#x157;" horiz-adv-x="349" 
d="M149 -45v-84q0 -72 -69 -72v35q33 0 33 37v16h-32v68h68zM324 494v-43q-14 2 -37 2q-58 0 -105 -51.5t-47 -123.5v-278h-42v488h41v-98q19 53 64.5 79.5t91.5 26.5q20 0 34 -2z" />
    <glyph glyph-name="Rcaron" unicode="&#x158;" horiz-adv-x="690" 
d="M359 749h-51l-105 136h47l84 -92l84 92h47zM103 0v694h285q105 0 163.5 -51.5t58.5 -136.5q0 -74 -45.5 -124t-128.5 -61l205 -321h-52l-203 318h-239v-318h-44zM147 360h240q86 0 131.5 38t45.5 108t-45.5 108t-131.5 38h-240v-292z" />
    <glyph glyph-name="rcaron" unicode="&#x159;" horiz-adv-x="349" 
d="M206 558h-51l-105 136h47l84 -92l84 92h47zM324 494v-43q-14 2 -37 2q-58 0 -105 -51.5t-47 -123.5v-278h-42v488h41v-98q19 53 64.5 79.5t91.5 26.5q20 0 34 -2z" />
    <glyph glyph-name="Sacute" unicode="&#x15a;" horiz-adv-x="636" 
d="M370 885h68l-102 -136h-40zM318 -11q-116 0 -185.5 50.5t-76.5 151.5h47q5 -80 61.5 -120t153.5 -40q98 0 155 39.5t57 108.5q0 96 -112 124l-193 48q-68 17 -107 59t-39 107q0 81 66.5 134.5t170.5 53.5q103 0 170 -54.5t71 -145.5h-47q-4 78 -58 118t-136 40
q-84 0 -138 -39.5t-54 -105.5q0 -96 112 -124l193 -48q68 -17 107 -59t39 -107q0 -84 -69.5 -137.5t-187.5 -53.5z" />
    <glyph glyph-name="sacute" unicode="&#x15b;" horiz-adv-x="496" 
d="M306 694h68l-102 -136h-40zM75 358q0 61 49.5 99.5t124.5 38.5q70 0 121 -36.5t57 -105.5h-45q-5 48 -41 74t-92 26q-59 0 -94.5 -26t-35.5 -70q0 -35 22.5 -54t68.5 -28l102 -21q124 -25 124 -123q0 -61 -49.5 -100.5t-135.5 -39.5q-85 0 -135.5 40t-57.5 107h45
q4 -44 40.5 -74.5t107.5 -30.5q69 0 105 28.5t36 69.5q0 35 -22.5 54t-68.5 28l-102 21q-124 25 -124 123z" />
    <glyph glyph-name="Scircumflex" unicode="&#x15c;" horiz-adv-x="636" 
d="M288 885h51l105 -136h-47l-84 92l-84 -92h-47zM318 -11q-116 0 -185.5 50.5t-76.5 151.5h47q5 -80 61.5 -120t153.5 -40q98 0 155 39.5t57 108.5q0 96 -112 124l-193 48q-68 17 -107 59t-39 107q0 81 66.5 134.5t170.5 53.5q103 0 170 -54.5t71 -145.5h-47q-4 78 -58 118
t-136 40q-84 0 -138 -39.5t-54 -105.5q0 -96 112 -124l193 -48q68 -17 107 -59t39 -107q0 -84 -69.5 -137.5t-187.5 -53.5z" />
    <glyph glyph-name="scircumflex" unicode="&#x15d;" horiz-adv-x="496" 
d="M224 694h51l105 -136h-47l-84 92l-84 -92h-47zM75 358q0 61 49.5 99.5t124.5 38.5q70 0 121 -36.5t57 -105.5h-45q-5 48 -41 74t-92 26q-59 0 -94.5 -26t-35.5 -70q0 -35 22.5 -54t68.5 -28l102 -21q124 -25 124 -123q0 -61 -49.5 -100.5t-135.5 -39.5q-85 0 -135.5 40
t-57.5 107h45q4 -44 40.5 -74.5t107.5 -30.5q69 0 105 28.5t36 69.5q0 35 -22.5 54t-68.5 28l-102 21q-124 25 -124 123z" />
    <glyph glyph-name="Scedilla" unicode="&#x15e;" horiz-adv-x="636" 
d="M428 -106q0 -35 -29.5 -53t-74.5 -18q-42 0 -75 11v37q33 -13 76 -13q65 0 65 36q0 32 -55 32q-21 0 -49 -10l-16 25l35 48q-109 3 -176 54t-73 148h47q5 -79 61.5 -119.5t153.5 -40.5q98 0 155 39.5t57 108.5q0 96 -112 124l-193 48q-68 17 -107 59t-39 107
q0 81 66.5 134.5t170.5 53.5q103 0 170 -55t71 -145h-47q-4 78 -58.5 118t-135.5 40q-84 0 -138 -39.5t-54 -105.5q0 -96 112 -124l193 -48q68 -17 107 -59t39 -107q0 -88 -70 -138t-167 -52l-22 -37q8 2 30 2q36 0 59 -15.5t23 -45.5z" />
    <glyph glyph-name="scedilla" unicode="&#x15f;" horiz-adv-x="496" 
d="M345 -106q0 -35 -29.5 -53t-74.5 -18q-42 0 -75 11v37q32 -13 76 -13q65 0 65 36q0 32 -55 32q-21 0 -49 -10l-16 25l38 52q-74 6 -117.5 45.5t-49.5 100.5h45q4 -44 40.5 -74.5t107.5 -30.5q69 0 105 28.5t36 69.5q0 35 -22.5 54t-68.5 28l-102 21q-124 25 -124 123
q0 61 49.5 99.5t124.5 38.5q70 0 121 -36.5t57 -105.5h-45q-5 48 -41 74t-92 26q-59 0 -94.5 -26t-35.5 -70q0 -35 22.5 -54t68.5 -28l102 -21q124 -25 124 -123q0 -60 -47.5 -99.5t-131.5 -40.5l-23 -39q8 2 29 2q36 0 59 -15.5t23 -45.5z" />
    <glyph glyph-name="Scaron" unicode="&#x160;" horiz-adv-x="636" 
d="M338 749h-51l-105 136h47l84 -92l84 92h47zM318 -11q-116 0 -185.5 50.5t-76.5 151.5h47q5 -80 61.5 -120t153.5 -40q98 0 155 39.5t57 108.5q0 96 -112 124l-193 48q-68 17 -107 59t-39 107q0 81 66.5 134.5t170.5 53.5q103 0 170 -54.5t71 -145.5h-47q-4 78 -58 118
t-136 40q-84 0 -138 -39.5t-54 -105.5q0 -96 112 -124l193 -48q68 -17 107 -59t39 -107q0 -84 -69.5 -137.5t-187.5 -53.5z" />
    <glyph glyph-name="scaron" unicode="&#x161;" horiz-adv-x="496" 
d="M274 558h-51l-105 136h47l84 -92l84 92h47zM75 358q0 61 49.5 99.5t124.5 38.5q70 0 121 -36.5t57 -105.5h-45q-5 48 -41 74t-92 26q-59 0 -94.5 -26t-35.5 -70q0 -35 22.5 -54t68.5 -28l102 -21q124 -25 124 -123q0 -61 -49.5 -100.5t-135.5 -39.5q-85 0 -135.5 40
t-57.5 107h45q4 -44 40.5 -74.5t107.5 -30.5q69 0 105 28.5t36 69.5q0 35 -22.5 54t-68.5 28l-102 21q-124 25 -124 123z" />
    <glyph glyph-name="Tcommaaccent" unicode="&#x162;" horiz-adv-x="624" 
d="M411 -106q0 -35 -29.5 -53t-74.5 -18q-42 0 -75 11v37q32 -13 76 -13q65 0 65 36q0 32 -55 32q-22 0 -49 -10l-16 22l37 54v660h-256v42h556v-42h-256v-649l-34 -50q8 2 29 2q36 0 59 -15.5t23 -45.5z" />
    <glyph glyph-name="tcommaaccent" unicode="&#x163;" horiz-adv-x="344" 
d="M293 -106q0 -35 -29.5 -53t-74.5 -18q-42 0 -75 11v37q32 -13 76 -13q65 0 65 36q0 32 -55 32q-22 0 -49 -10l-16 25l44 61q-63 28 -63 120v326h-85v40h87v133h40v-133h144v-40h-144v-320q0 -95 83 -95q37 0 61 8v-40q-30 -9 -67 -9q-15 0 -29 3l-24 -42q8 2 29 2
q36 0 59 -15.5t23 -45.5z" />
    <glyph glyph-name="Tcaron" unicode="&#x164;" horiz-adv-x="624" 
d="M336 749h-51l-105 136h47l84 -92l84 92h47zM34 652v42h556v-42h-256v-652h-44v652h-256z" />
    <glyph glyph-name="tcaron" unicode="&#x165;" horiz-adv-x="344" 
d="M250 744h56l-60 -168h-34zM31 448v40h87v133h40v-133h144v-40h-144v-320q0 -95 83 -95q37 0 61 8v-40q-30 -9 -67 -9q-56 0 -87.5 32.5t-31.5 97.5v326h-85z" />
    <glyph glyph-name="Tbar" unicode="&#x166;" horiz-adv-x="624" 
d="M488 331h-154v-331h-44v331h-154v39h154v282h-256v42h556v-42h-256v-282h154v-39z" />
    <glyph glyph-name="tbar" unicode="&#x167;" horiz-adv-x="349" 
d="M160 275v-147q0 -96 83 -96q35 0 61 10v-40q-33 -10 -67 -10q-56 0 -87.5 33t-31.5 98v152h-83v38h83v135h-85v40h87v133h40v-133h144v-40h-144v-135h112v-38h-112z" />
    <glyph glyph-name="Utilde" unicode="&#x168;" horiz-adv-x="688" 
d="M344 -11q-114 0 -187 69t-73 197v439h44v-437q0 -105 59 -166t157 -61t157 61t59 166v437h44v-439q0 -128 -73 -197t-187 -69zM409 754q-30 0 -73.5 34.5t-59.5 34.5q-38 0 -38 -65h-39q0 105 77 105q30 0 74 -34.5t60 -34.5q38 0 38 65h38q0 -105 -77 -105z" />
    <glyph glyph-name="utilde" unicode="&#x169;" horiz-adv-x="552" 
d="M417 488h42v-488h-41v89q-23 -45 -64.5 -71t-95.5 -26q-81 0 -126.5 53.5t-45.5 148.5v294h42v-293q0 -162 133 -162q70 0 113 55t43 126v274zM339 576q-30 0 -73.5 34.5t-59.5 34.5q-38 0 -38 -65h-39q0 105 77 105q30 0 74 -34.5t60 -34.5q38 0 38 65h38
q0 -105 -77 -105z" />
    <glyph glyph-name="Umacron" unicode="&#x16a;" horiz-adv-x="688" 
d="M344 -11q-114 0 -187 69t-73 197v439h44v-437q0 -105 59 -166t157 -61t157 61t59 166v437h44v-439q0 -128 -73 -197t-187 -69zM472 789h-260v40h260v-40z" />
    <glyph glyph-name="umacron" unicode="&#x16b;" horiz-adv-x="552" 
d="M417 488h42v-488h-41v89q-23 -45 -64.5 -71t-95.5 -26q-81 0 -126.5 53.5t-45.5 148.5v294h42v-293q0 -162 133 -162q70 0 113 55t43 126v274zM402 611h-260v40h260v-40z" />
    <glyph glyph-name="Ubreve" unicode="&#x16c;" horiz-adv-x="688" 
d="M344 -11q-114 0 -187 69t-73 197v439h44v-437q0 -105 59 -166t157 -61t157 61t59 166v437h44v-439q0 -128 -73 -197t-187 -69zM343 744q-56 0 -88 36t-32 92h41q0 -37 20.5 -63t58.5 -26t58.5 26t20.5 63h41q0 -56 -32 -92t-88 -36z" />
    <glyph glyph-name="ubreve" unicode="&#x16d;" horiz-adv-x="552" 
d="M417 488h42v-488h-41v89q-23 -45 -64.5 -71t-95.5 -26q-81 0 -126.5 53.5t-45.5 148.5v294h42v-293q0 -162 133 -162q70 0 113 55t43 126v274zM273 566q-56 0 -88 36t-32 92h41q0 -37 20.5 -63t58.5 -26t58.5 26t20.5 63h41q0 -56 -32 -92t-88 -36z" />
    <glyph glyph-name="Uring" unicode="&#x16e;" horiz-adv-x="688" 
d="M245 823q0 39 28 66.5t69 27.5t69 -27.5t28 -66.5t-28 -66.5t-69 -27.5t-69 27.5t-28 66.5zM282 823q0 -25 17.5 -42t42.5 -17t42.5 17t17.5 42t-17.5 42t-42.5 17t-42.5 -17t-17.5 -42zM344 -11q-114 0 -187 69t-73 197v439h44v-437q0 -105 59 -166t157 -61t157 61
t59 166v437h44v-439q0 -128 -73 -197t-187 -69z" />
    <glyph glyph-name="uring" unicode="&#x16f;" horiz-adv-x="552" 
d="M175 645q0 39 28 66.5t69 27.5t69 -27.5t28 -66.5t-28 -66.5t-69 -27.5t-69 27.5t-28 66.5zM212 645q0 -25 17.5 -42t42.5 -17t42.5 17t17.5 42t-17.5 42t-42.5 17t-42.5 -17t-17.5 -42zM417 488h42v-488h-41v89q-23 -45 -64.5 -71t-95.5 -26q-81 0 -126.5 53.5
t-45.5 148.5v294h42v-293q0 -162 133 -162q70 0 113 55t43 126v274z" />
    <glyph glyph-name="Uhungarumlaut" unicode="&#x170;" horiz-adv-x="688" 
d="M344 -11q-114 0 -187 69t-73 197v439h44v-437q0 -105 59 -166t157 -61t157 61t59 166v437h44v-439q0 -128 -73 -197t-187 -69zM316 885h62l-85 -139h-36zM422 885h62l-85 -139h-36z" />
    <glyph glyph-name="uhungarumlaut" unicode="&#x171;" horiz-adv-x="552" 
d="M417 488h42v-488h-41v89q-23 -45 -64.5 -71t-95.5 -26q-81 0 -126.5 53.5t-45.5 148.5v294h42v-293q0 -162 133 -162q70 0 113 55t43 126v274zM246 694h62l-85 -139h-36zM352 694h62l-85 -139h-36z" />
    <glyph glyph-name="Uogonek" unicode="&#x172;" horiz-adv-x="688" 
d="M604 255q0 -116 -61 -184t-159 -79q-69 -64 -69 -105q0 -33 42 -33q27 0 54 9v-38q-23 -9 -56 -9q-85 0 -85 67q0 45 72 106q-113 1 -185.5 70t-72.5 196v439h44v-437q0 -105 59 -166t157 -61t157 61t59 166v437h44v-439z" />
    <glyph glyph-name="uogonek" unicode="&#x173;" horiz-adv-x="552" 
d="M418 0v89q-23 -45 -64.5 -71t-95.5 -26q-81 0 -126.5 53.5t-45.5 148.5v294h42v-293q0 -162 133 -162q70 0 113 55t43 126v274h42v-486q-82 -70 -82 -115q0 -33 42 -33q27 0 54 9v-38q-23 -9 -56 -9q-85 0 -85 67q0 49 86 117z" />
    <glyph glyph-name="Wcircumflex" unicode="&#x174;" horiz-adv-x="987" 
d="M469 885h51l105 -136h-47l-84 92l-84 -92h-47zM748 0h-56l-198 641l-199 -641h-56l-205 694h47l187 -644l199 644h54l198 -644l188 644h46z" />
    <glyph glyph-name="wcircumflex" unicode="&#x175;" horiz-adv-x="726" 
d="M336 694h51l105 -136h-47l-84 92l-84 -92h-47zM363 437l-130 -437h-51l-146 488h44l127 -439l129 439h54l129 -440l127 440h44l-145 -488h-51z" />
    <glyph glyph-name="Ycircumflex" unicode="&#x176;" horiz-adv-x="620" 
d="M288 0v273l-276 421h53l245 -380l246 380h52l-276 -421v-273h-44zM279 885h51l105 -136h-47l-84 92l-84 -92h-47z" />
    <glyph glyph-name="ycircumflex" unicode="&#x177;" horiz-adv-x="481" 
d="M240 -74q-39 -104 -133 -104q-28 0 -52 4v40q23 -4 51 -4q36 0 58.5 18t37.5 56l20 51l-190 501h45l166 -444l166 444h44zM213 694h51l105 -136h-47l-84 92l-84 -92h-47z" />
    <glyph glyph-name="Ydieresis" unicode="&#x178;" horiz-adv-x="620" 
d="M288 0v273l-276 421h53l245 -380l246 380h52l-276 -421v-273h-44zM182 769v67h67v-67h-67zM359 769v67h67v-67h-67z" />
    <glyph glyph-name="Zacute" unicode="&#x179;" horiz-adv-x="600" 
d="M370 885h68l-102 -136h-40zM77 694h473v-42l-459 -610h470v-42h-523v42l459 610h-420v42z" />
    <glyph glyph-name="zacute" unicode="&#x17a;" horiz-adv-x="466" 
d="M293 694h68l-102 -136h-40zM60 488h359v-38l-317 -409h308v-41h-362v38l317 409h-305v41z" />
    <glyph glyph-name="Zdotaccent" unicode="&#x17b;" horiz-adv-x="600" 
d="M77 694h473v-42l-459 -610h470v-42h-523v42l459 610h-420v42zM285 769v67h67v-67h-67z" />
    <glyph glyph-name="zdotaccent" unicode="&#x17c;" horiz-adv-x="466" 
d="M60 488h359v-38l-317 -409h308v-41h-362v38l317 409h-305v41zM208 591v67h67v-67h-67z" />
    <glyph glyph-name="Zcaron" unicode="&#x17d;" horiz-adv-x="600" 
d="M338 749h-51l-105 136h47l84 -92l84 92h47zM77 694h473v-42l-459 -610h470v-42h-523v42l459 610h-420v42z" />
    <glyph glyph-name="zcaron" unicode="&#x17e;" horiz-adv-x="466" 
d="M261 558h-51l-105 136h47l84 -92l84 92h47zM60 488h359v-38l-317 -409h308v-41h-362v38l317 409h-305v41z" />
    <glyph glyph-name="florin" unicode="&#x192;" horiz-adv-x="443" 
d="M353 318h-131v-346q0 -150 -126 -150q-25 0 -45 4v40q24 -4 41 -4q88 0 88 102v354h-85v40h85v194q0 71 34 110t95 39q26 0 56 -7v-40q-21 6 -56 6q-87 0 -87 -106v-196h131v-40z" />
    <glyph glyph-name="uni01B5" unicode="&#x1b5;" horiz-adv-x="600" 
d="M77 694h473v-42l-215 -286h141v-39h-171l-214 -285h470v-42h-523v42l214 285h-140v39h170l215 286h-420v42z" />
    <glyph glyph-name="uni01B6" unicode="&#x1b6;" horiz-adv-x="466" 
d="M60 488h359v-38l-144 -187h89v-38h-119l-141 -184h306v-41h-362v38l144 187h-81v38h110l142 184h-303v41z" />
    <glyph glyph-name="Aringacute" unicode="&#x1fa;" horiz-adv-x="701" 
d="M338 925h67l-82 -92q41 16 82 -11t41 -76q0 -28 -15.5 -51.5t-41.5 -34.5l280 -660h-49l-97 229h-348l-96 -229h-47l277 660q-26 11 -41.5 34t-15.5 52t17 60zM349 642l-156 -371h312zM289 746q0 -25 17.5 -42t42.5 -17t42.5 17t17.5 42t-17.5 42t-42.5 17t-42.5 -17
t-17.5 -42z" />
    <glyph glyph-name="aringacute" unicode="&#x1fb;" horiz-adv-x="530" 
d="M443 0h-41v92q-26 -52 -79 -76t-109 -24q-66 0 -111 33.5t-45 99.5q0 114 154 142l191 33v37q0 59 -40 88.5t-108 29.5q-59 0 -95 -26t-42 -75h-45q7 73 60 107.5t122 34.5q82 0 135 -37t53 -114v-345zM217 32q76 0 131 48.5t55 134.5v44l-190 -33q-110 -19 -110 -103
q0 -40 30.5 -65.5t83.5 -25.5zM267 551q-41 0 -69 27.5t-28 66.5q0 28 17 59l69 120h67l-82 -92q41 16 82 -11t41 -76q0 -39 -28 -66.5t-69 -27.5zM267 586q25 0 42.5 17t17.5 42t-17.5 42t-42.5 17t-42.5 -17t-17.5 -42t17.5 -42t42.5 -17z" />
    <glyph glyph-name="AEacute" unicode="&#x1fc;" horiz-adv-x="1043" 
d="M741 885h68l-102 -136h-40zM981 0h-472v229h-301l-166 -229h-53l506 694h482v-42h-424v-274h388v-42h-388v-294h428v-42zM509 271v371l-270 -371h270z" />
    <glyph glyph-name="aeacute" unicode="&#x1fd;" horiz-adv-x="883" 
d="M492 694h68l-102 -136h-40zM238 271h165v65q0 61 -40 90t-105 29q-128 0 -140 -101h-45q7 73 60.5 107.5t125.5 34.5q65 0 112.5 -26t63.5 -79q27 50 75.5 77.5t107.5 27.5q88 0 147.5 -63t59.5 -185q0 -10 -1 -18h-379q2 -83 48 -139t123 -56q125 0 155 108h45
q-14 -74 -68.5 -112.5t-128.5 -38.5q-66 0 -117 33.5t-78 96.5q-27 -64 -80.5 -97t-122.5 -33q-73 0 -118 35t-45 100q0 66 47 105t133 39zM445 271h335q-3 88 -48 135.5t-114 47.5q-71 0 -118 -47t-55 -136zM403 213v17h-164q-136 0 -136 -103q0 -42 31 -68t87 -26
q74 0 128 48t54 132z" />
    <glyph glyph-name="Oslashacute" unicode="&#x1fe;" horiz-adv-x="769" 
d="M384 -11q-119 0 -204 72l-60 -75h-53l84 104q-88 99 -88 257q0 160 90 259t231 99q118 0 203 -72l60 75h54l-84 -105q88 -99 88 -256q0 -160 -90 -259t-231 -99zM659 347q0 135 -71 221l-380 -472q73 -64 176 -64q118 0 196.5 84t78.5 231zM109 347q0 -135 70 -221
l380 472q-73 64 -175 64q-118 0 -196.5 -84t-78.5 -231zM439 885h68l-102 -136h-40z" />
    <glyph glyph-name="oslashacute" unicode="&#x1ff;" horiz-adv-x="564" 
d="M503 244q0 -113 -62 -182.5t-159 -69.5q-85 0 -145 55l-52 -61h-48l75 88q-51 66 -51 170q0 114 62 183t159 69q83 0 142 -53l53 62h50l-77 -90q53 -69 53 -171zM458 244q0 82 -37 137l-256 -301q45 -45 117 -45q82 0 129 58t47 151zM106 244q0 -82 35 -135l255 301
q-46 43 -114 43q-82 0 -129 -58t-47 -151zM338 694h68l-102 -136h-40z" />
    <glyph glyph-name="Scommaaccent" unicode="&#x218;" horiz-adv-x="636" 
d="M359 -45v-84q0 -72 -69 -72v35q33 0 33 37v16h-32v68h68zM318 -11q-116 0 -185.5 50.5t-76.5 151.5h47q5 -80 61.5 -120t153.5 -40q98 0 155 39.5t57 108.5q0 96 -112 124l-193 48q-68 17 -107 59t-39 107q0 81 66.5 134.5t170.5 53.5q103 0 170 -54.5t71 -145.5h-47
q-4 78 -58 118t-136 40q-84 0 -138 -39.5t-54 -105.5q0 -96 112 -124l193 -48q68 -17 107 -59t39 -107q0 -84 -69.5 -137.5t-187.5 -53.5z" />
    <glyph glyph-name="scommaaccent" unicode="&#x219;" horiz-adv-x="496" 
d="M286 -45v-84q0 -72 -69 -72v35q33 0 33 37v16h-32v68h68zM75 358q0 61 49.5 99.5t124.5 38.5q70 0 121 -36.5t57 -105.5h-45q-5 48 -41 74t-92 26q-59 0 -94.5 -26t-35.5 -70q0 -35 22.5 -54t68.5 -28l102 -21q124 -25 124 -123q0 -61 -49.5 -100.5t-135.5 -39.5
q-85 0 -135.5 40t-57.5 107h45q4 -44 40.5 -74.5t107.5 -30.5q69 0 105 28.5t36 69.5q0 35 -22.5 54t-68.5 28l-102 21q-124 25 -124 123z" />
    <glyph glyph-name="uni021A" unicode="&#x21a;" horiz-adv-x="624" 
d="M349 -45v-84q0 -72 -69 -72v35q33 0 33 37v16h-32v68h68zM34 652v42h556v-42h-256v-652h-44v652h-256z" />
    <glyph glyph-name="uni021B" unicode="&#x21b;" horiz-adv-x="344" 
d="M232 -45v-84q0 -72 -69 -72v35q33 0 33 37v16h-32v68h68zM31 448v40h87v133h40v-133h144v-40h-144v-320q0 -95 83 -95q37 0 61 8v-40q-30 -9 -67 -9q-56 0 -87.5 32.5t-31.5 97.5v326h-85z" />
    <glyph glyph-name="dotlessj" unicode="&#x237;" horiz-adv-x="227" 
d="M-37 -174v40q24 -4 41 -4q88 0 88 102v524h42v-516q0 -150 -126 -150q-25 0 -45 4z" />
    <glyph glyph-name="circumflex" unicode="&#x2c6;" horiz-adv-x="400" 
d="M175 694h51l105 -136h-47l-84 92l-84 -92h-47z" />
    <glyph glyph-name="caron" unicode="&#x2c7;" horiz-adv-x="400" 
d="M225 558h-51l-105 136h47l84 -92l84 92h47z" />
    <glyph glyph-name="breve" unicode="&#x2d8;" horiz-adv-x="372" 
d="M186 566q-56 0 -88 36t-32 92h41q0 -37 20.5 -63t58.5 -26t58.5 26t20.5 63h41q0 -56 -32 -92t-88 -36z" />
    <glyph glyph-name="dotaccent" unicode="&#x2d9;" horiz-adv-x="181" 
d="M57 591v67h67v-67h-67z" />
    <glyph glyph-name="ring" unicode="&#x2da;" horiz-adv-x="319" 
d="M62 645q0 39 28 66.5t69 27.5t69 -27.5t28 -66.5t-28 -66.5t-69 -27.5t-69 27.5t-28 66.5zM99 645q0 -25 17.5 -42t42.5 -17t42.5 17t17.5 42t-17.5 42t-42.5 17t-42.5 -17t-17.5 -42z" />
    <glyph glyph-name="ogonek" unicode="&#x2db;" horiz-adv-x="250" 
d="M153 0h38q-79 -71 -79 -113q0 -33 42 -33q27 0 54 9v-38q-23 -9 -56 -9q-85 0 -85 67q0 49 86 117z" />
    <glyph glyph-name="tilde" unicode="&#x2dc;" horiz-adv-x="397" 
d="M265 576q-30 0 -73.5 34.5t-59.5 34.5q-38 0 -38 -65h-39q0 105 77 105q30 0 74 -34.5t60 -34.5q38 0 38 65h38q0 -105 -77 -105z" />
    <glyph glyph-name="hungarumlaut" unicode="&#x2dd;" horiz-adv-x="426" 
d="M146 694h62l-85 -139h-36zM252 694h62l-85 -139h-36z" />
    <glyph glyph-name="pi" unicode="&#x3c0;" horiz-adv-x="587" 
d="M531 448h-85v-448h-42v448h-221v-448h-42v448h-85v40h475v-40z" />
    <glyph glyph-name="Wgrave" unicode="&#x1e80;" horiz-adv-x="987" 
d="M748 0h-56l-198 641l-199 -641h-56l-205 694h47l187 -644l199 644h54l198 -644l188 644h46zM370 885h68l74 -136h-40z" />
    <glyph glyph-name="wgrave" unicode="&#x1e81;" horiz-adv-x="726" 
d="M363 437l-130 -437h-51l-146 488h44l127 -439l129 439h54l129 -440l127 440h44l-145 -488h-51zM237 694h68l74 -136h-40z" />
    <glyph glyph-name="Wacute" unicode="&#x1e82;" horiz-adv-x="987" 
d="M551 885h68l-102 -136h-40zM748 0h-56l-198 641l-199 -641h-56l-205 694h47l187 -644l199 644h54l198 -644l188 644h46z" />
    <glyph glyph-name="wacute" unicode="&#x1e83;" horiz-adv-x="726" 
d="M418 694h68l-102 -136h-40zM363 437l-130 -437h-51l-146 488h44l127 -439l129 439h54l129 -440l127 440h44l-145 -488h-51z" />
    <glyph glyph-name="Wdieresis" unicode="&#x1e84;" horiz-adv-x="987" 
d="M372 769v67h67v-67h-67zM549 769v67h67v-67h-67zM748 0h-56l-198 641l-199 -641h-56l-205 694h47l187 -644l199 644h54l198 -644l188 644h46z" />
    <glyph glyph-name="wdieresis" unicode="&#x1e85;" horiz-adv-x="726" 
d="M238 591v67h67v-67h-67zM415 591v67h67v-67h-67zM363 437l-130 -437h-51l-146 488h44l127 -439l129 439h54l129 -440l127 440h44l-145 -488h-51z" />
    <glyph glyph-name="uni1E8A" unicode="&#x1e8a;" horiz-adv-x="633" 
d="M84 0h-55l262 346l-262 348h55l234 -312l234 312h55l-262 -348l262 -346h-55l-234 311zM285 773v67h67v-67h-67z" />
    <glyph glyph-name="uni1E8B" unicode="&#x1e8b;" horiz-adv-x="476" 
d="M91 0h-52l174 243l-174 245h51l148 -212l148 212h51l-174 -244l174 -244h-51l-148 210zM207 591v67h67v-67h-67z" />
    <glyph glyph-name="Ygrave" unicode="&#x1ef2;" horiz-adv-x="620" 
d="M288 0v273l-276 421h53l245 -380l246 380h52l-276 -421v-273h-44zM180 885h68l74 -136h-40z" />
    <glyph glyph-name="ygrave" unicode="&#x1ef3;" horiz-adv-x="481" 
d="M240 -74q-39 -104 -133 -104q-28 0 -52 4v40q23 -4 51 -4q36 0 58.5 18t37.5 56l20 51l-190 501h45l166 -444l166 444h44zM114 694h68l74 -136h-40z" />
    <glyph glyph-name="endash" unicode="&#x2013;" horiz-adv-x="500" 
d="M41 245v40h418v-40h-418z" />
    <glyph glyph-name="emdash" unicode="&#x2014;" horiz-adv-x="1000" 
d="M41 245v40h918v-40h-918z" />
    <glyph glyph-name="quoteleft" unicode="&#x2018;" horiz-adv-x="216" 
d="M64 493v97q0 106 96 109v-30q-63 -4 -63 -77v-21h45v-78h-78z" />
    <glyph glyph-name="quoteright" unicode="&#x2019;" horiz-adv-x="216" 
d="M151 694v-97q0 -106 -96 -109v30q63 4 63 77v21h-45v78h78z" />
    <glyph glyph-name="quotesinglbase" unicode="&#x201a;" horiz-adv-x="216" 
d="M153 78v-97q0 -106 -96 -109v30q63 4 63 77v21h-45v78h78z" />
    <glyph glyph-name="quotedblleft" unicode="&#x201c;" horiz-adv-x="376" 
d="M224 493v97q0 106 96 109v-30q-63 -4 -63 -77v-21h45v-78h-78zM64 493v97q0 106 96 109v-30q-63 -4 -63 -77v-21h45v-78h-78z" />
    <glyph glyph-name="quotedblright" unicode="&#x201d;" horiz-adv-x="376" 
d="M151 694v-97q0 -106 -96 -109v30q63 4 63 77v21h-45v78h78zM311 694v-97q0 -106 -96 -109v30q63 4 63 77v21h-45v78h78z" />
    <glyph glyph-name="quotedblbase" unicode="&#x201e;" horiz-adv-x="376" 
d="M153 78v-97q0 -106 -96 -109v30q63 4 63 77v21h-45v78h78zM313 78v-97q0 -106 -96 -109v30q63 4 63 77v21h-45v78h78z" />
    <glyph glyph-name="dagger" unicode="&#x2020;" horiz-adv-x="422" 
d="M361 559v-37h-130v-285h-40v285h-130v37h130v135h40v-135h130z" />
    <glyph glyph-name="daggerdbl" unicode="&#x2021;" horiz-adv-x="432" 
d="M366 397v-37h-130v-131h-40v131h-130v37h130v125h-130v37h130v135h40v-135h130v-37h-130v-125h130z" />
    <glyph glyph-name="bullet" unicode="&#x2022;" horiz-adv-x="423" 
d="M87 290q0 52 36.5 88.5t88.5 36.5t88.5 -36.5t36.5 -88.5t-36.5 -88.5t-88.5 -36.5t-88.5 36.5t-36.5 88.5z" />
    <glyph glyph-name="ellipsis" unicode="&#x2026;" horiz-adv-x="695" 
d="M85 0v82h82v-82h-82zM306 0v82h82v-82h-82zM528 0v82h82v-82h-82z" />
    <glyph glyph-name="perthousand" unicode="&#x2030;" horiz-adv-x="1232" 
d="M248 0h-44l399 694h44zM84 529q0 -63 34 -100.5t89 -37.5t89 37.5t34 100.5t-34 100.5t-89 37.5t-89 -37.5t-34 -100.5zM372 529q0 -84 -49 -130.5t-116 -46.5t-116 46.5t-49 130.5t49 130.5t116 46.5t116 -46.5t49 -130.5zM523 166q0 -63 34 -100.5t89 -37.5t89 37.5
t34 100.5t-34 100.5t-89 37.5t-89 -37.5t-34 -100.5zM811 166q0 -84 -49 -130.5t-116 -46.5t-116 46.5t-49 130.5t49 130.5t116 46.5t116 -46.5t49 -130.5zM916 166q0 -63 34 -100.5t89 -37.5t89 37.5t34 100.5t-34 100.5t-89 37.5t-89 -37.5t-34 -100.5zM1204 166
q0 -84 -49 -130.5t-116 -46.5t-116 46.5t-49 130.5t49 130.5t116 46.5t116 -46.5t49 -130.5z" />
    <glyph glyph-name="guilsinglleft" unicode="&#x2039;" horiz-adv-x="298" 
d="M109 234l121 -200h-44l-130 200l130 200h44z" />
    <glyph glyph-name="guilsinglright" unicode="&#x203a;" horiz-adv-x="298" 
d="M68 34l121 200l-121 200h44l130 -200l-130 -200h-44z" />
    <glyph glyph-name="fraction" unicode="&#x2044;" horiz-adv-x="152" 
d="M-210 0l526 694h46l-526 -694h-46z" />
    <glyph glyph-name="uni2070" unicode="&#x2070;" horiz-adv-x="368" 
d="M184 313q-62 0 -100.5 47.5t-38.5 146.5t38.5 146.5t100.5 47.5t100.5 -47.5t38.5 -146.5t-38.5 -146.5t-100.5 -47.5zM184 348q47 0 74 39.5t27 119.5t-27 119.5t-74 39.5t-74 -39.5t-27 -119.5t27 -119.5t74 -39.5z" />
    <glyph glyph-name="uni2074" unicode="&#x2074;" horiz-adv-x="359" 
d="M264 320h-36v84h-194v37l184 253h46v-254h60v-36h-60v-84zM228 440v209l-153 -209h153z" />
    <glyph glyph-name="uni2075" unicode="&#x2075;" horiz-adv-x="339" 
d="M170 313q-54 0 -89.5 30t-35.5 83h39q0 -33 23.5 -55.5t62.5 -22.5q40 0 65.5 26t25.5 67q0 40 -25 66t-66 26q-57 0 -81 -51h-37l24 212h200v-36h-169l-16 -128q28 38 88 38q52 0 86 -35.5t34 -91.5q0 -54 -35.5 -91t-93.5 -37z" />
    <glyph glyph-name="uni2076" unicode="&#x2076;" horiz-adv-x="353" 
d="M184 313q-64 0 -101.5 46.5t-37.5 145.5q0 101 39 148.5t103 47.5q52 0 83.5 -30.5t33.5 -71.5h-39q-4 29 -24.5 48t-53.5 19q-105 0 -106 -163q27 66 108 66q52 0 85.5 -35t33.5 -93q0 -60 -36 -94t-88 -34zM184 348q39 0 62.5 26.5t23.5 66.5t-24 66.5t-63 26.5
q-40 0 -64.5 -28t-24.5 -65q0 -40 25 -66.5t65 -26.5z" />
    <glyph glyph-name="uni2077" unicode="&#x2077;" horiz-adv-x="317" 
d="M28 658v36h256v-36l-155 -338h-42l157 338h-216z" />
    <glyph glyph-name="uni2078" unicode="&#x2078;" horiz-adv-x="349" 
d="M175 313q-62 0 -97 30t-35 81q0 68 66 91q-52 25 -52 83q0 43 32.5 73t85.5 30t85.5 -30t32.5 -73q0 -57 -50 -83q64 -23 64 -91q0 -51 -35 -81t-97 -30zM175 348q44 0 69 21.5t25 54.5q0 31 -25 52t-69 21t-69 -21t-25 -52q0 -33 25 -54.5t69 -21.5zM175 533
q37 0 58.5 17.5t21.5 47.5q0 29 -22 48.5t-58 19.5t-58 -19.5t-22 -48.5q0 -30 21.5 -47.5t58.5 -17.5z" />
    <glyph glyph-name="uni2079" unicode="&#x2079;" horiz-adv-x="353" 
d="M169 701q64 0 101.5 -46.5t37.5 -145.5q0 -101 -39 -148.5t-103 -47.5q-52 0 -83.5 30.5t-33.5 71.5h39q4 -29 24.5 -48t53.5 -19q105 0 105 163q-27 -66 -107 -66q-52 0 -85.5 35t-33.5 93q0 60 36 94t88 34zM169 666q-39 0 -62.5 -26.5t-23.5 -66.5t24 -66.5t63 -26.5
q40 0 64.5 28t24.5 65q0 40 -25 66.5t-65 26.5z" />
    <glyph glyph-name="parenleft.sups" unicode="&#x207d;" horiz-adv-x="205" 
d="M94 505q0 -119 79 -218h-40q-79 90 -79 218t79 218h40q-79 -99 -79 -218z" />
    <glyph glyph-name="parenright.sups" unicode="&#x207e;" horiz-adv-x="205" 
d="M111 505q0 119 -79 218h40q79 -90 79 -218t-79 -218h-40q79 99 79 218z" />
    <glyph glyph-name="uni2080" unicode="&#x2080;" horiz-adv-x="368" 
d="M184 -117q-62 0 -100.5 47.5t-38.5 146.5t38.5 146.5t100.5 47.5t100.5 -47.5t38.5 -146.5t-38.5 -146.5t-100.5 -47.5zM184 -82q47 0 74 39.5t27 119.5t-27 119.5t-74 39.5t-74 -39.5t-27 -119.5t27 -119.5t74 -39.5z" />
    <glyph glyph-name="uni2081" unicode="&#x2081;" horiz-adv-x="272" 
d="M178 -110h-36v332l-102 -66v41l103 67h35v-374z" />
    <glyph glyph-name="uni2082" unicode="&#x2082;" horiz-adv-x="326" 
d="M292 -110h-242v36l142 143q30 31 42 51t12 46q0 31 -22 50.5t-56 19.5q-39 0 -62 -24t-23 -59h-39q0 49 34 83.5t90 34.5q54 0 85 -30t31 -75q0 -33 -13.5 -59t-45.5 -57l-125 -124h192v-36z" />
    <glyph glyph-name="uni2083" unicode="&#x2083;" horiz-adv-x="341" 
d="M173 -117q-60 0 -96.5 30t-36.5 83h39q0 -35 26 -56.5t68 -21.5t64.5 20t22.5 55q0 33 -25.5 51.5t-74.5 18.5h-15v38h15q44 0 65.5 19t21.5 49t-22.5 48.5t-56.5 18.5q-38 0 -61.5 -22t-23.5 -60h-39q0 52 34 84.5t90 32.5q54 0 85.5 -29.5t31.5 -72.5q0 -60 -54 -84
q32 -11 49.5 -36t17.5 -56q0 -51 -33 -80.5t-92 -29.5z" />
    <glyph glyph-name="uni2084" unicode="&#x2084;" horiz-adv-x="359" 
d="M264 -110h-36v84h-194v37l184 253h46v-254h60v-36h-60v-84zM228 10v209l-153 -209h153z" />
    <glyph glyph-name="uni2085" unicode="&#x2085;" horiz-adv-x="339" 
d="M170 -117q-54 0 -89.5 30t-35.5 83h39q0 -33 23.5 -55.5t62.5 -22.5q40 0 65.5 26t25.5 67q0 40 -25 66t-66 26q-57 0 -81 -51h-37l24 212h200v-36h-169l-16 -128q28 38 88 38q52 0 86 -35.5t34 -91.5q0 -54 -35.5 -91t-93.5 -37z" />
    <glyph glyph-name="uni2086" unicode="&#x2086;" horiz-adv-x="353" 
d="M184 -117q-64 0 -101.5 46.5t-37.5 145.5q0 101 39 148.5t103 47.5q52 0 83.5 -30.5t33.5 -71.5h-39q-4 29 -24.5 48t-53.5 19q-105 0 -106 -163q27 66 108 66q52 0 85.5 -35t33.5 -93q0 -60 -36 -94t-88 -34zM184 -82q39 0 62.5 26.5t23.5 66.5t-24 66.5t-63 26.5
q-40 0 -64.5 -28t-24.5 -65q0 -40 25 -66.5t65 -26.5z" />
    <glyph glyph-name="uni2087" unicode="&#x2087;" horiz-adv-x="313" 
d="M28 228v36h256v-36l-155 -338h-42l157 338h-216z" />
    <glyph glyph-name="uni2088" unicode="&#x2088;" horiz-adv-x="349" 
d="M175 -117q-62 0 -97 30t-35 81q0 68 66 91q-52 25 -52 83q0 43 32.5 73t85.5 30t85.5 -30t32.5 -73q0 -57 -50 -83q64 -23 64 -91q0 -51 -35 -81t-97 -30zM175 -82q44 0 69 21.5t25 54.5q0 31 -25 52t-69 21t-69 -21t-25 -52q0 -33 25 -54.5t69 -21.5zM175 103
q37 0 58.5 17.5t21.5 47.5q0 29 -22 48.5t-58 19.5t-58 -19.5t-22 -48.5q0 -30 21.5 -47.5t58.5 -17.5z" />
    <glyph glyph-name="uni2089" unicode="&#x2089;" horiz-adv-x="353" 
d="M169 271q64 0 101.5 -46.5t37.5 -145.5q0 -101 -39 -148.5t-103 -47.5q-52 0 -83.5 30.5t-33.5 71.5h39q4 -29 24.5 -48t53.5 -19q105 0 105 163q-27 -66 -107 -66q-52 0 -85.5 35t-33.5 93q0 60 36 94t88 34zM169 236q-39 0 -62.5 -26.5t-23.5 -66.5t24 -66.5t63 -26.5
q40 0 64.5 28t24.5 65q0 40 -25 66.5t-65 26.5z" />
    <glyph glyph-name="Euro" unicode="&#x20ac;" horiz-adv-x="706" 
d="M59 396v40h82q18 117 78.5 193t167.5 76q94 0 154.5 -57t76.5 -164h-48q-14 89 -64.5 133.5t-118.5 44.5q-87 0 -136 -63t-64 -163h241v-40h-245q-2 -34 -2 -49q0 -34 2 -51h245v-40h-241q15 -99 65 -161.5t139 -62.5q66 0 116 44.5t63 133.5h48q-16 -107 -75.5 -164
t-151.5 -57q-109 0 -171 75t-79 192h-82v40h78q-2 17 -2 51q0 32 2 49h-78z" />
    <glyph glyph-name="trademark" unicode="&#x2122;" horiz-adv-x="817" 
d="M51 656v38h288v-38h-124v-293h-40v293h-124zM543 362l-116 280v-280h-38v332h58l121 -292l117 292h58v-332h-38v280l-116 -280h-46z" />
    <glyph glyph-name="Omega" unicode="&#x2126;" horiz-adv-x="785" 
d="M666 351q0 142 -79 226.5t-194 84.5t-194.5 -84.5t-79.5 -226.5q0 -232 217 -311v-40h-269v41h173q-81 40 -124 121t-43 189q0 156 90 255t230 99t230 -99t90 -255q0 -107 -44 -188.5t-125 -121.5h175v-41h-270v40q217 79 217 311z" />
    <glyph glyph-name="uni2153" unicode="&#x2153;" horiz-adv-x="771" 
d="M75 0l526 694h46l-526 -694h-46zM168 320h-36v332l-102 -66v41l103 67h35v-374zM603 -7q-60 0 -96.5 30t-36.5 83h39q0 -35 26 -56.5t68 -21.5t64.5 20t22.5 55q0 33 -25.5 51.5t-74.5 18.5h-15v38h15q44 0 65.5 19t21.5 49t-22.5 48.5t-56.5 18.5q-38 0 -61.5 -22
t-23.5 -60h-39q0 52 34 84.5t90 32.5q54 0 85.5 -29.5t31.5 -72.5q0 -60 -54 -84q32 -11 49.5 -36t17.5 -56q0 -51 -33 -80.5t-92 -29.5z" />
    <glyph glyph-name="uni2154" unicode="&#x2154;" horiz-adv-x="833" 
d="M282 320h-242v36l142 143q30 31 42 51t12 46q0 31 -22 50.5t-56 19.5q-39 0 -62 -24t-23 -59h-39q0 49 34 83.5t90 34.5q54 0 85 -30t31 -75q0 -33 -13.5 -59t-45.5 -57l-125 -124h192v-36zM137 0l526 694h46l-526 -694h-46zM665 -7q-60 0 -96.5 30t-36.5 83h39
q0 -35 26 -56.5t68 -21.5t64.5 20t22.5 55q0 33 -25.5 51.5t-74.5 18.5h-15v38h15q44 0 65.5 19t21.5 49t-22.5 48.5t-56.5 18.5q-38 0 -61.5 -22t-23.5 -60h-39q0 52 34 84.5t90 32.5q54 0 85.5 -29.5t31.5 -72.5q0 -60 -54 -84q32 -11 49.5 -36t17.5 -56q0 -51 -33 -80.5
t-92 -29.5z" />
    <glyph glyph-name="uni2155" unicode="&#x2155;" horiz-adv-x="776" 
d="M75 0l526 694h46l-526 -694h-46zM168 320h-36v332l-102 -66v41l103 67h35v-374zM607 -7q-54 0 -89.5 30t-35.5 83h39q0 -33 23.5 -55.5t62.5 -22.5q40 0 65.5 26t25.5 67q0 40 -25 66t-66 26q-57 0 -81 -51h-37l24 212h200v-36h-169l-16 -128q28 38 88 38q52 0 86 -35.5
t34 -91.5q0 -54 -35.5 -91t-93.5 -37z" />
    <glyph glyph-name="uni2156" unicode="&#x2156;" horiz-adv-x="837" 
d="M282 320h-242v36l142 143q30 31 42 51t12 46q0 31 -22 50.5t-56 19.5q-39 0 -62 -24t-23 -59h-39q0 49 34 83.5t90 34.5q54 0 85 -30t31 -75q0 -33 -13.5 -59t-45.5 -57l-125 -124h192v-36zM668 -7q-54 0 -89.5 30t-35.5 83h39q0 -33 23.5 -55.5t62.5 -22.5q40 0 65.5 26
t25.5 67q0 40 -25 66t-66 26q-57 0 -81 -51h-37l24 212h200v-36h-169l-16 -128q29 38 88 38q52 0 86 -35.5t34 -91.5q0 -54 -35.5 -91t-93.5 -37zM137 0l526 694h46l-526 -694h-46z" />
    <glyph glyph-name="uni2157" unicode="&#x2157;" horiz-adv-x="848" 
d="M173 313q-60 0 -96.5 30t-36.5 83h39q0 -35 26 -56.5t68 -21.5t64.5 20t22.5 55q0 33 -25.5 51.5t-74.5 18.5h-15v38h15q44 0 65.5 19t21.5 49t-22.5 48.5t-56.5 18.5q-38 0 -61.5 -22t-23.5 -60h-39q0 52 34 84.5t90 32.5q54 0 85.5 -29.5t31.5 -72.5q0 -60 -54 -84
q32 -11 49.5 -36t17.5 -56q0 -51 -33 -80.5t-92 -29.5zM679 -7q-54 0 -89.5 30t-35.5 83h39q0 -33 23.5 -55.5t62.5 -22.5q40 0 65.5 26t25.5 67q0 40 -25 66t-66 26q-57 0 -81 -51h-37l24 212h200v-36h-169l-16 -128q28 38 88 38q52 0 86 -35.5t34 -91.5q0 -54 -35.5 -91
t-93.5 -37zM147 0l526 694h46l-526 -694h-46z" />
    <glyph glyph-name="uni2158" unicode="&#x2158;" horiz-adv-x="863" 
d="M264 320h-36v84h-194v37l184 253h46v-254h60v-36h-60v-84zM228 440v209l-153 -209h153zM694 -7q-54 0 -89.5 30t-35.5 83h39q0 -33 23.5 -55.5t62.5 -22.5q40 0 65.5 26t25.5 67q0 40 -25 66t-66 26q-57 0 -81 -51h-37l24 212h200v-36h-169l-16 -128q29 38 88 38
q52 0 86 -35.5t34 -91.5q0 -54 -35.5 -91t-93.5 -37zM162 0l526 694h46l-526 -694h-46z" />
    <glyph glyph-name="uni2159" unicode="&#x2159;" horiz-adv-x="794" 
d="M605 -7q-64 0 -101.5 46.5t-37.5 145.5q0 101 39 148.5t103 47.5q52 0 83.5 -30.5t33.5 -71.5h-39q-4 29 -24.5 48t-53.5 19q-105 0 -106 -163q27 66 108 66q52 0 85.5 -35t33.5 -93q0 -60 -36 -94t-88 -34zM605 28q39 0 62.5 26.5t23.5 66.5t-24 66.5t-63 26.5
q-40 0 -64.5 -28t-24.5 -65q0 -40 25 -66.5t65 -26.5zM75 0l526 694h46l-526 -694h-46zM168 320h-36v332l-102 -66v41l103 67h35v-374z" />
    <glyph glyph-name="uni215A" unicode="&#x215a;" horiz-adv-x="864" 
d="M170 313q-54 0 -89.5 30t-35.5 83h39q0 -33 23.5 -55.5t62.5 -22.5q40 0 65.5 26t25.5 67q0 40 -25 66t-66 26q-57 0 -81 -51h-37l24 212h200v-36h-169l-16 -128q28 38 88 38q52 0 86 -35.5t34 -91.5q0 -54 -35.5 -91t-93.5 -37zM685 -7q-64 0 -101.5 46.5t-37.5 145.5
q0 101 39 148.5t103 47.5q52 0 83.5 -30.5t33.5 -71.5h-39q-4 29 -24.5 48t-53.5 19q-105 0 -106 -163q27 66 108 66q52 0 85.5 -35t33.5 -93q0 -60 -36 -94t-88 -34zM685 28q39 0 62.5 26.5t23.5 66.5t-24 66.5t-63 26.5q-40 0 -64.5 -28t-24.5 -65q0 -40 25 -66.5
t65 -26.5zM145 0l526 694h46l-526 -694h-46z" />
    <glyph glyph-name="uni215B" unicode="&#x215b;" horiz-adv-x="781" 
d="M607 -7q-62 0 -97 30t-35 81q0 68 66 91q-52 25 -52 83q0 43 32.5 73t85.5 30t85.5 -30t32.5 -73q0 -57 -50 -83q64 -23 64 -91q0 -51 -35 -81t-97 -30zM607 28q44 0 69 21.5t25 54.5q0 31 -25 52t-69 21t-69 -21t-25 -52q0 -33 25 -54.5t69 -21.5zM607 213
q37 0 58.5 17.5t21.5 47.5q0 29 -22 48.5t-58 19.5t-58 -19.5t-22 -48.5q0 -30 21.5 -47.5t58.5 -17.5zM75 0l526 694h46l-526 -694h-46zM168 320h-36v332l-102 -66v41l103 67h35v-374z" />
    <glyph glyph-name="uni215C" unicode="&#x215c;" horiz-adv-x="853" 
d="M679 -7q-62 0 -97 30t-35 81q0 68 66 91q-52 25 -52 83q0 43 32.5 73t85.5 30t85.5 -30t32.5 -73q0 -57 -50 -83q64 -23 64 -91q0 -51 -35 -81t-97 -30zM679 28q44 0 69 21.5t25 54.5q0 31 -25 52t-69 21t-69 -21t-25 -52q0 -33 25 -54.5t69 -21.5zM679 213
q37 0 58.5 17.5t21.5 47.5q0 29 -22 48.5t-58 19.5t-58 -19.5t-22 -48.5q0 -30 21.5 -47.5t58.5 -17.5zM173 313q-60 0 -96.5 30t-36.5 83h39q0 -35 26 -56.5t68 -21.5t64.5 20t22.5 55q0 33 -25.5 51.5t-74.5 18.5h-15v38h15q44 0 65.5 19t21.5 49t-22.5 48.5t-56.5 18.5
q-38 0 -61.5 -22t-23.5 -60h-39q0 52 34 84.5t90 32.5q54 0 85.5 -29.5t31.5 -72.5q0 -60 -54 -84q32 -11 49.5 -36t17.5 -56q0 -51 -33 -80.5t-92 -29.5zM147 0l526 694h46l-526 -694h-46z" />
    <glyph glyph-name="uni215D" unicode="&#x215d;" horiz-adv-x="851" 
d="M677 -7q-62 0 -97 30t-35 81q0 68 66 91q-52 25 -52 83q0 43 32.5 73t85.5 30t85.5 -30t32.5 -73q0 -57 -50 -83q64 -23 64 -91q0 -51 -35 -81t-97 -30zM677 28q44 0 69 21.5t25 54.5q0 31 -25 52t-69 21t-69 -21t-25 -52q0 -33 25 -54.5t69 -21.5zM677 213
q37 0 58.5 17.5t21.5 47.5q0 29 -22 48.5t-58 19.5t-58 -19.5t-22 -48.5q0 -30 21.5 -47.5t58.5 -17.5zM170 313q-54 0 -89.5 30t-35.5 83h39q0 -33 23.5 -55.5t62.5 -22.5q40 0 65.5 26t25.5 67q0 40 -25 66t-66 26q-57 0 -81 -51h-37l24 212h200v-36h-169l-16 -128
q28 38 88 38q52 0 86 -35.5t34 -91.5q0 -54 -35.5 -91t-93.5 -37zM145 0l526 694h46l-526 -694h-46z" />
    <glyph glyph-name="uni215E" unicode="&#x215e;" horiz-adv-x="800" 
d="M28 658v36h256v-36l-155 -338h-42l157 338h-216zM95 0l526 694h46l-526 -694h-46zM626 -7q-62 0 -97 30t-35 81q0 68 66 91q-52 25 -52 83q0 43 32.5 73t85.5 30t85.5 -30t32.5 -73q0 -57 -50 -83q64 -23 64 -91q0 -51 -35 -81t-97 -30zM626 28q44 0 69 21.5t25 54.5
q0 31 -25 52t-69 21t-69 -21t-25 -52q0 -33 25 -54.5t69 -21.5zM626 213q37 0 58.5 17.5t21.5 47.5q0 29 -22 48.5t-58 19.5t-58 -19.5t-22 -48.5q0 -30 21.5 -47.5t58.5 -17.5z" />
    <glyph glyph-name="uni2190" unicode="&#x2190;" 
d="M335 644h55l-274 -276h669v-40h-671l276 -278h-55l-296 297z" />
    <glyph glyph-name="uni2191" unicode="&#x2191;" 
d="M709 424v-55l-276 274v-669h-40v671l-278 -276v55l297 296z" />
    <glyph glyph-name="uni2192" unicode="&#x2192;" 
d="M434 644h55l296 -297l-296 -297h-55l276 278h-671v40h669z" />
    <glyph glyph-name="uni2193" unicode="&#x2193;" 
d="M709 325v-55l-297 -296l-297 296v55l278 -276v671h40v-669z" />
    <glyph glyph-name="partialdiff" unicode="&#x2202;" horiz-adv-x="552" 
d="M176 694h64q108 -65 183 -183.5t75 -267.5q0 -104 -58.5 -177.5t-162.5 -73.5q-97 0 -159 68.5t-62 182.5q0 116 62.5 184.5t154.5 68.5q81 0 140 -59q-73 151 -237 257zM101 243q0 -93 47 -150.5t129 -57.5t129 57.5t47 150.5q0 94 -46.5 152t-129.5 58t-129.5 -58
t-46.5 -152z" />
    <glyph glyph-name="Delta" unicode="&#x2206;" horiz-adv-x="703" 
d="M650 45v-45h-593v45l271 649h49zM353 644l-250 -602h500z" />
    <glyph glyph-name="product" unicode="&#x220f;" horiz-adv-x="728" 
d="M103 0v694h522v-694h-44v652h-434v-652h-44z" />
    <glyph glyph-name="summation" unicode="&#x2211;" horiz-adv-x="581" 
d="M57 42l235 312l-235 298v42h470v-42h-415l218 -274v-44l-220 -291h421v-43h-474v42z" />
    <glyph glyph-name="minus" unicode="&#x2212;" horiz-adv-x="650" 
d="M101 303v41h448v-41h-448z" />
    <glyph glyph-name="radical" unicode="&#x221a;" horiz-adv-x="635" 
d="M56 296v40h136l108 -293l242 651h45l-263 -694h-49l-115 296h-104z" />
    <glyph glyph-name="infinity" unicode="&#x221e;" horiz-adv-x="631" 
d="M167 452q80 0 148 -100q72 100 150 100q61 0 98 -37.5t37 -94.5t-37 -95t-98 -38q-82 0 -150 98q-69 -98 -148 -98q-61 0 -98.5 38t-37.5 95t37.5 94.5t98.5 37.5zM465 412q-37 0 -63.5 -22.5t-62.5 -71.5q33 -45 61 -68t65 -23q43 0 68 26t25 67t-25 66.5t-68 25.5z
M166 227q36 0 63.5 22.5t61.5 68.5q-33 47 -61 70.5t-64 23.5q-41 0 -67 -26t-26 -66t26 -66.5t67 -26.5z" />
    <glyph glyph-name="integral" unicode="&#x222b;" horiz-adv-x="421" 
d="M218 554v-582q0 -150 -126 -150q-25 0 -45 4v40q24 -4 41 -4q88 0 88 102v588q0 71 34 110t95 39q26 0 56 -7v-40q-21 6 -56 6q-87 0 -87 -106z" />
    <glyph glyph-name="approxequal" unicode="&#x2248;" horiz-adv-x="650" 
d="M455 362q-40 0 -133.5 31t-126.5 31q-20 0 -33 -14t-13 -41v-12h-40v15q0 43 22.5 67.5t63.5 24.5q40 0 133.5 -31t126.5 -31q47 0 47 55v12h40v-14q0 -43 -22.5 -68t-64.5 -25zM455 172q-40 0 -133.5 31t-126.5 31q-20 0 -33 -14t-13 -41v-12h-40v15q0 43 22.5 67.5
t63.5 24.5q40 0 133.5 -31t126.5 -31q47 0 47 55v12h40v-14q0 -43 -22.5 -68t-64.5 -25z" />
    <glyph glyph-name="notequal" unicode="&#x2260;" horiz-adv-x="650" 
d="M92 410v41h263l48 120h42l-48 -120h161v-41h-178l-69 -174h247v-41h-263l-48 -121h-42l48 121h-161v41h177l70 174h-247z" />
    <glyph glyph-name="lessequal" unicode="&#x2264;" horiz-adv-x="650" 
d="M102 371v38l443 187v-45l-387 -161l387 -161v-45zM96 0v41h446v-41h-446z" />
    <glyph glyph-name="greaterequal" unicode="&#x2265;" horiz-adv-x="650" 
d="M548 409v-38l-443 -187v45l386 161l-386 161v45zM555 41v-41h-446v41h446z" />
    <glyph glyph-name="uni2295" unicode="&#x2295;" 
d="M770 347q0 -151 -103.5 -254.5t-254.5 -103.5t-254.5 103.5t-103.5 254.5t103.5 254.5t254.5 103.5t254.5 -103.5t103.5 -254.5zM431 28q122 7 207 92.5t92 207.5h-299v-300zM93 328q7 -122 92 -207t207 -92v299h-299zM431 665v-298h299q-7 121 -92.5 206t-206.5 92z
M392 665q-122 -7 -206.5 -92t-92.5 -206h299v298z" />
    <glyph glyph-name="uni2296" unicode="&#x2296;" 
d="M412 -11q-151 0 -254.5 103.5t-103.5 254.5t103.5 254.5t254.5 103.5t254.5 -103.5t103.5 -254.5t-103.5 -254.5t-254.5 -103.5zM412 28q129 0 219.5 86t98.5 213h-636q8 -127 99 -213t219 -86zM412 666q-128 0 -219.5 -86.5t-98.5 -213.5h637q-8 127 -99 213.5
t-220 86.5z" />
    <glyph glyph-name="uni2297" unicode="&#x2297;" 
d="M770 347q0 -151 -103.5 -254.5t-254.5 -103.5t-254.5 103.5t-103.5 254.5t103.5 254.5t254.5 103.5t254.5 -103.5t103.5 -254.5zM93 347q0 -124 79 -212l212 212l-212 212q-79 -90 -79 -212zM412 28q122 0 212 79l-212 212l-212 -212q88 -79 212 -79zM412 666
q-122 0 -212 -79l212 -212l212 212q-90 79 -212 79zM731 347q0 122 -79 212l-212 -212l212 -212q79 90 79 212z" />
    <glyph glyph-name="uni2299" unicode="&#x2299;" 
d="M286 347q0 53 36.5 89.5t89.5 36.5t89.5 -36.5t36.5 -89.5t-36.5 -89.5t-89.5 -36.5t-89.5 36.5t-36.5 89.5zM93 347q0 -133 92.5 -226t226.5 -93t226.5 93t92.5 226t-92.5 226t-226.5 93t-226.5 -93t-92.5 -226zM770 347q0 -151 -103.5 -254.5t-254.5 -103.5
t-254.5 103.5t-103.5 254.5t103.5 254.5t254.5 103.5t254.5 -103.5t103.5 -254.5z" />
    <glyph glyph-name="uni22A0" unicode="&#x22a0;" 
d="M759 0h-694v694h694v-694zM692 39l-280 280l-280 -280h560zM720 67v560l-280 -280zM692 655h-560l280 -280zM104 627v-560l280 280z" />
    <glyph glyph-name="uni2460" unicode="&#x2460;" horiz-adv-x="950" 
d="M475 728q-159 0 -270 -111t-111 -270t111 -270t270 -111t270 111t111 270t-111 270t-270 111zM475 767q177 0 298.5 -121.5t121.5 -298.5t-121.5 -298.5t-298.5 -121.5t-298.5 121.5t-121.5 298.5t121.5 298.5t298.5 121.5zM513 94h-43v455l-120 -91v50l123 92h40v-506z
" />
    <glyph glyph-name="uni2461" unicode="&#x2461;" horiz-adv-x="950" 
d="M325 94v41l188 206q68 74 68 132q0 42 -29.5 68t-75.5 26q-51 0 -83 -31.5t-32 -87.5h-45q1 72 45 115.5t114 43.5q68 0 109.5 -39.5t41.5 -95.5q0 -71 -84 -161l-162 -177h254v-40h-309zM475 728q-159 0 -270 -111t-111 -270t111 -270t270 -111t270 111t111 270
t-111 270t-270 111zM475 767q177 0 298.5 -121.5t121.5 -298.5t-121.5 -298.5t-298.5 -121.5t-298.5 121.5t-121.5 298.5t121.5 298.5t298.5 121.5z" />
    <glyph glyph-name="uni2462" unicode="&#x2462;" horiz-adv-x="950" 
d="M475 88q-72 0 -117.5 41t-47.5 109h44q3 -49 35 -79.5t86 -30.5t87 29t33 76q0 49 -33.5 76t-98.5 27h-16v38h14q61 0 90.5 30t29.5 72t-30 68t-76 26q-50 0 -81.5 -30t-33.5 -80h-44q3 67 46.5 108.5t112.5 41.5q67 0 108.5 -39.5t41.5 -94.5q0 -40 -23 -72.5t-58 -46.5
q40 -9 67 -41t27 -83q0 -64 -45 -104.5t-118 -40.5zM475 728q-159 0 -270 -111t-111 -270t111 -270t270 -111t270 111t111 270t-111 270t-270 111zM475 767q177 0 298.5 -121.5t121.5 -298.5t-121.5 -298.5t-298.5 -121.5t-298.5 121.5t-121.5 298.5t121.5 298.5
t298.5 121.5z" />
    <glyph glyph-name="uni2463" unicode="&#x2463;" horiz-adv-x="950" 
d="M561 94h-42v123h-257v38l248 345h51v-344h76v-39h-76v-123zM519 256v288l-207 -288h207zM475 728q-159 0 -270 -111t-111 -270t111 -270t270 -111t270 111t111 270t-111 270t-270 111zM475 767q177 0 298.5 -121.5t121.5 -298.5t-121.5 -298.5t-298.5 -121.5
t-298.5 121.5t-121.5 298.5t121.5 298.5t298.5 121.5z" />
    <glyph glyph-name="uni2464" unicode="&#x2464;" horiz-adv-x="950" 
d="M475 126q57 0 90.5 36t33.5 95q0 56 -32.5 92t-84.5 36q-39 0 -68 -19.5t-42 -52.5h-44l34 287h250v-40h-215l-22 -186q16 22 46 36t65 14q67 0 112 -47.5t45 -119.5q0 -75 -45.5 -122.5t-122.5 -47.5q-72 0 -117 40.5t-49 109.5h45q2 -49 35 -80t86 -31zM475 728
q-159 0 -270 -111t-111 -270t111 -270t270 -111t270 111t111 270t-111 270t-270 111zM475 767q177 0 298.5 -121.5t121.5 -298.5t-121.5 -298.5t-298.5 -121.5t-298.5 121.5t-121.5 298.5t121.5 298.5t298.5 121.5z" />
    <glyph glyph-name="uni2465" unicode="&#x2465;" horiz-adv-x="950" 
d="M475 -73q-177 0 -298.5 121.5t-121.5 298.5t121.5 298.5t298.5 121.5t298.5 -121.5t121.5 -298.5t-121.5 -298.5t-298.5 -121.5zM475 -34q159 0 270 111t111 270t-111 270t-270 111t-270 -111t-111 -270t111 -270t270 -111zM476 88q-79 0 -127.5 63.5t-48.5 199.5
q0 131 48.5 195t127.5 64q63 0 103.5 -36.5t43.5 -90.5h-44q-4 37 -32 62t-72 25q-57 0 -95.5 -51t-39.5 -167q0 -6 0.5 -17.5t0.5 -12.5q11 51 49.5 77.5t89.5 26.5q69 0 114 -46t45 -121q0 -78 -45.5 -124.5t-117.5 -46.5zM476 128q54 0 87 35.5t33 94.5q0 58 -32.5 93
t-85.5 35q-54 0 -87.5 -36t-33.5 -92q0 -59 32.5 -94.5t86.5 -35.5z" />
    <glyph glyph-name="uni2466" unicode="&#x2466;" horiz-adv-x="950" 
d="M330 559v41h311v-38l-203 -468h-47l202 465h-263zM475 728q-159 0 -270 -111t-111 -270t111 -270t270 -111t270 111t111 270t-111 270t-270 111zM475 767q177 0 298.5 -121.5t121.5 -298.5t-121.5 -298.5t-298.5 -121.5t-298.5 121.5t-121.5 298.5t121.5 298.5
t298.5 121.5z" />
    <glyph glyph-name="uni2467" unicode="&#x2467;" horiz-adv-x="950" 
d="M475 728q-159 0 -270 -111t-111 -270t111 -270t270 -111t270 111t111 270t-111 270t-270 111zM475 767q177 0 298.5 -121.5t121.5 -298.5t-121.5 -298.5t-298.5 -121.5t-298.5 121.5t-121.5 298.5t121.5 298.5t298.5 121.5zM475 88q-75 0 -121 40t-46 104q0 44 25.5 78
t66.5 48q-35 16 -55.5 47.5t-20.5 67.5q0 57 42.5 97t108.5 40t108 -40t42 -97q0 -36 -20.5 -67.5t-55.5 -47.5q42 -14 67 -47.5t25 -78.5q0 -63 -46 -103.5t-120 -40.5zM475 128q56 0 88.5 29.5t32.5 75.5t-32.5 75.5t-88.5 29.5t-89 -29.5t-33 -75.5t33 -75.5t89 -29.5z
M475 375q48 0 77 28.5t29 70.5q0 41 -29 68.5t-77 27.5t-77.5 -27.5t-29.5 -68.5q0 -42 29.5 -70.5t77.5 -28.5z" />
    <glyph glyph-name="uni2468" unicode="&#x2468;" horiz-adv-x="950" 
d="M475 -34q159 0 270 111t111 270t-111 270t-270 111t-270 -111t-111 -270t111 -270t270 -111zM475 -73q-177 0 -298.5 121.5t-121.5 298.5t121.5 298.5t298.5 121.5t298.5 -121.5t121.5 -298.5t-121.5 -298.5t-298.5 -121.5zM475 610q79 0 127.5 -63.5t48.5 -199.5
q0 -131 -48.5 -195t-127.5 -64q-63 0 -103.5 36.5t-43.5 90.5h44q4 -37 32 -62t72 -25q57 0 95.5 51t39.5 167q0 6 -0.5 17.5t-0.5 12.5q-11 -51 -49.5 -77.5t-89.5 -26.5q-69 0 -114 46t-45 121q0 78 45.5 124.5t117.5 46.5zM475 570q-54 0 -87 -35.5t-33 -94.5
q0 -58 32.5 -93t85.5 -35q54 0 87.5 36t33.5 92q0 59 -32.5 94.5t-86.5 35.5z" />
    <glyph glyph-name="uni2469" unicode="&#x2469;" horiz-adv-x="949" 
d="M475 728q-159 0 -270 -111t-111 -270t111 -270t270 -111t270 111t111 270t-111 270t-270 111zM475 767q177 0 298.5 -121.5t121.5 -298.5t-121.5 -298.5t-298.5 -121.5t-298.5 121.5t-121.5 298.5t121.5 298.5t298.5 121.5zM556 90q-138 0 -138 260t138 260t138 -260
t-138 -260zM556 132q94 0 94 218t-94 218t-94 -218t94 -218zM310 94v506h43v-506h-43z" />
    <glyph glyph-name="uni25A0" unicode="&#x25a0;" 
d="M759 694v-694h-694v694h694z" />
    <glyph glyph-name="uni25A1" unicode="&#x25a1;" 
d="M759 694v-694h-694v694h694zM104 655v-616h616v616h-616z" />
    <glyph glyph-name="uni25B2" unicode="&#x25b2;" 
d="M412 705l355 -705h-709z" />
    <glyph glyph-name="uni25B3" unicode="&#x25b3;" 
d="M412 705l355 -705h-709zM122 39h581l-291 577z" />
    <glyph glyph-name="uni25B6" unicode="&#x25b6;" 
d="M60 702l705 -355l-705 -354v709z" />
    <glyph glyph-name="uni25B7" unicode="&#x25b7;" 
d="M60 701l705 -354l-705 -355v709zM99 637v-581l577 291z" />
    <glyph glyph-name="uni25BC" unicode="&#x25bc;" 
d="M767 694l-355 -705l-354 705h709z" />
    <glyph glyph-name="uni25BD" unicode="&#x25bd;" 
d="M767 694l-354 -705l-355 705h709zM703 655h-581l291 -577z" />
    <glyph glyph-name="uni25C0" unicode="&#x25c0;" 
d="M60 347l705 355v-709z" />
    <glyph glyph-name="uni25C1" unicode="&#x25c1;" 
d="M60 347l705 354v-709zM726 56v581l-577 -290z" />
    <glyph glyph-name="lozenge" unicode="&#x25ca;" horiz-adv-x="690" 
d="M39 347l284 347h43l285 -347l-285 -347h-43zM344 652l-249 -305l249 -306l251 306z" />
    <glyph glyph-name="uni25CB" unicode="&#x25cb;" 
d="M93 347q0 -133 92.5 -226t226.5 -93t226.5 93t92.5 226t-92.5 226t-226.5 93t-226.5 -93t-92.5 -226zM770 347q0 -151 -103.5 -254.5t-254.5 -103.5t-254.5 103.5t-103.5 254.5t103.5 254.5t254.5 103.5t254.5 -103.5t103.5 -254.5z" />
    <glyph glyph-name="uni25CF" unicode="&#x25cf;" 
d="M54 347q0 151 103.5 254.5t254.5 103.5t254.5 -103.5t103.5 -254.5t-103.5 -254.5t-254.5 -103.5t-254.5 103.5t-103.5 254.5z" />
    <glyph glyph-name="uni25D0" unicode="&#x25d0;" 
d="M412 666v-638q134 0 226.5 93t92.5 226t-92.5 226t-226.5 93zM412 -11q-151 0 -254.5 103.5t-103.5 254.5t103.5 254.5t254.5 103.5t254.5 -103.5t103.5 -254.5t-103.5 -254.5t-254.5 -103.5z" />
    <glyph glyph-name="uni25D1" unicode="&#x25d1;" 
d="M412 28v638q-134 0 -226.5 -93t-92.5 -226t92.5 -226t226.5 -93zM412 -11q-151 0 -254.5 103.5t-103.5 254.5t103.5 254.5t254.5 103.5t254.5 -103.5t103.5 -254.5t-103.5 -254.5t-254.5 -103.5z" />
    <glyph glyph-name="uni25D2" unicode="&#x25d2;" 
d="M93 347h638q0 133 -92.5 226t-226.5 93t-226.5 -93t-92.5 -226zM770 347q0 -151 -103.5 -254.5t-254.5 -103.5t-254.5 103.5t-103.5 254.5t103.5 254.5t254.5 103.5t254.5 -103.5t103.5 -254.5z" />
    <glyph glyph-name="uni25D3" unicode="&#x25d3;" 
d="M731 347h-638q0 -133 92.5 -226t226.5 -93t226.5 93t92.5 226zM770 347q0 -151 -103.5 -254.5t-254.5 -103.5t-254.5 103.5t-103.5 254.5t103.5 254.5t254.5 103.5t254.5 -103.5t103.5 -254.5z" />
    <glyph glyph-name="uni25D4" unicode="&#x25d4;" 
d="M770 347q0 -151 -103.5 -254.5t-254.5 -103.5t-254.5 103.5t-103.5 254.5t103.5 254.5t254.5 103.5t254.5 -103.5t103.5 -254.5zM731 347h-319v319q-134 0 -226.5 -93t-92.5 -226t92.5 -226t226.5 -93t226.5 93t92.5 226z" />
    <glyph glyph-name="uni25D5" unicode="&#x25d5;" 
d="M412 347v319q-134 0 -226.5 -93t-92.5 -226h319zM412 -11q-151 0 -254.5 103.5t-103.5 254.5t103.5 254.5t254.5 103.5t254.5 -103.5t103.5 -254.5t-103.5 -254.5t-254.5 -103.5z" />
    <glyph glyph-name="uni25E7" unicode="&#x25e7;" 
d="M65 694h694v-694h-694v694zM720 39v616h-308v-616h308z" />
    <glyph glyph-name="uni25E8" unicode="&#x25e8;" 
d="M65 694h694v-694h-694v694zM104 655v-616h308v616h-308z" />
    <glyph glyph-name="uni25E9" unicode="&#x25e9;" 
d="M65 0v694h694v-694h-694zM720 39v616l-616 -616h616z" />
    <glyph glyph-name="uni25EA" unicode="&#x25ea;" 
d="M759 694v-694h-694v694h694zM104 655v-616l616 616h-616z" />
    <glyph glyph-name="uni2690" unicode="&#x2690;" 
d="M104 293v-293h-39v694h694v-401h-655zM104 655v-323h616v323h-616z" />
    <glyph glyph-name="uni2691" unicode="&#x2691;" 
d="M104 293v-293h-39v694h694v-401h-655z" />
    <glyph glyph-name="uni278A" unicode="&#x278a;" horiz-adv-x="950" 
d="M475 767q177 0 298.5 -121.5t121.5 -298.5t-121.5 -298.5t-298.5 -121.5t-298.5 121.5t-121.5 298.5t121.5 298.5t298.5 121.5zM470 94h43v506h-40l-123 -92v-50l120 91v-455z" />
    <glyph glyph-name="uni278B" unicode="&#x278b;" horiz-adv-x="950" 
d="M325 135v-41h309v40h-254l162 177q84 90 84 161q0 56 -41.5 95.5t-109.5 39.5q-70 0 -114 -43.5t-45 -115.5h45q0 56 32 87.5t83 31.5q46 0 75.5 -26t29.5 -68q0 -58 -68 -132zM475 767q177 0 298.5 -121.5t121.5 -298.5t-121.5 -298.5t-298.5 -121.5t-298.5 121.5
t-121.5 298.5t121.5 298.5t298.5 121.5z" />
    <glyph glyph-name="uni278C" unicode="&#x278c;" horiz-adv-x="950" 
d="M475 88q73 0 118 40.5t45 104.5q0 51 -27 83t-67 41q35 14 58 46.5t23 72.5q0 55 -41.5 94.5t-108.5 39.5q-69 0 -112.5 -41.5t-46.5 -108.5h44q2 50 33.5 80t81.5 30q46 0 76 -26t30 -68t-29.5 -72t-90.5 -30h-14v-38h16q65 0 98.5 -27t33.5 -76q0 -47 -33 -76t-87 -29
t-86 30.5t-35 79.5h-44q2 -68 47.5 -109t117.5 -41zM475 767q177 0 298.5 -121.5t121.5 -298.5t-121.5 -298.5t-298.5 -121.5t-298.5 121.5t-121.5 298.5t121.5 298.5t298.5 121.5z" />
    <glyph glyph-name="uni278D" unicode="&#x278d;" horiz-adv-x="950" 
d="M519 94h42v123h76v39h-76v344h-51l-248 -345v-38h257v-123zM519 544v-288h-207zM475 767q177 0 298.5 -121.5t121.5 -298.5t-121.5 -298.5t-298.5 -121.5t-298.5 121.5t-121.5 298.5t121.5 298.5t298.5 121.5z" />
    <glyph glyph-name="uni278E" unicode="&#x278e;" horiz-adv-x="950" 
d="M475 126q-53 0 -86 31t-35 80h-45q4 -69 49 -109.5t117 -40.5q77 0 122.5 47.5t45.5 122.5q0 72 -45 119.5t-112 47.5q-35 0 -65 -14t-46 -36l22 186h215v40h-250l-34 -287h44q13 33 42 52.5t68 19.5q52 0 84.5 -36t32.5 -92q0 -59 -33.5 -95t-90.5 -36zM475 767
q177 0 298.5 -121.5t121.5 -298.5t-121.5 -298.5t-298.5 -121.5t-298.5 121.5t-121.5 298.5t121.5 298.5t298.5 121.5z" />
    <glyph glyph-name="uni278F" unicode="&#x278f;" horiz-adv-x="950" 
d="M475 -73q-177 0 -298.5 121.5t-121.5 298.5t121.5 298.5t298.5 121.5t298.5 -121.5t121.5 -298.5t-121.5 -298.5t-298.5 -121.5zM476 88q72 0 117.5 46.5t45.5 124.5q0 75 -45 121t-114 46q-51 0 -89.5 -26.5t-49.5 -77.5q0 1 -0.5 12.5t-0.5 17.5q1 116 39.5 167
t95.5 51q44 0 72 -25t32 -62h44q-3 54 -43.5 90.5t-103.5 36.5q-79 0 -127.5 -64t-48.5 -195q0 -136 48.5 -199.5t127.5 -63.5zM476 128q-54 0 -86.5 35.5t-32.5 94.5q0 56 33.5 92t87.5 36q53 0 85.5 -35t32.5 -93q0 -59 -33 -94.5t-87 -35.5z" />
    <glyph glyph-name="uni2790" unicode="&#x2790;" horiz-adv-x="950" 
d="M330 600v-41h263l-202 -465h47l203 468v38h-311zM475 767q177 0 298.5 -121.5t121.5 -298.5t-121.5 -298.5t-298.5 -121.5t-298.5 121.5t-121.5 298.5t121.5 298.5t298.5 121.5z" />
    <glyph glyph-name="uni2791" unicode="&#x2791;" horiz-adv-x="950" 
d="M475 767q177 0 298.5 -121.5t121.5 -298.5t-121.5 -298.5t-298.5 -121.5t-298.5 121.5t-121.5 298.5t121.5 298.5t298.5 121.5zM475 88q74 0 120 40.5t46 103.5q0 45 -25 78.5t-67 47.5q35 16 55.5 47.5t20.5 67.5q0 57 -42 97t-108 40t-108.5 -40t-42.5 -97
q0 -36 20.5 -67.5t55.5 -47.5q-41 -14 -66.5 -48t-25.5 -78q0 -64 46 -104t121 -40zM475 128q-56 0 -89 29.5t-33 75.5t33 75.5t89 29.5t88.5 -29.5t32.5 -75.5t-32.5 -75.5t-88.5 -29.5zM475 375q-48 0 -77.5 28.5t-29.5 70.5q0 41 29.5 68.5t77.5 27.5t77 -27.5t29 -68.5
q0 -42 -29 -70.5t-77 -28.5z" />
    <glyph glyph-name="uni2792" unicode="&#x2792;" horiz-adv-x="950" 
d="M475 -73q-177 0 -298.5 121.5t-121.5 298.5t121.5 298.5t298.5 121.5t298.5 -121.5t121.5 -298.5t-121.5 -298.5t-298.5 -121.5zM475 610q-72 0 -117.5 -46.5t-45.5 -124.5q0 -75 45 -121t114 -46q51 0 89.5 26.5t49.5 77.5q0 -1 0.5 -12.5t0.5 -17.5q-1 -116 -39.5 -167
t-95.5 -51q-44 0 -72 25t-32 62h-44q3 -54 43.5 -90.5t103.5 -36.5q79 0 127.5 64t48.5 195q0 136 -48.5 199.5t-127.5 63.5zM475 570q54 0 86.5 -35.5t32.5 -94.5q0 -56 -33.5 -92t-87.5 -36q-53 0 -85.5 35t-32.5 93q0 59 33 94.5t87 35.5z" />
    <glyph glyph-name="uni2793" unicode="&#x2793;" horiz-adv-x="949" 
d="M475 767q177 0 298.5 -121.5t121.5 -298.5t-121.5 -298.5t-298.5 -121.5t-298.5 121.5t-121.5 298.5t121.5 298.5t298.5 121.5zM556 90q138 0 138 260t-138 260t-138 -260t138 -260zM556 132q-94 0 -94 218t94 218t94 -218t-94 -218zM310 600v-506h43v506h-43z" />
    <glyph glyph-name="uni29B6" unicode="&#x29b6;" 
d="M770 347q0 -151 -103.5 -254.5t-254.5 -103.5t-254.5 103.5t-103.5 254.5t103.5 254.5t254.5 103.5t254.5 -103.5t103.5 -254.5zM731 347q0 128 -86.5 219.5t-213.5 98.5v-637q127 8 213.5 99t86.5 220zM93 347q0 -129 86 -219.5t213 -98.5v636q-127 -8 -213 -99
t-86 -219z" />
    <glyph glyph-name="uni2B12" unicode="&#x2b12;" 
d="M759 694v-694h-694v694h694zM104 39h616v308h-616v-308z" />
    <glyph glyph-name="uni2B13" unicode="&#x2b13;" 
d="M759 694v-694h-694v694h694zM720 655h-616v-308h616v308z" />
    <glyph glyph-name="uni2B14" unicode="&#x2b14;" 
d="M759 694v-694h-694v694h694zM104 655v-616h616z" />
    <glyph glyph-name="uni2B15" unicode="&#x2b15;" 
d="M65 0v694h694v-694h-694zM720 39v616h-616z" />
    <glyph glyph-name="uni2B16" unicode="&#x2b16;" 
d="M413 -14l-361 361l361 361l361 -361zM718 347l-305 305v-610z" />
    <glyph glyph-name="uni2B17" unicode="&#x2b17;" 
d="M774 347l-361 -361l-361 361l361 361zM413 652l-305 -305l305 -305v610z" />
    <glyph glyph-name="uni2B18" unicode="&#x2b18;" 
d="M774 347l-361 -361l-361 361l361 361zM413 652l-305 -305h610z" />
    <glyph glyph-name="uni2B19" unicode="&#x2b19;" 
d="M413 708l361 -361l-361 -361l-361 361zM108 347l305 -305l305 305h-610z" />
    <glyph glyph-name="uni2B2C" unicode="&#x2b2c;" 
d="M412 126q-151 0 -254.5 64.5t-103.5 157.5t103.5 157.5t254.5 64.5t254.5 -64.5t103.5 -157.5t-103.5 -157.5t-254.5 -64.5z" />
    <glyph glyph-name="uni2B2D" unicode="&#x2b2d;" 
d="M412 165q133 0 224 52.5t91 130.5t-91 130.5t-224 52.5t-224 -52.5t-91 -130.5t91 -130.5t224 -52.5zM412 126q-151 0 -254.5 64.5t-103.5 157.5t103.5 157.5t254.5 64.5t254.5 -64.5t103.5 -157.5t-103.5 -157.5t-254.5 -64.5z" />
    <glyph glyph-name="uni2B2E" unicode="&#x2b2e;" 
d="M634 347q0 -151 -64.5 -254.5t-157.5 -103.5t-157.5 103.5t-64.5 254.5t64.5 254.5t157.5 103.5t157.5 -103.5t64.5 -254.5z" />
    <glyph glyph-name="uni2B2F" unicode="&#x2b2f;" 
d="M595 348q0 133 -52.5 224t-130.5 91t-130.5 -91t-52.5 -224t52.5 -224t130.5 -91t130.5 91t52.5 224zM634 348q0 -151 -64.5 -254.5t-157.5 -103.5t-157.5 103.5t-64.5 254.5t64.5 254.5t157.5 103.5t157.5 -103.5t64.5 -254.5z" />
    <glyph glyph-name="commaaccent" unicode="&#xf6c3;" horiz-adv-x="196" 
d="M146 -45v-84q0 -72 -69 -72v35q33 0 33 37v16h-32v68h68z" />
    <glyph glyph-name="Jacute" horiz-adv-x="573" 
d="M519 886h68l-102 -136h-40zM266 32q81 0 128.5 49.5t47.5 138.5v474h44v-475q0 -107 -58.5 -168.5t-161.5 -61.5q-57 0 -100 19.5t-68 52.5t-37.5 72t-12.5 83v23h44v-22q0 -89 47 -137t127 -48z" />
    <glyph glyph-name="i.trk" horiz-adv-x="228" 
d="M93 488h42v-488h-42v488zM80 591v67h67v-67h-67z" />
    <glyph glyph-name="jacute" horiz-adv-x="227" 
d="M-37 -174v40q24 -4 41 -4q88 0 88 102v524h42v-516q0 -150 -126 -150q-25 0 -45 4zM170 694h68l-102 -136h-40z" />
    <glyph glyph-name="ringacute" horiz-adv-x="319" 
d="M159 551q-41 0 -69 27.5t-28 66.5q0 28 17 59l69 120h67l-82 -92q41 16 82 -11t41 -76q0 -39 -28 -66.5t-69 -27.5zM159 586q25 0 42.5 17t17.5 42t-17.5 42t-42.5 17t-42.5 -17t-17.5 -42t17.5 -42t42.5 -17z" />
    <glyph glyph-name="commatop" horiz-adv-x="196" 
d="M50 553v84q0 72 69 72v-35q-33 0 -33 -37v-16h32v-68h-68z" />
    <glyph glyph-name="caron.slovak" horiz-adv-x="242" 
d="M97 694h56l-60 -168h-34z" />
    <glyph glyph-name="parenleft.subs" horiz-adv-x="205" 
d="M94 78q0 -119 79 -218h-40q-79 90 -79 218t79 218h40q-79 -99 -79 -218z" />
    <glyph glyph-name="parenright.subs" horiz-adv-x="205" 
d="M111 78q0 119 -79 218h40q79 -90 79 -218t-79 -218h-40q79 99 79 218z" />
    <glyph glyph-name="zero.dnom" horiz-adv-x="368" 
d="M184 -7q-62 0 -100.5 47.5t-38.5 146.5t38.5 146.5t100.5 47.5t100.5 -47.5t38.5 -146.5t-38.5 -146.5t-100.5 -47.5zM184 28q47 0 74 39.5t27 119.5t-27 119.5t-74 39.5t-74 -39.5t-27 -119.5t27 -119.5t74 -39.5z" />
    <glyph glyph-name="one.dnom" horiz-adv-x="272" 
d="M178 0h-36v332l-102 -66v41l103 67h35v-374z" />
    <glyph glyph-name="two.dnom" horiz-adv-x="326" 
d="M292 0h-242v36l142 143q30 31 42 51t12 46q0 31 -22 50.5t-56 19.5q-39 0 -62 -24t-23 -59h-39q0 49 34 83.5t90 34.5q54 0 85 -30t31 -75q0 -33 -13.5 -59t-45.5 -57l-125 -124h192v-36z" />
    <glyph glyph-name="three.dnom" horiz-adv-x="341" 
d="M173 -7q-60 0 -96.5 30t-36.5 83h39q0 -35 26 -56.5t68 -21.5t64.5 20t22.5 55q0 33 -25.5 51.5t-74.5 18.5h-15v38h15q44 0 65.5 19t21.5 49t-22.5 48.5t-56.5 18.5q-38 0 -61.5 -22t-23.5 -60h-39q0 52 34 84.5t90 32.5q54 0 85.5 -29.5t31.5 -72.5q0 -60 -54 -84
q32 -11 49.5 -36t17.5 -56q0 -51 -33 -80.5t-92 -29.5z" />
    <glyph glyph-name="four.dnom" horiz-adv-x="359" 
d="M264 0h-36v84h-194v37l184 253h46v-254h60v-36h-60v-84zM228 120v209l-153 -209h153z" />
    <glyph glyph-name="five.dnom" horiz-adv-x="339" 
d="M170 -7q-54 0 -89.5 30t-35.5 83h39q0 -33 23.5 -55.5t62.5 -22.5q40 0 65.5 26t25.5 67q0 40 -25 66t-66 26q-57 0 -81 -51h-37l24 212h200v-36h-169l-16 -128q28 38 88 38q52 0 86 -35.5t34 -91.5q0 -54 -35.5 -91t-93.5 -37z" />
    <glyph glyph-name="six.dnom" horiz-adv-x="353" 
d="M184 -7q-64 0 -101.5 46.5t-37.5 145.5q0 101 39 148.5t103 47.5q52 0 83.5 -30.5t33.5 -71.5h-39q-4 29 -24.5 48t-53.5 19q-105 0 -106 -163q27 66 108 66q52 0 85.5 -35t33.5 -93q0 -60 -36 -94t-88 -34zM184 28q39 0 62.5 26.5t23.5 66.5t-24 66.5t-63 26.5
q-40 0 -64.5 -28t-24.5 -65q0 -40 25 -66.5t65 -26.5z" />
    <glyph glyph-name="seven.dnom" horiz-adv-x="313" 
d="M28 338v36h256v-36l-155 -338h-42l157 338h-216z" />
    <glyph glyph-name="eight.dnom" horiz-adv-x="349" 
d="M175 -7q-62 0 -97 30t-35 81q0 68 66 91q-52 25 -52 83q0 43 32.5 73t85.5 30t85.5 -30t32.5 -73q0 -57 -50 -83q64 -23 64 -91q0 -51 -35 -81t-97 -30zM175 28q44 0 69 21.5t25 54.5q0 31 -25 52t-69 21t-69 -21t-25 -52q0 -33 25 -54.5t69 -21.5zM175 213
q37 0 58.5 17.5t21.5 47.5q0 29 -22 48.5t-58 19.5t-58 -19.5t-22 -48.5q0 -30 21.5 -47.5t58.5 -17.5z" />
    <glyph glyph-name="nine.dnom" horiz-adv-x="353" 
d="M169 381q64 0 101.5 -46.5t37.5 -145.5q0 -101 -39 -148.5t-103 -47.5q-52 0 -83.5 30.5t-33.5 71.5h39q4 -29 24.5 -48t53.5 -19q105 0 105 163q-27 -66 -107 -66q-52 0 -85.5 35t-33.5 93q0 60 36 94t88 34zM169 346q-39 0 -62.5 -26.5t-23.5 -66.5t24 -66.5t63 -26.5
q40 0 64.5 28t24.5 65q0 40 -25 66.5t-65 26.5z" />
    <glyph glyph-name="parenleft.dnum" horiz-adv-x="205" 
d="M94 188q0 -119 79 -218h-40q-79 90 -79 218t79 218h40q-79 -99 -79 -218z" />
    <glyph glyph-name="parenright.dnum" horiz-adv-x="205" 
d="M111 188q0 119 -79 218h40q79 -90 79 -218t-79 -218h-40q79 99 79 218z" />
    <glyph glyph-name="backslash.case" horiz-adv-x="405" 
d="M331 -58l-301 808h44l301 -808h-44z" />
    <glyph glyph-name="bar.case" horiz-adv-x="282" 
d="M120 -58v808h42v-808h-42z" />
    <glyph glyph-name="braceleft.case" horiz-adv-x="348" 
d="M323 -19v-39h-58q-67 0 -98 30.5t-31 103.5v140q0 56 -22 80.5t-74 29.5v40q52 5 74 29.5t22 80.5v140q0 73 31 103.5t98 30.5h58v-39h-58q-49 0 -68.5 -21t-19.5 -74v-140q0 -113 -86 -130q86 -17 86 -130v-140q0 -53 19.5 -74t68.5 -21h58z" />
    <glyph glyph-name="braceright.case" horiz-adv-x="348" 
d="M25 -58v39h58q49 0 68.5 21t19.5 74v140q0 113 86 130q-86 17 -86 130v140q0 53 -19.5 74t-68.5 21h-58v39h58q67 0 98 -30.5t31 -103.5v-140q0 -56 22 -80.5t74 -29.5v-40q-52 -5 -74 -29.5t-22 -80.5v-140q0 -73 -31 -103.5t-98 -30.5h-58z" />
    <glyph glyph-name="bracketleft.case" horiz-adv-x="305" 
d="M281 711h-147v-730h147v-39h-188v808h188v-39z" />
    <glyph glyph-name="bracketright.case" horiz-adv-x="305" 
d="M212 -58h-188v39h147v730h-147v39h188v-808z" />
    <glyph glyph-name="emdash.case" horiz-adv-x="1000" 
d="M41 317v40h918v-40h-918z" />
    <glyph glyph-name="endash.case" horiz-adv-x="500" 
d="M41 317v40h418v-40h-418z" />
    <glyph glyph-name="guillemotleft.case" horiz-adv-x="476" 
d="M109 337l121 -200h-44l-130 200l130 200h44zM287 337l121 -200h-44l-130 200l130 200h44z" />
    <glyph glyph-name="guillemotright.case" horiz-adv-x="476" 
d="M246 137l121 200l-121 200h44l130 -200l-130 -200h-44zM68 137l121 200l-121 200h44l130 -200l-130 -200h-44z" />
    <glyph glyph-name="guilsinglleft.case" horiz-adv-x="298" 
d="M109 337l121 -200h-44l-130 200l130 200h44z" />
    <glyph glyph-name="guilsinglright.case" horiz-adv-x="298" 
d="M68 137l121 200l-121 200h44l130 -200l-130 -200h-44z" />
    <glyph glyph-name="hyphen.case" horiz-adv-x="378" 
d="M62 317v42h255v-42h-255z" />
    <glyph glyph-name="parenleft.case" horiz-adv-x="285" 
d="M109 346q0 -214 149 -404h-47q-145 182 -145 404t145 404h47q-149 -190 -149 -404z" />
    <glyph glyph-name="parenright.case" horiz-adv-x="285" 
d="M176 346q0 214 -149 404h47q145 -182 145 -404t-145 -404h-47q149 190 149 404z" />
    <glyph glyph-name="slash.case" horiz-adv-x="405" 
d="M375 750l-301 -808h-44l301 808h44z" />
    <glyph glyph-name="questiondown.case" horiz-adv-x="464" 
d="M32 163q0 43 20 78.5t48.5 59t57 46t48.5 51t20 61.5v18h38v-15q0 -42 -19.5 -76t-46.5 -56.5t-54.5 -44.5t-47 -53t-19.5 -70q0 -53 40 -91.5t111 -38.5q73 0 112.5 39.5t43.5 108.5h45q-2 -82 -56.5 -136.5t-144.5 -54.5q-84 0 -140 50t-56 124zM285 694v-82h-82v82h82
z" />
    <glyph glyph-name="exclamdown.case" horiz-adv-x="262" 
d="M119 477h24l11 -345v-132h-46v132zM90 612v82h82v-82h-82z" />
    <glyph glyph-name="zero.tf" horiz-adv-x="650" 
d="M325 -11q-111 0 -173 91.5t-62 266.5t62 266.5t173 91.5t173.5 -91.5t62.5 -266.5t-62.5 -266.5t-173.5 -91.5zM134 347q0 -128 35 -206l291 451q-48 72 -135 72q-91 0 -141 -81.5t-50 -235.5zM325 30q92 0 142 81.5t50 235.5q0 127 -36 207l-291 -452q50 -72 135 -72z
" />
    <glyph glyph-name="one.tf" horiz-adv-x="650" 
d="M113 0v42h220v599l-201 -124v49l203 128h42v-652h172v-42h-436z" />
    <glyph glyph-name="two.tf" horiz-adv-x="650" 
d="M127 0v42l256 290q48 53 73.5 97.5t25.5 94.5q0 62 -43.5 100t-110.5 38q-72 0 -120 -46.5t-48 -124.5h-46q1 94 61.5 154t151.5 60t146 -53.5t55 -129.5q0 -93 -117 -224l-226 -256h357v-42h-415z" />
    <glyph glyph-name="three.tf" horiz-adv-x="650" 
d="M321 -11q-96 0 -158 56t-68 151h46q4 -73 52.5 -118.5t127.5 -45.5t127 41.5t48 109.5q0 72 -49 113t-141 41h-19v39h19q87 0 129 44t42 104q0 61 -44 99.5t-111 38.5q-71 0 -117 -45t-49 -119h-46q4 90 63.5 148.5t147.5 58.5t144.5 -53.5t56.5 -127.5q0 -55 -31 -101
t-79 -65q56 -15 93 -59.5t37 -115.5q0 -85 -62 -139.5t-159 -54.5z" />
    <glyph glyph-name="four.tf" horiz-adv-x="650" 
d="M467 0h-45v172h-354v41l348 481h51v-480h107v-42h-107v-172zM422 214v416l-301 -416h301z" />
    <glyph glyph-name="five.tf" horiz-adv-x="650" 
d="M325 -11q-94 0 -155 55.5t-68 151.5h46q4 -72 52 -118t125 -46q83 0 130.5 51.5t47.5 139.5q0 82 -46.5 134.5t-123.5 52.5q-56 0 -98 -29.5t-62 -78.5h-45l46 392h335v-42h-297l-32 -272q22 31 63 52t90 21q96 0 155.5 -66t59.5 -164q0 -104 -60 -169t-163 -65z" />
    <glyph glyph-name="six.tf" horiz-adv-x="650" 
d="M341 453q96 0 156.5 -64.5t60.5 -167.5t-60.5 -167.5t-156.5 -64.5q-106 0 -173 86t-67 273q0 177 63.5 267t171.5 90q83 0 138 -49.5t61 -121.5h-46q-5 53 -47.5 90.5t-105.5 37.5q-81 0 -137 -73.5t-56 -239.5q0 -11 1 -30t1 -21q15 75 68.5 115t127.5 40zM341 410
q-78 0 -126.5 -51.5t-48.5 -137.5t48.5 -137.5t126.5 -51.5q77 0 124.5 52t47.5 137t-47.5 137t-124.5 52z" />
    <glyph glyph-name="seven.tf" horiz-adv-x="650" 
d="M94 652v42h453v-39l-297 -655h-49l296 652h-403z" />
    <glyph glyph-name="eight.tf" horiz-adv-x="650" 
d="M317 -11q-98 0 -159 55.5t-61 140.5q0 64 34 109t92 65q-48 21 -77 65.5t-29 96.5q0 77 56.5 130.5t143.5 53.5t143.5 -53.5t56.5 -130.5q0 -52 -29 -96.5t-77 -65.5q58 -20 92 -65t34 -109q0 -85 -61 -140.5t-159 -55.5zM317 32q80 0 127 43.5t47 109.5t-47 109.5
t-127 43.5t-127 -43.5t-47 -109.5t47 -109.5t127 -43.5zM317 378q69 0 112 41.5t43 101.5t-42.5 100.5t-112.5 40.5t-112.5 -40.5t-42.5 -100.5t43 -101.5t112 -41.5z" />
    <glyph glyph-name="nine.tf" horiz-adv-x="650" 
d="M307 241q-96 0 -156.5 64.5t-60.5 167.5t60.5 167.5t156.5 64.5q106 0 173 -86t67 -273q0 -177 -63.5 -267t-171.5 -90q-83 0 -138 49.5t-61 121.5h46q5 -53 47.5 -90.5t105.5 -37.5q81 0 137 73.5t56 239.5q0 11 -1 30t-1 21q-15 -75 -68.5 -115t-127.5 -40zM307 284
q78 0 126.5 51.5t48.5 137.5t-48.5 137.5t-126.5 51.5q-77 0 -124.5 -52t-47.5 -137t47.5 -137t124.5 -52z" />
    <glyph glyph-name="cent.tf" horiz-adv-x="650" 
d="M345 0h-40v95q-87 10 -140.5 77t-53.5 174t53.5 174t140.5 76v98h40v-97q74 -4 124.5 -49t61.5 -116h-46q-9 56 -47.5 88t-92.5 36v-421q53 4 92 36.5t48 88.5h46q-11 -71 -61.5 -116.5t-124.5 -49.5v-94zM156 346q0 -85 38.5 -143t110.5 -67v419q-72 -9 -110.5 -67
t-38.5 -142z" />
    <glyph glyph-name="dollar.tf" horiz-adv-x="650" 
d="M135 525q0 74 54 125t139 55v95h39v-97q78 -9 129 -64t56 -134h-47q-5 66 -43 107t-95 50v-295l54 -18q146 -49 146 -177q0 -75 -54 -125t-146 -57v-96h-39v96q-96 4 -155 56.5t-65 144.5h47q14 -153 173 -161v306l-47 16q-146 50 -146 173zM410 308l-43 14v-291
q71 5 114 42.5t43 97.5q0 97 -114 137zM178 526q0 -93 114 -133l36 -13v283q-66 -3 -108 -40t-42 -97z" />
    <glyph glyph-name="yen.tf" horiz-adv-x="650" 
d="M103 274v40h173l-249 380h53l245 -380l246 380h52l-250 -380h173v-40h-199v-93h199v-41h-199v-140h-44v140h-200v41h200v93h-200z" />
    <glyph glyph-name="sterling.tf" horiz-adv-x="650" 
d="M95 288v40h86q-4 9 -14 32.5t-14.5 36.5t-11 33.5t-9.5 39.5t-3 40q0 85 55.5 140t146.5 55q96 0 152.5 -60.5t58.5 -158.5h-47q-2 82 -46 129t-118 47q-71 0 -113.5 -42t-42.5 -110q0 -24 5.5 -49.5t11.5 -42.5t18 -46.5t17 -43.5h247v-40h-234q9 -40 9 -71
q0 -112 -77 -175h379v-42h-455v42q109 53 109 176q0 30 -11 70h-99z" />
    <glyph glyph-name="Euro.tf" horiz-adv-x="650" 
d="M52 396v40h82q17 117 76 193t164 76q92 0 151 -57t75 -164h-48q-14 89 -62.5 133.5t-115.5 44.5q-85 0 -132.5 -63t-61.5 -163h236v-40h-240q-2 -34 -2 -49q0 -34 2 -51h240v-40h-236q15 -100 63 -162t135 -62q64 0 112.5 44.5t61.5 133.5h48q-16 -107 -74 -164t-148 -57
q-106 0 -166 75t-78 192h-82v40h78q-2 17 -2 51q0 15 2 49h-78z" />
    <glyph glyph-name="a.ord" horiz-adv-x="364" 
d="M311 320h-37v56q-42 -62 -126 -62q-50 0 -81.5 23.5t-31.5 68.5q0 81 114 100l123 20v16q0 37 -25.5 55.5t-67.5 18.5t-67.5 -16.5t-25.5 -44.5h-40q0 48 39 73.5t94 25.5q58 0 95 -27.5t37 -82.5v-224zM148 351q52 0 88 29.5t36 82.5v27l-122 -20q-75 -12 -75 -64
q0 -25 19 -40t54 -15z" />
    <glyph glyph-name="b.ord" horiz-adv-x="396" 
d="M210 654q64 0 108 -45t44 -125t-43 -125t-109 -45q-80 0 -113 61v-55h-37v465h39v-191q38 60 111 60zM209 616q-54 0 -83 -36.5t-29 -95.5q0 -60 28.5 -96t83.5 -36q52 0 82 36.5t30 95.5q0 58 -30 95t-82 37z" />
    <glyph glyph-name="c.ord" horiz-adv-x="366" 
d="M74 484q0 -58 30.5 -95t86.5 -37q38 0 64.5 20.5t31.5 57.5h42q-7 -54 -45 -85t-94 -31q-68 0 -112.5 46.5t-44.5 123.5q0 78 44.5 124t112.5 46q56 0 94 -31t45 -85h-42q-5 37 -31.5 57.5t-64.5 20.5q-55 0 -86 -37t-31 -95z" />
    <glyph glyph-name="d.ord" horiz-adv-x="396" 
d="M186 654q73 0 111 -60v191h39v-465h-37v55q-34 -61 -113 -61q-66 0 -109 45t-43 125t44 125t108 45zM187 616q-52 0 -82 -37t-30 -95q0 -59 30 -95.5t82 -36.5q55 0 83.5 36t28.5 96q0 59 -29 95.5t-83 36.5z" />
    <glyph glyph-name="e.ord" horiz-adv-x="372" 
d="M32 484q0 75 44.5 122.5t109.5 47.5q67 0 109 -43t42 -125q0 -10 -1 -18h-262q5 -53 35.5 -84.5t79.5 -31.5q36 0 63 17t36 51h42q-10 -51 -49 -78.5t-92 -27.5q-66 0 -111.5 46t-45.5 124zM74 506h221q-4 57 -34.5 83.5t-73.5 26.5t-74.5 -29t-38.5 -81z" />
    <glyph glyph-name="f.ord" horiz-adv-x="236" 
d="M217 786v-38q-17 4 -40 4q-58 0 -58 -69v-35h98v-37h-98v-291h-39v291h-59v37h59v36q0 51 26 78.5t70 27.5q22 0 41 -4z" />
    <glyph glyph-name="g.ord" horiz-adv-x="390" 
d="M333 648v-315q0 -67 -39.5 -102t-106.5 -35q-66 0 -103 28.5t-39 74.5h41q2 -30 30 -47.5t71 -17.5q48 0 77.5 24t29.5 76v57q-35 -61 -112 -61q-59 0 -103.5 43t-44.5 117q0 77 43 120.5t104 43.5q84 0 115 -69v63h37zM75 492q0 -55 29 -89.5t81 -34.5t81 34.5t29 89.5
q0 56 -28.5 90t-81.5 34q-52 0 -81 -34t-29 -90z" />
    <glyph glyph-name="h.ord" horiz-adv-x="383" 
d="M288 320v196q0 100 -90 100q-45 0 -72 -33t-27 -78v-185h-39v465h39v-192q34 61 108 61q55 0 87.5 -35.5t32.5 -101.5v-197h-39z" />
    <glyph glyph-name="i.ord" horiz-adv-x="160" 
d="M61 648h39v-328h-39v328zM53 712v59h55v-59h-55z" />
    <glyph glyph-name="j.ord" horiz-adv-x="159" 
d="M-27 204v37q13 -3 29 -3q59 0 59 67v343h39v-343q0 -54 -27 -79.5t-69 -25.5q-20 0 -31 4zM53 712v59h55v-59h-55z" />
    <glyph glyph-name="k.ord" horiz-adv-x="345" 
d="M189 516l143 -196h-48l-124 169l-61 -56v-113h-39v465h39v-301l175 164h56z" />
    <glyph glyph-name="l.ord" horiz-adv-x="161" 
d="M61 785h39v-465h-39v465z" />
    <glyph glyph-name="m.ord" horiz-adv-x="579" 
d="M524 517v-197h-39v196q0 100 -82 100q-41 0 -66 -33t-25 -78v-185h-39v196q0 100 -82 100q-41 0 -66 -33t-25 -78v-185h-39v328h37v-56q32 62 102 62q73 0 100 -65q32 65 108 65q55 0 85.5 -35t30.5 -102z" />
    <glyph glyph-name="n.ord" horiz-adv-x="383" 
d="M100 320h-39v328h37v-56q34 62 109 62q55 0 87 -35.5t32 -101.5v-197h-39v196q0 100 -89 100q-44 0 -71 -33t-27 -78v-185z" />
    <glyph glyph-name="o.ord" horiz-adv-x="380" 
d="M190 314q-67 0 -112 47t-45 123t45 123t112 47t112 -47t45 -123t-45 -123t-112 -47zM190 352q55 0 85.5 37t30.5 95t-30.5 95t-85.5 37t-85.5 -37t-30.5 -95t30.5 -95t85.5 -37z" />
    <glyph glyph-name="p.ord" horiz-adv-x="396" 
d="M210 314q-74 0 -111 60v-171h-39v445h37v-56q33 62 113 62q66 0 109 -45t43 -125t-44 -125t-108 -45zM209 352q52 0 82 37t30 95q0 59 -30 95.5t-82 36.5q-55 0 -83.5 -36t-28.5 -96q0 -59 29 -95.5t83 -36.5z" />
    <glyph glyph-name="q.ord" horiz-adv-x="396" 
d="M186 314q-64 0 -108 45t-44 125t43 125t109 45q78 0 113 -62v56h37v-445h-39v171q-37 -60 -111 -60zM187 352q54 0 83 36.5t29 95.5q0 60 -28.5 96t-83.5 36q-52 0 -82 -36.5t-30 -95.5q0 -58 30 -95t82 -37z" />
    <glyph glyph-name="r.ord" horiz-adv-x="245" 
d="M230 653v-37h-26q-44 0 -74 -34t-30 -86v-176h-39v328h37v-65q17 36 44.5 53.5t57.5 17.5q17 0 30 -1z" />
    <glyph glyph-name="s.ord" horiz-adv-x="342" 
d="M46 560q0 42 35 68t88 26q55 0 93.5 -25.5t38.5 -73.5h-41q0 29 -26 46t-65 17q-37 0 -60.5 -16.5t-23.5 -40.5q0 -22 15 -33t49 -17l68 -13q90 -18 90 -88q0 -43 -35.5 -69.5t-97.5 -26.5q-61 0 -100 29.5t-39 78.5h41q0 -32 26.5 -52t71.5 -20q48 0 71 16.5t23 42.5
q0 40 -64 52l-68 13q-47 9 -68.5 29.5t-21.5 56.5z" />
    <glyph glyph-name="t.ord" horiz-adv-x="246" 
d="M24 608v39h60v89h37v-89h98v-39h-98v-192q0 -64 52 -64q27 0 46 6v-37q-23 -7 -47 -7q-42 0 -66 25t-24 74v195h-58z" />
    <glyph glyph-name="u.ord" horiz-adv-x="376" 
d="M277 648h39v-328h-37v56q-34 -62 -106 -62q-54 0 -85 35t-31 101v198h39v-196q0 -100 86 -100q42 0 68.5 33.5t26.5 77.5v185z" />
    <glyph glyph-name="v.ord" horiz-adv-x="337" 
d="M169 362l108 286h41l-129 -328h-42l-129 328h43z" />
    <glyph glyph-name="w.ord" horiz-adv-x="509" 
d="M254 597l-82 -277h-46l-104 328h42l85 -288l83 288h45l83 -288l85 288h40l-102 -328h-46z" />
    <glyph glyph-name="x.ord" horiz-adv-x="332" 
d="M68 320h-45l120 165l-120 163h46l97 -135l97 135h45l-119 -162l121 -166h-45l-100 136z" />
    <glyph glyph-name="y.ord" horiz-adv-x="337" 
d="M185 290q-18 -49 -43.5 -69.5t-66.5 -20.5q-19 0 -37 6v37q17 -5 37 -5q51 0 71 55l4 11l-131 344h43l109 -298l108 298h41z" />
    <glyph glyph-name="z.ord" horiz-adv-x="323" 
d="M38 648h254v-31l-209 -260h205v-37h-258v31l209 260h-201v37z" />
    </font>
</defs>
</svg>
