<?xml version="1.0" standalone="no"?>
<!DOCTYPE svg PUBLIC "-//W3C//DTD SVG 1.1//EN" "http://www.w3.org/Graphics/SVG/1.1/DTD/svg11.dtd" >
<svg xmlns="http://www.w3.org/2000/svg" xmlns:xlink="http://www.w3.org/1999/xlink" version="1.1">
<metadata>
Created by FontForge 20170731 at Mon Apr 16 00:14:59 2018
 By Aleksey,,,
Copyright (c) 2018 Schick Toikka. All rights reserved. Scto Grotesk A is a trademark of Schick Toikka. Unauthorised copying or modification of any of its data is illegal.
</metadata>
<defs>
<font id="SctoGroteskA-LightItalic" horiz-adv-x="825" >
  <font-face 
    font-family="Scto Grotesk A"
    font-weight="300"
    font-style="italic"
    font-stretch="normal"
    units-per-em="1000"
    panose-1="2 11 3 5 3 1 1 1 1 1"
    ascent="800"
    descent="-200"
    x-height="489"
    cap-height="694"
    bbox="-241 -216 1169 929"
    underline-thickness="39"
    underline-position="-251"
    unicode-range="U+0020-FB02"
  />
<missing-glyph horiz-adv-x="611" 
d="M635 694l-153 -869h-502l152 869h503zM300 219l-252 -355h380zM327 258l129 -356l125 713zM184 655l128 -352l250 352h-378zM157 614l-122 -701l249 350z" />
    <glyph glyph-name="fi" unicode="fi" horiz-adv-x="566" 
d="M466 489h54l-86 -489h-54zM472 589l15 75h74l-14 -75h-75zM384 695l-10 -48q-20 6 -50 6q-85 0 -101 -104l-11 -60h136l-9 -47h-135l-78 -442h-53l77 442h-82l9 47h82l11 64q13 72 53 111t100 39q29 0 61 -8z" />
    <glyph glyph-name="fl" unicode="fl" horiz-adv-x="566" 
d="M502 694h54l-122 -694h-54zM384 695l-10 -48q-20 6 -50 6q-85 0 -101 -104l-11 -60h136l-9 -47h-135l-78 -442h-53l77 442h-82l9 47h82l11 64q13 72 53 111t100 39q29 0 61 -8z" />
    <glyph glyph-name=".notdef" horiz-adv-x="611" 
d="M635 694l-153 -869h-502l152 869h503zM300 219l-252 -355h380zM327 258l129 -356l125 713zM184 655l128 -352l250 352h-378zM157 614l-122 -701l249 350z" />
    <glyph glyph-name=".null" horiz-adv-x="0" 
 />
    <glyph glyph-name="nonmarkingreturn" horiz-adv-x="333" 
 />
    <glyph glyph-name="space" unicode=" " horiz-adv-x="220" 
 />
    <glyph glyph-name="exclam" unicode="!" horiz-adv-x="264" 
d="M144 222h-32l47 344l22 128h59l-22 -128zM45 0l16 90h89l-16 -90h-89z" />
    <glyph glyph-name="quotedbl" unicode="&#x22;" horiz-adv-x="363" 
d="M211 694l-52 -223h-41l27 223h66zM377 694l-52 -223h-41l27 223h66z" />
    <glyph glyph-name="numbersign" unicode="#" horiz-adv-x="692" 
d="M386 21h-49l59 181h-167l-59 -181h-49l59 181h-130l8 47h136l65 198h-129l8 46h136l59 181h49l-59 -181h167l59 181h49l-59 -181h140l-8 -46h-147l-64 -198h139l-8 -47h-146zM308 447l-64 -198h166l65 198h-167z" />
    <glyph glyph-name="dollar" unicode="$" horiz-adv-x="575" 
d="M254 -106h-46l17 103q-85 14 -130.5 68.5t-45.5 129.5h54q0 -58 33.5 -98.5t97.5 -51.5l51 289l-35 17q-122 57 -122 166q0 83 63.5 135.5t158.5 47.5l18 100h46l-18 -106q70 -16 110 -69t40 -123h-54q0 50 -28 89t-77 53l-49 -277l44 -21q121 -56 121 -168
q0 -77 -56.5 -131.5t-174.5 -54.5zM450 177q0 80 -85 120l-37 16l-47 -271q90 0 129.5 38.5t39.5 96.5zM182 517q0 -78 87 -118l25 -13l47 265q-75 3 -117 -37t-42 -97z" />
    <glyph glyph-name="percent" unicode="%" horiz-adv-x="842" 
d="M239 351q-65 0 -107 39t-42 110q0 88 53 146.5t128 58.5q65 0 107 -39t42 -110q0 -87 -53.5 -146t-127.5 -59zM142 500q0 -48 26.5 -75.5t70.5 -27.5q55 0 92 46t37 112q0 48 -26.5 76t-70.5 28q-56 0 -92.5 -46t-36.5 -113zM211 0h-58l509 694h58zM506 138
q0 -48 26.5 -75.5t70.5 -27.5q55 0 92 46t37 112q0 48 -26.5 76t-70.5 28q-56 0 -92.5 -46t-36.5 -113zM603 -11q-65 0 -107 39t-42 110q0 88 53 146.5t128 58.5q65 0 107 -39t42 -110q0 -87 -53.5 -146t-127.5 -59z" />
    <glyph glyph-name="ampersand" unicode="&#x26;" horiz-adv-x="661" 
d="M552 370h52q-15 -145 -99 -249l95 -121h-67l-64 82q-100 -93 -232 -93q-93 0 -147 44.5t-54 122.5q0 133 203 220q-63 83 -63 160q0 71 48 120t126 49q71 0 115 -41.5t44 -107.5q0 -116 -188 -200l152 -193q67 88 79 207zM91 156q0 -53 40 -85t106 -32q116 0 200 84
l-167 213q-179 -74 -179 -180zM456 555q0 43 -28.5 72.5t-78.5 29.5q-53 0 -86 -35t-33 -86q0 -65 59 -140q167 71 167 159z" />
    <glyph glyph-name="quotesingle" unicode="'" horiz-adv-x="196" 
d="M211 694l-52 -223h-41l27 223h66z" />
    <glyph glyph-name="parenleft" unicode="(" horiz-adv-x="283" 
d="M113 226q0 -182 88 -326h-56q-85 144 -85 326q0 292 214 484h64q-225 -206 -225 -484z" />
    <glyph glyph-name="parenright" unicode=")" horiz-adv-x="283" 
d="M191 384q0 181 -87 326h55q86 -143 86 -326q0 -291 -215 -484h-64q225 206 225 484z" />
    <glyph glyph-name="asterisk" unicode="*" horiz-adv-x="432" 
d="M173 370l-39 29l87 113l-137 41l16 47l134 -49l-3 143h49l-4 -143l134 49l15 -47l-137 -41l88 -113l-40 -29l-81 117z" />
    <glyph glyph-name="plus" unicode="+" horiz-adv-x="650" 
d="M113 298l9 50h196l36 203h51l-37 -203h196l-9 -50h-195l-36 -205h-50l35 205h-196z" />
    <glyph glyph-name="comma" unicode="," horiz-adv-x="258" 
d="M147 90l-22 -122q-9 -54 -43 -82t-87 -28l7 38q69 0 81 70l6 34h-48l17 90h89z" />
    <glyph glyph-name="hyphen" unicode="-" horiz-adv-x="373" 
d="M61 241l9 49h251l-10 -49h-250z" />
    <glyph glyph-name="period" unicode="." horiz-adv-x="258" 
d="M41 0l16 90h89l-16 -90h-89z" />
    <glyph glyph-name="slash" unicode="/" horiz-adv-x="406" 
d="M456 710l-429 -810h-56l429 810h56z" />
    <glyph glyph-name="zero" unicode="0" horiz-adv-x="601" 
d="M266 40q53 0 96.5 33.5t69 82.5t43.5 110t24.5 111t6.5 90q0 92 -34.5 139.5t-100.5 47.5q-53 0 -96.5 -33.5t-69.5 -82.5t-43.5 -110t-24.5 -111t-7 -90q0 -92 35 -139.5t101 -47.5zM261 -11q-87 0 -137.5 62.5t-50.5 173.5q0 53 8.5 112.5t30.5 126t55 119.5t87 87.5
t121 34.5q87 0 137.5 -62.5t50.5 -173.5q0 -53 -8.5 -112.5t-30.5 -126.5t-54.5 -119.5t-87 -87t-121.5 -34.5z" />
    <glyph glyph-name="one" unicode="1" horiz-adv-x="414" 
d="M240 0h-55l109 624l-196 -125l13 69l198 126h53z" />
    <glyph glyph-name="two" unicode="2" horiz-adv-x="545" 
d="M33 0l10 53l296 286q47 47 68 69.5t41 58.5t20 70q0 50 -37.5 83.5t-94.5 33.5q-68 0 -115.5 -43.5t-57.5 -126.5h-57q9 100 74 160.5t157 60.5q86 0 136.5 -49t50.5 -118q0 -42 -24 -87t-48.5 -72t-74.5 -76l-259 -251h335l-8 -52h-412z" />
    <glyph glyph-name="three" unicode="3" horiz-adv-x="564" 
d="M256 -11q-93 0 -154 51t-53 152h56q-6 -78 38.5 -115.5t110.5 -37.5q80 0 129.5 45.5t49.5 113.5q0 58 -41.5 95.5t-111.5 37.5h-20l9 49h27q73 0 123.5 42.5t50.5 111.5q0 54 -38 87.5t-95 33.5q-68 0 -112.5 -41t-55.5 -112h-57q11 89 72.5 146t157.5 57q82 0 133 -49
t51 -119q0 -67 -41 -116.5t-98 -68.5q40 -11 71 -53t31 -102q0 -91 -66 -149.5t-167 -58.5z" />
    <glyph glyph-name="four" unicode="4" horiz-adv-x="613" 
d="M409 0h-54l29 168h-348l9 50l415 476h71l-83 -475h101l-8 -51h-103zM393 219l71 403l-351 -403h280z" />
    <glyph glyph-name="five" unicode="5" horiz-adv-x="557" 
d="M251 39q88 1 142 67t54 153q0 62 -37.5 102t-95.5 40q-104 0 -164 -102h-57l114 395h337l-9 -52h-291l-75 -261q53 70 154 70q75 0 128 -52t53 -137q0 -112 -73 -192.5t-184 -80.5q-85 0 -145.5 50.5t-53.5 152.5h56q-6 -74 36 -112.5t111 -40.5z" />
    <glyph glyph-name="six" unicode="6" horiz-adv-x="587" 
d="M265 -11q-88 0 -140 59.5t-52 174.5q0 58 9.5 120t32 128t55.5 117t85.5 84t115.5 33q80 0 128 -45.5t48 -127.5h-57q-1 57 -33 90t-86 33q-81 0 -144 -79t-93 -253q27 60 81 94t116 34q81 0 133.5 -52.5t52.5 -138.5q0 -105 -71 -188t-181 -83zM266 39q82 0 137.5 65
t55.5 152q0 62 -35.5 103.5t-96.5 41.5q-82 0 -137.5 -64.5t-55.5 -151.5q0 -62 36 -104t96 -42z" />
    <glyph glyph-name="seven" unicode="7" horiz-adv-x="539" 
d="M124 641l9 53h417l-9 -49l-389 -645h-64l387 641h-351z" />
    <glyph glyph-name="eight" unicode="8" horiz-adv-x="588" 
d="M272 -11q-96 0 -154.5 52.5t-58.5 131.5q0 70 44.5 122t115.5 70q-39 23 -59 60t-20 80q0 85 63 142.5t156 57.5q83 0 133.5 -50.5t50.5 -123.5q0 -60 -36 -109.5t-97 -69.5q43 -17 70.5 -61.5t27.5 -94.5q0 -93 -69.5 -150t-166.5 -57zM328 381q67 0 113 42t46 109
q0 53 -36 88t-96 35q-67 0 -113 -41.5t-46 -108.5q0 -53 36 -88.5t96 -35.5zM270 38q75 0 128.5 41.5t53.5 114.5q0 58 -42.5 98t-112.5 40q-75 0 -128.5 -41.5t-53.5 -113.5q0 -59 42.5 -99t112.5 -40z" />
    <glyph glyph-name="nine" unicode="9" horiz-adv-x="587" 
d="M359 705q87 0 139 -59.5t52 -174.5q0 -58 -9.5 -120t-32 -128t-55.5 -117t-85.5 -84t-115.5 -33q-79 0 -127 45.5t-49 127.5h57q1 -57 33 -90t86 -33q81 0 144.5 79t93.5 253q-27 -60 -81.5 -94t-116.5 -34q-81 0 -133 52.5t-52 138.5q0 105 70.5 188t181.5 83zM357 655
q-82 0 -137.5 -65.5t-55.5 -151.5q0 -62 35.5 -103.5t96.5 -41.5q82 0 137.5 64.5t55.5 151.5q0 62 -36 104t-96 42z" />
    <glyph glyph-name="colon" unicode=":" horiz-adv-x="270" 
d="M47 0l16 90h90l-16 -90h-90zM117 399l17 90h90l-17 -90h-90z" />
    <glyph glyph-name="semicolon" unicode=";" horiz-adv-x="270" 
d="M117 399l16 90h90l-16 -90h-90zM153 90l-22 -122q-20 -110 -130 -110l7 38q68 0 80 70l6 34h-47l16 90h90z" />
    <glyph glyph-name="less" unicode="&#x3c;" horiz-adv-x="650" 
d="M110 298l9 50l445 209l-10 -59l-384 -179l321 -177l-9 -53z" />
    <glyph glyph-name="equal" unicode="=" horiz-adv-x="650" 
d="M128 406l9 50h452l-9 -50h-452zM89 190l9 49h452l-9 -49h-452z" />
    <glyph glyph-name="greater" unicode="&#x3e;" horiz-adv-x="650" 
d="M568 349l-9 -50l-445 -210l10 60l383 178l-320 177l9 53z" />
    <glyph glyph-name="question" unicode="?" horiz-adv-x="461" 
d="M239 245l-4 -23h-50l5 27q7 42 34 74.5t59 53.5t63.5 42t52.5 52t21 71q0 51 -35 81.5t-95 30.5q-65 0 -108.5 -39t-52.5 -104h-57q10 87 70 140.5t148 53.5q84 0 135 -43.5t51 -118.5q0 -50 -22.5 -88t-55.5 -61.5t-66.5 -44t-60 -47t-32.5 -57.5zM133 0l16 90h89
l-16 -90h-89z" />
    <glyph glyph-name="at" unicode="@" horiz-adv-x="921" 
d="M673 12q-39 0 -62 21t-25 55q-60 -77 -157 -77q-76 0 -125.5 50.5t-49.5 141.5q0 107 65 191t170 84t145 -87l14 80h51l-58 -332q-4 -28 -4 -36q0 -43 40 -43q64 0 110.5 82t46.5 185q0 130 -83.5 212t-226.5 82q-122 0 -217 -62.5t-143.5 -161t-48.5 -212.5
q0 -140 89 -222t229 -82q75 0 137 21l-8 -48q-65 -18 -130 -18q-163 0 -265 94t-102 256q0 93 32.5 179.5t91 153.5t146 107t190.5 40q161 0 259 -96.5t98 -242.5q0 -76 -25.5 -147.5t-74.5 -119.5t-109 -48zM435 59q79 0 129.5 70t50.5 161q0 66 -34 103t-89 37
q-81 0 -132.5 -69t-51.5 -157q0 -69 35 -107t92 -38z" />
    <glyph glyph-name="A" unicode="A" horiz-adv-x="689" 
d="M558 0l-49 219h-331l-126 -219h-62l402 694h65l158 -694h-57zM416 633l-208 -362h289z" />
    <glyph glyph-name="B" unicode="B" horiz-adv-x="660" 
d="M56 0l122 694h247q92 0 140.5 -41.5t48.5 -114.5q0 -60 -31 -109t-90 -71q40 -8 70 -44t30 -95q0 -103 -71.5 -161t-188.5 -58h-277zM391 384q68 0 116.5 39.5t48.5 112.5q0 53 -34 80t-95 27h-202l-45 -259h211zM343 51q81 0 136.5 45.5t55.5 122.5q0 57 -39 85.5
t-107 28.5h-218l-49 -282h221z" />
    <glyph glyph-name="C" unicode="C" horiz-adv-x="698" 
d="M437 653q-132 0 -220 -109.5t-88 -260.5q0 -107 58 -174.5t153 -67.5q86 0 154 50.5t88 137.5h58q-19 -106 -104 -173t-199 -67q-117 0 -191.5 82t-74.5 208q0 116 45.5 213t131.5 155t196 58q104 0 171.5 -67t64.5 -173h-58q1 85 -50.5 136.5t-134.5 51.5z" />
    <glyph glyph-name="D" unicode="D" horiz-adv-x="703" 
d="M178 694h228q123 0 194 -78t71 -201q0 -179 -102.5 -297t-276.5 -118h-236zM122 51h176q139 0 227 102.5t88 258.5q0 105 -57.5 168t-163.5 63h-166z" />
    <glyph glyph-name="E" unicode="E" horiz-adv-x="625" 
d="M56 0l122 694h461l-9 -51h-405l-45 -261h368l-9 -51h-368l-49 -279h407l-9 -52h-464z" />
    <glyph glyph-name="F" unicode="F" horiz-adv-x="569" 
d="M56 0l122 694h434l-10 -51h-376l-45 -256h328l-9 -51h-328l-60 -336h-56z" />
    <glyph glyph-name="G" unicode="G" horiz-adv-x="737" 
d="M382 293l10 51h280l-60 -344h-52l21 120q-91 -131 -248 -131q-116 0 -189 82t-73 208q0 116 45.5 213t131.5 155t196 58q104 0 172.5 -67t65.5 -173h-58q1 86 -51.5 137t-135.5 51q-133 0 -220.5 -110t-87.5 -260q0 -107 58 -174.5t152 -67.5q95 0 171.5 65t100.5 187
h-229z" />
    <glyph glyph-name="H" unicode="H" horiz-adv-x="715" 
d="M56 0l122 694h56l-53 -302h406l53 302h57l-122 -694h-56l59 340h-406l-60 -340h-56z" />
    <glyph glyph-name="I" unicode="I" horiz-adv-x="254" 
d="M56 0l122 694h56l-122 -694h-56z" />
    <glyph glyph-name="J" unicode="J" horiz-adv-x="567" 
d="M234 41q73 0 123 46.5t64 126.5l84 480h56l-84 -483q-18 -99 -79.5 -160.5t-163.5 -61.5q-98 0 -147.5 52.5t-49.5 133.5q0 34 9 70h55q-8 -31 -8 -66q0 -67 37.5 -102.5t103.5 -35.5z" />
    <glyph glyph-name="K" unicode="K" horiz-adv-x="639" 
d="M56 0l122 694h56l-65 -373l446 373h80l-352 -294l224 -400h-63l-204 367l-144 -120l-44 -247h-56z" />
    <glyph glyph-name="L" unicode="L" horiz-adv-x="562" 
d="M56 0l122 694h56l-112 -642h371l-10 -52h-427z" />
    <glyph glyph-name="M" unicode="M" horiz-adv-x="881" 
d="M365 0l-142 630l-110 -630h-56l122 694h85l142 -634l366 634h90l-123 -694h-55l111 630l-363 -630h-67z" />
    <glyph glyph-name="N" unicode="N" horiz-adv-x="732" 
d="M713 694l-123 -694h-70l-298 625l-110 -625h-56l123 694h70l298 -625l111 625h55z" />
    <glyph glyph-name="O" unicode="O" horiz-adv-x="744" 
d="M340 41q135 0 223 110t88 260q0 106 -58.5 174t-154.5 68q-134 0 -221.5 -110t-87.5 -260q0 -106 58 -174t153 -68zM336 -11q-115 0 -190 81.5t-75 208.5q0 178 104 302t269 124q115 0 190 -81.5t75 -208.5q0 -178 -104 -302t-269 -124z" />
    <glyph glyph-name="P" unicode="P" horiz-adv-x="624" 
d="M630 517q0 -114 -75 -173t-200 -59h-192l-51 -285h-56l122 694h248q94 0 149 -46.5t55 -130.5zM367 337q93 1 148.5 46t55.5 133q0 61 -40.5 94t-108.5 33h-196l-54 -306h195z" />
    <glyph glyph-name="Q" unicode="Q" horiz-adv-x="742" 
d="M336 -11q-115 0 -190 81.5t-75 208.5q0 178 104 302t269 124q115 0 190 -81.5t75 -208.5t-55.5 -230.5t-151.5 -154.5l101 -157h-65l-87 134q-59 -18 -115 -18zM340 41q135 0 223 110t88 260q0 106 -58.5 174t-154.5 68q-134 0 -221.5 -110t-87.5 -260q0 -106 58 -174
t153 -68z" />
    <glyph glyph-name="R" unicode="R" horiz-adv-x="676" 
d="M56 0l122 694h276q91 0 143 -47t52 -123q0 -87 -53 -142.5t-148 -69.5l140 -312h-61l-138 307h-223l-54 -307h-56zM176 358h219q84 0 140.5 42t56.5 122q0 59 -39 90t-109 31h-219z" />
    <glyph glyph-name="S" unicode="S" horiz-adv-x="632" 
d="M562 185q0 -92 -75.5 -144t-182.5 -52q-109 0 -182.5 52.5t-74.5 153.5h57q3 -74 59 -114.5t143 -40.5q78 0 139 36.5t61 104.5q0 84 -96 117l-152 52q-58 19 -92.5 60.5t-34.5 104.5q0 86 68.5 138t168.5 52q99 0 167 -53.5t67 -149.5h-57q-4 77 -53.5 114.5
t-123.5 37.5t-127 -35.5t-53 -101.5q0 -86 96 -117l153 -53q125 -43 125 -162z" />
    <glyph glyph-name="T" unicode="T" horiz-adv-x="613" 
d="M103 642l10 52h545l-9 -52h-244l-113 -642h-56l112 642h-245z" />
    <glyph glyph-name="U" unicode="U" horiz-adv-x="676" 
d="M301 -11q-98 0 -160.5 53t-62.5 153q0 33 5 62l77 437h56l-77 -443q-4 -23 -4 -50q0 -77 45.5 -118.5t124.5 -41.5q88 0 152.5 56.5t83.5 162.5l76 434h56l-76 -434q-23 -137 -100.5 -204t-195.5 -67z" />
    <glyph glyph-name="V" unicode="V" horiz-adv-x="632" 
d="M166 694l114 -632l341 632h60l-375 -694h-69l-128 694h57z" />
    <glyph glyph-name="W" unicode="W" horiz-adv-x="970" 
d="M551 632l-296 -632h-73l-71 694h55l62 -634l297 634h68l72 -634l288 634h59l-316 -694h-73z" />
    <glyph glyph-name="X" unicode="X" horiz-adv-x="627" 
d="M57 0h-72l314 348l-191 346h64l164 -305l273 305h72l-316 -351l190 -343h-64l-163 302z" />
    <glyph glyph-name="Y" unicode="Y" horiz-adv-x="606" 
d="M233 0l47 269l-191 425h61l164 -368l294 368h69l-340 -424l-48 -270h-56z" />
    <glyph glyph-name="Z" unicode="Z" horiz-adv-x="593" 
d="M155 694h466l-9 -46l-529 -596h437l-8 -52h-515l8 46l530 596h-390z" />
    <glyph glyph-name="bracketleft" unicode="[" horiz-adv-x="307" 
d="M353 662h-136l-125 -714h135l-8 -48h-188l143 810h187z" />
    <glyph glyph-name="backslash" unicode="\" horiz-adv-x="406" 
d="M289 -100l-201 810h51l201 -810h-51z" />
    <glyph glyph-name="bracketright" unicode="]" horiz-adv-x="307" 
d="M-24 -52h135l126 714h-136l9 48h187l-142 -810h-188z" />
    <glyph glyph-name="asciicircum" unicode="^" horiz-adv-x="450" 
d="M80 444l202 250h44l114 -250h-52l-90 196l-158 -196h-60z" />
    <glyph glyph-name="underscore" unicode="_" horiz-adv-x="472" 
d="M-20 -87l8 47h396l-9 -47h-395z" />
    <glyph glyph-name="grave" unicode="`" horiz-adv-x="280" 
d="M98 694h75l62 -137h-44z" />
    <glyph glyph-name="a" unicode="a" horiz-adv-x="521" 
d="M396 0h-50l14 80q-34 -45 -83 -66.5t-99 -21.5q-68 0 -106 32t-38 89q0 65 46 104.5t124 52.5l194 33l3 20q4 19 4 34q0 47 -31.5 70t-85.5 23q-55 0 -93.5 -25.5t-49.5 -71.5h-55q9 70 65.5 107.5t131.5 37.5q76 0 123 -35.5t47 -100.5q0 -5 -6 -53zM187 38
q67 0 123.5 44.5t70.5 127.5l8 44l-188 -32q-49 -8 -80.5 -35.5t-31.5 -70.5q0 -78 98 -78z" />
    <glyph glyph-name="b" unicode="b" horiz-adv-x="570" 
d="M339 498q80 0 130.5 -54.5t50.5 -148.5q0 -120 -70 -212t-181 -92q-51 0 -94.5 26.5t-61.5 70.5l-16 -88h-52l122 694h54l-50 -286q29 44 74 67t94 23zM266 40q86 0 142 76.5t56 182.5q0 70 -36.5 110t-95.5 40q-86 0 -142 -76.5t-56 -182.5q0 -70 36.5 -110t95.5 -40z
" />
    <glyph glyph-name="c" unicode="c" horiz-adv-x="526" 
d="M241 -9q-82 0 -136.5 54t-54.5 149q0 123 70.5 213.5t187.5 90.5q76 0 126 -47.5t49 -121.5h-55q1 56 -34 88t-90 32q-86 0 -142 -76t-56 -178q0 -74 38 -114.5t99 -40.5q55 0 97 32t58 88h56q-18 -76 -75.5 -122.5t-137.5 -46.5z" />
    <glyph glyph-name="d" unicode="d" horiz-adv-x="570" 
d="M230 -9q-80 0 -130 54.5t-50 148.5q0 121 69.5 212.5t181.5 91.5q50 0 92.5 -25.5t62.5 -69.5l51 291h54l-123 -694h-53l15 82q-28 -44 -74 -67.5t-96 -23.5zM237 40q86 0 142.5 76.5t56.5 182.5q0 70 -36.5 110t-95.5 40q-86 0 -142.5 -76.5t-56.5 -182.5
q0 -70 36.5 -110t95.5 -40z" />
    <glyph glyph-name="e" unicode="e" horiz-adv-x="536" 
d="M50 192q0 127 71.5 216.5t187.5 89.5q79 0 129 -50t50 -132q0 -42 -11 -89h-371q-2 -18 -2 -35q0 -65 36 -109t103 -44q51 0 94.5 29.5t61.5 76.5h54q-19 -70 -79 -112t-135 -42q-81 0 -135 55t-54 146zM115 274h315q4 22 4 41q0 64 -36.5 99.5t-92.5 35.5
q-66 0 -117.5 -47.5t-72.5 -128.5z" />
    <glyph glyph-name="f" unicode="f" horiz-adv-x="336" 
d="M384 695l-10 -48q-20 6 -50 6q-85 0 -101 -104l-11 -60h136l-9 -47h-135l-78 -442h-53l77 442h-82l9 47h82l11 64q13 72 53 111t100 39q29 0 61 -8z" />
    <glyph glyph-name="g" unicode="g" horiz-adv-x="562" 
d="M231 13q-78 0 -130 52.5t-52 142.5q0 114 67.5 202t181.5 88q49 0 90.5 -25t60.5 -70l15 86h53l-85 -480q-19 -105 -75.5 -149t-149.5 -44q-72 0 -128 34.5t-57 114.5h55q6 -100 132 -100q144 0 170 148l14 81q-30 -39 -74 -60t-88 -21zM236 62q86 0 140 72.5t54 169.5
q0 69 -36.5 107t-94.5 38q-86 0 -140 -72.5t-54 -168.5q0 -70 36.5 -108t94.5 -38z" />
    <glyph glyph-name="h" unicode="h" horiz-adv-x="551" 
d="M427 0h-53l48 275q8 50 8 73q0 47 -29 74t-80 27q-63 0 -112 -49.5t-63 -129.5l-47 -270h-54l122 694h54l-50 -285q59 89 158 89q72 0 113 -41t41 -105q0 -30 -7 -74z" />
    <glyph glyph-name="i" unicode="i" horiz-adv-x="230" 
d="M131 489h54l-86 -489h-54zM137 589l15 75h74l-14 -75h-75z" />
    <glyph glyph-name="j" unicode="j" horiz-adv-x="230" 
d="M-109 -173l9 47q19 -4 40 -4q82 0 100 101l91 518h54l-91 -516q-14 -80 -52.5 -116t-106.5 -36q-23 0 -44 6zM137 589l15 75h74l-14 -75h-75z" />
    <glyph glyph-name="k" unicode="k" horiz-adv-x="493" 
d="M266 292l163 -292h-61l-145 260l-91 -74l-33 -186h-54l122 694h54l-77 -439l292 234h76z" />
    <glyph glyph-name="l" unicode="l" horiz-adv-x="230" 
d="M167 694h54l-122 -694h-54z" />
    <glyph glyph-name="m" unicode="m" horiz-adv-x="834" 
d="M756 265l-46 -265h-54l48 269q8 56 8 80q0 46 -25.5 73.5t-69.5 27.5q-55 0 -101.5 -40.5t-60.5 -120.5l-51 -289h-53l46 263q10 52 10 86q0 42 -23.5 71t-68.5 29q-58 0 -106 -49t-62 -127l-48 -273h-54l86 489h52l-14 -80q58 89 155 89q49 0 83.5 -27t46.5 -70
q28 42 72 69.5t98 27.5q63 0 102 -39.5t39 -106.5q0 -46 -9 -87z" />
    <glyph glyph-name="n" unicode="n" horiz-adv-x="551" 
d="M99 0h-54l86 489h52l-14 -80q59 89 160 89q72 0 113 -41t41 -105q0 -30 -7 -74l-49 -278h-53l48 275q8 50 8 73q0 47 -29 74t-80 27q-63 0 -112 -49.5t-63 -129.5z" />
    <glyph glyph-name="o" unicode="o" horiz-adv-x="548" 
d="M243 40q86 0 142.5 76t56.5 178q0 73 -38 114t-100 41q-86 0 -142 -76t-56 -178q0 -73 38 -114t99 -41zM239 -9q-80 0 -134.5 54t-54.5 149q0 123 70.5 213.5t188.5 90.5q79 0 133.5 -54t54.5 -149q0 -123 -70 -213.5t-188 -90.5z" />
    <glyph glyph-name="p" unicode="p" horiz-adv-x="570" 
d="M269 -9q-51 0 -93.5 25.5t-62.5 69.5l-45 -261h-54l117 664h52l-14 -82q28 44 74 67.5t96 23.5q79 0 130 -54.5t51 -148.5q0 -123 -71 -213.5t-180 -90.5zM266 40q86 0 142 76.5t56 182.5q0 70 -36.5 110t-95.5 40q-86 0 -142 -76.5t-56 -182.5q0 -70 36.5 -110t95.5 -40
z" />
    <glyph glyph-name="q" unicode="q" horiz-adv-x="570" 
d="M229 -9q-79 0 -129 55t-50 148q0 121 69.5 212.5t181.5 91.5q51 0 94.5 -26.5t61.5 -70.5l16 88h52l-117 -664h-55l46 256q-29 -44 -74.5 -67t-95.5 -23zM237 40q86 0 142.5 76.5t56.5 182.5q0 70 -36.5 110t-95.5 40q-86 0 -142.5 -76.5t-56.5 -182.5q0 -70 36.5 -110
t95.5 -40z" />
    <glyph glyph-name="r" unicode="r" horiz-adv-x="350" 
d="M367 493l-10 -55q-20 3 -36 3q-62 0 -111 -42.5t-61 -113.5l-50 -285h-54l86 489h52l-15 -86q56 94 156 94q17 0 43 -4z" />
    <glyph glyph-name="s" unicode="s" horiz-adv-x="492" 
d="M94 357q0 59 46.5 100t126.5 41t132.5 -36t51.5 -111h-55q1 49 -34 74t-94 25q-55 0 -88 -25t-33 -64q0 -56 78 -79l85 -24q109 -31 109 -122q0 -64 -53 -104.5t-139 -40.5t-138 38.5t-53 115.5h55q6 -106 137 -106q65 0 101.5 27t36.5 67q0 55 -78 77l-85 25
q-109 31 -109 122z" />
    <glyph glyph-name="t" unicode="t" horiz-adv-x="352" 
d="M73 442l8 47h82l24 132h50l-23 -132h138l-8 -47h-139l-50 -288q-7 -33 -7 -59q0 -55 66 -55q25 0 63 10l-10 -49q-33 -9 -67 -9q-49 0 -78 25t-29 71q0 14 8 62l51 292h-79z" />
    <glyph glyph-name="u" unicode="u" horiz-adv-x="543" 
d="M444 489h54l-86 -489h-52l14 80q-58 -89 -161 -89q-69 0 -107 40.5t-38 105.5q0 33 7 73l49 279h54l-49 -275q-7 -49 -7 -73q0 -48 26.5 -74.5t74.5 -26.5q62 0 111 49t63 131z" />
    <glyph glyph-name="v" unicode="v" horiz-adv-x="479" 
d="M494 489l-267 -489h-65l-94 489h55l79 -429l233 429h59z" />
    <glyph glyph-name="w" unicode="w" horiz-adv-x="721" 
d="M431 489l43 -433l197 433h57l-227 -489h-68l-43 428l-194 -428h-68l-53 489h53l42 -433l196 433h65z" />
    <glyph glyph-name="x" unicode="x" horiz-adv-x="477" 
d="M57 0h-67l214 247l-126 242h60l102 -203l173 203h68l-215 -246l127 -243h-59l-103 203z" />
    <glyph glyph-name="y" unicode="y" horiz-adv-x="481" 
d="M-21 -169l10 47q25 -7 48 -7q38 0 63 22t52 72l12 23l-96 501h55l79 -429l233 429h59l-301 -550q-34 -61 -68.5 -89.5t-88.5 -28.5q-29 0 -57 10z" />
    <glyph glyph-name="z" unicode="z" horiz-adv-x="462" 
d="M102 489h356l-8 -42l-363 -398h287l-9 -49h-361l8 42l363 398h-283z" />
    <glyph glyph-name="braceleft" unicode="{" horiz-adv-x="345" 
d="M267 -52l-9 -48h-47q-118 0 -118 102q0 12 15 96q19 97 19 114q0 34 -19 49.5t-60 19.5l9 50q50 5 75.5 29.5t35.5 80.5l21 130q11 69 45 104t102 35h65l-9 -48h-55q-45 0 -67 -21.5t-30 -74.5l-22 -130q-10 -60 -35.5 -92.5t-71.5 -39.5q67 -16 67 -92q0 -22 -19 -119
q-14 -76 -14 -89q0 -56 64 -56h58z" />
    <glyph glyph-name="bar" unicode="|" horiz-adv-x="279" 
d="M53 -100l142 810h53l-143 -810h-52z" />
    <glyph glyph-name="braceright" unicode="}" horiz-adv-x="345" 
d="M103 662l8 48h48q117 0 117 -102q0 -22 -19 -121q-14 -76 -14 -89q0 -34 18.5 -49.5t59.5 -19.5l-9 -50q-50 -5 -75.5 -30t-34.5 -80l-22 -130q-11 -69 -45 -104t-102 -35h-64l8 48h56q45 0 66.5 21t30.5 75l21 130q11 61 36.5 93t71.5 39q-67 16 -67 92q0 19 14 97
q18 92 18 111q0 56 -63 56h-58z" />
    <glyph glyph-name="asciitilde" unicode="~" horiz-adv-x="652" 
d="M461 265q-38 0 -127 33t-116 33q-48 0 -57 -53l-2 -15h-50l3 20q8 46 35 71.5t70 25.5q38 0 127 -32.5t116 -32.5q48 0 56 52l3 15h50l-3 -19q-8 -46 -35.5 -72t-69.5 -26z" />
    <glyph glyph-name="uni00A0" unicode="&#xa0;" horiz-adv-x="220" 
 />
    <glyph glyph-name="exclamdown" unicode="&#xa1;" horiz-adv-x="264" 
d="M122 267h31l-47 -344l-22 -128h-59l23 128zM221 489l-16 -90h-90l17 90h89z" />
    <glyph glyph-name="cent" unicode="&#xa2;" horiz-adv-x="538" 
d="M254 0h-47l17 97q-69 13 -111.5 64.5t-42.5 134.5q0 118 66 206.5t176 96.5l17 95h47l-17 -95q67 -9 109.5 -55t41.5 -113h-55q1 50 -28 81t-76 37l-72 -406q52 4 91.5 35.5t54.5 84.5h56q-18 -76 -74.5 -122t-136.5 -48zM126 297q0 -63 28.5 -102t77.5 -49l71 403
q-78 -11 -127.5 -84.5t-49.5 -167.5z" />
    <glyph glyph-name="sterling" unicode="&#xa3;" horiz-adv-x="614" 
d="M91 284l8 48h77q-27 106 -27 156q0 95 58 156t157 61q90 0 146.5 -60t53.5 -161h-55q2 76 -37 123t-108 47q-78 0 -118 -46t-40 -120q0 -37 27 -156h234l-8 -48h-218q5 -22 5 -42q0 -118 -94 -190h351l-10 -52h-449l9 50q138 56 138 192q0 14 -4 42h-96z" />
    <glyph glyph-name="currency" unicode="&#xa4;" horiz-adv-x="528" 
d="M265 133q-69 0 -114 37l-59 -59l-37 37l61 61q-31 46 -31 112q0 65 32 114l-62 62l36 37l61 -62q48 38 113 38t113 -38l62 62l36 -37l-63 -63q33 -49 33 -113q0 -65 -32 -112l62 -61l-37 -37l-60 59q-45 -37 -114 -37zM265 182q59 0 93.5 39t34.5 100q0 62 -34.5 101
t-93.5 39t-93 -39t-34 -101t34 -100.5t93 -38.5z" />
    <glyph glyph-name="yen" unicode="&#xa5;" horiz-adv-x="647" 
d="M94 182h191l16 90h-191l8 47h160l-170 375h59l165 -369l296 369h67l-302 -375h158l-8 -47h-187l-17 -90h188l-8 -47h-188l-24 -135h-55l24 135h-190z" />
    <glyph glyph-name="brokenbar" unicode="&#xa6;" horiz-adv-x="279" 
d="M53 -100l62 355h53l-63 -355h-52zM132 354l63 356h53l-63 -356h-53z" />
    <glyph glyph-name="section" unicode="&#xa7;" horiz-adv-x="524" 
d="M469 241q0 -44 -32 -82t-91 -54q36 -45 36 -99q0 -64 -48 -108t-127 -44q-88 0 -134 42t-46 101h56q0 -39 32 -66.5t92 -27.5q56 0 88 27.5t32 72.5q0 58 -59 99l-115 79q-47 33 -66 63t-19 74t31.5 82t90.5 54q-35 44 -35 100q0 63 48 107t127 44q87 0 133.5 -42
t46.5 -101h-56q0 39 -32 67t-92 28q-57 0 -88.5 -28t-31.5 -73q0 -56 59 -99l114 -79q47 -33 66.5 -63t19.5 -74zM231 418l-8 6q-51 -13 -76.5 -41t-25.5 -64q0 -29 14 -49t48 -43l123 -86l8 -6q51 13 76.5 41.5t25.5 64.5q0 28 -14 48t-48 44z" />
    <glyph glyph-name="dieresis" unicode="&#xa8;" horiz-adv-x="362" 
d="M115 589l15 75h74l-14 -75h-75zM291 589l15 75h74l-14 -75h-75z" />
    <glyph glyph-name="copyright" unicode="&#xa9;" horiz-adv-x="807" 
d="M63 347q0 151 103.5 254.5t254.5 103.5q150 0 254.5 -104t104.5 -254t-104.5 -254t-254.5 -104q-151 0 -254.5 103.5t-103.5 254.5zM109 347q0 -131 91 -223t221 -92t221.5 92t91.5 223t-91.5 223t-221.5 92t-221 -92t-91 -223zM285 346q0 -74 37 -118.5t105 -44.5
q45 0 78 25.5t39 72.5h53q-8 -66 -53.5 -106t-116.5 -40q-87 0 -141.5 56.5t-54.5 154.5q0 99 54.5 155t141.5 56q71 0 117 -39.5t54 -105.5h-54q-6 46 -39 71.5t-78 25.5q-68 0 -105 -44t-37 -119z" />
    <glyph glyph-name="ordfeminine" unicode="&#xaa;" horiz-adv-x="409" 
d="M61 240l7 44h288l-7 -44h-288zM358 370h-44l9 50q-46 -56 -121 -56q-48 0 -74 23.5t-26 63.5q0 86 116 104l130 21l1 8q1 8 1 21q0 28 -19.5 44t-54.5 16q-74 0 -90 -60h-48q7 48 45.5 74t93.5 26q53 0 86.5 -26t33.5 -73q0 -8 -4 -38zM209 405q45 0 81 27t46 78l5 26
l-115 -18q-76 -12 -76 -64q0 -49 59 -49z" />
    <glyph glyph-name="guillemotleft" unicode="&#xab;" horiz-adv-x="477" 
d="M268 434l-154 -206l78 -194h-51l-89 200l160 200h56zM445 434l-154 -206l78 -194h-50l-90 200l160 200h56z" />
    <glyph glyph-name="logicalnot" unicode="&#xac;" horiz-adv-x="650" 
d="M109 348h445l-48 -278h-50l39 228h-395z" />
    <glyph glyph-name="uni00AD" unicode="&#xad;" horiz-adv-x="373" 
d="M61 241l9 49h251l-10 -49h-250z" />
    <glyph glyph-name="registered" unicode="&#xae;" horiz-adv-x="555" 
d="M90 477q0 95 67 162t161 67t161.5 -67t67.5 -162q0 -94 -67 -161t-162 -67q-94 0 -161 66.5t-67 161.5zM128 477q0 -81 55 -137t135 -56t135.5 56t55.5 137q0 80 -56 136.5t-135 56.5t-134.5 -56.5t-55.5 -136.5zM229 364v237h102q43 0 67 -18.5t24 -54.5q0 -51 -50 -67
l60 -97h-44l-55 91h-64v-91h-40zM381 528q0 39 -48 39h-64v-80h64q48 0 48 41z" />
    <glyph glyph-name="macron" unicode="&#xaf;" horiz-adv-x="366" 
d="M375 607h-255l8 47h255z" />
    <glyph glyph-name="degree" unicode="&#xb0;" horiz-adv-x="386" 
d="M108 567q0 58 40 98t99 40t99 -40t40 -98q0 -57 -40 -97t-99 -40t-99 40t-40 97zM157 567q0 -40 26 -66.5t64 -26.5t64 26.5t26 66.5t-26 67.5t-64 27.5t-64 -27.5t-26 -67.5z" />
    <glyph glyph-name="plusminus" unicode="&#xb1;" horiz-adv-x="650" 
d="M102 366l9 50h219l35 199h50l-35 -199h219l-9 -50h-218l-35 -200h-51l35 200h-219zM37 0l9 50h489l-9 -50h-489z" />
    <glyph glyph-name="twosuperior" unicode="&#xb2;" horiz-adv-x="325" 
d="M64 320l8 43l161 142q35 30 50.5 52t15.5 46q0 25 -18 41t-47 16q-35 0 -58 -22.5t-26 -60.5h-46q4 56 40.5 90t89.5 34q52 0 81.5 -26.5t29.5 -70.5q0 -56 -78 -124l-132 -116h174l-8 -44h-237z" />
    <glyph glyph-name="threesuperior" unicode="&#xb3;" horiz-adv-x="339" 
d="M196 314q-56 0 -90.5 28.5t-33.5 80.5h46q-2 -30 20 -49.5t59 -19.5q40 0 63 21t23 52q0 29 -21 45.5t-56 16.5h-18l7 42h18q40 0 65.5 18.5t25.5 50.5q0 29 -20.5 44.5t-50.5 15.5q-34 0 -56.5 -20.5t-26.5 -54.5h-45q5 51 40.5 83t89.5 32q52 0 83 -27.5t31 -70.5
q0 -31 -19 -56t-54 -37q53 -22 53 -82q0 -48 -35.5 -80.5t-97.5 -32.5z" />
    <glyph glyph-name="acute" unicode="&#xb4;" horiz-adv-x="280" 
d="M245 694h79l-126 -137h-49z" />
    <glyph glyph-name="mu" unicode="&#xb5;" horiz-adv-x="566" 
d="M459 489h53l-86 -489h-51l14 80q-60 -89 -161 -89q-82 0 -114 53l-39 -219h-53l117 664h53l-48 -275q-8 -42 -8 -73q0 -48 26.5 -74.5t75.5 -26.5q62 0 110.5 49t63.5 131z" />
    <glyph glyph-name="paragraph" unicode="&#xb6;" horiz-adv-x="619" 
d="M353 694h90l-122 -694h-56l48 274h-13q-98 0 -155.5 49t-57.5 137q0 105 71.5 169.5t194.5 64.5zM416 0l122 694h56l-122 -694h-56z" />
    <glyph glyph-name="periodcentered" unicode="&#xb7;" horiz-adv-x="254" 
d="M78 225l17 91h90l-17 -91h-90z" />
    <glyph glyph-name="cedilla" unicode="&#xb8;" horiz-adv-x="313" 
d="M87 -180q-41 0 -79 16l10 40q32 -15 69 -15q56 0 56 35q0 30 -44 30q-22 0 -42 -9l-15 28l63 67h37l-43 -53q2 1 14 1q34 0 55.5 -16t21.5 -48q0 -34 -27.5 -55t-75.5 -21z" />
    <glyph glyph-name="onesuperior" unicode="&#xb9;" horiz-adv-x="272" 
d="M197 319h-43l54 322l-114 -66l10 51l116 68h43z" />
    <glyph glyph-name="ordmasculine" unicode="&#xba;" horiz-adv-x="406" 
d="M61 240l8 44h288l-7 -44h-289zM243 406q55 0 89 46.5t34 107.5q0 49 -25 76t-69 27q-54 0 -88 -46.5t-34 -107.5q0 -49 24.5 -76t68.5 -27zM242 364q-63 0 -102.5 38.5t-39.5 106.5q0 81 48 138.5t125 57.5q64 0 103 -38.5t39 -106.5q0 -80 -48.5 -138t-124.5 -58z" />
    <glyph glyph-name="guillemotright" unicode="&#xbb;" horiz-adv-x="477" 
d="M200 34l154 206l-78 194h51l89 -200l-160 -200h-56zM23 34l154 206l-78 194h50l90 -200l-160 -200h-56z" />
    <glyph glyph-name="onequarter" unicode="&#xbc;" horiz-adv-x="740" 
d="M604 0h-43l15 84h-186l8 43l215 248h57l-44 -250h51l-7 -41h-51zM583 125l34 196l-171 -196h137zM35 0l621 694h53l-619 -694h-55zM187 319h-43l54 322l-114 -66l10 51l116 68h43z" />
    <glyph glyph-name="onehalf" unicode="&#xbd;" horiz-adv-x="768" 
d="M447 0l8 43l161 142q35 30 50.5 52t15.5 46q0 25 -18 41t-47 16q-35 0 -58 -22.5t-26 -60.5h-46q4 56 40.5 90t89.5 34q52 0 81.5 -26.5t29.5 -70.5q0 -56 -78 -124l-132 -116h174l-8 -44h-237zM35 0l621 694h53l-619 -694h-55zM187 319h-43l54 322l-114 -66l10 51
l116 68h43z" />
    <glyph glyph-name="threequarters" unicode="&#xbe;" horiz-adv-x="812" 
d="M676 0h-43l15 84h-186l8 43l215 248h57l-44 -250h51l-7 -41h-51zM655 125l34 196l-171 -196h137zM196 314q-56 0 -90.5 28.5t-33.5 80.5h46q-2 -30 20 -49.5t59 -19.5q40 0 63 21t23 52q0 29 -21 45.5t-56 16.5h-18l7 42h18q40 0 65.5 18.5t25.5 50.5q0 29 -20.5 44.5
t-50.5 15.5q-34 0 -56.5 -20.5t-26.5 -54.5h-45q5 51 40.5 83t89.5 32q52 0 83 -27.5t31 -70.5q0 -31 -19 -56t-54 -37q53 -22 53 -82q0 -48 -35.5 -80.5t-97.5 -32.5zM107 0l621 694h53l-619 -694h-55z" />
    <glyph glyph-name="questiondown" unicode="&#xbf;" horiz-adv-x="461" 
d="M221 244l4 23h50l-5 -27q-7 -42 -34 -74.5t-59 -53.5t-63.5 -42t-52.5 -52t-21 -71q0 -51 35 -81.5t95 -30.5q65 0 108.5 39t52.5 104h58q-11 -87 -71 -140.5t-148 -53.5q-83 0 -134.5 43.5t-51.5 118.5q0 50 22.5 88t55.5 61.5t66.5 44t60 47t32.5 57.5zM327 489
l-16 -90h-90l17 90h89z" />
    <glyph glyph-name="Agrave" unicode="&#xc0;" horiz-adv-x="689" 
d="M558 0l-49 219h-331l-126 -219h-62l402 694h65l158 -694h-57zM416 633l-208 -362h289zM313 885h75l62 -137h-44z" />
    <glyph glyph-name="Aacute" unicode="&#xc1;" horiz-adv-x="689" 
d="M558 0l-49 219h-331l-126 -219h-62l402 694h65l158 -694h-57zM416 633l-208 -362h289zM500 885h79l-126 -137h-49z" />
    <glyph glyph-name="Acircumflex" unicode="&#xc2;" horiz-adv-x="689" 
d="M558 0l-49 219h-331l-126 -219h-62l402 694h65l158 -694h-57zM416 633l-208 -362h289zM421 885h64l77 -137h-51l-63 91l-97 -91h-56z" />
    <glyph glyph-name="Atilde" unicode="&#xc3;" horiz-adv-x="689" 
d="M558 0l-49 219h-331l-126 -219h-62l402 694h65l158 -694h-57zM416 633l-208 -362h289zM504 751q-31 0 -69 34t-55 34q-18 0 -27 -15t-15 -47h-45q15 110 88 110q30 0 68 -33.5t55 -33.5q31 0 43 62h44q-16 -111 -87 -111z" />
    <glyph glyph-name="Adieresis" unicode="&#xc4;" horiz-adv-x="689" 
d="M558 0l-49 219h-331l-126 -219h-62l402 694h65l158 -694h-57zM416 633l-208 -362h289zM306 768l15 75h74l-14 -75h-75zM482 768l15 75h74l-14 -75h-75z" />
    <glyph glyph-name="Aring" unicode="&#xc5;" horiz-adv-x="689" 
d="M334 747q0 40 29 68.5t71 28.5t71 -28.5t29 -68.5q0 -32 -19.5 -57.5t-50.5 -34.5l151 -655h-57l-49 219h-331l-126 -219h-62l387 668q-43 28 -43 79zM416 633l-208 -362h289zM377 747q0 -25 16.5 -41t40.5 -16t40.5 16t16.5 41t-16.5 41.5t-40.5 16.5t-40.5 -16.5
t-16.5 -41.5z" />
    <glyph glyph-name="AE" unicode="&#xc6;" horiz-adv-x="1023" 
d="M6 0h-69l609 694h489l-9 -51h-404l-46 -261h368l-9 -51h-368l-49 -279h407l-8 -52h-465l39 219h-292zM243 271h257l65 365z" />
    <glyph glyph-name="Ccedilla" unicode="&#xc7;" horiz-adv-x="698" 
d="M278 -180q-39 0 -79 16l10 40q32 -15 69 -15q56 0 56 35q0 30 -43 30q-23 0 -43 -9l-15 28l47 50q-95 19 -152 96.5t-57 187.5q0 116 45.5 213t131.5 155t196 58q104 0 171.5 -67t64.5 -173h-58q1 85 -50.5 136.5t-134.5 51.5q-132 0 -220 -109.5t-88 -260.5
q0 -107 58 -174.5t153 -67.5q86 0 154 50.5t88 137.5h58q-19 -106 -104 -173t-199 -67q-3 0 -11 0.5t-11 0.5l-25 -31q3 1 14 1q34 0 56 -16t22 -48q0 -34 -27.5 -55t-76.5 -21z" />
    <glyph glyph-name="Egrave" unicode="&#xc8;" horiz-adv-x="625" 
d="M56 0l122 694h461l-9 -51h-405l-45 -261h368l-9 -51h-368l-49 -279h407l-9 -52h-464zM299 885h75l62 -137h-44z" />
    <glyph glyph-name="Eacute" unicode="&#xc9;" horiz-adv-x="625" 
d="M486 885h79l-126 -137h-49zM56 0l122 694h461l-9 -51h-405l-45 -261h368l-9 -51h-368l-49 -279h407l-9 -52h-464z" />
    <glyph glyph-name="Ecircumflex" unicode="&#xca;" horiz-adv-x="625" 
d="M407 885h64l77 -137h-51l-63 91l-97 -91h-56zM56 0l122 694h461l-9 -51h-405l-45 -261h368l-9 -51h-368l-49 -279h407l-9 -52h-464z" />
    <glyph glyph-name="Edieresis" unicode="&#xcb;" horiz-adv-x="625" 
d="M292 768l15 75h74l-14 -75h-75zM468 768l15 75h74l-14 -75h-75zM56 0l122 694h461l-9 -51h-405l-45 -261h368l-9 -51h-368l-49 -279h407l-9 -52h-464z" />
    <glyph glyph-name="Igrave" unicode="&#xcc;" horiz-adv-x="254" 
d="M56 0l122 694h56l-122 -694h-56zM98 885h75l62 -137h-44z" />
    <glyph glyph-name="Iacute" unicode="&#xcd;" horiz-adv-x="254" 
d="M56 0l122 694h56l-122 -694h-56zM284 885h79l-126 -137h-49z" />
    <glyph glyph-name="Icircumflex" unicode="&#xce;" horiz-adv-x="254" 
d="M56 0l122 694h56l-122 -694h-56zM207 885h64l77 -137h-51l-63 91l-97 -91h-56z" />
    <glyph glyph-name="Idieresis" unicode="&#xcf;" horiz-adv-x="254" 
d="M56 0l122 694h56l-122 -694h-56zM92 768l15 75h74l-14 -75h-75zM268 768l15 75h74l-14 -75h-75z" />
    <glyph glyph-name="Eth" unicode="&#xd0;" horiz-adv-x="722" 
d="M53 323l9 48h79l57 323h229q122 0 193 -78t71 -201q0 -179 -102.5 -297t-276.5 -118h-236l56 323h-79zM142 51h176q139 0 227 102.5t88 258.5q0 105 -57.5 168t-163.5 63h-166l-48 -272h163l-8 -48h-164z" />
    <glyph glyph-name="Ntilde" unicode="&#xd1;" horiz-adv-x="732" 
d="M713 694l-123 -694h-70l-298 625l-110 -625h-56l123 694h70l298 -625l111 625h55zM529 751q-31 0 -69 34t-55 34q-18 0 -27 -15t-15 -47h-45q15 110 88 110q30 0 68 -33.5t55 -33.5q31 0 43 62h44q-16 -111 -87 -111z" />
    <glyph glyph-name="Ograve" unicode="&#xd2;" horiz-adv-x="744" 
d="M342 41q135 0 223 110t88 260q0 106 -58.5 174t-154.5 68q-134 0 -221.5 -110t-87.5 -260q0 -106 58 -174t153 -68zM338 -11q-115 0 -190 81.5t-75 208.5q0 178 104 302t269 124q115 0 190 -81.5t75 -208.5q0 -178 -104 -302t-269 -124zM341 885h75l62 -137h-44z" />
    <glyph glyph-name="Oacute" unicode="&#xd3;" horiz-adv-x="744" 
d="M528 885h79l-126 -137h-49zM342 41q135 0 223 110t88 260q0 106 -58.5 174t-154.5 68q-134 0 -221.5 -110t-87.5 -260q0 -106 58 -174t153 -68zM338 -11q-115 0 -190 81.5t-75 208.5q0 178 104 302t269 124q115 0 190 -81.5t75 -208.5q0 -178 -104 -302t-269 -124z" />
    <glyph glyph-name="Ocircumflex" unicode="&#xd4;" horiz-adv-x="744" 
d="M450 885h64l77 -137h-51l-63 91l-97 -91h-56zM342 41q135 0 223 110t88 260q0 106 -58.5 174t-154.5 68q-134 0 -221.5 -110t-87.5 -260q0 -106 58 -174t153 -68zM338 -11q-115 0 -190 81.5t-75 208.5q0 178 104 302t269 124q115 0 190 -81.5t75 -208.5q0 -178 -104 -302
t-269 -124z" />
    <glyph glyph-name="Otilde" unicode="&#xd5;" horiz-adv-x="744" 
d="M342 41q135 0 223 110t88 260q0 106 -58.5 174t-154.5 68q-134 0 -221.5 -110t-87.5 -260q0 -106 58 -174t153 -68zM338 -11q-115 0 -190 81.5t-75 208.5q0 178 104 302t269 124q115 0 190 -81.5t75 -208.5q0 -178 -104 -302t-269 -124zM532 751q-31 0 -69 34t-55 34
q-18 0 -27 -15t-15 -47h-45q15 110 88 110q30 0 68 -33.5t55 -33.5q31 0 43 62h44q-16 -111 -87 -111z" />
    <glyph glyph-name="Odieresis" unicode="&#xd6;" horiz-adv-x="744" 
d="M335 768l15 75h74l-14 -75h-75zM511 768l15 75h74l-14 -75h-75zM342 41q135 0 223 110t88 260q0 106 -58.5 174t-154.5 68q-134 0 -221.5 -110t-87.5 -260q0 -106 58 -174t153 -68zM338 -11q-115 0 -190 81.5t-75 208.5q0 178 104 302t269 124q115 0 190 -81.5t75 -208.5
q0 -178 -104 -302t-269 -124z" />
    <glyph glyph-name="multiply" unicode="&#xd7;" horiz-adv-x="650" 
d="M134 110l-31 38l201 176l-148 175l39 32l146 -173l203 177l31 -38l-202 -177l150 -175l-39 -32l-148 174z" />
    <glyph glyph-name="Oslash" unicode="&#xd8;" horiz-adv-x="754" 
d="M341 -11q-108 0 -180 72l-72 -77h-68l108 115q-53 79 -53 180q0 178 104 302t269 124q106 0 180 -72l72 77h67l-107 -114q53 -77 53 -181q0 -178 -104 -302t-269 -124zM346 40q135 0 223.5 110.5t88.5 260.5q0 86 -36 143l-424 -453q56 -61 148 -61zM133 283
q0 -81 34 -143l425 453q-58 61 -148 61t-162 -52.5t-110.5 -137t-38.5 -181.5z" />
    <glyph glyph-name="Ugrave" unicode="&#xd9;" horiz-adv-x="676" 
d="M301 -11q-98 0 -160.5 53t-62.5 153q0 33 5 62l77 437h56l-77 -443q-4 -23 -4 -50q0 -77 45.5 -118.5t124.5 -41.5q88 0 152.5 56.5t83.5 162.5l76 434h56l-76 -434q-23 -137 -100.5 -204t-195.5 -67zM307 885h75l62 -137h-44z" />
    <glyph glyph-name="Uacute" unicode="&#xda;" horiz-adv-x="676" 
d="M494 885h79l-126 -137h-49zM301 -11q-98 0 -160.5 53t-62.5 153q0 33 5 62l77 437h56l-77 -443q-4 -23 -4 -50q0 -77 45.5 -118.5t124.5 -41.5q88 0 152.5 56.5t83.5 162.5l76 434h56l-76 -434q-23 -137 -100.5 -204t-195.5 -67z" />
    <glyph glyph-name="Ucircumflex" unicode="&#xdb;" horiz-adv-x="676" 
d="M415 885h64l77 -137h-51l-63 91l-97 -91h-56zM301 -11q-98 0 -160.5 53t-62.5 153q0 33 5 62l77 437h56l-77 -443q-4 -23 -4 -50q0 -77 45.5 -118.5t124.5 -41.5q88 0 152.5 56.5t83.5 162.5l76 434h56l-76 -434q-23 -137 -100.5 -204t-195.5 -67z" />
    <glyph glyph-name="Udieresis" unicode="&#xdc;" horiz-adv-x="676" 
d="M301 768l15 75h74l-14 -75h-75zM477 768l15 75h74l-14 -75h-75zM301 -11q-98 0 -160.5 53t-62.5 153q0 33 5 62l77 437h56l-77 -443q-4 -23 -4 -50q0 -77 45.5 -118.5t124.5 -41.5q88 0 152.5 56.5t83.5 162.5l76 434h56l-76 -434q-23 -137 -100.5 -204t-195.5 -67z" />
    <glyph glyph-name="Yacute" unicode="&#xdd;" horiz-adv-x="606" 
d="M233 0l47 269l-191 425h61l164 -368l294 368h69l-340 -424l-48 -270h-56zM464 885h79l-126 -137h-49z" />
    <glyph glyph-name="Thorn" unicode="&#xde;" horiz-adv-x="628" 
d="M605 377q0 -115 -75 -173.5t-200 -58.5h-193l-25 -145h-56l122 694h56l-25 -141h193q93 0 148 -46.5t55 -129.5zM339 196q95 0 151.5 45.5t56.5 134.5q0 60 -40.5 93t-108.5 33h-197l-55 -306h193z" />
    <glyph glyph-name="germandbls" unicode="&#xdf;" horiz-adv-x="568" 
d="M125 0h-53l77 442h-81l9 47h81l8 48q14 79 65.5 122t130.5 43q77 0 118.5 -38.5t41.5 -95.5q0 -39 -24 -72.5t-52.5 -52.5t-52.5 -42t-24 -43q0 -22 33 -46l54 -40q71 -52 71 -130q0 -65 -49 -108t-135 -43q-68 0 -107 17l11 49q47 -17 96 -17q56 0 93 27.5t37 74.5
q0 54 -57 94l-49 36q-52 36 -52 81q0 24 16 47t38.5 40.5t45.5 35.5t39 41t16 48q0 41 -29 65t-79 24q-122 0 -144 -127z" />
    <glyph glyph-name="agrave" unicode="&#xe0;" horiz-adv-x="521" 
d="M396 0h-50l14 80q-34 -45 -83 -66.5t-99 -21.5q-68 0 -106 32t-38 89q0 65 46 104.5t124 52.5l194 33l3 20q4 19 4 34q0 47 -31.5 70t-85.5 23q-55 0 -93.5 -25.5t-49.5 -71.5h-55q9 70 65.5 107.5t131.5 37.5q76 0 123 -35.5t47 -100.5q0 -5 -6 -53zM187 38
q67 0 123.5 44.5t70.5 127.5l8 44l-188 -32q-49 -8 -80.5 -35.5t-31.5 -70.5q0 -78 98 -78zM193 694h75l62 -137h-44z" />
    <glyph glyph-name="aacute" unicode="&#xe1;" horiz-adv-x="521" 
d="M396 0h-50l14 80q-34 -45 -83 -66.5t-99 -21.5q-68 0 -106 32t-38 89q0 65 46 104.5t124 52.5l194 33l3 20q4 19 4 34q0 47 -31.5 70t-85.5 23q-55 0 -93.5 -25.5t-49.5 -71.5h-55q9 70 65.5 107.5t131.5 37.5q76 0 123 -35.5t47 -100.5q0 -5 -6 -53zM187 38
q67 0 123.5 44.5t70.5 127.5l8 44l-188 -32q-49 -8 -80.5 -35.5t-31.5 -70.5q0 -78 98 -78zM380 694h79l-126 -137h-49z" />
    <glyph glyph-name="acircumflex" unicode="&#xe2;" horiz-adv-x="521" 
d="M396 0h-50l14 80q-34 -45 -83 -66.5t-99 -21.5q-68 0 -106 32t-38 89q0 65 46 104.5t124 52.5l194 33l3 20q4 19 4 34q0 47 -31.5 70t-85.5 23q-55 0 -93.5 -25.5t-49.5 -71.5h-55q9 70 65.5 107.5t131.5 37.5q76 0 123 -35.5t47 -100.5q0 -5 -6 -53zM187 38
q67 0 123.5 44.5t70.5 127.5l8 44l-188 -32q-49 -8 -80.5 -35.5t-31.5 -70.5q0 -78 98 -78zM301 694h64l77 -137h-51l-63 91l-97 -91h-56z" />
    <glyph glyph-name="atilde" unicode="&#xe3;" horiz-adv-x="521" 
d="M396 0h-50l14 80q-34 -45 -83 -66.5t-99 -21.5q-68 0 -106 32t-38 89q0 65 46 104.5t124 52.5l194 33l3 20q4 19 4 34q0 47 -31.5 70t-85.5 23q-55 0 -93.5 -25.5t-49.5 -71.5h-55q9 70 65.5 107.5t131.5 37.5q76 0 123 -35.5t47 -100.5q0 -5 -6 -53zM187 38
q67 0 123.5 44.5t70.5 127.5l8 44l-188 -32q-49 -8 -80.5 -35.5t-31.5 -70.5q0 -78 98 -78zM385 572q-31 0 -69 34t-55 34q-18 0 -27 -15t-15 -47h-45q15 110 88 110q30 0 68 -33.5t55 -33.5q31 0 43 62h44q-16 -111 -87 -111z" />
    <glyph glyph-name="adieresis" unicode="&#xe4;" horiz-adv-x="521" 
d="M396 0h-50l14 80q-34 -45 -83 -66.5t-99 -21.5q-68 0 -106 32t-38 89q0 65 46 104.5t124 52.5l194 33l3 20q4 19 4 34q0 47 -31.5 70t-85.5 23q-55 0 -93.5 -25.5t-49.5 -71.5h-55q9 70 65.5 107.5t131.5 37.5q76 0 123 -35.5t47 -100.5q0 -5 -6 -53zM187 38
q67 0 123.5 44.5t70.5 127.5l8 44l-188 -32q-49 -8 -80.5 -35.5t-31.5 -70.5q0 -78 98 -78zM188 589l15 75h74l-14 -75h-75zM364 589l15 75h74l-14 -75h-75z" />
    <glyph glyph-name="aring" unicode="&#xe5;" horiz-adv-x="521" 
d="M396 0h-50l14 80q-34 -45 -83 -66.5t-99 -21.5q-68 0 -106 32t-38 89q0 65 46 104.5t124 52.5l194 33l3 20q4 19 4 34q0 47 -31.5 70t-85.5 23q-55 0 -93.5 -25.5t-49.5 -71.5h-55q9 70 65.5 107.5t131.5 37.5q76 0 123 -35.5t47 -100.5q0 -5 -6 -53zM187 38
q67 0 123.5 44.5t70.5 127.5l8 44l-188 -32q-49 -8 -80.5 -35.5t-31.5 -70.5q0 -78 98 -78zM225 645q0 40 29 68.5t71 28.5t71 -28.5t29 -68.5t-29 -68t-71 -28t-71 28t-29 68zM268 645q0 -25 16.5 -41t40.5 -16t40.5 16t16.5 41t-16.5 41.5t-40.5 16.5t-40.5 -16.5
t-16.5 -41.5z" />
    <glyph glyph-name="ae" unicode="&#xe6;" horiz-adv-x="867" 
d="M569 -9q-59 0 -105.5 31t-67.5 86q-66 -116 -202 -116q-76 0 -118 35t-42 96q0 68 51.5 109.5t140.5 41.5h167l6 37q5 25 5 41q0 50 -31 74t-85 24q-55 0 -93.5 -25.5t-49.5 -71.5h-55q9 70 65.5 107.5t131.5 37.5q62 0 105 -25t57 -73q68 98 191 98q79 0 129 -50
t50 -132q0 -42 -11 -89h-371q-2 -18 -2 -35q0 -65 36 -108.5t103 -43.5q52 0 95 29t61 76h54q-19 -70 -79.5 -112t-135.5 -42zM446 274h315q4 24 4 41q0 64 -36 99.5t-92 35.5q-67 0 -119 -47.5t-72 -128.5zM89 123q0 -40 27 -62.5t79 -22.5q68 0 120 43t64 115l5 31h-158
q-68 0 -102.5 -29t-34.5 -75z" />
    <glyph glyph-name="ccedilla" unicode="&#xe7;" horiz-adv-x="526" 
d="M194 -180q-39 0 -79 16l11 40q32 -15 68 -15q56 0 56 35q0 30 -43 30q-23 0 -43 -9l-14 28l47 51q-66 12 -106.5 64t-40.5 134q0 123 70.5 213.5t187.5 90.5q76 0 126 -47.5t49 -121.5h-55q1 56 -34 88t-90 32q-86 0 -142 -76t-56 -178q0 -74 38 -114.5t99 -40.5
q55 0 97 32t58 88h56q-18 -76 -75.5 -122.5t-137.5 -46.5h-9l-25 -32q2 1 13 1q34 0 56 -16t22 -48q0 -34 -27.5 -55t-76.5 -21z" />
    <glyph glyph-name="egrave" unicode="&#xe8;" horiz-adv-x="536" 
d="M50 192q0 127 71.5 216.5t187.5 89.5q79 0 129 -50t50 -132q0 -42 -11 -89h-371q-2 -18 -2 -35q0 -65 36 -109t103 -44q51 0 94.5 29.5t61.5 76.5h54q-19 -70 -79 -112t-135 -42q-81 0 -135 55t-54 146zM115 274h315q4 22 4 41q0 64 -36.5 99.5t-92.5 35.5
q-66 0 -117.5 -47.5t-72.5 -128.5zM208 694h75l62 -137h-44z" />
    <glyph glyph-name="eacute" unicode="&#xe9;" horiz-adv-x="536" 
d="M395 694h79l-126 -137h-49zM50 192q0 127 71.5 216.5t187.5 89.5q79 0 129 -50t50 -132q0 -42 -11 -89h-371q-2 -18 -2 -35q0 -65 36 -109t103 -44q51 0 94.5 29.5t61.5 76.5h54q-19 -70 -79 -112t-135 -42q-81 0 -135 55t-54 146zM115 274h315q4 22 4 41
q0 64 -36.5 99.5t-92.5 35.5q-66 0 -117.5 -47.5t-72.5 -128.5z" />
    <glyph glyph-name="ecircumflex" unicode="&#xea;" horiz-adv-x="536" 
d="M317 694h64l77 -137h-51l-63 91l-97 -91h-56zM50 192q0 127 71.5 216.5t187.5 89.5q79 0 129 -50t50 -132q0 -42 -11 -89h-371q-2 -18 -2 -35q0 -65 36 -109t103 -44q51 0 94.5 29.5t61.5 76.5h54q-19 -70 -79 -112t-135 -42q-81 0 -135 55t-54 146zM115 274h315
q4 22 4 41q0 64 -36.5 99.5t-92.5 35.5q-66 0 -117.5 -47.5t-72.5 -128.5z" />
    <glyph glyph-name="edieresis" unicode="&#xeb;" horiz-adv-x="536" 
d="M203 589l15 75h74l-14 -75h-75zM379 589l15 75h74l-14 -75h-75zM50 192q0 127 71.5 216.5t187.5 89.5q79 0 129 -50t50 -132q0 -42 -11 -89h-371q-2 -18 -2 -35q0 -65 36 -109t103 -44q51 0 94.5 29.5t61.5 76.5h54q-19 -70 -79 -112t-135 -42q-81 0 -135 55t-54 146z
M115 274h315q4 22 4 41q0 64 -36.5 99.5t-92.5 35.5q-66 0 -117.5 -47.5t-72.5 -128.5z" />
    <glyph glyph-name="igrave" unicode="&#xec;" horiz-adv-x="230" 
d="M131 489h54l-86 -489h-54zM55 694h75l62 -137h-44z" />
    <glyph glyph-name="iacute" unicode="&#xed;" horiz-adv-x="230" 
d="M242 694h79l-126 -137h-49zM131 489h54l-86 -489h-54z" />
    <glyph glyph-name="icircumflex" unicode="&#xee;" horiz-adv-x="230" 
d="M163 694h64l77 -137h-51l-63 91l-97 -91h-56zM131 489h54l-86 -489h-54z" />
    <glyph glyph-name="idieresis" unicode="&#xef;" horiz-adv-x="230" 
d="M49 589l15 75h74l-14 -75h-75zM225 589l15 75h74l-14 -75h-75zM131 489h54l-86 -489h-54z" />
    <glyph glyph-name="eth" unicode="&#xf0;" horiz-adv-x="548" 
d="M242 548l-12 43l95 28q-35 39 -85 75h69q32 -22 66 -61l114 32l12 -43l-96 -27q40 -56 66 -133.5t26 -161.5q0 -128 -69.5 -218t-186.5 -90q-81 0 -136.5 52.5t-55.5 150.5q0 119 69 209t184 90q75 0 122 -48q-30 82 -69 135zM242 41q87 0 143 74.5t56 175.5
q0 74 -37.5 114t-99.5 40q-87 0 -143.5 -74.5t-56.5 -175.5q0 -74 38 -114t100 -40z" />
    <glyph glyph-name="ntilde" unicode="&#xf1;" horiz-adv-x="551" 
d="M99 0h-54l86 489h52l-14 -80q59 89 160 89q72 0 113 -41t41 -105q0 -30 -7 -74l-49 -278h-53l48 275q8 50 8 73q0 47 -29 74t-80 27q-63 0 -112 -49.5t-63 -129.5zM401 572q-31 0 -69 34t-55 34q-18 0 -27 -15t-15 -47h-45q15 110 88 110q30 0 68 -33.5t55 -33.5
q31 0 43 62h44q-16 -111 -87 -111z" />
    <glyph glyph-name="ograve" unicode="&#xf2;" horiz-adv-x="548" 
d="M243 40q86 0 142.5 76t56.5 178q0 73 -38 114t-100 41q-86 0 -142 -76t-56 -178q0 -73 38 -114t99 -41zM239 -9q-80 0 -134.5 54t-54.5 149q0 123 70.5 213.5t188.5 90.5q79 0 133.5 -54t54.5 -149q0 -123 -70 -213.5t-188 -90.5zM212 694h75l62 -137h-44z" />
    <glyph glyph-name="oacute" unicode="&#xf3;" horiz-adv-x="548" 
d="M399 694h79l-126 -137h-49zM243 40q86 0 142.5 76t56.5 178q0 73 -38 114t-100 41q-86 0 -142 -76t-56 -178q0 -73 38 -114t99 -41zM239 -9q-80 0 -134.5 54t-54.5 149q0 123 70.5 213.5t188.5 90.5q79 0 133.5 -54t54.5 -149q0 -123 -70 -213.5t-188 -90.5z" />
    <glyph glyph-name="ocircumflex" unicode="&#xf4;" horiz-adv-x="548" 
d="M320 694h64l77 -137h-51l-63 91l-97 -91h-56zM243 40q86 0 142.5 76t56.5 178q0 73 -38 114t-100 41q-86 0 -142 -76t-56 -178q0 -73 38 -114t99 -41zM239 -9q-80 0 -134.5 54t-54.5 149q0 123 70.5 213.5t188.5 90.5q79 0 133.5 -54t54.5 -149q0 -123 -70 -213.5
t-188 -90.5z" />
    <glyph glyph-name="otilde" unicode="&#xf5;" horiz-adv-x="548" 
d="M243 40q86 0 142.5 76t56.5 178q0 73 -38 114t-100 41q-86 0 -142 -76t-56 -178q0 -73 38 -114t99 -41zM239 -9q-80 0 -134.5 54t-54.5 149q0 123 70.5 213.5t188.5 90.5q79 0 133.5 -54t54.5 -149q0 -123 -70 -213.5t-188 -90.5zM404 572q-31 0 -69 34t-55 34
q-18 0 -27 -15t-15 -47h-45q15 110 88 110q30 0 68 -33.5t55 -33.5q31 0 43 62h44q-16 -111 -87 -111z" />
    <glyph glyph-name="odieresis" unicode="&#xf6;" horiz-adv-x="548" 
d="M207 589l15 75h74l-14 -75h-75zM383 589l15 75h74l-14 -75h-75zM243 40q86 0 142.5 76t56.5 178q0 73 -38 114t-100 41q-86 0 -142 -76t-56 -178q0 -73 38 -114t99 -41zM239 -9q-80 0 -134.5 54t-54.5 149q0 123 70.5 213.5t188.5 90.5q79 0 133.5 -54t54.5 -149
q0 -123 -70 -213.5t-188 -90.5z" />
    <glyph glyph-name="divide" unicode="&#xf7;" horiz-adv-x="650" 
d="M329 481l16 90h88l-15 -90h-89zM131 298l9 50h427l-9 -50h-427zM257 73l16 90h89l-16 -90h-89z" />
    <glyph glyph-name="oslash" unicode="&#xf8;" horiz-adv-x="558" 
d="M244 -9q-78 0 -131 50l-55 -57h-63l90 93q-30 49 -30 117q0 123 70 213.5t188 90.5q77 0 130 -50l57 59h64l-92 -96q30 -49 30 -116q0 -123 -70 -213.5t-188 -90.5zM108 194q0 -41 15 -78l285 295q-39 39 -99 39q-87 0 -144 -77t-57 -179zM248 39q87 0 143.5 76t56.5 179
q0 45 -14 78l-286 -294q38 -39 100 -39z" />
    <glyph glyph-name="ugrave" unicode="&#xf9;" horiz-adv-x="543" 
d="M444 489h54l-86 -489h-52l14 80q-58 -89 -161 -89q-69 0 -107 40.5t-38 105.5q0 33 7 73l49 279h54l-49 -275q-7 -49 -7 -73q0 -48 26.5 -74.5t74.5 -26.5q62 0 111 49t63 131zM209 694h75l62 -137h-44z" />
    <glyph glyph-name="uacute" unicode="&#xfa;" horiz-adv-x="543" 
d="M396 694h79l-126 -137h-49zM444 489h54l-86 -489h-52l14 80q-58 -89 -161 -89q-69 0 -107 40.5t-38 105.5q0 33 7 73l49 279h54l-49 -275q-7 -49 -7 -73q0 -48 26.5 -74.5t74.5 -26.5q62 0 111 49t63 131z" />
    <glyph glyph-name="ucircumflex" unicode="&#xfb;" horiz-adv-x="543" 
d="M318 694h64l77 -137h-51l-63 91l-97 -91h-56zM444 489h54l-86 -489h-52l14 80q-58 -89 -161 -89q-69 0 -107 40.5t-38 105.5q0 33 7 73l49 279h54l-49 -275q-7 -49 -7 -73q0 -48 26.5 -74.5t74.5 -26.5q62 0 111 49t63 131z" />
    <glyph glyph-name="udieresis" unicode="&#xfc;" horiz-adv-x="543" 
d="M203 589l15 75h74l-14 -75h-75zM379 589l15 75h74l-14 -75h-75zM444 489h54l-86 -489h-52l14 80q-58 -89 -161 -89q-69 0 -107 40.5t-38 105.5q0 33 7 73l49 279h54l-49 -275q-7 -49 -7 -73q0 -48 26.5 -74.5t74.5 -26.5q62 0 111 49t63 131z" />
    <glyph glyph-name="yacute" unicode="&#xfd;" horiz-adv-x="481" 
d="M-21 -169l10 47q25 -7 48 -7q38 0 63 22t52 72l12 23l-96 501h55l79 -429l233 429h59l-301 -550q-34 -61 -68.5 -89.5t-88.5 -28.5q-29 0 -57 10zM360 694h79l-126 -137h-49z" />
    <glyph glyph-name="thorn" unicode="&#xfe;" horiz-adv-x="570" 
d="M339 498q80 0 130.5 -54.5t50.5 -148.5q0 -123 -71 -213.5t-180 -90.5q-51 0 -93.5 25.5t-62.5 69.5l-45 -261h-54l153 869h54l-50 -286q29 44 74 67t94 23zM332 449q-86 0 -142 -76.5t-56 -182.5q0 -70 36.5 -110t95.5 -40q86 0 142 76.5t56 182.5q0 70 -36.5 110
t-95.5 40z" />
    <glyph glyph-name="ydieresis" unicode="&#xff;" horiz-adv-x="481" 
d="M-21 -169l10 47q25 -7 48 -7q38 0 63 22t52 72l12 23l-96 501h55l79 -429l233 429h59l-301 -550q-34 -61 -68.5 -89.5t-88.5 -28.5q-29 0 -57 10zM168 589l15 75h74l-14 -75h-75zM344 589l15 75h74l-14 -75h-75z" />
    <glyph glyph-name="Amacron" unicode="&#x100;" horiz-adv-x="689" 
d="M558 0l-49 219h-331l-126 -219h-62l402 694h65l158 -694h-57zM416 633l-208 -362h289zM566 786h-255l8 47h255z" />
    <glyph glyph-name="amacron" unicode="&#x101;" horiz-adv-x="521" 
d="M396 0h-50l14 80q-34 -45 -83 -66.5t-99 -21.5q-68 0 -106 32t-38 89q0 65 46 104.5t124 52.5l194 33l3 20q4 19 4 34q0 47 -31.5 70t-85.5 23q-55 0 -93.5 -25.5t-49.5 -71.5h-55q9 70 65.5 107.5t131.5 37.5q76 0 123 -35.5t47 -100.5q0 -5 -6 -53zM187 38
q67 0 123.5 44.5t70.5 127.5l8 44l-188 -32q-49 -8 -80.5 -35.5t-31.5 -70.5q0 -78 98 -78zM447 607h-255l8 47h255z" />
    <glyph glyph-name="Abreve" unicode="&#x102;" horiz-adv-x="689" 
d="M558 0l-49 219h-331l-126 -219h-62l402 694h65l158 -694h-57zM416 633l-208 -362h289zM436 743q-61 0 -88.5 40t-19.5 90h45q-4 -33 11.5 -59t51.5 -26t59.5 22.5t30.5 62.5h46q-10 -63 -46 -96.5t-90 -33.5z" />
    <glyph glyph-name="abreve" unicode="&#x103;" horiz-adv-x="521" 
d="M396 0h-50l14 80q-34 -45 -83 -66.5t-99 -21.5q-68 0 -106 32t-38 89q0 65 46 104.5t124 52.5l194 33l3 20q4 19 4 34q0 47 -31.5 70t-85.5 23q-55 0 -93.5 -25.5t-49.5 -71.5h-55q9 70 65.5 107.5t131.5 37.5q76 0 123 -35.5t47 -100.5q0 -5 -6 -53zM187 38
q67 0 123.5 44.5t70.5 127.5l8 44l-188 -32q-49 -8 -80.5 -35.5t-31.5 -70.5q0 -78 98 -78zM317 563q-61 0 -88.5 40t-19.5 90h45q-4 -33 11.5 -59t51.5 -26t59.5 22.5t30.5 62.5h46q-10 -63 -46 -96.5t-90 -33.5z" />
    <glyph glyph-name="Aogonek" unicode="&#x104;" horiz-adv-x="689" 
d="M558 0l-49 219h-331l-126 -219h-62l402 694h65l157 -688q-112 -75 -112 -121q0 -28 37 -28q30 0 58 13l-7 -43q-26 -11 -59 -11q-82 0 -82 61q0 54 109 123zM416 633l-208 -362h289z" />
    <glyph glyph-name="aogonek" unicode="&#x105;" horiz-adv-x="521" 
d="M346 0l14 80q-34 -45 -83 -66.5t-99 -21.5q-68 0 -106 32t-38 89q0 65 46 104.5t124 52.5l194 33l3 20q4 19 4 34q0 47 -31.5 70t-85.5 23q-55 0 -93.5 -25.5t-49.5 -71.5h-55q9 70 65.5 107.5t131.5 37.5q76 0 123 -35.5t47 -100.5q0 -5 -6 -53l-55 -309
q-107 -69 -107 -115q0 -28 38 -28q28 0 58 13l-8 -43q-24 -11 -58 -11q-82 0 -82 61q0 55 109 123zM187 38q67 0 123.5 44.5t70.5 127.5l8 44l-188 -32q-49 -8 -80.5 -35.5t-31.5 -70.5q0 -78 98 -78z" />
    <glyph glyph-name="Cacute" unicode="&#x106;" horiz-adv-x="698" 
d="M524 885h79l-126 -137h-49zM437 653q-132 0 -220 -109.5t-88 -260.5q0 -107 58 -174.5t153 -67.5q86 0 154 50.5t88 137.5h58q-19 -106 -104 -173t-199 -67q-117 0 -191.5 82t-74.5 208q0 116 45.5 213t131.5 155t196 58q104 0 171.5 -67t64.5 -173h-58q1 85 -50.5 136.5
t-134.5 51.5z" />
    <glyph glyph-name="cacute" unicode="&#x107;" horiz-adv-x="526" 
d="M399 694h79l-126 -137h-49zM241 -9q-82 0 -136.5 54t-54.5 149q0 123 70.5 213.5t187.5 90.5q76 0 126 -47.5t49 -121.5h-55q1 56 -34 88t-90 32q-86 0 -142 -76t-56 -178q0 -74 38 -114.5t99 -40.5q55 0 97 32t58 88h56q-18 -76 -75.5 -122.5t-137.5 -46.5z" />
    <glyph glyph-name="Ccircumflex" unicode="&#x108;" horiz-adv-x="698" 
d="M446 885h64l77 -137h-51l-63 91l-97 -91h-56zM437 653q-132 0 -220 -109.5t-88 -260.5q0 -107 58 -174.5t153 -67.5q86 0 154 50.5t88 137.5h58q-19 -106 -104 -173t-199 -67q-117 0 -191.5 82t-74.5 208q0 116 45.5 213t131.5 155t196 58q104 0 171.5 -67t64.5 -173h-58
q1 85 -50.5 136.5t-134.5 51.5z" />
    <glyph glyph-name="ccircumflex" unicode="&#x109;" horiz-adv-x="526" 
d="M320 694h64l77 -137h-51l-63 91l-97 -91h-56zM241 -9q-82 0 -136.5 54t-54.5 149q0 123 70.5 213.5t187.5 90.5q76 0 126 -47.5t49 -121.5h-55q1 56 -34 88t-90 32q-86 0 -142 -76t-56 -178q0 -74 38 -114.5t99 -40.5q55 0 97 32t58 88h56q-18 -76 -75.5 -122.5
t-137.5 -46.5z" />
    <glyph glyph-name="Cdotaccent" unicode="&#x10a;" horiz-adv-x="698" 
d="M437 653q-132 0 -220 -109.5t-88 -260.5q0 -107 58 -174.5t153 -67.5q86 0 154 50.5t88 137.5h58q-19 -106 -104 -173t-199 -67q-117 0 -191.5 82t-74.5 208q0 116 45.5 213t131.5 155t196 58q104 0 171.5 -67t64.5 -173h-58q1 85 -50.5 136.5t-134.5 51.5zM421 768
l15 75h74l-14 -75h-75z" />
    <glyph glyph-name="cdotaccent" unicode="&#x10b;" horiz-adv-x="526" 
d="M241 -9q-82 0 -136.5 54t-54.5 149q0 123 70.5 213.5t187.5 90.5q76 0 126 -47.5t49 -121.5h-55q1 56 -34 88t-90 32q-86 0 -142 -76t-56 -178q0 -74 38 -114.5t99 -40.5q55 0 97 32t58 88h56q-18 -76 -75.5 -122.5t-137.5 -46.5zM297 589l15 75h74l-14 -75h-75z" />
    <glyph glyph-name="Ccaron" unicode="&#x10c;" horiz-adv-x="698" 
d="M488 748h-64l-77 137h51l63 -91l97 91h56zM437 653q-132 0 -220 -109.5t-88 -260.5q0 -107 58 -174.5t153 -67.5q86 0 154 50.5t88 137.5h58q-19 -106 -104 -173t-199 -67q-117 0 -191.5 82t-74.5 208q0 116 45.5 213t131.5 155t196 58q104 0 171.5 -67t64.5 -173h-58
q1 85 -50.5 136.5t-134.5 51.5z" />
    <glyph glyph-name="ccaron" unicode="&#x10d;" horiz-adv-x="526" 
d="M362 557h-64l-77 137h51l63 -91l97 91h56zM241 -9q-82 0 -136.5 54t-54.5 149q0 123 70.5 213.5t187.5 90.5q76 0 126 -47.5t49 -121.5h-55q1 56 -34 88t-90 32q-86 0 -142 -76t-56 -178q0 -74 38 -114.5t99 -40.5q55 0 97 32t58 88h56q-18 -76 -75.5 -122.5
t-137.5 -46.5z" />
    <glyph glyph-name="Dcaron" unicode="&#x10e;" horiz-adv-x="703" 
d="M471 748h-64l-77 137h51l63 -91l97 91h56zM178 694h228q123 0 194 -78t71 -201q0 -179 -102.5 -297t-276.5 -118h-236zM122 51h176q139 0 227 102.5t88 258.5q0 105 -57.5 168t-163.5 63h-166z" />
    <glyph glyph-name="dcaron" unicode="&#x10f;" horiz-adv-x="644" 
d="M671 694h67l-97 -170h-42zM230 -9q-80 0 -130 54.5t-50 148.5q0 121 69.5 212.5t181.5 91.5q50 0 92.5 -25.5t62.5 -69.5l51 291h54l-123 -694h-53l15 82q-28 -44 -74 -67.5t-96 -23.5zM237 40q86 0 142.5 76.5t56.5 182.5q0 70 -36.5 110t-95.5 40q-86 0 -142.5 -76.5
t-56.5 -182.5q0 -70 36.5 -110t95.5 -40z" />
    <glyph glyph-name="Dcroat" unicode="&#x110;" horiz-adv-x="722" 
d="M53 323l9 48h79l57 323h229q122 0 193 -78t71 -201q0 -179 -102.5 -297t-276.5 -118h-236l56 323h-79zM142 51h176q139 0 227 102.5t88 258.5q0 105 -57.5 168t-163.5 63h-166l-48 -272h163l-8 -48h-164z" />
    <glyph glyph-name="dcroat" unicode="&#x111;" horiz-adv-x="581" 
d="M230 -9q-80 0 -130 54.5t-50 148.5q0 121 69.5 212.5t181.5 91.5q50 0 92.5 -25.5t62.5 -69.5l26 150h-111l9 45h110l17 96h54l-18 -96h70l-8 -45h-70l-97 -553h-53l15 82q-28 -44 -74 -67.5t-96 -23.5zM237 40q86 0 142.5 76.5t56.5 182.5q0 70 -36.5 110t-95.5 40
q-86 0 -142.5 -76.5t-56.5 -182.5q0 -70 36.5 -110t95.5 -40z" />
    <glyph glyph-name="Emacron" unicode="&#x112;" horiz-adv-x="625" 
d="M56 0l122 694h461l-9 -51h-405l-45 -261h368l-9 -51h-368l-49 -279h407l-9 -52h-464zM552 786h-255l8 47h255z" />
    <glyph glyph-name="emacron" unicode="&#x113;" horiz-adv-x="536" 
d="M50 192q0 127 71.5 216.5t187.5 89.5q79 0 129 -50t50 -132q0 -42 -11 -89h-371q-2 -18 -2 -35q0 -65 36 -109t103 -44q51 0 94.5 29.5t61.5 76.5h54q-19 -70 -79 -112t-135 -42q-81 0 -135 55t-54 146zM115 274h315q4 22 4 41q0 64 -36.5 99.5t-92.5 35.5
q-66 0 -117.5 -47.5t-72.5 -128.5zM462 607h-255l8 47h255z" />
    <glyph glyph-name="Ebreve" unicode="&#x114;" horiz-adv-x="625" 
d="M56 0l122 694h461l-9 -51h-405l-45 -261h368l-9 -51h-368l-49 -279h407l-9 -52h-464zM421 743q-61 0 -88.5 40t-19.5 90h45q-4 -33 11.5 -59t51.5 -26t59.5 22.5t30.5 62.5h46q-10 -63 -46 -96.5t-90 -33.5z" />
    <glyph glyph-name="ebreve" unicode="&#x115;" horiz-adv-x="536" 
d="M50 192q0 127 71.5 216.5t187.5 89.5q79 0 129 -50t50 -132q0 -42 -11 -89h-371q-2 -18 -2 -35q0 -65 36 -109t103 -44q51 0 94.5 29.5t61.5 76.5h54q-19 -70 -79 -112t-135 -42q-81 0 -135 55t-54 146zM115 274h315q4 22 4 41q0 64 -36.5 99.5t-92.5 35.5
q-66 0 -117.5 -47.5t-72.5 -128.5zM332 564q-61 0 -88.5 40t-19.5 90h45q-4 -33 11.5 -59t51.5 -26t59.5 22.5t30.5 62.5h46q-10 -63 -46 -96.5t-90 -33.5z" />
    <glyph glyph-name="Edotaccent" unicode="&#x116;" horiz-adv-x="625" 
d="M56 0l122 694h461l-9 -51h-405l-45 -261h368l-9 -51h-368l-49 -279h407l-9 -52h-464zM382 768l15 75h74l-14 -75h-75z" />
    <glyph glyph-name="edotaccent" unicode="&#x117;" horiz-adv-x="536" 
d="M50 192q0 127 71.5 216.5t187.5 89.5q79 0 129 -50t50 -132q0 -42 -11 -89h-371q-2 -18 -2 -35q0 -65 36 -109t103 -44q51 0 94.5 29.5t61.5 76.5h54q-19 -70 -79 -112t-135 -42q-81 0 -135 55t-54 146zM115 274h315q4 22 4 41q0 64 -36.5 99.5t-92.5 35.5
q-66 0 -117.5 -47.5t-72.5 -128.5zM294 589l15 75h74l-14 -75h-75z" />
    <glyph glyph-name="Eogonek" unicode="&#x118;" horiz-adv-x="625" 
d="M56 0l122 694h461l-9 -51h-405l-45 -261h368l-9 -51h-368l-49 -279h407l-9 -52q-99 -73 -99 -115q0 -28 37 -28q30 0 58 13l-7 -43q-26 -11 -59 -11q-82 0 -82 61q0 54 109 123h-421z" />
    <glyph glyph-name="eogonek" unicode="&#x119;" horiz-adv-x="536" 
d="M50 192q0 127 71.5 216.5t187.5 89.5q79 0 129 -50t50 -132q0 -42 -11 -89h-371q-2 -18 -2 -35q0 -65 36 -108.5t103 -43.5q52 0 95 29t61 76h54q-24 -87 -131 -146q-58 -32 -84 -62.5t-26 -51.5q0 -28 37 -28q30 0 58 13l-7 -43q-26 -11 -59 -11q-82 0 -82 61
q0 58 99 116q-10 -2 -19 -2q-81 0 -135 55.5t-54 145.5zM115 274h315q4 24 4 41q0 64 -36 99.5t-92 35.5q-67 0 -118.5 -47.5t-72.5 -128.5z" />
    <glyph glyph-name="Ecaron" unicode="&#x11a;" horiz-adv-x="625" 
d="M449 748h-64l-77 137h51l63 -91l97 91h56zM56 0l122 694h461l-9 -51h-405l-45 -261h368l-9 -51h-368l-49 -279h407l-9 -52h-464z" />
    <glyph glyph-name="ecaron" unicode="&#x11b;" horiz-adv-x="536" 
d="M359 557h-64l-77 137h51l63 -91l97 91h56zM50 192q0 127 71.5 216.5t187.5 89.5q79 0 129 -50t50 -132q0 -42 -11 -89h-371q-2 -18 -2 -35q0 -65 36 -109t103 -44q51 0 94.5 29.5t61.5 76.5h54q-19 -70 -79 -112t-135 -42q-81 0 -135 55t-54 146zM115 274h315q4 22 4 41
q0 64 -36.5 99.5t-92.5 35.5q-66 0 -117.5 -47.5t-72.5 -128.5z" />
    <glyph glyph-name="Gcircumflex" unicode="&#x11c;" horiz-adv-x="739" 
d="M446 885h64l77 -137h-51l-63 91l-97 -91h-56zM383 293l10 51h280l-60 -344h-52l21 120q-91 -131 -248 -131q-116 0 -189 82t-73 208q0 116 45.5 213t131.5 155t196 58q104 0 172.5 -67t65.5 -173h-58q1 86 -51.5 137t-135.5 51q-133 0 -220.5 -110t-87.5 -260
q0 -107 58 -174.5t152 -67.5q95 0 171.5 65t100.5 187h-229z" />
    <glyph glyph-name="gcircumflex" unicode="&#x11d;" horiz-adv-x="562" 
d="M335 694h64l77 -137h-51l-63 91l-97 -91h-56zM231 13q-78 0 -130 52.5t-52 142.5q0 114 67.5 202t181.5 88q49 0 90.5 -25t60.5 -70l15 86h53l-85 -480q-19 -105 -75.5 -149t-149.5 -44q-72 0 -128 34.5t-57 114.5h55q6 -100 132 -100q144 0 170 148l14 81
q-30 -39 -74 -60t-88 -21zM236 62q86 0 140 72.5t54 169.5q0 69 -36.5 107t-94.5 38q-86 0 -140 -72.5t-54 -168.5q0 -70 36.5 -108t94.5 -38z" />
    <glyph glyph-name="Gbreve" unicode="&#x11e;" horiz-adv-x="739" 
d="M383 293l10 51h280l-60 -344h-52l21 120q-91 -131 -248 -131q-116 0 -189 82t-73 208q0 116 45.5 213t131.5 155t196 58q104 0 172.5 -67t65.5 -173h-58q1 86 -51.5 137t-135.5 51q-133 0 -220.5 -110t-87.5 -260q0 -107 58 -174.5t152 -67.5q95 0 171.5 65t100.5 187
h-229zM460 743q-61 0 -88.5 40t-19.5 90h45q-4 -33 11.5 -59t51.5 -26t59.5 22.5t30.5 62.5h46q-10 -63 -46 -96.5t-90 -33.5z" />
    <glyph glyph-name="gbreve" unicode="&#x11f;" horiz-adv-x="562" 
d="M231 13q-78 0 -130 52.5t-52 142.5q0 114 67.5 202t181.5 88q49 0 90.5 -25t60.5 -70l15 86h53l-85 -480q-19 -105 -75.5 -149t-149.5 -44q-72 0 -128 34.5t-57 114.5h55q6 -100 132 -100q144 0 170 148l14 81q-30 -39 -74 -60t-88 -21zM236 62q86 0 140 72.5t54 169.5
q0 69 -36.5 107t-94.5 38q-86 0 -140 -72.5t-54 -168.5q0 -70 36.5 -108t94.5 -38zM351 564q-61 0 -88.5 40t-19.5 90h45q-4 -33 11.5 -59t51.5 -26t59.5 22.5t30.5 62.5h46q-10 -63 -46 -96.5t-90 -33.5z" />
    <glyph glyph-name="Gdotaccent" unicode="&#x120;" horiz-adv-x="739" 
d="M383 293l10 51h280l-60 -344h-52l21 120q-91 -131 -248 -131q-116 0 -189 82t-73 208q0 116 45.5 213t131.5 155t196 58q104 0 172.5 -67t65.5 -173h-58q1 86 -51.5 137t-135.5 51q-133 0 -220.5 -110t-87.5 -260q0 -107 58 -174.5t152 -67.5q95 0 171.5 65t100.5 187
h-229zM421 768l15 75h74l-14 -75h-75z" />
    <glyph glyph-name="gdotaccent" unicode="&#x121;" horiz-adv-x="562" 
d="M231 13q-78 0 -130 52.5t-52 142.5q0 114 67.5 202t181.5 88q49 0 90.5 -25t60.5 -70l15 86h53l-85 -480q-19 -105 -75.5 -149t-149.5 -44q-72 0 -128 34.5t-57 114.5h55q6 -100 132 -100q144 0 170 148l14 81q-30 -39 -74 -60t-88 -21zM236 62q86 0 140 72.5t54 169.5
q0 69 -36.5 107t-94.5 38q-86 0 -140 -72.5t-54 -168.5q0 -70 36.5 -108t94.5 -38zM312 589l15 75h74l-14 -75h-75z" />
    <glyph glyph-name="Gcommaaccent" unicode="&#x122;" horiz-adv-x="739" 
d="M358 -45l-15 -86q-13 -77 -90 -77l6 37q38 0 45 40l3 14h-37l12 72h76zM383 293l10 51h280l-60 -344h-52l21 120q-91 -131 -248 -131q-116 0 -189 82t-73 208q0 116 45.5 213t131.5 155t196 58q104 0 172.5 -67t65.5 -173h-58q1 86 -51.5 137t-135.5 51
q-133 0 -220.5 -110t-87.5 -260q0 -107 58 -174.5t152 -67.5q95 0 171.5 65t100.5 187h-229z" />
    <glyph glyph-name="gcommaaccent" unicode="&#x123;" horiz-adv-x="562" 
d="M231 13q-78 0 -130 52.5t-52 142.5q0 114 67.5 202t181.5 88q49 0 90.5 -25t60.5 -70l15 86h53l-85 -480q-19 -105 -75.5 -149t-149.5 -44q-72 0 -128 34.5t-57 114.5h55q6 -100 132 -100q144 0 170 148l14 81q-30 -39 -74 -60t-88 -21zM236 62q86 0 140 72.5t54 169.5
q0 69 -36.5 107t-94.5 38q-86 0 -140 -72.5t-54 -168.5q0 -70 36.5 -108t94.5 -38zM302 553l16 86q13 77 90 77l-7 -37q-39 0 -44 -40l-3 -14h37l-13 -72h-76z" />
    <glyph glyph-name="Hcircumflex" unicode="&#x124;" horiz-adv-x="715" 
d="M437 885h64l77 -137h-51l-63 91l-97 -91h-56zM56 0l122 694h56l-53 -302h406l53 302h57l-122 -694h-56l59 340h-406l-60 -340h-56z" />
    <glyph glyph-name="hcircumflex" unicode="&#x125;" horiz-adv-x="551" 
d="M192 865h64l77 -137h-51l-63 91l-97 -91h-56zM427 0h-53l48 275q8 50 8 73q0 47 -29 74t-80 27q-63 0 -112 -49.5t-63 -129.5l-47 -270h-54l122 694h54l-50 -285q59 89 158 89q72 0 113 -41t41 -105q0 -30 -7 -74z" />
    <glyph glyph-name="Hbar" unicode="&#x126;" horiz-adv-x="745" 
d="M74 478l9 49h79l30 167h56l-29 -167h407l29 167h57l-30 -167h81l-8 -49h-81l-84 -478h-56l50 285h-408l-50 -285h-56l84 478h-80zM185 337h407l25 141h-407z" />
    <glyph glyph-name="hbar" unicode="&#x127;" horiz-adv-x="563" 
d="M103 0h-54l97 553h-61l8 45h61l17 96h54l-17 -96h119l-8 -45h-119l-25 -144q59 89 158 89q72 0 113 -41t41 -105q0 -30 -7 -74l-49 -278h-53l48 275q8 50 8 73q0 47 -29 74t-80 27q-63 0 -112 -49.5t-63 -129.5z" />
    <glyph glyph-name="Itilde" unicode="&#x128;" horiz-adv-x="254" 
d="M56 0l122 694h56l-122 -694h-56zM298 751q-31 0 -69 34t-55 34q-18 0 -27 -15t-15 -47h-45q15 110 88 110q30 0 68 -33.5t55 -33.5q31 0 43 62h44q-16 -111 -87 -111z" />
    <glyph glyph-name="itilde" unicode="&#x129;" horiz-adv-x="230" 
d="M131 489h54l-86 -489h-54zM247 572q-31 0 -69 34t-55 34q-18 0 -27 -15t-15 -47h-45q15 110 88 110q30 0 68 -33.5t55 -33.5q31 0 43 62h44q-16 -111 -87 -111z" />
    <glyph glyph-name="Imacron" unicode="&#x12a;" horiz-adv-x="254" 
d="M56 0l122 694h56l-122 -694h-56zM352 786h-255l8 47h255z" />
    <glyph glyph-name="imacron" unicode="&#x12b;" horiz-adv-x="230" 
d="M131 489h54l-86 -489h-54zM309 607h-255l8 47h255z" />
    <glyph glyph-name="Ibreve" unicode="&#x12c;" horiz-adv-x="254" 
d="M56 0l122 694h56l-122 -694h-56zM222 743q-61 0 -88.5 40t-19.5 90h45q-4 -33 11.5 -59t51.5 -26t59.5 22.5t30.5 62.5h46q-10 -63 -46 -96.5t-90 -33.5z" />
    <glyph glyph-name="ibreve" unicode="&#x12d;" horiz-adv-x="230" 
d="M131 489h54l-86 -489h-54zM179 564q-61 0 -88.5 40t-19.5 90h45q-4 -33 11.5 -59t51.5 -26t59.5 22.5t30.5 62.5h46q-10 -63 -46 -96.5t-90 -33.5z" />
    <glyph glyph-name="Iogonek" unicode="&#x12e;" horiz-adv-x="254" 
d="M-40 -123q0 50 94 113l124 704h56l-122 -694q-99 -73 -99 -115q0 -28 37 -28q29 0 59 13l-8 -43q-26 -11 -58 -11q-83 0 -83 61z" />
    <glyph glyph-name="iogonek" unicode="&#x12f;" horiz-adv-x="230" 
d="M-53 -123q0 51 96 114l88 498h54l-86 -489q-100 -74 -100 -115q0 -28 38 -28q30 0 58 13l-8 -43q-24 -11 -58 -11q-82 0 -82 61zM137 589l15 75h74l-14 -75h-75z" />
    <glyph glyph-name="Idotaccent" unicode="&#x130;" horiz-adv-x="254" 
d="M56 0l122 694h56l-122 -694h-56zM179 768l15 75h74l-14 -75h-75z" />
    <glyph glyph-name="dotlessi" unicode="&#x131;" horiz-adv-x="230" 
d="M131 489h54l-86 -489h-54z" />
    <glyph glyph-name="IJ" unicode="&#x132;" horiz-adv-x="815" 
d="M56 0l122 694h56l-122 -694h-56zM482 41q73 0 123 46.5t64 126.5l84 480h56l-84 -483q-18 -99 -79.5 -160.5t-163.5 -61.5q-98 0 -147.5 52.5t-49.5 133.5q0 34 9 70h55q-8 -31 -8 -66q0 -67 37.5 -102.5t103.5 -35.5z" />
    <glyph glyph-name="ij" unicode="&#x133;" horiz-adv-x="460" 
d="M131 489h54l-86 -489h-54zM137 589l15 75h74l-14 -75h-75zM121 -173l9 47q19 -4 40 -4q82 0 100 101l91 518h54l-91 -516q-14 -80 -52.5 -116t-106.5 -36q-23 0 -44 6zM367 589l15 75h74l-14 -75h-75z" />
    <glyph glyph-name="Jcircumflex" unicode="&#x134;" horiz-adv-x="567" 
d="M534 885h64l77 -137h-51l-63 91l-97 -91h-56zM234 41q73 0 123 46.5t64 126.5l84 480h56l-84 -483q-18 -99 -79.5 -160.5t-163.5 -61.5q-98 0 -147.5 52.5t-49.5 133.5q0 34 9 70h55q-8 -31 -8 -66q0 -67 37.5 -102.5t103.5 -35.5z" />
    <glyph glyph-name="jcircumflex" unicode="&#x135;" horiz-adv-x="230" 
d="M-109 -173l9 47q19 -4 40 -4q82 0 100 101l91 518h54l-91 -516q-14 -80 -52.5 -116t-106.5 -36q-23 0 -44 6zM161 694h64l77 -137h-51l-63 91l-97 -91h-56z" />
    <glyph glyph-name="Kcommaaccent" unicode="&#x136;" horiz-adv-x="639" 
d="M329 -45l-15 -86q-13 -77 -90 -77l6 37q38 0 45 40l3 14h-37l12 72h76zM56 0l122 694h56l-65 -373l446 373h80l-352 -294l224 -400h-63l-204 367l-144 -120l-44 -247h-56z" />
    <glyph glyph-name="kcommaaccent" unicode="&#x137;" horiz-adv-x="493" 
d="M266 -45l-15 -86q-13 -77 -90 -77l6 37q38 0 45 40l3 14h-37l12 72h76zM266 292l163 -292h-61l-145 260l-91 -74l-33 -186h-54l122 694h54l-77 -439l292 234h76z" />
    <glyph glyph-name="kgreenlandic" unicode="&#x138;" horiz-adv-x="493" 
d="M266 292l163 -292h-61l-145 260l-91 -74l-33 -186h-54l87 489h53l-41 -234l292 234h76z" />
    <glyph glyph-name="Lacute" unicode="&#x139;" horiz-adv-x="562" 
d="M288 885h79l-126 -137h-49zM56 0l122 694h56l-112 -642h371l-10 -52h-427z" />
    <glyph glyph-name="lacute" unicode="&#x13a;" horiz-adv-x="230" 
d="M268 865h79l-126 -137h-49zM167 694h54l-122 -694h-54z" />
    <glyph glyph-name="Lcommaaccent" unicode="&#x13b;" horiz-adv-x="562" 
d="M299 -45l-15 -86q-13 -77 -90 -77l6 37q38 0 45 40l3 14h-37l12 72h76zM56 0l122 694h56l-112 -642h371l-10 -52h-427z" />
    <glyph glyph-name="lcommaaccent" unicode="&#x13c;" horiz-adv-x="230" 
d="M105 -45l-15 -86q-13 -77 -90 -77l6 37q38 0 45 40l3 14h-37l12 72h76zM167 694h54l-122 -694h-54z" />
    <glyph glyph-name="Lcaron" unicode="&#x13d;" horiz-adv-x="562" 
d="M451 694h67l-97 -170h-42zM56 0l122 694h56l-112 -642h371l-10 -52h-427z" />
    <glyph glyph-name="lcaron" unicode="&#x13e;" horiz-adv-x="305" 
d="M332 694h67l-97 -170h-42zM167 694h54l-122 -694h-54z" />
    <glyph glyph-name="Ldot" unicode="&#x13f;" horiz-adv-x="567" 
d="M56 0l122 694h56l-112 -642h371l-10 -52h-427zM356 299l16 90h89l-16 -90h-89z" />
    <glyph glyph-name="ldot" unicode="&#x140;" horiz-adv-x="334" 
d="M167 694h54l-122 -694h-54zM230 223l16 90h89l-16 -90h-89z" />
    <glyph glyph-name="Lslash" unicode="&#x141;" horiz-adv-x="581" 
d="M76 0l50 282l-89 -43l10 58l88 44l63 353h56l-57 -323l164 82l-10 -58l-164 -82l-45 -261h371l-10 -52h-427z" />
    <glyph glyph-name="lslash" unicode="&#x142;" horiz-adv-x="258" 
d="M180 694h54l-62 -351l81 49l-10 -58l-81 -48l-50 -286h-54l44 250l-78 -46l10 58l78 46z" />
    <glyph glyph-name="Nacute" unicode="&#x143;" horiz-adv-x="732" 
d="M524 885h79l-126 -137h-49zM713 694l-123 -694h-70l-298 625l-110 -625h-56l123 694h70l298 -625l111 625h55z" />
    <glyph glyph-name="nacute" unicode="&#x144;" horiz-adv-x="551" 
d="M362 694h79l-126 -137h-49zM99 0h-54l86 489h52l-14 -80q59 89 160 89q72 0 113 -41t41 -105q0 -30 -7 -74l-49 -278h-53l48 275q8 50 8 73q0 47 -29 74t-80 27q-63 0 -112 -49.5t-63 -129.5z" />
    <glyph glyph-name="Ncommaaccent" unicode="&#x145;" horiz-adv-x="732" 
d="M354 -45l-15 -86q-13 -77 -90 -77l6 37q38 0 45 40l3 14h-37l12 72h76zM713 694l-123 -694h-70l-298 625l-110 -625h-56l123 694h70l298 -625l111 625h55z" />
    <glyph glyph-name="ncommaaccent" unicode="&#x146;" horiz-adv-x="551" 
d="M277 -45l-15 -86q-13 -77 -90 -77l6 37q38 0 45 40l3 14h-37l12 72h76zM99 0h-54l86 489h52l-14 -80q59 89 160 89q72 0 113 -41t41 -105q0 -30 -7 -74l-49 -278h-53l48 275q8 50 8 73q0 47 -29 74t-80 27q-63 0 -112 -49.5t-63 -129.5z" />
    <glyph glyph-name="Ncaron" unicode="&#x147;" horiz-adv-x="732" 
d="M488 748h-64l-77 137h51l63 -91l97 91h56zM713 694l-123 -694h-70l-298 625l-110 -625h-56l123 694h70l298 -625l111 625h55z" />
    <glyph glyph-name="ncaron" unicode="&#x148;" horiz-adv-x="551" 
d="M375 557h-64l-77 137h51l63 -91l97 91h56zM99 0h-54l86 489h52l-14 -80q59 89 160 89q72 0 113 -41t41 -105q0 -30 -7 -74l-49 -278h-53l48 275q8 50 8 73q0 47 -29 74t-80 27q-63 0 -112 -49.5t-63 -129.5z" />
    <glyph glyph-name="napostrophe" unicode="&#x149;" horiz-adv-x="677" 
d="M202 693l-18 -104q-21 -113 -126 -114l7 37q65 3 77 75l4 20h-45l15 86h86zM225 0h-54l86 489h52l-14 -80q59 89 160 89q72 0 113 -41t41 -105q0 -30 -7 -74l-49 -278h-53l48 275q8 50 8 73q0 47 -29 74t-80 27q-63 0 -112 -49.5t-63 -129.5z" />
    <glyph glyph-name="Eng" unicode="&#x14a;" horiz-adv-x="732" 
d="M585 -28q-13 -79 -52 -115t-105 -36q-23 0 -49 6l10 47q24 -4 43 -4q82 0 98 101l6 29h-16l-298 625l-110 -625h-56l123 694h70l298 -625l111 625h55z" />
    <glyph glyph-name="eng" unicode="&#x14b;" horiz-adv-x="551" 
d="M368 -29l54 304q8 50 8 73q0 47 -29 74t-80 27q-63 0 -112 -49.5t-63 -129.5l-47 -270h-54l86 489h52l-14 -80q59 89 160 89q72 0 113 -41t41 -105q0 -30 -7 -74l-53 -305q-14 -79 -52.5 -115.5t-106.5 -36.5q-24 0 -45 6l9 47q20 -4 41 -4q39 0 65 26t34 75z" />
    <glyph glyph-name="Omacron" unicode="&#x14c;" horiz-adv-x="742" 
d="M594 786h-255l8 47h255zM342 41q135 0 223 110t88 260q0 106 -58.5 174t-154.5 68q-134 0 -221.5 -110t-87.5 -260q0 -106 58 -174t153 -68zM338 -11q-115 0 -190 81.5t-75 208.5q0 178 104 302t269 124q115 0 190 -81.5t75 -208.5q0 -178 -104 -302t-269 -124z" />
    <glyph glyph-name="omacron" unicode="&#x14d;" horiz-adv-x="548" 
d="M466 607h-255l8 47h255zM243 40q86 0 142.5 76t56.5 178q0 73 -38 114t-100 41q-86 0 -142 -76t-56 -178q0 -73 38 -114t99 -41zM239 -9q-80 0 -134.5 54t-54.5 149q0 123 70.5 213.5t188.5 90.5q79 0 133.5 -54t54.5 -149q0 -123 -70 -213.5t-188 -90.5z" />
    <glyph glyph-name="Obreve" unicode="&#x14e;" horiz-adv-x="742" 
d="M342 41q135 0 223 110t88 260q0 106 -58.5 174t-154.5 68q-134 0 -221.5 -110t-87.5 -260q0 -106 58 -174t153 -68zM338 -11q-115 0 -190 81.5t-75 208.5q0 178 104 302t269 124q115 0 190 -81.5t75 -208.5q0 -178 -104 -302t-269 -124zM464 743q-61 0 -88.5 40t-19.5 90
h45q-4 -33 11.5 -59t51.5 -26t59.5 22.5t30.5 62.5h46q-10 -63 -46 -96.5t-90 -33.5z" />
    <glyph glyph-name="obreve" unicode="&#x14f;" horiz-adv-x="548" 
d="M243 40q86 0 142.5 76t56.5 178q0 73 -38 114t-100 41q-86 0 -142 -76t-56 -178q0 -73 38 -114t99 -41zM239 -9q-80 0 -134.5 54t-54.5 149q0 123 70.5 213.5t188.5 90.5q79 0 133.5 -54t54.5 -149q0 -123 -70 -213.5t-188 -90.5zM336 564q-61 0 -88.5 40t-19.5 90h45
q-4 -33 11.5 -59t51.5 -26t59.5 22.5t30.5 62.5h46q-10 -63 -46 -96.5t-90 -33.5z" />
    <glyph glyph-name="Ohungarumlaut" unicode="&#x150;" horiz-adv-x="742" 
d="M453 885h70l-114 -141h-46zM573 885h71l-115 -141h-46zM342 41q135 0 223 110t88 260q0 106 -58.5 174t-154.5 68q-134 0 -221.5 -110t-87.5 -260q0 -106 58 -174t153 -68zM338 -11q-115 0 -190 81.5t-75 208.5q0 178 104 302t269 124q115 0 190 -81.5t75 -208.5
q0 -178 -104 -302t-269 -124z" />
    <glyph glyph-name="ohungarumlaut" unicode="&#x151;" horiz-adv-x="548" 
d="M324 694h70l-114 -141h-46zM444 694h71l-115 -141h-46zM243 40q86 0 142.5 76t56.5 178q0 73 -38 114t-100 41q-86 0 -142 -76t-56 -178q0 -73 38 -114t99 -41zM239 -9q-80 0 -134.5 54t-54.5 149q0 123 70.5 213.5t188.5 90.5q79 0 133.5 -54t54.5 -149
q0 -123 -70 -213.5t-188 -90.5z" />
    <glyph glyph-name="OE" unicode="&#x152;" horiz-adv-x="1154" 
d="M336 -11q-115 0 -190 81.5t-75 208.5q0 178 104 302t269 124q81 0 144.5 -44t92.5 -121l26 154h461l-9 -51h-404l-46 -261h368l-9 -51h-368l-49 -279h407l-8 -52h-465l21 120q-97 -131 -270 -131zM340 41q91 0 163.5 53.5t110 137.5t37.5 179q0 106 -58.5 174t-154.5 68
q-134 0 -221.5 -110t-87.5 -260q0 -106 58 -174t153 -68z" />
    <glyph glyph-name="oe" unicode="&#x153;" horiz-adv-x="921" 
d="M309 498q60 0 107.5 -33t66.5 -91q73 124 211 124q79 0 129 -50t50 -132q0 -42 -11 -89h-371q-2 -18 -2 -35q0 -65 36 -108.5t103 -43.5q52 0 95 29t61 76h54q-20 -70 -80 -112t-135 -42q-61 0 -107.5 33.5t-66.5 90.5q-71 -124 -210 -124q-80 0 -134.5 54t-54.5 149
q0 123 70.5 213.5t188.5 90.5zM243 40q86 0 142.5 76t56.5 178q0 73 -38 114t-100 41q-86 0 -142 -76t-56 -178q0 -73 38 -114t99 -41zM500 274h315q4 24 4 41q0 64 -36.5 99.5t-92.5 35.5q-66 0 -118 -47.5t-72 -128.5z" />
    <glyph glyph-name="Racute" unicode="&#x154;" horiz-adv-x="676" 
d="M478 885h79l-126 -137h-49zM56 0l122 694h276q91 0 143 -47t52 -123q0 -87 -53 -142.5t-148 -69.5l140 -312h-61l-138 307h-223l-54 -307h-56zM176 358h219q84 0 140.5 42t56.5 122q0 59 -39 90t-109 31h-219z" />
    <glyph glyph-name="racute" unicode="&#x155;" horiz-adv-x="350" 
d="M281 694h79l-126 -137h-49zM367 493l-10 -55q-20 3 -36 3q-62 0 -111 -42.5t-61 -113.5l-50 -285h-54l86 489h52l-15 -86q56 94 156 94q17 0 43 -4z" />
    <glyph glyph-name="Rcommaaccent" unicode="&#x156;" horiz-adv-x="676" 
d="M338 -45l-15 -86q-13 -77 -90 -77l6 37q38 0 45 40l3 14h-37l12 72h76zM56 0l122 694h276q91 0 143 -47t52 -123q0 -87 -53 -142.5t-148 -69.5l140 -312h-61l-138 307h-223l-54 -307h-56zM176 358h219q84 0 140.5 42t56.5 122q0 59 -39 90t-109 31h-219z" />
    <glyph glyph-name="rcommaaccent" unicode="&#x157;" horiz-adv-x="350" 
d="M105 -45l-15 -86q-13 -77 -90 -77l6 37q38 0 45 40l3 14h-37l12 72h76zM367 493l-10 -55q-20 3 -36 3q-62 0 -111 -42.5t-61 -113.5l-50 -285h-54l86 489h52l-15 -86q56 94 156 94q17 0 43 -4z" />
    <glyph glyph-name="Rcaron" unicode="&#x158;" horiz-adv-x="676" 
d="M441 748h-64l-77 137h51l63 -91l97 91h56zM56 0l122 694h276q91 0 143 -47t52 -123q0 -87 -53 -142.5t-148 -69.5l140 -312h-61l-138 307h-223l-54 -307h-56zM176 358h219q84 0 140.5 42t56.5 122q0 59 -39 90t-109 31h-219z" />
    <glyph glyph-name="rcaron" unicode="&#x159;" horiz-adv-x="350" 
d="M271 557h-64l-77 137h51l63 -91l97 91h56zM367 493l-10 -55q-20 3 -36 3q-62 0 -111 -42.5t-61 -113.5l-50 -285h-54l86 489h52l-15 -86q56 94 156 94q17 0 43 -4z" />
    <glyph glyph-name="Sacute" unicode="&#x15a;" horiz-adv-x="632" 
d="M466 885h79l-126 -137h-49zM562 185q0 -92 -75.5 -144t-182.5 -52q-109 0 -182.5 52.5t-74.5 153.5h57q3 -74 59 -114.5t143 -40.5q78 0 139 36.5t61 104.5q0 84 -96 117l-152 52q-58 19 -92.5 60.5t-34.5 104.5q0 86 68.5 138t168.5 52q99 0 167 -53.5t67 -149.5h-57
q-4 77 -53.5 114.5t-123.5 37.5t-127 -35.5t-53 -101.5q0 -86 96 -117l153 -53q125 -43 125 -162z" />
    <glyph glyph-name="sacute" unicode="&#x15b;" horiz-adv-x="492" 
d="M372 694h79l-126 -137h-49zM94 357q0 59 46.5 100t126.5 41t132.5 -36t51.5 -111h-55q1 49 -34 74t-94 25q-55 0 -88 -25t-33 -64q0 -56 78 -79l85 -24q109 -31 109 -122q0 -64 -53 -104.5t-139 -40.5t-138 38.5t-53 115.5h55q6 -106 137 -106q65 0 101.5 27t36.5 67
q0 55 -78 77l-85 25q-109 31 -109 122z" />
    <glyph glyph-name="Scircumflex" unicode="&#x15c;" horiz-adv-x="632" 
d="M387 885h64l77 -137h-51l-63 91l-97 -91h-56zM562 185q0 -92 -75.5 -144t-182.5 -52q-109 0 -182.5 52.5t-74.5 153.5h57q3 -74 59 -114.5t143 -40.5q78 0 139 36.5t61 104.5q0 84 -96 117l-152 52q-58 19 -92.5 60.5t-34.5 104.5q0 86 68.5 138t168.5 52q99 0 167 -53.5
t67 -149.5h-57q-4 77 -53.5 114.5t-123.5 37.5t-127 -35.5t-53 -101.5q0 -86 96 -117l153 -53q125 -43 125 -162z" />
    <glyph glyph-name="scircumflex" unicode="&#x15d;" horiz-adv-x="492" 
d="M293 694h64l77 -137h-51l-63 91l-97 -91h-56zM94 357q0 59 46.5 100t126.5 41t132.5 -36t51.5 -111h-55q1 49 -34 74t-94 25q-55 0 -88 -25t-33 -64q0 -56 78 -79l85 -24q109 -31 109 -122q0 -64 -53 -104.5t-139 -40.5t-138 38.5t-53 115.5h55q6 -106 137 -106
q65 0 101.5 27t36.5 67q0 55 -78 77l-85 25q-109 31 -109 122z" />
    <glyph glyph-name="Scedilla" unicode="&#x15e;" horiz-adv-x="632" 
d="M252 -180q-39 0 -79 16l11 40q32 -15 68 -15q56 0 56 35q0 30 -43 30q-24 0 -42 -9l-15 28l44 47q-90 12 -147 63.5t-58 139.5h57q3 -74 59 -114.5t143 -40.5q78 0 139 36.5t61 104.5q0 84 -96 117l-152 52q-58 19 -92.5 60.5t-34.5 104.5q0 86 68.5 138t168.5 52
q99 0 167 -53.5t67 -149.5h-57q-4 77 -53.5 114.5t-123.5 37.5t-127 -35.5t-53 -101.5q0 -86 96 -117l153 -53q125 -43 125 -162q0 -92 -75.5 -144t-182.5 -52q-2 0 -8 0.5t-7 0.5l-24 -31q2 1 13 1q34 0 56 -16t22 -48q0 -34 -27.5 -55t-76.5 -21z" />
    <glyph glyph-name="scedilla" unicode="&#x15f;" horiz-adv-x="492" 
d="M186 -180q-39 0 -79 16l11 40q30 -15 68 -15q56 0 56 35q0 30 -43 30q-23 0 -43 -9l-14 28l45 49q-70 8 -110.5 45.5t-40.5 105.5h55q6 -105 137 -105q66 0 102 26.5t36 66.5q0 55 -78 77l-85 25q-109 31 -109 122q0 59 46.5 100t126.5 41t132.5 -36t51.5 -111h-55
q1 49 -34 74t-94 25q-55 0 -88 -25t-33 -64q0 -56 78 -79l85 -24q109 -31 109 -122q0 -64 -53 -104t-141 -40l-26 -33q2 1 13 1q34 0 56 -16t22 -48q0 -34 -27.5 -55t-76.5 -21z" />
    <glyph glyph-name="Scaron" unicode="&#x160;" horiz-adv-x="632" 
d="M429 748h-64l-77 137h51l63 -91l97 91h56zM562 185q0 -92 -75.5 -144t-182.5 -52q-109 0 -182.5 52.5t-74.5 153.5h57q3 -74 59 -114.5t143 -40.5q78 0 139 36.5t61 104.5q0 84 -96 117l-152 52q-58 19 -92.5 60.5t-34.5 104.5q0 86 68.5 138t168.5 52q99 0 167 -53.5
t67 -149.5h-57q-4 77 -53.5 114.5t-123.5 37.5t-127 -35.5t-53 -101.5q0 -86 96 -117l153 -53q125 -43 125 -162z" />
    <glyph glyph-name="scaron" unicode="&#x161;" horiz-adv-x="492" 
d="M335 557h-64l-77 137h51l63 -91l97 91h56zM94 357q0 59 46.5 100t126.5 41t132.5 -36t51.5 -111h-55q1 49 -34 74t-94 25q-55 0 -88 -25t-33 -64q0 -56 78 -79l85 -24q109 -31 109 -122q0 -64 -53 -104.5t-139 -40.5t-138 38.5t-53 115.5h55q6 -106 137 -106
q65 0 101.5 27t36.5 67q0 55 -78 77l-85 25q-109 31 -109 122z" />
    <glyph glyph-name="Tcommaaccent" unicode="&#x162;" horiz-adv-x="613" 
d="M238 -180q-41 0 -79 16l10 40q32 -15 69 -15q56 0 56 35q0 30 -44 30q-22 0 -42 -9l-15 28l41 44l114 653h-245l10 52h545l-9 -52h-244l-111 -632l-49 -51q2 1 19 1q34 0 55.5 -16t21.5 -48q0 -34 -27.5 -55t-75.5 -21z" />
    <glyph glyph-name="tcommaaccent" unicode="&#x163;" horiz-adv-x="352" 
d="M128 -180q-40 0 -80 16l11 40q32 -15 69 -15q56 0 56 35q0 30 -44 30q-22 0 -42 -9l-15 28l57 60q-47 24 -47 83q0 14 8 62l51 292h-79l8 47h82l24 132h50l-23 -132h138l-8 -47h-139l-50 -288q-7 -33 -7 -59q0 -55 66 -55q25 0 63 10l-10 -49q-33 -9 -67 -9q-17 0 -32 3
l-28 -36q2 1 13 1q35 0 56.5 -16t21.5 -48q0 -34 -27.5 -55t-75.5 -21z" />
    <glyph glyph-name="Tcaron" unicode="&#x164;" horiz-adv-x="613" 
d="M427 748h-64l-77 137h51l63 -91l97 91h56zM103 642l10 52h545l-9 -52h-244l-113 -642h-56l112 642h-245z" />
    <glyph glyph-name="tcaron" unicode="&#x165;" horiz-adv-x="352" 
d="M352 744h67l-97 -170h-42zM73 442l8 47h82l24 132h50l-23 -132h138l-8 -47h-139l-50 -288q-7 -33 -7 -59q0 -55 66 -55q25 0 63 10l-10 -49q-33 -9 -67 -9q-49 0 -78 25t-29 71q0 14 8 62l51 292h-79z" />
    <glyph glyph-name="Tbar" unicode="&#x166;" horiz-adv-x="613" 
d="M103 642l10 52h545l-9 -52h-244l-48 -269h144l-8 -48h-144l-57 -325h-56l57 325h-143l9 48h142l47 269h-245z" />
    <glyph glyph-name="tbar" unicode="&#x167;" horiz-adv-x="359" 
d="M73 442l9 47h81l24 132h50l-23 -132h139l-9 -47h-138l-23 -128h108l-8 -47h-108l-20 -113q-7 -44 -7 -59q0 -55 66 -55q26 0 63 10l-10 -49q-32 -9 -66 -9q-50 0 -78.5 25t-28.5 71q0 20 7 62l20 117h-77l8 47h77l23 128h-79z" />
    <glyph glyph-name="Utilde" unicode="&#x168;" horiz-adv-x="676" 
d="M301 -11q-98 0 -160.5 53t-62.5 153q0 33 5 62l77 437h56l-77 -443q-4 -23 -4 -50q0 -77 45.5 -118.5t124.5 -41.5q88 0 152.5 56.5t83.5 162.5l76 434h56l-76 -434q-23 -137 -100.5 -204t-195.5 -67zM498 751q-31 0 -69 34t-55 34q-18 0 -27 -15t-15 -47h-45
q15 110 88 110q30 0 68 -33.5t55 -33.5q31 0 43 62h44q-16 -111 -87 -111z" />
    <glyph glyph-name="utilde" unicode="&#x169;" horiz-adv-x="543" 
d="M444 489h54l-86 -489h-52l14 80q-58 -89 -161 -89q-69 0 -107 40.5t-38 105.5q0 33 7 73l49 279h54l-49 -275q-7 -49 -7 -73q0 -48 26.5 -74.5t74.5 -26.5q62 0 111 49t63 131zM402 572q-31 0 -69 34t-55 34q-18 0 -27 -15t-15 -47h-45q15 110 88 110q30 0 68 -33.5
t55 -33.5q31 0 43 62h44q-16 -111 -87 -111z" />
    <glyph glyph-name="Umacron" unicode="&#x16a;" horiz-adv-x="676" 
d="M301 -11q-98 0 -160.5 53t-62.5 153q0 33 5 62l77 437h56l-77 -443q-4 -23 -4 -50q0 -77 45.5 -118.5t124.5 -41.5q88 0 152.5 56.5t83.5 162.5l76 434h56l-76 -434q-23 -137 -100.5 -204t-195.5 -67zM560 786h-255l8 47h255z" />
    <glyph glyph-name="umacron" unicode="&#x16b;" horiz-adv-x="543" 
d="M444 489h54l-86 -489h-52l14 80q-58 -89 -161 -89q-69 0 -107 40.5t-38 105.5q0 33 7 73l49 279h54l-49 -275q-7 -49 -7 -73q0 -48 26.5 -74.5t74.5 -26.5q62 0 111 49t63 131zM463 607h-255l8 47h255z" />
    <glyph glyph-name="Ubreve" unicode="&#x16c;" horiz-adv-x="676" 
d="M301 -11q-98 0 -160.5 53t-62.5 153q0 33 5 62l77 437h56l-77 -443q-4 -23 -4 -50q0 -77 45.5 -118.5t124.5 -41.5q88 0 152.5 56.5t83.5 162.5l76 434h56l-76 -434q-23 -137 -100.5 -204t-195.5 -67zM430 743q-61 0 -88.5 40t-19.5 90h45q-4 -33 11.5 -59t51.5 -26
t59.5 22.5t30.5 62.5h46q-10 -63 -46 -96.5t-90 -33.5z" />
    <glyph glyph-name="ubreve" unicode="&#x16d;" horiz-adv-x="543" 
d="M444 489h54l-86 -489h-52l14 80q-58 -89 -161 -89q-69 0 -107 40.5t-38 105.5q0 33 7 73l49 279h54l-49 -275q-7 -49 -7 -73q0 -48 26.5 -74.5t74.5 -26.5q62 0 111 49t63 131zM333 564q-61 0 -88.5 40t-19.5 90h45q-4 -33 11.5 -59t51.5 -26t59.5 22.5t30.5 62.5h46
q-10 -63 -46 -96.5t-90 -33.5z" />
    <glyph glyph-name="Uring" unicode="&#x16e;" horiz-adv-x="676" 
d="M338 824q0 40 29 68.5t71 28.5t71 -28.5t29 -68.5t-29 -68t-71 -28t-71 28t-29 68zM381 824q0 -25 16.5 -41t40.5 -16t40.5 16t16.5 41t-16.5 41.5t-40.5 16.5t-40.5 -16.5t-16.5 -41.5zM301 -11q-98 0 -160.5 53t-62.5 153q0 33 5 62l77 437h56l-77 -443q-4 -23 -4 -50
q0 -77 45.5 -118.5t124.5 -41.5q88 0 152.5 56.5t83.5 162.5l76 434h56l-76 -434q-23 -137 -100.5 -204t-195.5 -67z" />
    <glyph glyph-name="uring" unicode="&#x16f;" horiz-adv-x="543" 
d="M241 645q0 40 29 68.5t71 28.5t71 -28.5t29 -68.5t-29 -68t-71 -28t-71 28t-29 68zM284 645q0 -25 16.5 -41t40.5 -16t40.5 16t16.5 41t-16.5 41.5t-40.5 16.5t-40.5 -16.5t-16.5 -41.5zM444 489h54l-86 -489h-52l14 80q-58 -89 -161 -89q-69 0 -107 40.5t-38 105.5
q0 33 7 73l49 279h54l-49 -275q-7 -49 -7 -73q0 -48 26.5 -74.5t74.5 -26.5q62 0 111 49t63 131z" />
    <glyph glyph-name="Uhungarumlaut" unicode="&#x170;" horiz-adv-x="676" 
d="M301 -11q-98 0 -160.5 53t-62.5 153q0 33 5 62l77 437h56l-77 -443q-4 -23 -4 -50q0 -77 45.5 -118.5t124.5 -41.5q88 0 152.5 56.5t83.5 162.5l76 434h56l-76 -434q-23 -137 -100.5 -204t-195.5 -67zM419 885h70l-114 -141h-46zM539 885h71l-115 -141h-46z" />
    <glyph glyph-name="uhungarumlaut" unicode="&#x171;" horiz-adv-x="543" 
d="M444 489h54l-86 -489h-52l14 80q-58 -89 -161 -89q-69 0 -107 40.5t-38 105.5q0 33 7 73l49 279h54l-49 -275q-7 -49 -7 -73q0 -48 26.5 -74.5t74.5 -26.5q62 0 111 49t63 131zM321 694h70l-114 -141h-46zM441 694h71l-115 -141h-46z" />
    <glyph glyph-name="Uogonek" unicode="&#x172;" horiz-adv-x="676" 
d="M597 260q-23 -132 -95 -198.5t-182 -71.5q-85 -65 -85 -105q0 -28 37 -28q30 0 58 13l-8 -43q-24 -11 -58 -11q-82 0 -82 61q0 51 94 113q-89 7 -143.5 59.5t-54.5 145.5q0 33 5 62l77 437h56l-77 -443q-4 -23 -4 -50q0 -77 45.5 -118.5t124.5 -41.5q88 0 152.5 56.5
t83.5 162.5l76 434h56z" />
    <glyph glyph-name="uogonek" unicode="&#x173;" horiz-adv-x="543" 
d="M360 0l14 80q-58 -89 -161 -89q-69 0 -107 40.5t-38 105.5q0 33 7 73l49 279h54l-49 -275q-7 -37 -7 -73q0 -48 26.5 -74.5t74.5 -26.5q62 0 111 49t63 131l47 269h54l-85 -484q-110 -74 -110 -120q0 -28 38 -28q28 0 58 13l-8 -43q-24 -11 -58 -11q-83 0 -83 61
q0 57 110 123z" />
    <glyph glyph-name="Wcircumflex" unicode="&#x174;" horiz-adv-x="970" 
d="M564 885h64l77 -137h-51l-63 91l-97 -91h-56zM551 632l-296 -632h-73l-71 694h55l62 -634l297 634h68l72 -634l288 634h59l-316 -694h-73z" />
    <glyph glyph-name="wcircumflex" unicode="&#x175;" horiz-adv-x="721" 
d="M404 694h64l77 -137h-51l-63 91l-97 -91h-56zM431 489l43 -433l197 433h57l-227 -489h-68l-43 428l-194 -428h-68l-53 489h53l42 -433l196 433h65z" />
    <glyph glyph-name="Ycircumflex" unicode="&#x176;" horiz-adv-x="606" 
d="M233 0l47 269l-191 425h61l164 -368l294 368h69l-340 -424l-48 -270h-56zM384 885h64l77 -137h-51l-63 91l-97 -91h-56z" />
    <glyph glyph-name="ycircumflex" unicode="&#x177;" horiz-adv-x="481" 
d="M-21 -169l10 47q25 -7 48 -7q38 0 63 22t52 72l12 23l-96 501h55l79 -429l233 429h59l-301 -550q-34 -61 -68.5 -89.5t-88.5 -28.5q-29 0 -57 10zM281 694h64l77 -137h-51l-63 91l-97 -91h-56z" />
    <glyph glyph-name="Ydieresis" unicode="&#x178;" horiz-adv-x="606" 
d="M233 0l47 269l-191 425h61l164 -368l294 368h69l-340 -424l-48 -270h-56zM270 768l15 75h74l-14 -75h-75zM446 768l15 75h74l-14 -75h-75z" />
    <glyph glyph-name="Zacute" unicode="&#x179;" horiz-adv-x="593" 
d="M466 885h79l-126 -137h-49zM155 694h466l-9 -46l-529 -596h437l-8 -52h-515l8 46l530 596h-390z" />
    <glyph glyph-name="zacute" unicode="&#x17a;" horiz-adv-x="462" 
d="M359 694h79l-126 -137h-49zM102 489h356l-8 -42l-363 -398h287l-9 -49h-361l8 42l363 398h-283z" />
    <glyph glyph-name="Zdotaccent" unicode="&#x17b;" horiz-adv-x="593" 
d="M155 694h466l-9 -46l-529 -596h437l-8 -52h-515l8 46l530 596h-390zM363 768l15 75h74l-14 -75h-75z" />
    <glyph glyph-name="zdotaccent" unicode="&#x17c;" horiz-adv-x="462" 
d="M102 489h356l-8 -42l-363 -398h287l-9 -49h-361l8 42l363 398h-283zM258 589l15 75h74l-14 -75h-75z" />
    <glyph glyph-name="Zcaron" unicode="&#x17d;" horiz-adv-x="593" 
d="M429 748h-64l-77 137h51l63 -91l97 91h56zM155 694h466l-9 -46l-529 -596h437l-8 -52h-515l8 46l530 596h-390z" />
    <glyph glyph-name="zcaron" unicode="&#x17e;" horiz-adv-x="462" 
d="M323 557h-64l-77 137h51l63 -91l97 91h56zM102 489h356l-8 -42l-363 -398h287l-9 -49h-361l8 42l363 398h-283z" />
    <glyph glyph-name="florin" unicode="&#x192;" horiz-adv-x="438" 
d="M279 549l-32 -186h125l-9 -48h-125l-60 -342q-14 -79 -52.5 -115.5t-103.5 -36.5q-23 0 -49 6l10 47q24 -4 43 -4q82 0 98 101l61 344h-86l9 48h85l34 190q13 73 52.5 111.5t100.5 38.5q29 0 61 -8l-10 -48q-20 6 -50 6q-83 0 -102 -104z" />
    <glyph glyph-name="uni01B5" unicode="&#x1b5;" horiz-adv-x="593" 
d="M155 694h466l-9 -46l-245 -276h127l-9 -48h-161l-241 -272h437l-8 -52h-515l8 46l246 278h-126l9 48h160l241 270h-390z" />
    <glyph glyph-name="uni01B6" unicode="&#x1b6;" horiz-adv-x="462" 
d="M102 489h356l-8 -42l-164 -180h78l-8 -45h-111l-158 -173h287l-9 -49h-361l8 42l164 180h-74l8 45h106l159 173h-283z" />
    <glyph glyph-name="Aringacute" unicode="&#x1fa;" horiz-adv-x="689" 
d="M431 929h75l-84 -90q41 9 76.5 -19t35.5 -73q0 -32 -19 -57t-50 -34l150 -656h-57l-49 219h-331l-126 -219h-62l387 668q-43 28 -43 79q0 29 20 62zM416 633l-208 -362h289zM377 747q0 -25 16.5 -41t40.5 -16t40.5 16t16.5 41t-16.5 41.5t-40.5 16.5t-40.5 -16.5
t-16.5 -41.5z" />
    <glyph glyph-name="aringacute" unicode="&#x1fb;" horiz-adv-x="521" 
d="M396 0h-50l14 80q-34 -45 -83 -66.5t-99 -21.5q-68 0 -106 32t-38 89q0 65 46 104.5t124 52.5l194 33l3 20q4 19 4 34q0 47 -31.5 70t-85.5 23q-55 0 -93.5 -25.5t-49.5 -71.5h-55q9 70 65.5 107.5t131.5 37.5q76 0 123 -35.5t47 -100.5q0 -5 -6 -53zM187 38
q67 0 123.5 44.5t70.5 127.5l8 44l-188 -32q-49 -8 -80.5 -35.5t-31.5 -70.5q0 -78 98 -78zM323 827h75l-83 -90q40 9 75.5 -19t35.5 -73q0 -40 -29 -68t-71 -28t-70.5 28t-28.5 68q0 32 20 62zM269 645q0 -25 16.5 -41t40.5 -16t41 16.5t17 40.5q0 25 -17 41.5t-41 16.5
t-40.5 -16.5t-16.5 -41.5z" />
    <glyph glyph-name="AEacute" unicode="&#x1fc;" horiz-adv-x="1023" 
d="M825 885h79l-126 -137h-49zM6 0h-69l609 694h489l-9 -51h-404l-46 -261h368l-9 -51h-368l-49 -279h407l-8 -52h-465l39 219h-292zM243 271h257l65 365z" />
    <glyph glyph-name="aeacute" unicode="&#x1fd;" horiz-adv-x="867" 
d="M554 694h79l-126 -137h-49zM569 -9q-59 0 -105.5 31t-67.5 86q-66 -116 -202 -116q-76 0 -118 35t-42 96q0 68 51.5 109.5t140.5 41.5h167l6 37q5 25 5 41q0 50 -31 74t-85 24q-55 0 -93.5 -25.5t-49.5 -71.5h-55q9 70 65.5 107.5t131.5 37.5q62 0 105 -25t57 -73
q68 98 191 98q79 0 129 -50t50 -132q0 -42 -11 -89h-371q-2 -18 -2 -35q0 -65 36 -108.5t103 -43.5q52 0 95 29t61 76h54q-19 -70 -79.5 -112t-135.5 -42zM446 274h315q4 24 4 41q0 64 -36 99.5t-92 35.5q-67 0 -119 -47.5t-72 -128.5zM89 123q0 -40 27 -62.5t79 -22.5
q68 0 120 43t64 115l5 31h-158q-68 0 -102.5 -29t-34.5 -75z" />
    <glyph glyph-name="Oslashacute" unicode="&#x1fe;" horiz-adv-x="754" 
d="M341 -11q-108 0 -180 72l-72 -77h-68l108 115q-53 79 -53 180q0 178 104 302t269 124q106 0 180 -72l72 77h67l-107 -114q53 -77 53 -181q0 -178 -104 -302t-269 -124zM346 40q135 0 223.5 110.5t88.5 260.5q0 86 -36 143l-424 -453q56 -61 148 -61zM133 283
q0 -81 34 -143l425 453q-58 61 -148 61t-162 -52.5t-110.5 -137t-38.5 -181.5zM532 885h79l-126 -137h-49z" />
    <glyph glyph-name="oslashacute" unicode="&#x1ff;" horiz-adv-x="558" 
d="M244 -9q-78 0 -131 50l-55 -57h-63l90 93q-30 49 -30 117q0 123 70 213.5t188 90.5q77 0 130 -50l57 59h64l-92 -96q30 -49 30 -116q0 -123 -70 -213.5t-188 -90.5zM108 194q0 -41 15 -78l285 295q-39 39 -99 39q-87 0 -144 -77t-57 -179zM248 39q87 0 143.5 76t56.5 179
q0 45 -14 78l-286 -294q38 -39 100 -39zM403 694h79l-126 -137h-49z" />
    <glyph glyph-name="Scommaaccent" unicode="&#x218;" horiz-adv-x="632" 
d="M308 -45l-15 -86q-13 -77 -90 -77l6 37q38 0 45 40l3 14h-37l12 72h76zM562 185q0 -92 -75.5 -144t-182.5 -52q-109 0 -182.5 52.5t-74.5 153.5h57q3 -74 59 -114.5t143 -40.5q78 0 139 36.5t61 104.5q0 84 -96 117l-152 52q-58 19 -92.5 60.5t-34.5 104.5q0 86 68.5 138
t168.5 52q99 0 167 -53.5t67 -149.5h-57q-4 77 -53.5 114.5t-123.5 37.5t-127 -35.5t-53 -101.5q0 -86 96 -117l153 -53q125 -43 125 -162z" />
    <glyph glyph-name="scommaaccent" unicode="&#x219;" horiz-adv-x="492" 
d="M238 -45l-15 -86q-13 -77 -90 -77l6 37q38 0 45 40l3 14h-37l12 72h76zM94 357q0 59 46.5 100t126.5 41t132.5 -36t51.5 -111h-55q1 49 -34 74t-94 25q-55 0 -88 -25t-33 -64q0 -56 78 -79l85 -24q109 -31 109 -122q0 -64 -53 -104.5t-139 -40.5t-138 38.5t-53 115.5h55
q6 -106 137 -106q65 0 101.5 27t36.5 67q0 55 -78 77l-85 25q-109 31 -109 122z" />
    <glyph glyph-name="uni021A" unicode="&#x21a;" horiz-adv-x="613" 
d="M296 -45l-15 -86q-13 -77 -90 -77l6 37q38 0 45 40l3 14h-37l12 72h76zM103 642l10 52h545l-9 -52h-244l-113 -642h-56l112 642h-245z" />
    <glyph glyph-name="uni021B" unicode="&#x21b;" horiz-adv-x="352" 
d="M192 -45l-15 -86q-13 -77 -90 -77l6 37q38 0 45 40l3 14h-37l12 72h76zM73 442l8 47h82l24 132h50l-23 -132h138l-8 -47h-139l-50 -288q-7 -33 -7 -59q0 -55 66 -55q25 0 63 10l-10 -49q-33 -9 -67 -9q-49 0 -78 25t-29 71q0 14 8 62l51 292h-79z" />
    <glyph glyph-name="dotlessj" unicode="&#x237;" horiz-adv-x="230" 
d="M-109 -173l9 47q19 -4 40 -4q82 0 100 101l91 518h54l-91 -516q-14 -80 -52.5 -116t-106.5 -36q-23 0 -44 6z" />
    <glyph glyph-name="circumflex" unicode="&#x2c6;" horiz-adv-x="393" 
d="M243 694h64l77 -137h-51l-63 91l-97 -91h-56z" />
    <glyph glyph-name="caron" unicode="&#x2c7;" horiz-adv-x="393" 
d="M285 557h-64l-77 137h51l63 -91l97 91h56z" />
    <glyph glyph-name="breve" unicode="&#x2d8;" horiz-adv-x="366" 
d="M244 564q-61 0 -88.5 40t-19.5 90h45q-4 -33 11.5 -59t51.5 -26t59.5 22.5t30.5 62.5h46q-10 -63 -46 -96.5t-90 -33.5z" />
    <glyph glyph-name="dotaccent" unicode="&#x2d9;" horiz-adv-x="179" 
d="M113 589l15 75h74l-14 -75h-75z" />
    <glyph glyph-name="ring" unicode="&#x2da;" horiz-adv-x="314" 
d="M127 645q0 40 29 68.5t71 28.5t71 -28.5t29 -68.5t-29 -68t-71 -28t-71 28t-29 68zM170 645q0 -25 16.5 -41t40.5 -16t40.5 16t16.5 41t-16.5 41.5t-40.5 16.5t-40.5 -16.5t-16.5 -41.5z" />
    <glyph glyph-name="ogonek" unicode="&#x2db;" horiz-adv-x="247" 
d="M107 0h43q-100 -73 -100 -115q0 -28 38 -28q28 0 58 13l-8 -43q-24 -11 -58 -11q-82 0 -82 61q0 54 109 123z" />
    <glyph glyph-name="tilde" unicode="&#x2dc;" horiz-adv-x="390" 
d="M325 572q-31 0 -69 34t-55 34q-18 0 -27 -15t-15 -47h-45q15 110 88 110q30 0 68 -33.5t55 -33.5q31 0 43 62h44q-16 -111 -87 -111z" />
    <glyph glyph-name="hungarumlaut" unicode="&#x2dd;" horiz-adv-x="418" 
d="M219 694h70l-114 -141h-46zM339 694h71l-115 -141h-46z" />
    <glyph glyph-name="pi" unicode="&#x3c0;" horiz-adv-x="583" 
d="M563 440h-79l-77 -440h-54l78 440h-209l-77 -440h-54l77 440h-80l8 49h476z" />
    <glyph glyph-name="Wgrave" unicode="&#x1e80;" horiz-adv-x="970" 
d="M551 632l-296 -632h-73l-71 694h55l62 -634l297 634h68l72 -634l288 634h59l-316 -694h-73zM456 885h75l62 -137h-44z" />
    <glyph glyph-name="wgrave" unicode="&#x1e81;" horiz-adv-x="721" 
d="M431 489l43 -433l197 433h57l-227 -489h-68l-43 428l-194 -428h-68l-53 489h53l42 -433l196 433h65zM294 694h75l62 -137h-44z" />
    <glyph glyph-name="Wacute" unicode="&#x1e82;" horiz-adv-x="970" 
d="M643 885h79l-126 -137h-49zM551 632l-296 -632h-73l-71 694h55l62 -634l297 634h68l72 -634l288 634h59l-316 -694h-73z" />
    <glyph glyph-name="wacute" unicode="&#x1e83;" horiz-adv-x="721" 
d="M482 694h79l-126 -137h-49zM431 489l43 -433l197 433h57l-227 -489h-68l-43 428l-194 -428h-68l-53 489h53l42 -433l196 433h65z" />
    <glyph glyph-name="Wdieresis" unicode="&#x1e84;" horiz-adv-x="970" 
d="M450 768l15 75h74l-14 -75h-75zM626 768l15 75h74l-14 -75h-75zM551 632l-296 -632h-73l-71 694h55l62 -634l297 634h68l72 -634l288 634h59l-316 -694h-73z" />
    <glyph glyph-name="wdieresis" unicode="&#x1e85;" horiz-adv-x="721" 
d="M289 589l15 75h74l-14 -75h-75zM465 589l15 75h74l-14 -75h-75zM431 489l43 -433l197 433h57l-227 -489h-68l-43 428l-194 -428h-68l-53 489h53l42 -433l196 433h65z" />
    <glyph glyph-name="uni1E8A" unicode="&#x1e8a;" horiz-adv-x="627" 
d="M57 0h-72l314 348l-191 346h64l164 -305l273 305h72l-316 -351l190 -343h-64l-163 302zM368 771l15 75h74l-14 -75h-75z" />
    <glyph glyph-name="uni1E8B" unicode="&#x1e8b;" horiz-adv-x="477" 
d="M57 0h-67l214 247l-126 242h60l102 -203l173 203h68l-215 -246l127 -243h-59l-103 203zM259 589l15 75h74l-14 -75h-75z" />
    <glyph glyph-name="Ygrave" unicode="&#x1ef2;" horiz-adv-x="606" 
d="M233 0l47 269l-191 425h61l164 -368l294 368h69l-340 -424l-48 -270h-56zM276 885h75l62 -137h-44z" />
    <glyph glyph-name="ygrave" unicode="&#x1ef3;" horiz-adv-x="481" 
d="M-21 -169l10 47q25 -7 48 -7q38 0 63 22t52 72l12 23l-96 501h55l79 -429l233 429h59l-301 -550q-34 -61 -68.5 -89.5t-88.5 -28.5q-29 0 -57 10zM173 694h75l62 -137h-44z" />
    <glyph glyph-name="endash" unicode="&#x2013;" horiz-adv-x="472" 
d="M38 241l8 47h396l-9 -47h-395z" />
    <glyph glyph-name="emdash" unicode="&#x2014;" horiz-adv-x="967" 
d="M38 241l8 47h891l-9 -47h-890z" />
    <glyph glyph-name="quoteleft" unicode="&#x2018;" horiz-adv-x="217" 
d="M100 481l19 105q19 111 125 114l-7 -37q-65 -3 -77 -76l-4 -20h45l-15 -86h-86z" />
    <glyph glyph-name="quoteright" unicode="&#x2019;" horiz-adv-x="218" 
d="M236 693l-18 -104q-21 -113 -126 -114l7 37q65 3 77 75l4 20h-45l15 86h86z" />
    <glyph glyph-name="quotesinglbase" unicode="&#x201a;" horiz-adv-x="218" 
d="M130 86l-19 -104q-20 -113 -125 -114l7 37q65 1 77 75l4 20h-45l15 86h86z" />
    <glyph glyph-name="quotedblleft" unicode="&#x201c;" horiz-adv-x="383" 
d="M100 481l19 105q19 111 125 114l-7 -37q-65 -3 -77 -76l-4 -20h45l-15 -86h-86zM266 481l18 105q21 111 126 114l-7 -37q-65 -3 -77 -76l-4 -20h45l-15 -86h-86z" />
    <glyph glyph-name="quotedblright" unicode="&#x201d;" horiz-adv-x="383" 
d="M236 693l-18 -104q-21 -113 -126 -114l7 37q65 3 77 75l4 20h-45l15 86h86zM401 693l-18 -104q-21 -113 -126 -114l7 37q65 3 77 75l4 20h-45l15 86h86z" />
    <glyph glyph-name="quotedblbase" unicode="&#x201e;" horiz-adv-x="383" 
d="M130 86l-19 -104q-20 -113 -125 -114l7 37q65 1 77 75l4 20h-45l15 86h86zM295 86l-19 -104q-20 -113 -125 -114l7 37q63 1 77 75l4 20h-46l16 86h86z" />
    <glyph glyph-name="dagger" unicode="&#x2020;" horiz-adv-x="414" 
d="M410 561l-9 -45h-123l-49 -278h-48l50 278h-124l8 45h124l24 133h47l-24 -133h124z" />
    <glyph glyph-name="daggerdbl" unicode="&#x2021;" horiz-adv-x="426" 
d="M387 399l-9 -45h-123l-23 -130h-47l23 130h-124l8 45h124l21 117h-124l8 45h124l24 133h47l-24 -133h124l-9 -45h-123l-21 -117h124z" />
    <glyph glyph-name="bullet" unicode="&#x2022;" horiz-adv-x="414" 
d="M89 290q0 52 36.5 88.5t88.5 36.5t88.5 -36.5t36.5 -88.5t-36.5 -88.5t-88.5 -36.5t-88.5 36.5t-36.5 88.5z" />
    <glyph glyph-name="ellipsis" unicode="&#x2026;" horiz-adv-x="702" 
d="M41 0l16 90h89l-16 -90h-89zM263 0l16 90h89l-16 -90h-89zM485 0l16 90h89l-16 -90h-89z" />
    <glyph glyph-name="perthousand" unicode="&#x2030;" horiz-adv-x="1210" 
d="M142 500q0 -48 26.5 -75.5t70.5 -27.5q55 0 92 46t37 112q0 48 -26.5 76t-70.5 28q-56 0 -92.5 -46t-36.5 -113zM506 138q0 -48 26.5 -75.5t70.5 -27.5q55 0 92 46t37 112q0 48 -26.5 76t-70.5 28q-56 0 -92.5 -46t-36.5 -113zM603 -11q-65 0 -107 39t-42 110
q0 88 53 146.5t128 58.5q65 0 107 -39t42 -110q0 -87 -53.5 -146t-127.5 -59zM211 0h-58l509 694h58zM891 138q0 -48 26.5 -75.5t70.5 -27.5q55 0 92 46t37 112q0 48 -26.5 76t-70.5 28q-56 0 -92.5 -46t-36.5 -113zM239 351q-65 0 -107 39t-42 110q0 88 53 146.5t128 58.5
q65 0 107 -39t42 -110q0 -87 -53.5 -146t-127.5 -59zM988 -11q-65 0 -107 39t-42 110q0 88 53.5 146.5t127.5 58.5q65 0 107 -39t42 -110q0 -87 -53.5 -146t-127.5 -59z" />
    <glyph glyph-name="guilsinglleft" unicode="&#x2039;" horiz-adv-x="299" 
d="M268 434l-154 -206l78 -194h-51l-89 200l160 200h56z" />
    <glyph glyph-name="guilsinglright" unicode="&#x203a;" horiz-adv-x="299" 
d="M23 34l154 206l-78 194h50l90 -200l-160 -200h-56z" />
    <glyph glyph-name="fraction" unicode="&#x2044;" horiz-adv-x="156" 
d="M-241 0l621 694h53l-619 -694h-55z" />
    <glyph glyph-name="uni2070" unicode="&#x2070;" horiz-adv-x="363" 
d="M202 355q40 0 68.5 40.5t39.5 86t11 83.5q0 95 -70 95q-40 0 -68.5 -40.5t-39.5 -86t-11 -83.5q0 -95 70 -95zM202 314q-54 0 -85 35t-31 101q0 39 9.5 80.5t28 81t52.5 64.5t77 25q53 0 83.5 -35.5t30.5 -101.5q0 -54 -15 -108t-54.5 -98t-95.5 -44z" />
    <glyph glyph-name="uni2074" unicode="&#x2074;" horiz-adv-x="357" 
d="M283 319h-43l15 84h-186l8 43l215 248h57l-44 -250h51l-7 -41h-51zM262 444l34 196l-171 -196h137z" />
    <glyph glyph-name="uni2075" unicode="&#x2075;" horiz-adv-x="336" 
d="M194 353q43 0 68 29t25 67q0 33 -20 53.5t-51 20.5q-51 0 -78 -48h-43l60 219h197l-9 -43h-157l-33 -115q29 27 75 27q45 0 74.5 -30.5t29.5 -82.5q0 -57 -38.5 -97t-102.5 -40q-53 0 -86 30t-31 78h46q-1 -30 20.5 -49t53.5 -19z" />
    <glyph glyph-name="uni2076" unicode="&#x2076;" horiz-adv-x="349" 
d="M203 314q-57 0 -87 36t-30 102q0 54 15.5 108t55 97.5t95.5 43.5q50 0 80.5 -28.5t29.5 -69.5h-46q-3 28 -20 43t-45 15q-83 0 -115 -148q31 51 98 51q49 0 78.5 -29t29.5 -81q0 -57 -38.5 -98.5t-100.5 -41.5zM204 354q39 0 65.5 29t26.5 69q0 32 -19 52t-52 20
q-39 0 -65 -27.5t-26 -67.5q0 -33 19 -54t51 -21z" />
    <glyph glyph-name="uni2077" unicode="&#x2077;" horiz-adv-x="313" 
d="M98 651l7 43h260l-7 -40l-206 -334h-51l205 331h-208z" />
    <glyph glyph-name="uni2078" unicode="&#x2078;" horiz-adv-x="347" 
d="M199 314q-57 0 -90 28t-33 74q0 34 20.5 61.5t59.5 39.5q-42 25 -42 76q0 47 36.5 77.5t89.5 30.5q50 0 81.5 -28.5t31.5 -69.5q0 -68 -70 -94q52 -24 52 -83q0 -49 -38 -80.5t-98 -31.5zM229 533q34 0 57 18.5t23 48.5q0 26 -20 43.5t-50 17.5q-34 0 -57 -19.5
t-23 -49.5q0 -25 20 -42t50 -17zM200 354q39 0 64 21t25 53q0 29 -21.5 46.5t-56.5 17.5q-40 0 -65 -20t-25 -51q0 -30 22 -48.5t57 -18.5z" />
    <glyph glyph-name="uni2079" unicode="&#x2079;" horiz-adv-x="349" 
d="M239 701q57 0 87 -36t30 -102q0 -54 -15.5 -108t-55 -97.5t-95.5 -43.5q-50 0 -80.5 28.5t-29.5 69.5h46q3 -28 20 -43t45 -15q83 0 115 148q-31 -51 -98 -51q-49 0 -78.5 29t-29.5 81q0 57 38.5 98.5t100.5 41.5zM238 661q-39 0 -65.5 -29t-26.5 -69q0 -32 19 -52
t52 -20q39 0 65 27.5t26 67.5q0 33 -19 54t-51 21z" />
    <glyph glyph-name="parenleft.sups" unicode="&#x207d;" horiz-adv-x="205" 
d="M143 462q0 -98 40 -174h-42q-46 78 -46 174q0 156 113 261h50q-115 -114 -115 -261z" />
    <glyph glyph-name="parenright.sups" unicode="&#x207e;" horiz-adv-x="205" 
d="M154 549q0 99 -41 174h43q46 -81 46 -174q0 -155 -113 -261h-50q115 114 115 261z" />
    <glyph glyph-name="uni2080" unicode="&#x2080;" horiz-adv-x="363" 
d="M127 -74q40 0 68.5 40.5t39.5 86t11 83.5q0 95 -70 95q-40 0 -68.5 -40.5t-39.5 -86t-11 -83.5q0 -95 70 -95zM127 -115q-54 0 -85 35t-31 101q0 39 9.5 80.5t28 81t52.5 64.5t77 25q53 0 83.5 -35.5t30.5 -101.5q0 -54 -15 -108t-54.5 -98t-95.5 -44z" />
    <glyph glyph-name="uni2081" unicode="&#x2081;" horiz-adv-x="272" 
d="M122 -110h-43l54 322l-114 -66l10 51l116 68h43z" />
    <glyph glyph-name="uni2082" unicode="&#x2082;" horiz-adv-x="325" 
d="M-8 -110l8 43l161 142q35 30 50.5 52t15.5 46q0 25 -18 41t-47 16q-35 0 -58 -22.5t-26 -60.5h-46q4 56 40.5 90t89.5 34q52 0 81.5 -26.5t29.5 -70.5q0 -56 -78 -124l-132 -116h174l-8 -44h-237z" />
    <glyph glyph-name="uni2083" unicode="&#x2083;" horiz-adv-x="339" 
d="M126 -116q-56 0 -90.5 28.5t-33.5 80.5h46q-2 -30 20 -49.5t59 -19.5q40 0 63 21t23 52q0 29 -21 45.5t-56 16.5h-18l7 42h18q40 0 65.5 18.5t25.5 50.5q0 29 -20.5 44.5t-50.5 15.5q-34 0 -56.5 -20.5t-26.5 -54.5h-45q5 51 40.5 83t89.5 32q52 0 83 -27.5t31 -70.5
q0 -31 -19 -56t-54 -37q53 -22 53 -82q0 -48 -35.5 -80.5t-97.5 -32.5z" />
    <glyph glyph-name="uni2084" unicode="&#x2084;" horiz-adv-x="357" 
d="M208 -110h-43l15 84h-186l8 43l215 248h57l-44 -250h51l-7 -41h-51zM187 15l34 196l-171 -196h137z" />
    <glyph glyph-name="uni2085" unicode="&#x2085;" horiz-adv-x="336" 
d="M116 -76q43 0 68 29t25 67q0 33 -20 53.5t-51 20.5q-51 0 -78 -48h-43l60 219h197l-9 -43h-157l-33 -115q29 27 75 27q45 0 74.5 -30.5t29.5 -82.5q0 -57 -38.5 -97t-102.5 -40q-53 0 -86 30t-31 78h46q-1 -30 20.5 -49t53.5 -19z" />
    <glyph glyph-name="uni2086" unicode="&#x2086;" horiz-adv-x="349" 
d="M128 -116q-57 0 -87 36t-30 102q0 54 15.5 108t55 97.5t95.5 43.5q50 0 80.5 -28.5t29.5 -69.5h-46q-3 28 -20 43t-45 15q-83 0 -115 -148q31 51 98 51q49 0 78.5 -29t29.5 -81q0 -57 -38.5 -98.5t-100.5 -41.5zM129 -76q39 0 65.5 29t26.5 69q0 32 -19 52t-52 20
q-39 0 -65 -27.5t-26 -67.5q0 -33 19 -54t51 -21z" />
    <glyph glyph-name="uni2087" unicode="&#x2087;" horiz-adv-x="313" 
d="M15 221l7 43h260l-7 -40l-206 -334h-51l205 331h-208z" />
    <glyph glyph-name="uni2088" unicode="&#x2088;" horiz-adv-x="348" 
d="M127 -116q-57 0 -90 28t-33 74q0 34 20.5 61.5t59.5 39.5q-42 25 -42 76q0 47 36.5 77.5t89.5 30.5q50 0 81.5 -28.5t31.5 -69.5q0 -68 -70 -94q52 -24 52 -83q0 -49 -38 -80.5t-98 -31.5zM157 103q34 0 57 18.5t23 48.5q0 26 -20 43.5t-50 17.5q-34 0 -57 -19.5
t-23 -49.5q0 -25 20 -42t50 -17zM128 -76q39 0 64 21t25 53q0 29 -21.5 46.5t-56.5 17.5q-40 0 -65 -20t-25 -51q0 -30 22 -48.5t57 -18.5z" />
    <glyph glyph-name="uni2089" unicode="&#x2089;" horiz-adv-x="349" 
d="M166 271q57 0 87 -36t30 -102q0 -54 -15.5 -108t-55 -97.5t-95.5 -43.5q-50 0 -80.5 28.5t-29.5 69.5h46q3 -28 20 -43t45 -15q83 0 115 148q-31 -51 -98 -51q-49 0 -78.5 29t-29.5 81q0 57 38.5 98.5t100.5 41.5zM165 231q-39 0 -65.5 -29t-26.5 -69q0 -32 19 -52
t52 -20q39 0 65 27.5t26 67.5q0 33 -19 54t-51 21z" />
    <glyph glyph-name="Euro" unicode="&#x20ac;" horiz-adv-x="696" 
d="M90 441h78q35 118 108.5 191t171.5 73q97 0 149.5 -61.5t50.5 -160.5h-55q0 81 -39 126t-106 45q-77 0 -134.5 -59t-88.5 -154h230l-9 -47h-234q-12 -55 -15 -96h233l-8 -47h-227q0 -109 45 -160t119 -51q67 0 119.5 45t69.5 126h56q-19 -101 -87 -161.5t-158 -60.5
q-103 0 -161 66t-58 196h-83l8 47h77q3 46 14 96h-75z" />
    <glyph glyph-name="trademark" unicode="&#x2122;" horiz-adv-x="801" 
d="M69 650v44h290v-44h-122v-287h-47v287h-121zM563 362l-111 277v-277h-46v332h70l114 -286l112 286h70v-332h-45v277l-111 -277h-53z" />
    <glyph glyph-name="Omega" unicode="&#x2126;" horiz-adv-x="773" 
d="M667 392q0 120 -67 190.5t-179 70.5q-125 0 -205 -90t-80 -236q0 -188 166 -275l-9 -52h-264l8 51h176q-135 94 -135 276q0 162 95.5 270t248.5 108q137 0 220 -85.5t83 -227.5q0 -230 -203 -341h155l-9 -51h-264l9 52q118 44 186 130.5t68 209.5z" />
    <glyph glyph-name="uni2153" unicode="&#x2153;" horiz-adv-x="766" 
d="M35 0l621 694h53l-619 -694h-55zM187 319h-43l54 322l-114 -66l10 51l116 68h43zM571 -6q-56 0 -90.5 28.5t-33.5 80.5h46q-2 -30 20 -49.5t59 -19.5q40 0 63 21t23 52q0 29 -21 45.5t-56 16.5h-18l7 42h18q40 0 65.5 18.5t25.5 50.5q0 29 -20.5 44.5t-50.5 15.5
q-34 0 -56.5 -20.5t-26.5 -54.5h-45q5 51 40.5 83t89.5 32q52 0 83 -27.5t31 -70.5q0 -31 -19 -56t-54 -37q53 -22 53 -82q0 -48 -35.5 -80.5t-97.5 -32.5z" />
    <glyph glyph-name="uni2154" unicode="&#x2154;" horiz-adv-x="821" 
d="M54 320l8 43l161 142q35 30 50.5 52t15.5 46q0 25 -18 41t-47 16q-35 0 -58 -22.5t-26 -60.5h-46q4 56 40.5 90t89.5 34q52 0 81.5 -26.5t29.5 -70.5q0 -56 -78 -124l-132 -116h174l-8 -44h-237zM90 0l621 694h53l-619 -694h-55zM626 -6q-56 0 -90.5 28.5t-33.5 80.5h46
q-2 -30 20 -49.5t59 -19.5q40 0 63 21t23 52q0 29 -21 45.5t-56 16.5h-18l7 42h18q40 0 65.5 18.5t25.5 50.5q0 29 -20.5 44.5t-50.5 15.5q-34 0 -56.5 -20.5t-26.5 -54.5h-45q5 51 40.5 83t89.5 32q52 0 83 -27.5t31 -70.5q0 -31 -19 -56t-54 -37q53 -22 53 -82
q0 -48 -35.5 -80.5t-97.5 -32.5z" />
    <glyph glyph-name="uni2155" unicode="&#x2155;" horiz-adv-x="782" 
d="M35 0l621 694h53l-619 -694h-55zM187 319h-43l54 322l-114 -66l10 51l116 68h43zM575 34q43 0 68 29t25 67q0 33 -20 53.5t-51 20.5q-51 0 -78 -48h-43l60 219h197l-9 -43h-157l-33 -115q29 27 75 27q45 0 74.5 -30.5t29.5 -82.5q0 -57 -38.5 -97t-102.5 -40
q-53 0 -86 30t-31 78h46q-1 -30 20.5 -49t53.5 -19z" />
    <glyph glyph-name="uni2156" unicode="&#x2156;" horiz-adv-x="837" 
d="M54 320l8 43l161 142q35 30 50.5 52t15.5 46q0 25 -18 41t-47 16q-35 0 -58 -22.5t-26 -60.5h-46q4 56 40.5 90t89.5 34q52 0 81.5 -26.5t29.5 -70.5q0 -56 -78 -124l-132 -116h174l-8 -44h-237zM630 34q43 0 68 29t25 67q0 33 -20 53.5t-51 20.5q-51 0 -78 -48h-43
l60 219h197l-9 -43h-157l-33 -115q29 27 75 27q45 0 74.5 -30.5t29.5 -82.5q0 -57 -38.5 -97t-102.5 -40q-53 0 -86 30t-31 78h46q-1 -30 20.5 -49t53.5 -19zM90 0l621 694h53l-619 -694h-55z" />
    <glyph glyph-name="uni2157" unicode="&#x2157;" horiz-adv-x="854" 
d="M196 314q-56 0 -90.5 28.5t-33.5 80.5h46q-2 -30 20 -49.5t59 -19.5q40 0 63 21t23 52q0 29 -21 45.5t-56 16.5h-18l7 42h18q40 0 65.5 18.5t25.5 50.5q0 29 -20.5 44.5t-50.5 15.5q-34 0 -56.5 -20.5t-26.5 -54.5h-45q5 51 40.5 83t89.5 32q52 0 83 -27.5t31 -70.5
q0 -31 -19 -56t-54 -37q53 -22 53 -82q0 -48 -35.5 -80.5t-97.5 -32.5zM647 34q43 0 68 29t25 67q0 33 -20 53.5t-51 20.5q-51 0 -78 -48h-43l60 219h197l-9 -43h-157l-33 -115q29 27 75 27q45 0 74.5 -30.5t29.5 -82.5q0 -57 -38.5 -97t-102.5 -40q-53 0 -86 30t-31 78h46
q-1 -30 20.5 -49t53.5 -19zM107 0l621 694h53l-619 -694h-55z" />
    <glyph glyph-name="uni2158" unicode="&#x2158;" horiz-adv-x="870" 
d="M273 319h-43l15 84h-186l8 43l215 248h57l-44 -250h51l-7 -41h-51zM252 444l34 196l-171 -196h137zM663 34q43 0 68 29t25 67q0 33 -20 53.5t-51 20.5q-51 0 -78 -48h-43l60 219h197l-9 -43h-157l-33 -115q29 27 75 27q45 0 74.5 -30.5t29.5 -82.5q0 -57 -38.5 -97
t-102.5 -40q-53 0 -86 30t-31 78h46q-1 -30 20.5 -49t53.5 -19zM123 0l621 694h53l-619 -694h-55z" />
    <glyph glyph-name="uni2159" unicode="&#x2159;" horiz-adv-x="797" 
d="M577 -6q-57 0 -87 36t-30 102q0 54 15.5 108t55 97.5t95.5 43.5q50 0 80.5 -28.5t29.5 -69.5h-46q-3 28 -20 43t-45 15q-83 0 -115 -148q31 51 98 51q49 0 78.5 -29t29.5 -81q0 -57 -38.5 -98.5t-100.5 -41.5zM578 34q39 0 65.5 29t26.5 69q0 32 -19 52t-52 20
q-39 0 -65 -27.5t-26 -67.5q0 -33 19 -54t51 -21zM35 0l621 694h53l-619 -694h-55zM187 319h-43l54 322l-114 -66l10 51l116 68h43z" />
    <glyph glyph-name="uni215A" unicode="&#x215a;" horiz-adv-x="866" 
d="M194 353q43 0 68 29t25 67q0 33 -20 53.5t-51 20.5q-51 0 -78 -48h-43l60 219h197l-9 -43h-157l-33 -115q29 27 75 27q45 0 74.5 -30.5t29.5 -82.5q0 -57 -38.5 -97t-102.5 -40q-53 0 -86 30t-31 78h46q-1 -30 20.5 -49t53.5 -19zM646 -6q-57 0 -87 36t-30 102
q0 54 15.5 108t55 97.5t95.5 43.5q50 0 80.5 -28.5t29.5 -69.5h-46q-3 28 -20 43t-45 15q-83 0 -115 -148q31 51 98 51q49 0 78.5 -29t29.5 -81q0 -57 -38.5 -98.5t-100.5 -41.5zM647 34q39 0 65.5 29t26.5 69q0 32 -19 52t-52 20q-39 0 -65 -27.5t-26 -67.5q0 -33 19 -54
t51 -21zM104 0l621 694h53l-619 -694h-55z" />
    <glyph glyph-name="uni215B" unicode="&#x215b;" horiz-adv-x="790" 
d="M571 -6q-57 0 -90 28t-33 74q0 34 20.5 61.5t59.5 39.5q-42 25 -42 76q0 47 36.5 77.5t89.5 30.5q50 0 81.5 -28.5t31.5 -69.5q0 -68 -70 -94q52 -24 52 -83q0 -49 -38 -80.5t-98 -31.5zM601 213q34 0 57 18.5t23 48.5q0 26 -20 43.5t-50 17.5q-34 0 -57 -19.5t-23 -49.5
q0 -25 20 -42t50 -17zM572 34q39 0 64 21t25 53q0 29 -21.5 46.5t-56.5 17.5q-40 0 -65 -20t-25 -51q0 -30 22 -48.5t57 -18.5zM35 0l621 694h53l-619 -694h-55zM187 319h-43l54 322l-114 -66l10 51l116 68h43z" />
    <glyph glyph-name="uni215C" unicode="&#x215c;" horiz-adv-x="862" 
d="M643 -6q-57 0 -90 28t-33 74q0 34 20.5 61.5t59.5 39.5q-42 25 -42 76q0 47 36.5 77.5t89.5 30.5q50 0 81.5 -28.5t31.5 -69.5q0 -68 -70 -94q52 -24 52 -83q0 -49 -38 -80.5t-98 -31.5zM673 213q34 0 57 18.5t23 48.5q0 26 -20 43.5t-50 17.5q-34 0 -57 -19.5t-23 -49.5
q0 -25 20 -42t50 -17zM644 34q39 0 64 21t25 53q0 29 -21.5 46.5t-56.5 17.5q-40 0 -65 -20t-25 -51q0 -30 22 -48.5t57 -18.5zM196 314q-56 0 -90.5 28.5t-33.5 80.5h46q-2 -30 20 -49.5t59 -19.5q40 0 63 21t23 52q0 29 -21 45.5t-56 16.5h-18l7 42h18q40 0 65.5 18.5
t25.5 50.5q0 29 -20.5 44.5t-50.5 15.5q-34 0 -56.5 -20.5t-26.5 -54.5h-45q5 51 40.5 83t89.5 32q52 0 83 -27.5t31 -70.5q0 -31 -19 -56t-54 -37q53 -22 53 -82q0 -48 -35.5 -80.5t-97.5 -32.5zM107 0l621 694h53l-619 -694h-55z" />
    <glyph glyph-name="uni215D" unicode="&#x215d;" horiz-adv-x="860" 
d="M641 -6q-57 0 -90 28t-33 74q0 34 20.5 61.5t59.5 39.5q-42 25 -42 76q0 47 36.5 77.5t89.5 30.5q50 0 81.5 -28.5t31.5 -69.5q0 -68 -70 -94q52 -24 52 -83q0 -49 -38 -80.5t-98 -31.5zM671 213q34 0 57 18.5t23 48.5q0 26 -20 43.5t-50 17.5q-34 0 -57 -19.5t-23 -49.5
q0 -25 20 -42t50 -17zM642 34q39 0 64 21t25 53q0 29 -21.5 46.5t-56.5 17.5q-40 0 -65 -20t-25 -51q0 -30 22 -48.5t57 -18.5zM194 353q43 0 68 29t25 67q0 33 -20 53.5t-51 20.5q-51 0 -78 -48h-43l60 219h197l-9 -43h-157l-33 -115q29 27 75 27q45 0 74.5 -30.5
t29.5 -82.5q0 -57 -38.5 -97t-102.5 -40q-53 0 -86 30t-31 78h46q-1 -30 20.5 -49t53.5 -19zM104 0l621 694h53l-619 -694h-55z" />
    <glyph glyph-name="uni215E" unicode="&#x215e;" horiz-adv-x="807" 
d="M108 651l7 43h260l-7 -40l-206 -334h-51l205 331h-208zM52 0l621 694h53l-619 -694h-55zM588 -6q-58 0 -90.5 28t-32.5 74q0 34 20.5 61.5t59.5 39.5q-42 25 -42 76q0 47 36.5 77.5t89.5 30.5q50 0 81.5 -28.5t31.5 -69.5q0 -68 -70 -94q52 -24 52 -83q0 -49 -38 -80.5
t-98 -31.5zM618 213q34 0 57 18.5t23 48.5q0 26 -20 43.5t-50 17.5q-34 0 -57 -19.5t-23 -49.5q0 -25 20 -42t50 -17zM589 34q39 0 64 21t25 53q0 29 -21.5 46.5t-56.5 17.5q-40 0 -65 -20t-25 -51q0 -30 22 -48.5t57 -18.5z" />
    <glyph glyph-name="uni2190" unicode="&#x2190;" 
d="M335 644h72l-267 -269h645v-53h-648l270 -272h-72l-296 297z" />
    <glyph glyph-name="uni2191" unicode="&#x2191;" 
d="M709 424v-72l-269 267v-645h-53v648l-272 -270v72l297 296z" />
    <glyph glyph-name="uni2192" unicode="&#x2192;" 
d="M417 644h72l296 -297l-296 -297h-72l270 272h-648v53h645z" />
    <glyph glyph-name="uni2193" unicode="&#x2193;" 
d="M709 342v-72l-297 -296l-297 296v72l272 -270v648h53v-645z" />
    <glyph glyph-name="partialdiff" unicode="&#x2202;" horiz-adv-x="548" 
d="M303 497q76 0 123 -53q-59 158 -190 250h73q29 -21 58 -52.5t60 -79.5t50 -116.5t19 -145.5q0 -128 -70.5 -218.5t-186.5 -90.5q-80 0 -135 53.5t-55 150.5q0 121 69.5 211.5t184.5 90.5zM241 40q88 0 143.5 76.5t55.5 176.5q0 74 -38 114t-98 40q-88 0 -144 -75.5
t-56 -176.5q0 -74 38.5 -114.5t98.5 -40.5z" />
    <glyph glyph-name="Delta" unicode="&#x2206;" horiz-adv-x="687" 
d="M602 54l-9 -54h-582l9 54l371 640h65zM415 634l-334 -581h465z" />
    <glyph glyph-name="product" unicode="&#x220f;" horiz-adv-x="721" 
d="M56 0l122 694h523l-122 -694h-56l113 642h-412l-112 -642h-56z" />
    <glyph glyph-name="summation" unicode="&#x2211;" horiz-adv-x="618" 
d="M41 50l299 311l-195 283l10 50h478l-10 -51h-410l180 -262l-10 -55l-264 -274h404l-8 -52h-483z" />
    <glyph glyph-name="minus" unicode="&#x2212;" horiz-adv-x="650" 
d="M117 298l9 50h435l-8 -50h-436z" />
    <glyph glyph-name="radical" unicode="&#x221a;" horiz-adv-x="625" 
d="M61 293l10 49h137l52 -284l341 636h56l-374 -694h-64l-57 293h-101z" />
    <glyph glyph-name="infinity" unicode="&#x221e;" horiz-adv-x="638" 
d="M170 183q-55 0 -87 33t-32 91q0 60 39 104.5t102 44.5q81 0 142 -95q78 97 158 97q54 0 86.5 -33t32.5 -91q0 -60 -39 -104.5t-102 -44.5q-81 0 -142 95q-79 -97 -158 -97zM171 229q60 0 133 93q-53 89 -111 89q-40 0 -66 -31.5t-26 -72.5q0 -37 20 -57.5t50 -20.5z
M469 231q40 0 66 31t26 72q0 38 -20 58.5t-50 20.5q-60 0 -133 -93q54 -89 111 -89z" />
    <glyph glyph-name="integral" unicode="&#x222b;" horiz-adv-x="414" 
d="M275 549l-101 -576q-14 -79 -52.5 -115.5t-103.5 -36.5q-23 0 -49 6l10 47q24 -4 43 -4q82 0 98 101l103 582q13 73 52.5 111.5t100.5 38.5q29 0 61 -8l-10 -48q-20 6 -50 6q-83 0 -102 -104z" />
    <glyph glyph-name="approxequal" unicode="&#x2248;" horiz-adv-x="650" 
d="M483 358q-38 0 -127 33t-116 33q-48 0 -57 -53l-2 -15h-50l3 20q8 46 35 71.5t70 25.5q38 0 127 -32.5t116 -32.5q48 0 56 52l3 15h50l-3 -19q-8 -46 -35.5 -72t-69.5 -26zM451 165q-38 0 -127 33t-116 33q-48 0 -57 -53l-2 -15h-50l3 20q8 46 35 71.5t70 25.5
q38 0 127 -32.5t116 -32.5q48 0 56 52l3 15h50l-3 -19q-8 -46 -35.5 -72t-69.5 -26z" />
    <glyph glyph-name="notequal" unicode="&#x2260;" horiz-adv-x="650" 
d="M128 406l9 50h250l66 115h54l-66 -115h148l-9 -50h-167l-96 -167h233l-9 -49h-252l-66 -116h-54l66 116h-146l9 49h165l96 167h-231z" />
    <glyph glyph-name="lessequal" unicode="&#x2264;" horiz-adv-x="650" 
d="M128 366l9 50l463 179l-10 -59l-393 -148l342 -148l-9 -53zM506 50l-9 -50h-435l8 50h436z" />
    <glyph glyph-name="greaterequal" unicode="&#x2265;" horiz-adv-x="650" 
d="M573 416l-9 -50l-464 -179l10 59l392 148l-341 148l10 53zM511 50l-9 -50h-435l9 50h435z" />
    <glyph glyph-name="uni2295" unicode="&#x2295;" 
d="M770 347q0 -151 -103.5 -254.5t-254.5 -103.5t-254.5 103.5t-103.5 254.5t103.5 254.5t254.5 103.5t254.5 -103.5t103.5 -254.5zM438 42q113 9 191.5 88t87.5 192h-279v-280zM107 322q9 -113 87.5 -192t191.5 -88v280h-279zM438 652v-278h279q-9 112 -88 190.5t-191 87.5
zM386 652q-113 -10 -191.5 -88t-87.5 -190h279v278z" />
    <glyph glyph-name="uni2296" unicode="&#x2296;" 
d="M412 -11q-151 0 -254.5 103.5t-103.5 254.5t103.5 254.5t254.5 103.5t254.5 -103.5t103.5 -254.5t-103.5 -254.5t-254.5 -103.5zM412 41q122 0 208.5 80t96.5 200h-610q10 -120 97 -200t208 -80zM412 653q-121 0 -208 -80t-97 -200h610q-10 120 -96.5 200t-208.5 80z" />
    <glyph glyph-name="uni2297" unicode="&#x2297;" 
d="M770 347q0 -151 -103.5 -254.5t-254.5 -103.5t-254.5 103.5t-103.5 254.5t103.5 254.5t254.5 103.5t254.5 -103.5t103.5 -254.5zM106 347q0 -114 71 -198l198 198l-198 198q-71 -86 -71 -198zM412 41q112 0 198 71l-198 198l-198 -198q84 -71 198 -71zM412 653
q-114 0 -198 -71l198 -198l198 198q-86 71 -198 71zM718 347q0 112 -71 198l-198 -198l198 -198q71 84 71 198z" />
    <glyph glyph-name="uni2299" unicode="&#x2299;" 
d="M286 347q0 53 36.5 89.5t89.5 36.5t89.5 -36.5t36.5 -89.5t-36.5 -89.5t-89.5 -36.5t-89.5 36.5t-36.5 89.5zM106 347q0 -128 89 -217t217 -89q129 0 217.5 89t88.5 217q0 129 -88.5 217.5t-217.5 88.5q-128 0 -217 -88.5t-89 -217.5zM770 347q0 -151 -103.5 -254.5
t-254.5 -103.5t-254.5 103.5t-103.5 254.5t103.5 254.5t254.5 103.5t254.5 -103.5t103.5 -254.5z" />
    <glyph glyph-name="uni22A0" unicode="&#x22a0;" 
d="M759 0h-694v694h694v-694zM671 52l-259 258l-258 -258h517zM707 90v515l-258 -258zM670 642h-515l257 -258zM117 606v-517l258 258z" />
    <glyph glyph-name="uni2460" unicode="&#x2460;" horiz-adv-x="950" 
d="M475 715q-154 0 -261 -107t-107 -261t107 -261t261 -107t261 107t107 261q0 155 -106.5 261.5t-261.5 106.5zM475 767q177 0 298.5 -121.5t121.5 -298.5t-121.5 -298.5t-298.5 -121.5t-298.5 121.5t-121.5 298.5t121.5 298.5t298.5 121.5zM515 95h-56v440l-118 -86v61
l121 90h53v-505z" />
    <glyph glyph-name="uni2461" unicode="&#x2461;" horiz-adv-x="950" 
d="M319 95v52l188 200q65 67 65 123q0 39 -27.5 63.5t-70.5 24.5q-47 0 -76.5 -30t-29.5 -83h-58q1 74 46 118t118 44q70 0 112.5 -40t42.5 -97q0 -73 -84 -159l-155 -165h246v-51h-317zM475 715q-154 0 -261 -107t-107 -261t107 -261t261 -107t261 107t107 261
q0 155 -106.5 261.5t-261.5 106.5zM475 767q177 0 298.5 -121.5t121.5 -298.5t-121.5 -298.5t-298.5 -121.5t-298.5 121.5t-121.5 298.5t121.5 298.5t298.5 121.5z" />
    <glyph glyph-name="uni2462" unicode="&#x2462;" horiz-adv-x="950" 
d="M471 88q-74 0 -120 40t-48 107h58q2 -44 31.5 -71t78.5 -27q51 0 81.5 27t30.5 71q0 95 -122 95h-19v47h14q58 0 86.5 27.5t28.5 68.5q0 39 -28 62.5t-71 23.5q-46 0 -75.5 -28t-30.5 -75h-57q2 68 46.5 110t117.5 42q70 0 112.5 -39.5t42.5 -95.5q0 -39 -23 -70.5
t-59 -45.5q40 -9 67 -40t27 -82q0 -65 -45.5 -106t-123.5 -41zM475 715q-154 0 -261 -107t-107 -261t107 -261t261 -107t261 107t107 261q0 155 -106.5 261.5t-261.5 106.5zM475 767q177 0 298.5 -121.5t121.5 -298.5t-121.5 -298.5t-298.5 -121.5t-298.5 121.5
t-121.5 298.5t121.5 298.5t298.5 121.5z" />
    <glyph glyph-name="uni2463" unicode="&#x2463;" horiz-adv-x="950" 
d="M563 95h-54v118h-254v49l241 338h67v-337h73v-50h-73v-118zM509 263v269l-193 -269h193zM475 715q-154 0 -261 -107t-107 -261t107 -261t261 -107t261 107t107 261q0 155 -106.5 261.5t-261.5 106.5zM475 767q177 0 298.5 -121.5t121.5 -298.5t-121.5 -298.5
t-298.5 -121.5t-298.5 121.5t-121.5 298.5t121.5 298.5t298.5 121.5z" />
    <glyph glyph-name="uni2464" unicode="&#x2464;" horiz-adv-x="950" 
d="M473 135q53 0 84 33t31 87q0 52 -30.5 85.5t-77.5 33.5q-76 0 -103 -65h-55l33 289h258v-51h-213l-20 -172q37 47 109 47q65 0 110.5 -47t45.5 -120q0 -74 -47 -121.5t-125 -47.5q-74 0 -120 40.5t-48 107.5h57q2 -43 32 -71t79 -28zM475 715q-154 0 -261 -107t-107 -261
t107 -261t261 -107t261 107t107 261q0 155 -106.5 261.5t-261.5 106.5zM475 767q177 0 298.5 -121.5t121.5 -298.5t-121.5 -298.5t-298.5 -121.5t-298.5 121.5t-121.5 298.5t121.5 298.5t298.5 121.5z" />
    <glyph glyph-name="uni2465" unicode="&#x2465;" horiz-adv-x="950" 
d="M475 -73q-177 0 -298.5 121.5t-121.5 298.5t121.5 298.5t298.5 121.5t298.5 -121.5t121.5 -298.5t-121.5 -298.5t-298.5 -121.5zM475 -21q154 0 261 107t107 261q0 155 -106.5 261.5t-261.5 106.5q-154 0 -261 -107t-107 -261t107 -261t261 -107zM475 88q-82 0 -130.5 64
t-48.5 199q0 132 50 194.5t131 62.5q66 0 107.5 -36.5t43.5 -91.5h-57q-3 35 -29 57t-66 22q-55 0 -90 -47.5t-37 -156.5v-21q15 45 51.5 68t82.5 23q69 0 114.5 -45.5t45.5 -120.5q0 -78 -47.5 -124.5t-120.5 -46.5zM474 137q51 0 81.5 33t30.5 88q0 54 -30 86.5t-78 32.5
q-51 0 -82 -34t-31 -85q0 -55 30 -88t79 -33z" />
    <glyph glyph-name="uni2466" unicode="&#x2466;" horiz-adv-x="950" 
d="M315 547v53h317v-50l-198 -455h-60l196 452h-255zM475 715q-154 0 -261 -107t-107 -261t107 -261t261 -107t261 107t107 261q0 155 -106.5 261.5t-261.5 106.5zM475 767q177 0 298.5 -121.5t121.5 -298.5t-121.5 -298.5t-298.5 -121.5t-298.5 121.5t-121.5 298.5
t121.5 298.5t298.5 121.5z" />
    <glyph glyph-name="uni2467" unicode="&#x2467;" horiz-adv-x="950" 
d="M475 715q-154 0 -261 -107t-107 -261t107 -261t261 -107t261 107t107 261q0 155 -106.5 261.5t-261.5 106.5zM475 767q177 0 298.5 -121.5t121.5 -298.5t-121.5 -298.5t-298.5 -121.5t-298.5 121.5t-121.5 298.5t121.5 298.5t298.5 121.5zM479 88q-79 0 -125.5 40
t-46.5 104q0 43 24.5 77t65.5 48q-34 15 -54 47t-20 67q0 58 43.5 97.5t112.5 39.5q68 0 111.5 -39.5t43.5 -97.5q0 -35 -20 -67t-54 -47q41 -13 65.5 -47t24.5 -78q0 -64 -46.5 -104t-124.5 -40zM479 136q52 0 82.5 28t30.5 70q0 43 -30.5 71t-82.5 28q-53 0 -83.5 -28
t-30.5 -71t30.5 -70.5t83.5 -27.5zM479 378q44 0 71.5 26.5t27.5 66.5q0 38 -27.5 64t-71.5 26q-45 0 -72.5 -26t-27.5 -64q0 -40 27.5 -66.5t72.5 -26.5z" />
    <glyph glyph-name="uni2468" unicode="&#x2468;" horiz-adv-x="950" 
d="M475 767q177 0 298.5 -121.5t121.5 -298.5t-121.5 -298.5t-298.5 -121.5t-298.5 121.5t-121.5 298.5t121.5 298.5t298.5 121.5zM475 715q-154 0 -261 -107t-107 -261q0 -155 106.5 -261.5t261.5 -106.5q154 0 261 107t107 261t-107 261t-261 107zM475 606q82 0 130.5 -64
t48.5 -199q0 -132 -50 -194.5t-131 -62.5q-66 0 -107.5 36.5t-43.5 91.5h57q3 -35 29 -57t66 -22q55 0 90 47.5t37 156.5v21q-15 -45 -51.5 -68t-82.5 -23q-69 0 -114.5 45.5t-45.5 120.5q0 78 47.5 124.5t120.5 46.5zM476 557q-51 0 -81.5 -33t-30.5 -88q0 -54 30 -86.5
t78 -32.5q51 0 82 34t31 85q0 55 -30 88t-79 33z" />
    <glyph glyph-name="uni2469" unicode="&#x2469;" horiz-adv-x="950" 
d="M475 715q-154 0 -261 -107t-107 -261t107 -261t261 -107t261 107t107 261q0 155 -106.5 261.5t-261.5 106.5zM475 767q177 0 298.5 -121.5t121.5 -298.5t-121.5 -298.5t-298.5 -121.5t-298.5 121.5t-121.5 298.5t121.5 298.5t298.5 121.5zM551 89q-141 0 -141 260
q0 259 141 259t141 -259q0 -260 -141 -260zM551 140q43 0 64 48.5t21 160.5q0 111 -21 160t-64 49t-64 -49t-21 -160q0 -112 21 -160.5t64 -48.5zM301 95v505h55v-505h-55z" />
    <glyph glyph-name="uni25A0" unicode="&#x25a0;" 
d="M759 694v-694h-694v694h694z" />
    <glyph glyph-name="uni25A1" unicode="&#x25a1;" 
d="M759 694v-694h-694v694h694zM117 642v-590h590v590h-590z" />
    <glyph glyph-name="uni25B2" unicode="&#x25b2;" 
d="M412 705l355 -705h-709z" />
    <glyph glyph-name="uni25B3" unicode="&#x25b3;" 
d="M412 705l355 -705h-709zM143 52h540l-271 536z" />
    <glyph glyph-name="uni25B6" unicode="&#x25b6;" 
d="M60 702l705 -355l-705 -354v709z" />
    <glyph glyph-name="uni25B7" unicode="&#x25b7;" 
d="M60 701l705 -354l-705 -355v709zM112 617v-540l535 270z" />
    <glyph glyph-name="uni25BC" unicode="&#x25bc;" 
d="M767 694l-355 -705l-354 705h709z" />
    <glyph glyph-name="uni25BD" unicode="&#x25bd;" 
d="M767 694l-354 -705l-355 705h709zM683 642h-540l270 -535z" />
    <glyph glyph-name="uni25C0" unicode="&#x25c0;" 
d="M60 347l705 355v-709z" />
    <glyph glyph-name="uni25C1" unicode="&#x25c1;" 
d="M60 347l705 354v-709zM713 77v540l-535 -270z" />
    <glyph glyph-name="lozenge" unicode="&#x25ca;" horiz-adv-x="679" 
d="M45 347l327 347h53l222 -347l-327 -347h-54zM112 341l184 -290l283 302l-184 289z" />
    <glyph glyph-name="uni25CB" unicode="&#x25cb;" 
d="M106 347q0 -128 89 -217t217 -89q129 0 217.5 89t88.5 217q0 129 -88.5 217.5t-217.5 88.5q-128 0 -217 -88.5t-89 -217.5zM770 347q0 -151 -103.5 -254.5t-254.5 -103.5t-254.5 103.5t-103.5 254.5t103.5 254.5t254.5 103.5t254.5 -103.5t103.5 -254.5z" />
    <glyph glyph-name="uni25CF" unicode="&#x25cf;" 
d="M54 347q0 151 103.5 254.5t254.5 103.5t254.5 -103.5t103.5 -254.5t-103.5 -254.5t-254.5 -103.5t-254.5 103.5t-103.5 254.5z" />
    <glyph glyph-name="uni25D0" unicode="&#x25d0;" 
d="M412 653v-612q129 0 217.5 89t88.5 217q0 129 -88.5 217.5t-217.5 88.5zM412 -11q-151 0 -254.5 103.5t-103.5 254.5t103.5 254.5t254.5 103.5t254.5 -103.5t103.5 -254.5t-103.5 -254.5t-254.5 -103.5z" />
    <glyph glyph-name="uni25D1" unicode="&#x25d1;" 
d="M412 41v612q-128 0 -217 -88.5t-89 -217.5q0 -128 89 -217t217 -89zM412 -11q-151 0 -254.5 103.5t-103.5 254.5t103.5 254.5t254.5 103.5t254.5 -103.5t103.5 -254.5t-103.5 -254.5t-254.5 -103.5z" />
    <glyph glyph-name="uni25D2" unicode="&#x25d2;" 
d="M106 347h612q0 129 -88.5 217.5t-217.5 88.5q-128 0 -217 -88.5t-89 -217.5zM770 347q0 -151 -103.5 -254.5t-254.5 -103.5t-254.5 103.5t-103.5 254.5t103.5 254.5t254.5 103.5t254.5 -103.5t103.5 -254.5z" />
    <glyph glyph-name="uni25D3" unicode="&#x25d3;" 
d="M718 347h-612q0 -128 89 -217t217 -89q129 0 217.5 89t88.5 217zM770 347q0 -151 -103.5 -254.5t-254.5 -103.5t-254.5 103.5t-103.5 254.5t103.5 254.5t254.5 103.5t254.5 -103.5t103.5 -254.5z" />
    <glyph glyph-name="uni25D4" unicode="&#x25d4;" 
d="M770 347q0 -151 -103.5 -254.5t-254.5 -103.5t-254.5 103.5t-103.5 254.5t103.5 254.5t254.5 103.5t254.5 -103.5t103.5 -254.5zM718 347h-306v306q-128 0 -217 -88.5t-89 -217.5q0 -128 89 -217t217 -89q129 0 217.5 89t88.5 217z" />
    <glyph glyph-name="uni25D5" unicode="&#x25d5;" 
d="M412 347v306q-128 0 -217 -88.5t-89 -217.5h306zM412 -11q-151 0 -254.5 103.5t-103.5 254.5t103.5 254.5t254.5 103.5t254.5 -103.5t103.5 -254.5t-103.5 -254.5t-254.5 -103.5z" />
    <glyph glyph-name="uni25E7" unicode="&#x25e7;" 
d="M65 694h694v-694h-694v694zM707 52v590h-295v-590h295z" />
    <glyph glyph-name="uni25E8" unicode="&#x25e8;" 
d="M65 694h694v-694h-694v694zM117 642v-590h295v590h-295z" />
    <glyph glyph-name="uni25E9" unicode="&#x25e9;" 
d="M65 0v694h694v-694h-694zM707 52v590l-590 -590h590z" />
    <glyph glyph-name="uni25EA" unicode="&#x25ea;" 
d="M759 694v-694h-694v694h694zM117 642v-590l590 590h-590z" />
    <glyph glyph-name="uni2690" unicode="&#x2690;" 
d="M117 293v-293h-52v694h694v-401h-642zM117 642v-297h590v297h-590z" />
    <glyph glyph-name="uni2691" unicode="&#x2691;" 
d="M117 293v-293h-52v694h694v-401h-642z" />
    <glyph glyph-name="uni278A" unicode="&#x278a;" horiz-adv-x="950" 
d="M475 767q177 0 298.5 -121.5t121.5 -298.5t-121.5 -298.5t-298.5 -121.5t-298.5 121.5t-121.5 298.5t121.5 298.5t298.5 121.5zM459 95h56v505h-53l-121 -90v-61l118 86v-440z" />
    <glyph glyph-name="uni278B" unicode="&#x278b;" horiz-adv-x="950" 
d="M319 147v-52h317v51h-246l155 165q84 86 84 159q0 57 -42.5 97t-112.5 40q-73 0 -118 -44t-46 -118h58q0 53 29.5 83t76.5 30q43 0 70.5 -24.5t27.5 -63.5q0 -56 -65 -123zM475 767q177 0 298.5 -121.5t121.5 -298.5t-121.5 -298.5t-298.5 -121.5t-298.5 121.5
t-121.5 298.5t121.5 298.5t298.5 121.5z" />
    <glyph glyph-name="uni278C" unicode="&#x278c;" horiz-adv-x="950" 
d="M471 88q78 0 123.5 41t45.5 106q0 51 -27 82t-67 40q36 14 59 45.5t23 70.5q0 56 -42.5 95.5t-112.5 39.5q-73 0 -117.5 -42t-46.5 -110h57q1 47 30.5 75t75.5 28q43 0 71 -23.5t28 -62.5q0 -41 -28.5 -68.5t-86.5 -27.5h-14v-47h19q122 0 122 -95q0 -44 -30.5 -71
t-81.5 -27q-49 0 -78.5 27t-31.5 71h-58q2 -67 48 -107t120 -40zM475 767q177 0 298.5 -121.5t121.5 -298.5t-121.5 -298.5t-298.5 -121.5t-298.5 121.5t-121.5 298.5t121.5 298.5t298.5 121.5z" />
    <glyph glyph-name="uni278D" unicode="&#x278d;" horiz-adv-x="950" 
d="M509 95h54v118h73v50h-73v337h-67l-241 -338v-49h254v-118zM509 532v-269h-193zM475 767q177 0 298.5 -121.5t121.5 -298.5t-121.5 -298.5t-298.5 -121.5t-298.5 121.5t-121.5 298.5t121.5 298.5t298.5 121.5z" />
    <glyph glyph-name="uni278E" unicode="&#x278e;" horiz-adv-x="950" 
d="M473 135q-49 0 -79 28t-32 71h-57q2 -67 48 -107.5t120 -40.5q78 0 125 47.5t47 121.5q0 73 -45.5 120t-110.5 47q-72 0 -109 -47l20 172h213v51h-258l-33 -289h55q27 65 103 65q47 0 77.5 -33.5t30.5 -85.5q0 -54 -31 -87t-84 -33zM475 767q177 0 298.5 -121.5
t121.5 -298.5t-121.5 -298.5t-298.5 -121.5t-298.5 121.5t-121.5 298.5t121.5 298.5t298.5 121.5z" />
    <glyph glyph-name="uni278F" unicode="&#x278f;" horiz-adv-x="950" 
d="M475 -73q-177 0 -298.5 121.5t-121.5 298.5t121.5 298.5t298.5 121.5t298.5 -121.5t121.5 -298.5t-121.5 -298.5t-298.5 -121.5zM475 88q73 0 120.5 46.5t47.5 124.5q0 75 -45.5 120.5t-114.5 45.5q-46 0 -82.5 -23t-51.5 -68v21q2 109 37 156.5t90 47.5q40 0 66 -22
t29 -57h57q-2 55 -43.5 91.5t-107.5 36.5q-81 0 -131 -62.5t-50 -194.5q0 -135 48.5 -199t130.5 -64zM474 137q-49 0 -79 33t-30 88q0 51 31 85t82 34q48 0 78 -32.5t30 -86.5q0 -55 -30.5 -88t-81.5 -33z" />
    <glyph glyph-name="uni2790" unicode="&#x2790;" horiz-adv-x="950" 
d="M315 600v-53h255l-196 -452h60l198 455v50h-317zM475 767q177 0 298.5 -121.5t121.5 -298.5t-121.5 -298.5t-298.5 -121.5t-298.5 121.5t-121.5 298.5t121.5 298.5t298.5 121.5z" />
    <glyph glyph-name="uni2791" unicode="&#x2791;" horiz-adv-x="950" 
d="M475 767q177 0 298.5 -121.5t121.5 -298.5t-121.5 -298.5t-298.5 -121.5t-298.5 121.5t-121.5 298.5t121.5 298.5t298.5 121.5zM479 88q78 0 124.5 40t46.5 104q0 44 -24.5 78t-65.5 47q34 15 54 47t20 67q0 58 -43.5 97.5t-111.5 39.5q-69 0 -112.5 -39.5t-43.5 -97.5
q0 -35 20 -67t54 -47q-41 -14 -65.5 -48t-24.5 -77q0 -64 46.5 -104t125.5 -40zM479 136q-53 0 -83.5 27.5t-30.5 70.5t30.5 71t83.5 28q52 0 82.5 -28t30.5 -71q0 -42 -30.5 -70t-82.5 -28zM479 378q-45 0 -72.5 26.5t-27.5 66.5q0 38 27.5 64t72.5 26q44 0 71.5 -26
t27.5 -64q0 -40 -27.5 -66.5t-71.5 -26.5z" />
    <glyph glyph-name="uni2792" unicode="&#x2792;" horiz-adv-x="950" 
d="M475 767q177 0 298.5 -121.5t121.5 -298.5t-121.5 -298.5t-298.5 -121.5t-298.5 121.5t-121.5 298.5t121.5 298.5t298.5 121.5zM475 606q-73 0 -120.5 -46.5t-47.5 -124.5q0 -75 45.5 -120.5t114.5 -45.5q46 0 82.5 23t51.5 68v-21q-2 -109 -37 -156.5t-90 -47.5
q-40 0 -66 22t-29 57h-57q2 -55 43.5 -91.5t107.5 -36.5q81 0 131 62.5t50 194.5q0 135 -48.5 199t-130.5 64zM476 557q49 0 79 -33t30 -88q0 -51 -31 -85t-82 -34q-48 0 -78 32.5t-30 86.5q0 55 30.5 88t81.5 33z" />
    <glyph glyph-name="uni2793" unicode="&#x2793;" horiz-adv-x="950" 
d="M475 767q177 0 298.5 -121.5t121.5 -298.5t-121.5 -298.5t-298.5 -121.5t-298.5 121.5t-121.5 298.5t121.5 298.5t298.5 121.5zM551 89q141 0 141 260q0 259 -141 259t-141 -259q0 -260 141 -260zM551 140q-43 0 -64 48.5t-21 160.5q0 111 21 160t64 49t64 -49t21 -160
q0 -112 -21 -160.5t-64 -48.5zM301 600v-505h55v505h-55z" />
    <glyph glyph-name="uni29B6" unicode="&#x29b6;" 
d="M770 347q0 -151 -103.5 -254.5t-254.5 -103.5t-254.5 103.5t-103.5 254.5t103.5 254.5t254.5 103.5t254.5 -103.5t103.5 -254.5zM718 347q0 122 -80 209t-200 96v-610q120 10 200 96.5t80 208.5zM106 347q0 -122 80 -208.5t200 -96.5v610q-120 -10 -200 -96.5t-80 -208.5
z" />
    <glyph glyph-name="uni2B12" unicode="&#x2b12;" 
d="M759 694v-694h-694v694h694zM117 52h590v295h-590v-295z" />
    <glyph glyph-name="uni2B13" unicode="&#x2b13;" 
d="M759 694v-694h-694v694h694zM707 642h-590v-295h590v295z" />
    <glyph glyph-name="uni2B14" unicode="&#x2b14;" 
d="M759 694v-694h-694v694h694zM117 642v-590h590z" />
    <glyph glyph-name="uni2B15" unicode="&#x2b15;" 
d="M65 0v694h694v-694h-694zM707 52v590h-590z" />
    <glyph glyph-name="uni2B16" unicode="&#x2b16;" 
d="M413 -14l-361 361l361 361l361 -361zM700 347l-287 288v-575z" />
    <glyph glyph-name="uni2B17" unicode="&#x2b17;" 
d="M774 347l-361 -361l-361 361l361 361zM413 635l-286 -288l286 -287v575z" />
    <glyph glyph-name="uni2B18" unicode="&#x2b18;" 
d="M774 347l-361 -361l-361 361l361 361zM413 634l-287 -287h575z" />
    <glyph glyph-name="uni2B19" unicode="&#x2b19;" 
d="M413 708l361 -361l-361 -361l-361 361zM126 347l287 -286l288 286h-575z" />
    <glyph glyph-name="uni2B2C" unicode="&#x2b2c;" 
d="M412 126q-151 0 -254.5 64.5t-103.5 157.5t103.5 157.5t254.5 64.5t254.5 -64.5t103.5 -157.5t-103.5 -157.5t-254.5 -64.5z" />
    <glyph glyph-name="uni2B2D" unicode="&#x2b2d;" 
d="M412 175q128 0 216 50t88 123t-88 123t-216 50t-216 -50t-88 -123t88 -123t216 -50zM412 126q-151 0 -254.5 64.5t-103.5 157.5t103.5 157.5t254.5 64.5t254.5 -64.5t103.5 -157.5t-103.5 -157.5t-254.5 -64.5z" />
    <glyph glyph-name="uni2B2E" unicode="&#x2b2e;" 
d="M634 347q0 -151 -64.5 -254.5t-157.5 -103.5t-157.5 103.5t-64.5 254.5t64.5 254.5t157.5 103.5t157.5 -103.5t64.5 -254.5z" />
    <glyph glyph-name="uni2B2F" unicode="&#x2b2f;" 
d="M583 348q0 129 -49 216.5t-122 87.5t-122 -87.5t-49 -216.5q0 -128 49 -216t122 -88t122 88t49 216zM634 348q0 -151 -64.5 -254.5t-157.5 -103.5t-157.5 103.5t-64.5 254.5t64.5 254.5t157.5 103.5t157.5 -103.5t64.5 -254.5z" />
    <glyph glyph-name="commaaccent" unicode="&#xf6c3;" horiz-adv-x="203" 
d="M102 -45l-15 -86q-13 -77 -90 -77l6 37q38 0 45 40l3 14h-37l12 72h76z" />
    <glyph glyph-name="Jacute" horiz-adv-x="567" 
d="M615 886h79l-126 -137h-49zM234 41q73 0 123 46.5t64 126.5l84 480h56l-84 -483q-18 -99 -79.5 -160.5t-163.5 -61.5q-98 0 -147.5 52.5t-49.5 133.5q0 34 9 70h55q-8 -31 -8 -66q0 -67 37.5 -102.5t103.5 -35.5z" />
    <glyph glyph-name="i.trk" horiz-adv-x="230" 
d="M131 489h54l-86 -489h-54zM137 589l15 75h74l-14 -75h-75z" />
    <glyph glyph-name="jacute" horiz-adv-x="230" 
d="M-109 -173l9 47q19 -4 40 -4q82 0 100 101l91 518h54l-91 -516q-14 -80 -52.5 -116t-106.5 -36q-23 0 -44 6zM240 694h79l-126 -137h-49z" />
    <glyph glyph-name="ringacute" horiz-adv-x="314" 
d="M225 827h75l-83 -90q40 9 75.5 -19t35.5 -73q0 -40 -29 -68t-71 -28t-70.5 28t-28.5 68q0 32 20 62zM171 645q0 -25 16.5 -41t40.5 -16t41 16.5t17 40.5q0 25 -17 41.5t-41 16.5t-40.5 -16.5t-16.5 -41.5z" />
    <glyph glyph-name="commatop" horiz-adv-x="203" 
d="M105 553l16 86q13 77 90 77l-7 -37q-39 0 -44 -40l-3 -14h37l-13 -72h-76z" />
    <glyph glyph-name="caron.slovak" horiz-adv-x="240" 
d="M179 694h67l-97 -170h-42z" />
    <glyph glyph-name="parenleft.subs" horiz-adv-x="205" 
d="M69 36q0 -98 40 -174h-42q-46 78 -46 174q0 156 113 261h50q-115 -114 -115 -261z" />
    <glyph glyph-name="parenright.subs" horiz-adv-x="205" 
d="M79 123q0 99 -41 174h43q46 -81 46 -174q0 -155 -113 -261h-50q115 114 115 261z" />
    <glyph glyph-name="zero.dnom" horiz-adv-x="363" 
d="M146 36q40 0 68.5 40.5t39.5 86t11 83.5q0 95 -70 95q-40 0 -68.5 -40.5t-39.5 -86t-11 -83.5q0 -95 70 -95zM146 -5q-54 0 -85 35t-31 101q0 39 9.5 80.5t28 81t52.5 64.5t77 25q53 0 83.5 -35.5t30.5 -101.5q0 -54 -15 -108t-54.5 -98t-95.5 -44z" />
    <glyph glyph-name="one.dnom" horiz-adv-x="272" 
d="M141 0h-43l54 322l-114 -66l10 51l116 68h43z" />
    <glyph glyph-name="two.dnom" horiz-adv-x="325" 
d="M9 0l8 43l161 142q35 30 50.5 52t15.5 46q0 25 -18 41t-47 16q-35 0 -58 -22.5t-26 -60.5h-46q4 56 40.5 90t89.5 34q52 0 81.5 -26.5t29.5 -70.5q0 -56 -78 -124l-132 -116h174l-8 -44h-237z" />
    <glyph glyph-name="three.dnom" horiz-adv-x="339" 
d="M139 -6q-56 0 -90.5 28.5t-33.5 80.5h46q-2 -30 20 -49.5t59 -19.5q40 0 63 21t23 52q0 29 -21 45.5t-56 16.5h-18l7 42h18q40 0 65.5 18.5t25.5 50.5q0 29 -20.5 44.5t-50.5 15.5q-34 0 -56.5 -20.5t-26.5 -54.5h-45q5 51 40.5 83t89.5 32q52 0 83 -27.5t31 -70.5
q0 -31 -19 -56t-54 -37q53 -22 53 -82q0 -48 -35.5 -80.5t-97.5 -32.5z" />
    <glyph glyph-name="four.dnom" horiz-adv-x="357" 
d="M227 0h-43l15 84h-186l8 43l215 248h57l-44 -250h51l-7 -41h-51zM206 125l34 196l-171 -196h137z" />
    <glyph glyph-name="five.dnom" horiz-adv-x="336" 
d="M135 34q43 0 68 29t25 67q0 33 -20 53.5t-51 20.5q-51 0 -78 -48h-43l60 219h197l-9 -43h-157l-33 -115q29 27 75 27q45 0 74.5 -30.5t29.5 -82.5q0 -57 -38.5 -97t-102.5 -40q-53 0 -86 30t-31 78h46q-1 -30 20.5 -49t53.5 -19z" />
    <glyph glyph-name="six.dnom" horiz-adv-x="348" 
d="M145 -6q-57 0 -87 36t-30 102q0 54 15.5 108t55 97.5t95.5 43.5q50 0 80.5 -28.5t29.5 -69.5h-46q-3 28 -20 43t-45 15q-83 0 -115 -148q31 51 98 51q49 0 78.5 -29t29.5 -81q0 -57 -38.5 -98.5t-100.5 -41.5zM146 34q39 0 65.5 29t26.5 69q0 32 -19 52t-52 20
q-39 0 -65 -27.5t-26 -67.5q0 -33 19 -54t51 -21z" />
    <glyph glyph-name="seven.dnom" horiz-adv-x="313" 
d="M32 331l7 43h260l-7 -40l-206 -334h-51l205 331h-208z" />
    <glyph glyph-name="eight.dnom" horiz-adv-x="348" 
d="M144 -6q-58 0 -90.5 28t-32.5 74q0 34 20.5 61.5t59.5 39.5q-42 25 -42 76q0 47 36.5 77.5t89.5 30.5q50 0 81.5 -28.5t31.5 -69.5q0 -68 -70 -94q52 -24 52 -83q0 -49 -38 -80.5t-98 -31.5zM174 213q34 0 57 18.5t23 48.5q0 26 -20 43.5t-50 17.5q-34 0 -57 -19.5
t-23 -49.5q0 -25 20 -42t50 -17zM145 34q39 0 64 21t25 53q0 29 -21.5 46.5t-56.5 17.5q-40 0 -65 -20t-25 -51q0 -30 22 -48.5t57 -18.5z" />
    <glyph glyph-name="nine.dnom" horiz-adv-x="348" 
d="M186 381q57 0 87 -36t30 -102q0 -54 -15.5 -108t-55 -97.5t-95.5 -43.5q-50 0 -80.5 28.5t-29.5 69.5h46q3 -28 20 -43t45 -15q83 0 115 148q-31 -51 -98 -51q-49 0 -78.5 29t-29.5 81q0 57 38.5 98.5t100.5 41.5zM185 341q-39 0 -65.5 -29t-26.5 -69q0 -32 19 -52
t52 -20q39 0 65 27.5t26 67.5q0 33 -19 54t-51 21z" />
    <glyph glyph-name="parenleft.dnum" horiz-adv-x="205" 
d="M88 146q0 -98 40 -174h-42q-46 78 -46 174q0 156 113 261h50q-115 -114 -115 -261z" />
    <glyph glyph-name="parenright.dnum" horiz-adv-x="205" 
d="M98 233q0 99 -41 174h43q46 -81 46 -174q0 -155 -113 -261h-50q115 114 115 261z" />
    <glyph glyph-name="backslash.case" horiz-adv-x="406" 
d="M297 -59l-201 810h51l201 -810h-51z" />
    <glyph glyph-name="bar.case" horiz-adv-x="279" 
d="M60 -59l142 810h53l-143 -810h-52z" />
    <glyph glyph-name="braceleft.case" horiz-adv-x="345" 
d="M274 -11l-9 -48h-47q-118 0 -118 102q0 12 15 96q19 97 19 114q0 34 -19 49.5t-60 19.5l9 50q50 5 75.5 29.5t35.5 80.5l21 130q11 69 45 104t102 35h65l-9 -48h-55q-45 0 -67 -21.5t-30 -74.5l-22 -130q-10 -60 -35.5 -92.5t-71.5 -39.5q67 -16 67 -92q0 -22 -19 -119
q-14 -76 -14 -89q0 -56 64 -56h58z" />
    <glyph glyph-name="braceright.case" horiz-adv-x="345" 
d="M110 703l8 48h48q117 0 117 -102q0 -22 -19 -121q-14 -76 -14 -89q0 -34 18.5 -49.5t59.5 -19.5l-9 -50q-50 -5 -75.5 -30t-34.5 -80l-22 -130q-11 -69 -45 -104t-102 -35h-64l8 48h56q45 0 66.5 21t30.5 75l21 130q11 61 36.5 93t71.5 39q-67 16 -67 92q0 19 14 97
q18 92 18 111q0 56 -63 56h-58z" />
    <glyph glyph-name="bracketleft.case" horiz-adv-x="307" 
d="M361 703h-136l-125 -714h135l-8 -48h-188l143 810h187z" />
    <glyph glyph-name="bracketright.case" horiz-adv-x="307" 
d="M-16 -11h135l126 714h-136l9 48h187l-142 -810h-188z" />
    <glyph glyph-name="emdash.case" horiz-adv-x="967" 
d="M51 313l8 47h891l-9 -47h-890z" />
    <glyph glyph-name="endash.case" horiz-adv-x="472" 
d="M51 313l8 47h396l-9 -47h-395z" />
    <glyph glyph-name="guillemotleft.case" horiz-adv-x="477" 
d="M286 535l-154 -206l78 -194h-51l-89 200l160 200h56zM463 535l-154 -206l78 -194h-50l-90 200l160 200h56z" />
    <glyph glyph-name="guillemotright.case" horiz-adv-x="477" 
d="M218 135l154 206l-78 194h51l89 -200l-160 -200h-56zM41 135l154 206l-78 194h50l90 -200l-160 -200h-56z" />
    <glyph glyph-name="guilsinglleft.case" horiz-adv-x="299" 
d="M286 535l-154 -206l78 -194h-51l-89 200l160 200h56z" />
    <glyph glyph-name="guilsinglright.case" horiz-adv-x="299" 
d="M41 135l154 206l-78 194h50l90 -200l-160 -200h-56z" />
    <glyph glyph-name="hyphen.case" horiz-adv-x="373" 
d="M73 314l9 49h251l-10 -49h-250z" />
    <glyph glyph-name="parenleft.case" horiz-adv-x="283" 
d="M121 267q0 -182 88 -326h-56q-85 144 -85 326q0 292 214 484h64q-225 -206 -225 -484z" />
    <glyph glyph-name="parenright.case" horiz-adv-x="283" 
d="M199 425q0 181 -87 326h55q86 -143 86 -326q0 -291 -215 -484h-64q225 206 225 484z" />
    <glyph glyph-name="slash.case" horiz-adv-x="406" 
d="M463 751l-429 -810h-56l429 810h56z" />
    <glyph glyph-name="questiondown.case" horiz-adv-x="461" 
d="M257 449l4 23h50l-5 -27q-7 -42 -34 -74.5t-59 -53.5t-63.5 -42t-52.5 -52t-21 -71q0 -51 35 -81.5t95 -30.5q65 0 108.5 39t52.5 104h58q-11 -87 -71 -140.5t-148 -53.5q-83 0 -134.5 43.5t-51.5 118.5q0 50 22.5 88t55.5 61.5t66.5 44t60 47t32.5 57.5zM363 694
l-16 -90h-90l17 90h89z" />
    <glyph glyph-name="exclamdown.case" horiz-adv-x="264" 
d="M159 472h31l-47 -344l-22 -128h-59l23 128zM258 694l-16 -90h-90l17 90h89z" />
    <glyph glyph-name="zero.tf" horiz-adv-x="650" 
d="M288 -11q-87 0 -137.5 62.5t-50.5 173.5q0 53 8.5 112.5t30.5 126t54.5 119.5t86.5 87.5t121 34.5q88 0 138.5 -62t50.5 -174q0 -53 -8.5 -112.5t-30.5 -126t-55 -119.5t-87 -87.5t-121 -34.5zM292 38q54 0 97.5 33.5t70 83t44 110.5t24.5 111.5t7 90.5t-7 68l-352 -427
q34 -70 116 -70zM160 163l352 426q-35 67 -115 67q-53 0 -97 -33.5t-70 -83t-44 -110.5t-25 -111.5t-7 -90.5q0 -36 6 -64z" />
    <glyph glyph-name="one.tf" horiz-adv-x="650" 
d="M80 52h212l98 570l-213 -121l12 67l218 126h53l-113 -642h182l-10 -52h-448z" />
    <glyph glyph-name="two.tf" horiz-adv-x="650" 
d="M90 0l10 53l296 286q47 47 68 69.5t41 58.5t20 70q0 50 -37.5 83.5t-94.5 33.5q-68 0 -115.5 -43.5t-57.5 -126.5h-57q9 100 74 160.5t157 60.5q86 0 136.5 -49t50.5 -118q0 -42 -24 -87t-48.5 -72t-74.5 -76l-259 -251h335l-8 -52h-412z" />
    <glyph glyph-name="three.tf" horiz-adv-x="650" 
d="M303 -11q-93 0 -154 51t-53 152h56q-6 -78 38.5 -115.5t110.5 -37.5q80 0 129.5 45.5t49.5 113.5q0 58 -41.5 95.5t-111.5 37.5h-20l9 49h27q73 0 123.5 42.5t50.5 111.5q0 54 -38 87.5t-95 33.5q-68 0 -112.5 -41t-55.5 -112h-57q11 89 72.5 146t157.5 57q82 0 133 -49
t51 -119q0 -67 -41 -116.5t-98 -68.5q40 -11 71 -53t31 -102q0 -91 -66 -149.5t-167 -58.5z" />
    <glyph glyph-name="four.tf" horiz-adv-x="650" 
d="M431 0h-54l29 168h-348l9 50l415 476h71l-83 -475h101l-8 -51h-103zM415 219l71 403l-351 -403h280z" />
    <glyph glyph-name="five.tf" horiz-adv-x="650" 
d="M291 39q88 1 142 67t54 153q0 62 -37.5 102t-95.5 40q-104 0 -164 -102h-57l114 395h337l-9 -52h-291l-75 -261q53 70 154 70q75 0 128 -52t53 -137q0 -112 -73 -192.5t-184 -80.5q-85 0 -145.5 50.5t-53.5 152.5h56q-6 -74 36 -112.5t111 -40.5z" />
    <glyph glyph-name="six.tf" horiz-adv-x="650" 
d="M304 -11q-88 0 -140 59.5t-52 174.5q0 58 9.5 120t32 128t55.5 117t85.5 84t115.5 33q80 0 128 -45.5t48 -127.5h-57q-1 57 -33 90t-86 33q-81 0 -144 -79t-93 -253q27 60 81 94t116 34q81 0 133.5 -52.5t52.5 -138.5q0 -105 -71 -188t-181 -83zM305 39q82 0 137.5 65
t55.5 152q0 62 -35.5 103.5t-96.5 41.5q-82 0 -137.5 -64.5t-55.5 -151.5q0 -62 36 -104t96 -42z" />
    <glyph glyph-name="seven.tf" horiz-adv-x="650" 
d="M182 641l9 53h420l-8 -49l-390 -645h-63l387 641h-355z" />
    <glyph glyph-name="eight.tf" horiz-adv-x="650" 
d="M302 -11q-96 0 -154.5 52.5t-58.5 131.5q0 70 44.5 122t115.5 70q-39 23 -59 60t-20 80q0 85 63 142.5t156 57.5q83 0 133.5 -50.5t50.5 -123.5q0 -60 -36 -109.5t-97 -69.5q43 -17 70.5 -61.5t27.5 -94.5q0 -93 -69.5 -150t-166.5 -57zM358 381q67 0 113 42t46 109
q0 53 -36 88t-96 35q-67 0 -113 -41.5t-46 -108.5q0 -53 36 -88.5t96 -35.5zM300 38q75 0 128.5 41.5t53.5 114.5q0 58 -42.5 98t-112.5 40q-75 0 -128.5 -41.5t-53.5 -113.5q0 -59 42.5 -99t112.5 -40z" />
    <glyph glyph-name="nine.tf" horiz-adv-x="650" 
d="M362 705q87 0 139 -59.5t52 -174.5q0 -58 -9.5 -120t-32 -128t-55.5 -117t-85.5 -84t-115.5 -33q-79 0 -127 45.5t-49 127.5h57q1 -57 33 -90t86 -33q81 0 144.5 79t93.5 253q-27 -60 -81.5 -94t-116.5 -34q-81 0 -133 52.5t-52 138.5q0 105 70.5 188t181.5 83zM360 655
q-82 0 -137.5 -65.5t-55.5 -151.5q0 -62 35.5 -103.5t96.5 -41.5q82 0 137.5 64.5t55.5 151.5q0 62 -36 104t-96 42z" />
    <glyph glyph-name="cent.tf" horiz-adv-x="650" 
d="M291 0h-47l17 97q-69 13 -111.5 64.5t-42.5 134.5q0 118 66 206.5t176 96.5l17 95h47l-17 -95q67 -9 109.5 -55t41.5 -113h-55q1 50 -28 81t-76 37l-72 -406q52 4 91.5 35.5t54.5 84.5h56q-18 -76 -74.5 -122t-136.5 -48zM163 297q0 -63 28.5 -102t77.5 -49l71 403
q-78 -11 -127.5 -84.5t-49.5 -167.5z" />
    <glyph glyph-name="dollar.tf" horiz-adv-x="650" 
d="M279 -106h-46l17 103q-85 14 -130.5 68.5t-45.5 129.5h54q0 -58 33.5 -98.5t97.5 -51.5l51 289l-35 17q-122 57 -122 166q0 83 63.5 135.5t158.5 47.5l18 100h46l-18 -106q70 -16 110 -69t40 -123h-54q0 50 -28 89t-77 53l-49 -277l44 -21q121 -56 121 -168
q0 -77 -56.5 -131.5t-174.5 -54.5zM475 177q0 80 -85 120l-37 16l-47 -271q90 0 129.5 38.5t39.5 96.5zM207 517q0 -78 87 -118l25 -13l47 265q-75 3 -117 -37t-42 -97z" />
    <glyph glyph-name="yen.tf" horiz-adv-x="650" 
d="M87 182h191l16 90h-191l8 47h160l-170 375h59l165 -369l296 369h67l-302 -375h158l-8 -47h-187l-17 -90h188l-8 -47h-188l-24 -135h-55l24 135h-190z" />
    <glyph glyph-name="sterling.tf" horiz-adv-x="650" 
d="M95 284l8 48h77q-27 106 -27 156q0 95 58 156t157 61q90 0 146.5 -60t53.5 -161h-55q2 76 -37 123t-108 47q-78 0 -118 -46t-40 -120q0 -37 27 -156h234l-8 -48h-218q5 -22 5 -42q0 -118 -94 -190h351l-10 -52h-449l9 50q138 56 138 192q0 14 -4 42h-96z" />
    <glyph glyph-name="Euro.tf" horiz-adv-x="650" 
d="M78 441h77q35 118 107 191t168 73q95 0 146.5 -61.5t49.5 -160.5h-56q0 81 -37.5 125.5t-102.5 44.5q-75 0 -131 -58.5t-86 -153.5h230l-9 -47h-234q-11 -49 -14 -96h232l-8 -47h-226q0 -109 43.5 -160t114.5 -51q66 0 116.5 45t67.5 126h56q-19 -101 -85 -161.5
t-155 -60.5q-101 0 -157.5 66t-56.5 196h-83l8 47h77q3 53 13 96h-74z" />
    <glyph glyph-name="a.ord" horiz-adv-x="357" 
d="M331 320h-44l9 50q-45 -56 -121 -56q-48 0 -74 23.5t-26 62.5q0 85 116 105l130 21l1 9q2 16 2 20q0 28 -20 44t-54 16q-76 0 -90 -61h-49q7 49 45.5 75t93.5 26q53 0 86.5 -26t33.5 -73q0 -9 -4 -39zM182 355q45 0 81 27t46 78l5 26l-115 -18q-76 -14 -76 -65
q0 -48 59 -48z" />
    <glyph glyph-name="b.ord" horiz-adv-x="389" 
d="M279 655q61 0 97 -38.5t36 -104.5q0 -78 -44 -138t-122 -60q-80 0 -110 65l-10 -59h-45l82 465h47l-31 -177q40 47 100 47zM242 356q55 0 87.5 47t32.5 108q0 50 -24 75.5t-66 25.5q-55 0 -87 -47t-32 -108q0 -49 24 -75t65 -26z" />
    <glyph glyph-name="c.ord" horiz-adv-x="361" 
d="M226 314q-62 0 -101 38.5t-39 104.5q0 79 47 138.5t127 59.5q58 0 93.5 -33t34.5 -85h-49q1 34 -20.5 55t-59.5 21q-57 0 -90.5 -47t-33.5 -108q0 -48 24 -75t68 -27q35 0 62 19.5t34 56.5h50q-10 -56 -50.5 -87t-96.5 -31z" />
    <glyph glyph-name="d.ord" horiz-adv-x="389" 
d="M222 314q-61 0 -97 38.5t-36 104.5q0 78 44 138t122 60q77 0 108 -63l34 193h47l-82 -465h-45l7 42q-39 -48 -102 -48zM229 356q55 0 87.5 47t32.5 108q0 50 -24 75.5t-66 25.5q-54 0 -86.5 -47t-32.5 -108q0 -49 24 -75t65 -26z" />
    <glyph glyph-name="e.ord" horiz-adv-x="367" 
d="M86 456q0 83 48 141t127 58q59 0 95.5 -36t36.5 -94q0 -31 -7 -57h-251l-1 -6v-8q0 -43 23.5 -70.5t69.5 -27.5q35 0 62.5 17.5t34.5 47.5h50q-11 -50 -53 -78.5t-94 -28.5q-62 0 -101.5 38t-39.5 104zM141 508h202q2 6 2 17q0 40 -22 64t-63 24q-46 0 -76.5 -29
t-42.5 -76z" />
    <glyph glyph-name="f.ord" horiz-adv-x="236" 
d="M324 785l-7 -41q-36 4 -38 4q-53 0 -65 -65l-6 -34h92l-7 -42h-92l-50 -287h-47l50 287h-56l7 42h56l6 36q19 105 111 105q28 0 46 -5z" />
    <glyph glyph-name="g.ord" horiz-adv-x="384" 
d="M218 330q-61 0 -97 36.5t-36 99.5q0 74 44.5 131.5t121.5 57.5q79 0 108 -63l11 57h44l-56 -318q-25 -135 -160 -135q-59 0 -96 25.5t-37 78.5h50q3 -62 84 -62q94 0 112 97l7 40q-39 -45 -100 -45zM225 372q55 0 86.5 44.5t31.5 101.5q0 47 -23.5 71t-65.5 24
q-54 0 -86 -44.5t-32 -101.5q0 -46 24 -70.5t65 -24.5z" />
    <glyph glyph-name="h.ord" horiz-adv-x="376" 
d="M352 320h-47l30 176q5 25 5 50q0 66 -68 66q-43 0 -73.5 -30t-38.5 -79l-32 -183h-47l82 465h47l-32 -181q40 51 105 51q50 0 77.5 -29.5t27.5 -75.5q0 -14 -5 -52z" />
    <glyph glyph-name="i.ord" horiz-adv-x="161" 
d="M141 649h47l-57 -329h-47zM144 711l11 61h63l-11 -61h-63z" />
    <glyph glyph-name="j.ord" horiz-adv-x="161" 
d="M-19 204l7 42q18 -4 32 -4q50 0 61 65l60 342h47l-61 -348q-17 -101 -105 -101q-25 0 -41 4zM144 711l11 61h63l-11 -61h-63z" />
    <glyph glyph-name="k.ord" horiz-adv-x="344" 
d="M252 517l106 -197h-53l-90 169l-64 -52l-20 -117h-47l82 465h47l-51 -288l186 152h64z" />
    <glyph glyph-name="l.ord" horiz-adv-x="161" 
d="M166 785h47l-82 -465h-47z" />
    <glyph glyph-name="m.ord" horiz-adv-x="566" 
d="M573 497l-30 -177h-47l30 177q5 27 5 49q0 31 -15.5 49t-45.5 18q-37 0 -65.5 -28.5t-36.5 -77.5l-32 -187h-47l31 180q4 20 4 45q0 67 -60 67q-37 0 -66 -29.5t-38 -78.5l-32 -184h-47l58 329h44l-9 -49q39 55 102 55q70 0 90 -64q41 64 111 64q47 0 74.5 -28.5
t27.5 -76.5q0 -21 -6 -53z" />
    <glyph glyph-name="n.ord" horiz-adv-x="376" 
d="M128 320h-47l58 329h44l-9 -49q41 55 109 55q50 0 77.5 -29.5t27.5 -74.5q0 -15 -5 -52l-31 -179h-47l30 177q5 25 5 49q0 31 -18 48.5t-50 17.5q-43 0 -73.5 -30t-38.5 -79z" />
    <glyph glyph-name="o.ord" horiz-adv-x="376" 
d="M229 356q54 0 88 46.5t34 107.5q0 49 -24.5 76t-68.5 27q-55 0 -89 -46.5t-34 -107.5q0 -49 25 -76t69 -27zM228 314q-64 0 -103 38.5t-39 106.5q0 80 48 138t124 58q64 0 103 -38.5t39 -106.5q0 -81 -48 -138.5t-124 -57.5z" />
    <glyph glyph-name="p.ord" horiz-adv-x="389" 
d="M247 314q-79 0 -110 61l-30 -172h-47l79 446h44l-7 -44q39 50 103 50q61 0 97 -38t36 -105q0 -80 -44.5 -139t-120.5 -59zM242 356q55 0 87.5 47t32.5 108q0 50 -24 75.5t-66 25.5q-55 0 -87 -47t-32 -108q0 -49 24 -75t65 -26z" />
    <glyph glyph-name="q.ord" horiz-adv-x="389" 
d="M222 314q-61 0 -97 38.5t-36 104.5q0 78 44 138t122 60q80 0 110 -66l10 60h45l-79 -446h-47l27 156q-39 -45 -99 -45zM229 356q55 0 87.5 47t32.5 108q0 50 -24 75.5t-66 25.5q-54 0 -86.5 -47t-32.5 -108q0 -49 24 -75t65 -26z" />
    <glyph glyph-name="r.ord" horiz-adv-x="245" 
d="M312 652l-9 -46q-11 2 -32 2q-40 0 -71.5 -29.5t-40.5 -78.5l-31 -180h-47l58 329h44l-10 -58q42 64 106 64q9 0 33 -3z" />
    <glyph glyph-name="s.ord" horiz-adv-x="340" 
d="M115 559q0 41 33 68.5t89 27.5q57 0 94.5 -25.5t36.5 -74.5h-49q1 29 -23 44t-59 15t-54.5 -14.5t-19.5 -37.5q0 -34 51 -49l54 -15q80 -22 80 -85q0 -45 -36 -72t-96 -27q-59 0 -98.5 26t-38.5 81h49q0 -32 24 -49t65 -17q42 0 62.5 15t20.5 39q0 33 -47 47l-57 17
q-81 23 -81 86z" />
    <glyph glyph-name="t.ord" horiz-adv-x="245" 
d="M100 607l7 42h55l16 87h47l-17 -87h94l-7 -42h-94l-32 -180q-4 -26 -4 -33q0 -37 42 -37q22 0 44 6l-8 -42q-23 -7 -46 -7q-36 0 -57.5 20t-21.5 55q0 15 4 39l32 179h-54z" />
    <glyph glyph-name="u.ord" horiz-adv-x="371" 
d="M354 649h47l-58 -329h-45l10 49q-42 -55 -106 -55q-49 0 -75.5 29t-26.5 75q0 26 5 53l30 178h47l-30 -177q-5 -25 -5 -49q0 -32 17.5 -49.5t49.5 -17.5q40 0 69.5 30.5t37.5 78.5z" />
    <glyph glyph-name="v.ord" horiz-adv-x="335" 
d="M402 649l-181 -329h-55l-67 329h49l53 -278l149 278h52z" />
    <glyph glyph-name="w.ord" horiz-adv-x="502" 
d="M356 649l32 -276l127 276h51l-157 -329h-56l-31 266l-122 -266h-56l-41 329h48l30 -273l124 273h51z" />
    <glyph glyph-name="x.ord" horiz-adv-x="332" 
d="M106 320h-58l145 166l-87 163h53l67 -131l109 131h58l-144 -166l89 -163h-52l-69 129z" />
    <glyph glyph-name="y.ord" horiz-adv-x="335" 
d="M43 205l7 42q17 -5 36 -5q46 0 73 50l9 18l-68 339h49l52 -278l150 278h52l-201 -368q-24 -44 -50 -62.5t-65 -18.5q-27 0 -44 5z" />
    <glyph glyph-name="z.ord" horiz-adv-x="320" 
d="M121 649h251l-5 -35l-237 -252h190l-7 -42h-256l5 35l237 252h-186z" />
    </font>
</defs>
</svg>
