<?xml version="1.0" standalone="no"?>
<!DOCTYPE svg PUBLIC "-//W3C//DTD SVG 1.1//EN" "http://www.w3.org/Graphics/SVG/1.1/DTD/svg11.dtd" >
<svg xmlns="http://www.w3.org/2000/svg" xmlns:xlink="http://www.w3.org/1999/xlink" version="1.1">
<metadata>
Created by FontForge 20170731 at Mon Apr 16 00:15:01 2018
 By Aleksey,,,
Copyright (c) 2018 Schick Toikka. All rights reserved. Scto Grotesk A is a trademark of Schick Toikka. Unauthorised copying or modification of any of its data is illegal.
</metadata>
<defs>
<font id="SctoGroteskA-Medium" horiz-adv-x="825" >
  <font-face 
    font-family="Scto Grotesk A"
    font-weight="500"
    font-stretch="normal"
    units-per-em="1000"
    panose-1="2 11 6 5 3 1 1 1 1 1"
    ascent="800"
    descent="-200"
    x-height="493"
    cap-height="694"
    bbox="-200 -234 1216 943"
    underline-thickness="39"
    underline-position="-251"
    unicode-range="U+0020-FB02"
  />
<missing-glyph horiz-adv-x="630" 
d="M575 694v-869h-520v869h520zM338 261l195 -351v703zM314 217l-194 -350h388zM289 261l-192 348v-695zM122 652l192 -347l192 347h-384z" />
    <glyph glyph-name="fi" unicode="fi" horiz-adv-x="624" 
d="M447 493h101v-493h-101v493zM439 578v101h117v-101h-117zM346 696v-85q-24 6 -59 6q-40 0 -59 -19.5t-19 -62.5v-42h137v-85h-137v-408h-100v408h-79v85h79v49q0 79 43 120t120 41q45 0 74 -7z" />
    <glyph glyph-name="fl" unicode="fl" horiz-adv-x="624" 
d="M447 694h101v-694h-101v694zM346 696v-85q-24 6 -59 6q-40 0 -59 -19.5t-19 -62.5v-42h137v-85h-137v-408h-100v408h-79v85h79v49q0 79 43 120t120 41q45 0 74 -7z" />
    <glyph glyph-name=".notdef" horiz-adv-x="630" 
d="M575 694v-869h-520v869h520zM338 261l195 -351v703zM314 217l-194 -350h388zM289 261l-192 348v-695zM122 652l192 -347l192 347h-384z" />
    <glyph glyph-name=".null" horiz-adv-x="0" 
 />
    <glyph glyph-name="nonmarkingreturn" horiz-adv-x="333" 
 />
    <glyph glyph-name="space" unicode=" " horiz-adv-x="217" 
 />
    <glyph glyph-name="exclam" unicode="!" horiz-adv-x="289" 
d="M178 244h-67l-20 318v132h106v-132zM81 0v127h127v-127h-127z" />
    <glyph glyph-name="quotedbl" unicode="&#x22;" horiz-adv-x="416" 
d="M166 694l-17 -252h-73l-17 252h107zM357 694l-17 -252h-74l-16 252h107z" />
    <glyph glyph-name="numbersign" unicode="#" horiz-adv-x="708" 
d="M95 430v76h124l27 168h80l-26 -168h146l26 168h80l-26 -168h127v-76h-138l-26 -167h124v-76h-135l-26 -166h-80l25 166h-146l-25 -166h-80l25 166h-116v76h127l26 167h-113zM289 430l-26 -167h146l26 167h-146z" />
    <glyph glyph-name="dollar" unicode="$" horiz-adv-x="614" 
d="M77 504q0 77 53.5 130t142.5 62v104h74v-104q91 -11 146.5 -66t56.5 -138h-103q-9 99 -100 119v-221l63 -16q71 -19 110.5 -64t39.5 -115q0 -82 -57.5 -136.5t-155.5 -61.5v-103h-74v104q-102 9 -159 65t-61 149h101q4 -52 35.5 -85.5t83.5 -43.5v229l-45 12
q-72 18 -111.5 64t-39.5 116zM376 285l-29 8v-212q53 6 83.5 34t30.5 72q0 77 -85 98zM177 510q0 -73 78 -96q1 0 9 -2.5t9 -2.5v203q-45 -7 -70.5 -34t-25.5 -68z" />
    <glyph glyph-name="percent" unicode="%" horiz-adv-x="868" 
d="M269 0h-84l412 694h84zM129 528q0 -51 23.5 -80t63.5 -29t63.5 29t23.5 80q0 50 -23.5 79t-63.5 29t-63.5 -29t-23.5 -79zM384 528q0 -84 -49.5 -130.5t-118.5 -46.5t-118.5 46.5t-49.5 130.5t49.5 130.5t118.5 46.5t118.5 -46.5t49.5 -130.5zM565 166q0 -50 24 -79.5
t63 -29.5t63 29.5t24 79.5t-24 79.5t-63 29.5t-63 -29.5t-24 -79.5zM820 166q0 -84 -49.5 -130.5t-118.5 -46.5t-119 46.5t-50 130.5t50 130.5t119 46.5t118.5 -46.5t49.5 -130.5z" />
    <glyph glyph-name="ampersand" unicode="&#x26;" horiz-adv-x="715" 
d="M573 0l-61 62q-87 -73 -222 -73q-112 0 -179 51t-67 138q0 113 160 193q-78 85 -78 165q0 70 52 119.5t140 49.5q90 0 139 -48t49 -115q0 -111 -155 -190l158 -159q40 67 40 172h93q0 -142 -67 -238l127 -127h-129zM296 73q93 0 152 52l-183 184q-62 -31 -89.5 -61
t-27.5 -70q0 -48 40 -76.5t108 -28.5zM225 537q0 -56 66 -124q63 31 90.5 61t27.5 69q0 37 -25 60.5t-66 23.5q-43 0 -68 -26t-25 -64z" />
    <glyph glyph-name="quotesingle" unicode="'" horiz-adv-x="225" 
d="M166 694l-17 -252h-73l-17 252h107z" />
    <glyph glyph-name="parenleft" unicode="(" horiz-adv-x="322" 
d="M158 305q4 -221 143 -407h-97q-64 86 -102.5 192.5t-38.5 214.5t38.5 214.5t102.5 192.5h97q-139 -186 -143 -407z" />
    <glyph glyph-name="parenright" unicode=")" horiz-adv-x="322" 
d="M164 305q-4 221 -143 407h97q64 -86 103 -192.5t39 -214.5t-39 -214.5t-103 -192.5h-97q139 186 143 407z" />
    <glyph glyph-name="asterisk" unicode="*" horiz-adv-x="445" 
d="M153 368l-60 42l74 97l-116 36l23 70l114 -40l-1 121h74l-4 -121l114 40l23 -70l-116 -36l74 -97l-60 -42l-70 99z" />
    <glyph glyph-name="plus" unicode="+" horiz-adv-x="650" 
d="M87 281v83h195v196h85v-196h196v-83h-196v-197h-85v197h-195z" />
    <glyph glyph-name="comma" unicode="," horiz-adv-x="279" 
d="M203 127v-150q0 -64 -37.5 -98.5t-106.5 -34.5v61q76 1 76 71v24h-59v127h127z" />
    <glyph glyph-name="hyphen" unicode="-" horiz-adv-x="388" 
d="M59 223v91h270v-91h-270z" />
    <glyph glyph-name="period" unicode="." horiz-adv-x="279" 
d="M76 0v127h127v-127h-127z" />
    <glyph glyph-name="slash" unicode="/" horiz-adv-x="449" 
d="M419 712l-297 -814h-92l297 814h92z" />
    <glyph glyph-name="zero" unicode="0" horiz-adv-x="629" 
d="M314 -11q-115 0 -186 87.5t-71 270.5t71 270.5t186 87.5t186.5 -87.5t71.5 -270.5t-71.5 -270.5t-186.5 -87.5zM314 77q149 0 149 270t-149 270t-149 -270t149 -270z" />
    <glyph glyph-name="one" unicode="1" horiz-adv-x="421" 
d="M305 0h-103v580l-157 -112v109l162 117h98v-694z" />
    <glyph glyph-name="two" unicode="2" horiz-adv-x="575" 
d="M66 0v92l263 267q81 79 81 153q0 48 -33 77.5t-86 29.5q-59 0 -94 -36.5t-35 -105.5h-106q1 108 63.5 168t171.5 60q102 0 163.5 -55t61.5 -138q0 -98 -116 -218l-198 -201h322v-93h-458z" />
    <glyph glyph-name="three" unicode="3" horiz-adv-x="598" 
d="M298 -11q-113 0 -178 55.5t-67 151.5h107q3 -55 39 -88.5t98 -33.5q61 0 98.5 34t37.5 87q0 116 -154 116h-30v86h21q72 0 109 32.5t37 83.5q0 48 -33.5 77.5t-86.5 29.5q-56 0 -90 -33t-37 -89h-106q4 96 64.5 151.5t170.5 55.5q104 0 164 -55t60 -135q0 -53 -30.5 -95
t-79.5 -60q52 -12 89 -55t37 -110q0 -91 -64.5 -148.5t-175.5 -57.5z" />
    <glyph glyph-name="four" unicode="4" horiz-adv-x="639" 
d="M493 0h-101v154h-347v90l323 450h125v-451h94v-89h-94v-154zM392 243v335l-239 -335h239z" />
    <glyph glyph-name="five" unicode="5" horiz-adv-x="582" 
d="M293 -11q-113 0 -177.5 56.5t-66.5 150.5h107q2 -54 38.5 -88t96.5 -34q66 0 104 40.5t38 106.5q0 65 -38 106.5t-95 41.5q-45 0 -78 -21.5t-48 -59.5h-99l42 406h375v-93h-291l-24 -207q51 58 147 58q88 0 151.5 -64t63.5 -167q0 -101 -66.5 -166.5t-179.5 -65.5z" />
    <glyph glyph-name="six" unicode="6" horiz-adv-x="612" 
d="M313 -11q-120 0 -188 88.5t-68 271.5t71.5 269.5t189.5 86.5q98 0 156.5 -51t63.5 -131h-107q-5 45 -35.5 71t-80.5 26q-153 0 -156 -270q25 51 72.5 77t103.5 26q94 0 157.5 -62t63.5 -167q0 -109 -70 -172t-173 -63zM312 74q63 0 100.5 41t37.5 108q0 65 -37.5 105.5
t-96.5 40.5q-60 0 -98.5 -42t-38.5 -104q0 -67 36.5 -108t96.5 -41z" />
    <glyph glyph-name="seven" unicode="7" horiz-adv-x="543" 
d="M46 598v96h452v-90l-265 -604h-112l261 598h-336z" />
    <glyph glyph-name="eight" unicode="8" horiz-adv-x="617" 
d="M309 -11q-116 0 -182.5 54.5t-66.5 146.5q0 57 33.5 104.5t89.5 65.5q-46 21 -73.5 63t-27.5 89q0 83 62.5 138t164.5 55q101 0 163.5 -55t62.5 -138q0 -47 -27 -89t-74 -63q56 -18 89.5 -65.5t33.5 -104.5q0 -92 -66.5 -146.5t-181.5 -54.5zM309 72q65 0 103.5 34
t38.5 87q0 54 -38.5 88.5t-103.5 34.5q-66 0 -104 -34.5t-38 -88.5q0 -53 38 -87t104 -34zM309 397q55 0 88 32.5t33 82.5q0 48 -33 79t-88 31t-89 -31t-34 -79q0 -50 34 -82.5t89 -32.5z" />
    <glyph glyph-name="nine" unicode="9" horiz-adv-x="612" 
d="M299 705q120 0 188.5 -88.5t68.5 -271.5t-72 -269.5t-190 -86.5q-98 0 -156.5 51t-62.5 131h106q5 -45 35.5 -71t80.5 -26q153 0 156 270q-25 -51 -72 -77t-104 -26q-94 0 -157 62t-63 167q0 109 69.5 172t172.5 63zM300 620q-63 0 -100.5 -41t-37.5 -108
q0 -65 37.5 -105.5t96.5 -40.5q60 0 98.5 42t38.5 104q0 67 -36.5 108t-96.5 41z" />
    <glyph glyph-name="colon" unicode=":" horiz-adv-x="289" 
d="M81 0v127h127v-127h-127zM81 366v127h127v-127h-127z" />
    <glyph glyph-name="semicolon" unicode=";" horiz-adv-x="289" 
d="M81 366v127h127v-127h-127zM208 127v-150q0 -64 -37.5 -98.5t-106.5 -34.5v61q76 1 76 71v24h-59v127h127z" />
    <glyph glyph-name="less" unicode="&#x3c;" horiz-adv-x="650" 
d="M87 281v84l444 198v-91l-342 -149l342 -148v-93z" />
    <glyph glyph-name="equal" unicode="=" horiz-adv-x="650" 
d="M92 171v83h466v-83h-466zM92 391v83h466v-83h-466z" />
    <glyph glyph-name="greater" unicode="&#x3e;" horiz-adv-x="650" 
d="M563 365v-84l-444 -199v93l342 148l-342 149v91z" />
    <glyph glyph-name="question" unicode="?" horiz-adv-x="494" 
d="M471 522q0 -37 -14 -67.5t-35 -48.5t-46 -36t-46 -32t-35.5 -34t-14.5 -43v-17h-85v17q-1 42 16 74t42.5 51.5t51 37.5t43.5 42.5t18 54.5q0 40 -31.5 69t-82.5 29q-56 0 -89 -32t-36 -87h-104q5 95 63.5 150t165.5 55q98 0 158.5 -52.5t60.5 -130.5zM174 0v127h127v-127
h-127z" />
    <glyph glyph-name="at" unicode="@" horiz-adv-x="939" 
d="M441 17q-85 0 -141 61.5t-56 167.5t56 167.5t140 61.5q98 0 149 -72v63h86v-328q0 -50 33 -50q43 0 73 59t30 151q0 128 -88 216.5t-242 88.5q-153 0 -251 -103.5t-98 -255.5q0 -151 96 -248.5t243 -97.5q84 0 160 26v-67q-73 -21 -161 -21q-124 0 -219 56.5
t-143.5 148.5t-48.5 202q0 185 121 304t301 119q182 0 290 -107.5t108 -257.5q0 -130 -54 -207t-133 -77q-40 0 -67.5 18t-35.5 52q-53 -70 -148 -70zM464 90q61 0 94 43t33 113t-33 113t-94 43q-60 0 -93 -43t-33 -113t33 -113t93 -43z" />
    <glyph glyph-name="A" unicode="A" horiz-adv-x="726" 
d="M589 0l-69 178h-316l-70 -178h-110l272 694h133l273 -694h-113zM362 599l-126 -330h252z" />
    <glyph glyph-name="B" unicode="B" horiz-adv-x="688" 
d="M87 0v694h290q111 0 169 -48t58 -137q0 -49 -26 -88.5t-68 -57.5q54 -13 90.5 -56.5t36.5 -109.5q0 -92 -62 -144.5t-180 -52.5h-308zM494 501q0 103 -132 103h-168v-206h168q66 0 99 24t33 79zM527 200q0 60 -35.5 86t-104.5 26h-193v-223h192q141 0 141 111z" />
    <glyph glyph-name="C" unicode="C" horiz-adv-x="736" 
d="M160 347q0 -120 63 -193t160 -73q74 0 127.5 43t66.5 115h113q-14 -115 -98.5 -182.5t-208.5 -67.5q-151 0 -243.5 98.5t-92.5 259.5t92.5 259.5t243.5 98.5q124 0 208.5 -67.5t98.5 -182.5h-113q-13 72 -66.5 115t-127.5 43q-97 0 -160 -73t-63 -193z" />
    <glyph glyph-name="D" unicode="D" horiz-adv-x="738" 
d="M691 347q0 -156 -91 -251.5t-257 -95.5h-257v694h257q165 0 256.5 -95.5t91.5 -251.5zM578 347q0 118 -63.5 186t-174.5 68h-147v-508h147q111 0 174.5 68t63.5 186z" />
    <glyph glyph-name="E" unicode="E" horiz-adv-x="649" 
d="M87 0v694h500v-94h-393v-199h357v-92h-357v-214h399v-95h-506z" />
    <glyph glyph-name="F" unicode="F" horiz-adv-x="596" 
d="M87 0v694h476v-94h-369v-205h324v-93h-324v-302h-107z" />
    <glyph glyph-name="G" unicode="G" horiz-adv-x="777" 
d="M396 274v91h302v-365h-95v109q-75 -120 -236 -120q-143 0 -231.5 100.5t-88.5 257.5q0 160 92.5 259t244.5 99q121 0 207 -65t103 -180h-113q-13 71 -68.5 112t-126.5 41q-101 0 -163.5 -74t-62.5 -192q0 -119 62 -193t161 -74q84 0 146 50.5t68 143.5h-201z" />
    <glyph glyph-name="H" unicode="H" horiz-adv-x="757" 
d="M87 0v694h107v-286h369v286h106v-694h-106v312h-369v-312h-107z" />
    <glyph glyph-name="I" unicode="I" horiz-adv-x="280" 
d="M87 0v694h107v-694h-107z" />
    <glyph glyph-name="J" unicode="J" horiz-adv-x="610" 
d="M285 82q67 0 105 42.5t38 121.5v448h107v-447q0 -117 -61 -187.5t-189 -70.5t-189 71t-61 187v22h108v-23q0 -79 38 -121.5t104 -42.5z" />
    <glyph glyph-name="K" unicode="K" horiz-adv-x="691" 
d="M87 0v694h107v-346l343 346h136l-286 -291l284 -403h-131l-234 333l-112 -112v-221h-107z" />
    <glyph glyph-name="L" unicode="L" horiz-adv-x="593" 
d="M87 0v694h107v-597h364v-97h-471z" />
    <glyph glyph-name="M" unicode="M" horiz-adv-x="918" 
d="M402 0l-213 577v-577h-103v694h158l216 -582l216 582h157v-694h-103v577l-214 -577h-114z" />
    <glyph glyph-name="N" unicode="N" horiz-adv-x="767" 
d="M680 694v-694h-136l-354 567v-567h-103v694h136l354 -568v568h103z" />
    <glyph glyph-name="O" unicode="O" horiz-adv-x="772" 
d="M725 347q0 -162 -93 -260t-246 -98t-246 98t-93 260t93 260t246 98t246 -98t93 -260zM613 347q0 121 -64 193.5t-163 72.5t-162.5 -72.5t-63.5 -193.5t63.5 -193.5t162.5 -72.5t163 72.5t64 193.5z" />
    <glyph glyph-name="P" unicode="P" horiz-adv-x="652" 
d="M619 476q0 -217 -258 -217h-167v-259h-107v694h274q258 0 258 -218zM508 476q0 67 -36 97.5t-116 30.5h-162v-255h162q80 0 116 30.5t36 96.5z" />
    <glyph glyph-name="Q" unicode="Q" horiz-adv-x="772" 
d="M386 -11q-153 0 -246 98t-93 260t93 260t246 98t246 -98t93 -260q0 -101 -37.5 -179.5t-106.5 -123.5l138 -169h-127l-106 128q-48 -14 -100 -14zM386 81q99 0 163 72.5t64 193.5t-64 193.5t-163 72.5t-162.5 -72.5t-63.5 -193.5t63.5 -193.5t162.5 -72.5z" />
    <glyph glyph-name="R" unicode="R" horiz-adv-x="706" 
d="M87 0v694h303q120 0 183.5 -52t63.5 -151q0 -74 -39.5 -123t-109.5 -68l180 -300h-121l-170 283h-183v-283h-107zM194 373h186q146 0 146 115q0 116 -146 116h-186v-231z" />
    <glyph glyph-name="S" unicode="S" horiz-adv-x="662" 
d="M336 -11q-132 0 -208.5 58t-80.5 165h111q4 -62 54 -98.5t127 -36.5q75 0 120.5 30.5t45.5 80.5q0 71 -94 93l-182 42q-162 37 -162 185q0 88 72.5 142.5t184.5 54.5q118 0 194 -56t77 -156h-111q-5 62 -48 93t-111 31q-67 0 -109.5 -29t-42.5 -76q0 -72 93 -93l182 -42
q77 -17 120 -64t43 -121q0 -92 -74.5 -147.5t-200.5 -55.5z" />
    <glyph glyph-name="T" unicode="T" horiz-adv-x="640" 
d="M27 597v97h586v-97h-240v-597h-107v597h-239z" />
    <glyph glyph-name="U" unicode="U" horiz-adv-x="713" 
d="M356 -11q-130 0 -206.5 71.5t-76.5 210.5v423h107v-423q0 -89 47.5 -139t128.5 -50q82 0 129.5 50t47.5 139v423h107v-423q0 -139 -76.5 -210.5t-207.5 -71.5z" />
    <glyph glyph-name="V" unicode="V" horiz-adv-x="681" 
d="M135 694l205 -584l209 584h111l-253 -694h-136l-250 694h114z" />
    <glyph glyph-name="W" unicode="W" horiz-adv-x="1024" 
d="M812 0h-138l-162 585l-161 -585h-138l-184 694h110l150 -582l160 582h128l160 -583l151 583h107z" />
    <glyph glyph-name="X" unicode="X" horiz-adv-x="681" 
d="M147 0h-125l254 346l-254 348h131l187 -266l191 266h126l-253 -346l255 -348h-130l-190 266z" />
    <glyph glyph-name="Y" unicode="Y" horiz-adv-x="659" 
d="M275 0v263l-275 431h126l205 -327l206 327h121l-276 -432v-262h-107z" />
    <glyph glyph-name="Z" unicode="Z" horiz-adv-x="641" 
d="M71 694h513v-82l-404 -517h420v-95h-559v82l404 517h-374v95z" />
    <glyph glyph-name="bracketleft" unicode="[" horiz-adv-x="341" 
d="M306 633h-128v-656h128v-79h-219v814h219v-79z" />
    <glyph glyph-name="backslash" unicode="\" horiz-adv-x="449" 
d="M327 -102l-297 814h92l297 -814h-92z" />
    <glyph glyph-name="bracketright" unicode="]" horiz-adv-x="341" 
d="M253 -102h-218v79h128v656h-128v79h218v-814z" />
    <glyph glyph-name="asciicircum" unicode="^" horiz-adv-x="474" 
d="M34 444l162 250h82l162 -250h-93l-111 170l-109 -170h-93z" />
    <glyph glyph-name="underscore" unicode="_" horiz-adv-x="500" 
d="M39 -110v79h422v-79h-422z" />
    <glyph glyph-name="grave" unicode="`" horiz-adv-x="283" 
d="M20 694h116l71 -142h-79z" />
    <glyph glyph-name="a" unicode="a" horiz-adv-x="559" 
d="M489 0h-92v77q-55 -86 -182 -86q-71 0 -119 37t-48 105q0 63 43.5 100t115.5 50l184 31v21q0 90 -115 90q-103 0 -109 -78h-102q4 76 62 116t149 40q102 0 157.5 -44t55.5 -134v-325zM237 69q63 0 108.5 36t45.5 103v31l-155 -26q-89 -16 -89 -79q0 -30 23.5 -47.5
t66.5 -17.5z" />
    <glyph glyph-name="b" unicode="b" horiz-adv-x="604" 
d="M338 503q95 0 158 -69t63 -188q0 -118 -63 -186.5t-157 -68.5q-112 0 -168 79v-70h-96v694h101v-268q56 77 162 77zM312 421q-68 0 -105.5 -49t-37.5 -126q0 -76 37.5 -125t105.5 -49q67 0 104.5 49t37.5 125q0 77 -37.5 126t-104.5 49z" />
    <glyph glyph-name="c" unicode="c" horiz-adv-x="563" 
d="M149 247q0 -78 38 -126.5t104 -48.5q47 0 81 27.5t40 73.5h104q-9 -84 -70 -133t-155 -49q-111 0 -179 69t-68 187t68 187t179 69q94 0 155 -49.5t70 -133.5h-104q-6 47 -39.5 74t-81.5 27q-66 0 -104 -48t-38 -126z" />
    <glyph glyph-name="d" unicode="d" horiz-adv-x="604" 
d="M267 503q104 0 162 -77v268h100v-694h-96v70q-55 -79 -168 -79q-94 0 -157 68.5t-63 186.5q0 119 63 188t159 69zM293 421q-68 0 -105.5 -49t-37.5 -126q0 -76 37.5 -125t105.5 -49q67 0 104.5 49t37.5 125q0 77 -37.5 126t-104.5 49z" />
    <glyph glyph-name="e" unicode="e" horiz-adv-x="573" 
d="M44 247q0 116 67.5 186t176.5 70t173 -66t64 -187v-34h-378q2 -60 39.5 -103t99.5 -43q47 0 81 22t46 62h104q-16 -79 -78.5 -121t-151.5 -42q-107 0 -175 68.5t-68 187.5zM148 290h275q-3 62 -40 98.5t-93 36.5q-57 0 -95.5 -37t-46.5 -98z" />
    <glyph glyph-name="f" unicode="f" horiz-adv-x="373" 
d="M346 696v-85q-24 6 -59 6q-40 0 -59 -19.5t-19 -62.5v-42h137v-85h-137v-408h-100v408h-79v85h79v49q0 79 43 120t120 41q45 0 74 -7z" />
    <glyph glyph-name="g" unicode="g" horiz-adv-x="597" 
d="M522 493v-464q0 -104 -64 -159.5t-171 -55.5q-110 0 -167.5 42.5t-60.5 114.5h102q9 -79 125 -79q136 0 136 129v63q-57 -69 -152 -69q-94 0 -159.5 65t-65.5 177q0 114 64.5 180t157.5 66q104 0 159 -76v66h96zM150 259q0 -72 36 -117.5t102 -45.5q67 0 103.5 45.5
t36.5 117.5t-36.5 117.5t-103.5 45.5q-65 0 -101.5 -45.5t-36.5 -117.5z" />
    <glyph glyph-name="h" unicode="h" horiz-adv-x="581" 
d="M411 0v289q0 130 -107 130q-60 0 -94 -42t-34 -105v-272h-101v694h101v-271q53 80 161 80q84 0 129 -50.5t45 -139.5v-313h-100z" />
    <glyph glyph-name="i" unicode="i" horiz-adv-x="252" 
d="M75 493h101v-493h-101v493zM67 578v101h117v-101h-117z" />
    <glyph glyph-name="j" unicode="j" horiz-adv-x="252" 
d="M-44 -177v86q26 -4 45 -4q39 0 57 20.5t18 65.5v502h100v-514q0 -79 -43 -119.5t-120 -40.5q-30 0 -57 4zM67 578v101h117v-101h-117z" />
    <glyph glyph-name="k" unicode="k" horiz-adv-x="549" 
d="M324 296l210 -296h-121l-166 232l-71 -70v-162h-101v694h101v-417l223 216h128z" />
    <glyph glyph-name="l" unicode="l" horiz-adv-x="252" 
d="M75 694h101v-694h-101v694z" />
    <glyph glyph-name="m" unicode="m" horiz-adv-x="879" 
d="M809 313v-313h-99v297q0 121 -103 121q-47 0 -81 -35t-34 -98v-285h-99v292q0 126 -103 126q-48 0 -81 -39.5t-33 -106.5v-272h-101v493h96v-73q53 83 152 83q108 0 149 -86q61 86 165 86q78 0 125 -47t47 -143z" />
    <glyph glyph-name="n" unicode="n" horiz-adv-x="581" 
d="M176 0h-101v493h96v-73q58 83 166 83q84 0 129 -50.5t45 -139.5v-313h-100v288q0 131 -107 131q-60 0 -94 -42t-34 -106v-271z" />
    <glyph glyph-name="o" unicode="o" horiz-adv-x="583" 
d="M291 -9q-111 0 -179 68.5t-68 186.5t68 187.5t179 69.5t179.5 -69.5t68.5 -187.5t-68 -186.5t-180 -68.5zM291 72q68 0 105.5 49t37.5 125q0 77 -37.5 126t-105.5 49q-67 0 -104.5 -49t-37.5 -126q0 -76 37.5 -125t104.5 -49z" />
    <glyph glyph-name="p" unicode="p" horiz-adv-x="604" 
d="M338 -9q-106 0 -162 76v-242h-101v668h96v-70q57 80 168 80q94 0 157 -69t63 -187q0 -119 -63 -187.5t-158 -68.5zM312 72q67 0 104.5 49t37.5 126q0 76 -37.5 125t-104.5 49q-68 0 -105.5 -49t-37.5 -125q0 -77 37.5 -126t105.5 -49z" />
    <glyph glyph-name="q" unicode="q" horiz-adv-x="604" 
d="M267 -9q-96 0 -159 68.5t-63 187.5q0 118 63 187t157 69q113 0 168 -80v70h96v-668h-100v242q-57 -76 -162 -76zM293 72q67 0 104.5 49t37.5 126q0 76 -37.5 125t-104.5 49q-68 0 -105.5 -49t-37.5 -125q0 -77 37.5 -126t105.5 -49z" />
    <glyph glyph-name="r" unicode="r" horiz-adv-x="384" 
d="M361 501v-100q-17 1 -48 1q-60 0 -98.5 -38.5t-38.5 -105.5v-258h-101v493h96v-96q45 105 163 105q14 0 27 -1z" />
    <glyph glyph-name="s" unicode="s" horiz-adv-x="530" 
d="M62 354q0 68 56.5 108.5t145.5 40.5q86 0 146 -40t61 -115h-101q-2 37 -31 57.5t-77 20.5q-45 0 -72.5 -18t-27.5 -47q0 -45 74 -60l106 -21q138 -26 138 -138q0 -69 -56 -110t-155 -41q-101 0 -159.5 44t-60.5 119h104q3 -40 33.5 -63.5t86.5 -23.5q55 0 81.5 18.5
t26.5 49.5q0 46 -74 60l-107 21q-138 26 -138 138z" />
    <glyph glyph-name="t" unicode="t" horiz-adv-x="381" 
d="M27 408v85h81v128h98v-128h136v-85h-136v-240q0 -44 16 -65.5t52 -21.5q33 0 68 8v-86q-43 -10 -94 -10q-70 0 -106 39.5t-36 113.5v262h-79z" />
    <glyph glyph-name="u" unicode="u" horiz-adv-x="574" 
d="M398 493h100v-493h-96v74q-54 -83 -161 -83q-82 0 -126.5 50.5t-44.5 138.5v313h100v-287q0 -132 104 -132q57 0 90.5 42.5t33.5 106.5v270z" />
    <glyph glyph-name="v" unicode="v" horiz-adv-x="529" 
d="M266 100l138 393h105l-184 -493h-121l-184 493h107z" />
    <glyph glyph-name="w" unicode="w" horiz-adv-x="794" 
d="M397 387l-107 -387h-119l-146 493h104l108 -396l107 396h108l107 -396l108 396h101l-145 -493h-119z" />
    <glyph glyph-name="x" unicode="x" horiz-adv-x="534" 
d="M140 0h-114l180 248l-181 245h117l126 -175l123 175h115l-179 -245l182 -248h-118l-126 177z" />
    <glyph glyph-name="y" unicode="y" horiz-adv-x="527" 
d="M303 -53q-27 -69 -70.5 -98.5t-110.5 -29.5q-41 0 -66 5v86q30 -5 57 -5q73 0 95 63l5 13l-193 512h107l139 -393l139 393h105z" />
    <glyph glyph-name="z" unicode="z" horiz-adv-x="502" 
d="M55 493h400v-74l-282 -333h282v-86h-414v74l281 334h-267v85z" />
    <glyph glyph-name="braceleft" unicode="{" horiz-adv-x="385" 
d="M352 -23v-79h-87q-71 0 -100 40.5t-29 118.5v97q0 60 -21.5 82.5t-74.5 27.5v82q53 5 74.5 27.5t21.5 82.5v97q0 78 29 118.5t100 40.5h87v-79h-46q-49 0 -65.5 -18.5t-16.5 -81.5v-98q0 -111 -90 -130q90 -19 90 -130v-98q0 -63 16.5 -81.5t65.5 -18.5h46z" />
    <glyph glyph-name="bar" unicode="|" horiz-adv-x="298" 
d="M104 -102v814h90v-814h-90z" />
    <glyph glyph-name="braceright" unicode="}" horiz-adv-x="385" 
d="M34 -102v80h45q49 0 65.5 18t16.5 81v98q0 111 90 130q-90 19 -90 130v98q0 63 -16.5 81t-65.5 18h-45v80h86q71 0 100 -40.5t29 -118.5v-97q0 -60 21.5 -82.5t74.5 -27.5v-82q-53 -5 -74.5 -27.5t-21.5 -82.5v-97q0 -78 -29 -118.5t-100 -40.5h-86z" />
    <glyph glyph-name="asciitilde" unicode="~" horiz-adv-x="650" 
d="M455 251q-41 0 -131 30t-115 30q-36 0 -36 -46v-16h-84v33q0 50 30 80.5t76 30.5q40 0 131 -29.5t115 -29.5q36 0 36 45v16h84v-33q0 -50 -30 -80.5t-76 -30.5z" />
    <glyph glyph-name="uni00A0" unicode="&#xa0;" horiz-adv-x="217" 
 />
    <glyph glyph-name="exclamdown" unicode="&#xa1;" horiz-adv-x="289" 
d="M111 249h67l19 -318v-132h-106v132zM81 366v127h127v-127h-127z" />
    <glyph glyph-name="cent" unicode="&#xa2;" horiz-adv-x="597" 
d="M338 0h-75v95q-93 12 -150 78.5t-57 173.5t57 173t150 78v96h75v-94q82 -4 137.5 -53t64.5 -126h-103q-4 40 -31.5 66t-67.5 32v-345q40 6 67.5 32t31.5 67h103q-9 -78 -64.5 -127.5t-137.5 -53.5v-92zM162 347q0 -139 101 -168v335q-101 -29 -101 -167z" />
    <glyph glyph-name="sterling" unicode="&#xa3;" horiz-adv-x="612" 
d="M66 270v76h73q-1 3 -11.5 25.5t-13.5 31.5l-9.5 28.5t-9 36.5t-2.5 36q0 83 60.5 142t163.5 59q111 0 174.5 -61.5t62.5 -166.5h-105q0 68 -35.5 104.5t-95.5 36.5q-55 0 -86.5 -32t-31.5 -84q0 -21 5 -43.5t11 -38t16.5 -39t14.5 -35.5h192v-76h-172l3 -30
q0 -100 -59 -145h350v-95h-496v93q22 7 38 16t33.5 24.5t27 41.5t9.5 60q0 15 -5 35h-102z" />
    <glyph glyph-name="currency" unicode="&#xa4;" horiz-adv-x="550" 
d="M275 131q-61 0 -104 28l-61 -61l-59 58l60 61q-27 44 -27 104q0 58 27 104l-61 62l59 59l63 -63q45 27 103 27q59 0 102 -27l63 63l60 -59l-62 -62q27 -46 27 -104q0 -60 -27 -104l61 -61l-60 -58l-61 61q-43 -28 -103 -28zM275 203q46 0 74 33t28 85t-28 84.5t-74 32.5
q-47 0 -74.5 -32.5t-27.5 -84.5t27.5 -85t74.5 -33z" />
    <glyph glyph-name="yen" unicode="&#xa5;" horiz-adv-x="658" 
d="M380 0h-103v113h-181v75h181v71h-181v74h139l-221 361h117l200 -334l201 334h111l-221 -361h138v-74h-180v-71h180v-75h-180v-113z" />
    <glyph glyph-name="brokenbar" unicode="&#xa6;" horiz-adv-x="298" 
d="M104 -102v357h90v-357h-90zM104 354v358h90v-358h-90z" />
    <glyph glyph-name="section" unicode="&#xa7;" horiz-adv-x="577" 
d="M521 244q0 -90 -93 -130q50 -44 50 -106q0 -69 -55.5 -111t-144.5 -42q-85 0 -144.5 42t-61.5 118h100q1 -39 30 -61t78 -22q45 0 70.5 20t25.5 50q0 28 -19.5 48t-59.5 43l-122 70q-63 38 -90.5 71.5t-27.5 82.5q0 89 92 129q-50 45 -50 107q0 69 55.5 110.5t144.5 41.5
q85 0 144.5 -42t61.5 -117h-100q-1 39 -30 61t-78 22q-45 0 -70.5 -20.5t-25.5 -49.5t20 -48.5t60 -42.5l121 -70q63 -38 91 -72t28 -82zM355 318l-140 82q-30 -9 -45.5 -29t-15.5 -44q0 -25 17 -44t52 -40l139 -82q30 9 45.5 29t15.5 44q0 25 -16.5 44t-51.5 40z" />
    <glyph glyph-name="dieresis" unicode="&#xa8;" horiz-adv-x="413" 
d="M56 578v101h105v-101h-105zM252 578v101h105v-101h-105z" />
    <glyph glyph-name="copyright" unicode="&#xa9;" horiz-adv-x="827" 
d="M55 347q0 150 104 254t254 104t254.5 -104t104.5 -254t-104.5 -254t-254.5 -104t-254 104t-104 254zM112 347q0 -128 87.5 -216.5t213.5 -88.5t214 89t88 216t-88 216t-214 89t-213.5 -88.5t-87.5 -216.5zM296 346q0 -64 32 -103t89 -39q41 0 68.5 21.5t32.5 60.5h84
q-7 -70 -58 -110.5t-127 -40.5q-93 0 -148.5 56.5t-55.5 154.5q0 99 55.5 155.5t148.5 56.5q76 0 127 -40t58 -111h-84q-5 39 -32.5 61t-68.5 22q-57 0 -89 -39t-32 -105z" />
    <glyph glyph-name="ordfeminine" unicode="&#xaa;" horiz-adv-x="435" 
d="M65 230v65h310v-65h-310zM365 367h-71v53q-36 -59 -122 -59q-49 0 -81 25t-32 71q0 83 108 100l122 21v13q0 59 -71 59q-68 0 -71 -52h-76q2 52 41.5 79.5t105.5 27.5q147 0 147 -125v-213zM193 417q40 0 68 22.5t28 65.5v23l-98 -17q-56 -10 -56 -51q0 -43 58 -43z" />
    <glyph glyph-name="guillemotleft" unicode="&#xab;" horiz-adv-x="522" 
d="M152 234l113 -200h-87l-129 200l129 200h87zM352 234l113 -200h-88l-129 200l129 200h88z" />
    <glyph glyph-name="logicalnot" unicode="&#xac;" horiz-adv-x="650" 
d="M78 281v83h476v-294h-85v211h-391z" />
    <glyph glyph-name="uni00AD" unicode="&#xad;" horiz-adv-x="388" 
d="M59 223v91h270v-91h-270z" />
    <glyph glyph-name="registered" unicode="&#xae;" horiz-adv-x="567" 
d="M55 476q0 95 67 162t161 67q95 0 162 -67.5t67 -161.5t-67 -161t-162 -67t-161.5 67t-66.5 161zM100 476q0 -78 53.5 -133t129.5 -55t130 55t54 133t-54 133t-130 55t-129.5 -55t-53.5 -133zM183 363v237h121q92 0 92 -78q0 -23 -12.5 -42t-35.5 -27l58 -90h-56l-52 82
h-62v-82h-53zM343 521q0 36 -37 36h-70v-72h70q37 0 37 36z" />
    <glyph glyph-name="macron" unicode="&#xaf;" horiz-adv-x="381" 
d="M326 590h-271v75h271v-75z" />
    <glyph glyph-name="degree" unicode="&#xb0;" horiz-adv-x="406" 
d="M55 560q0 60 43.5 102.5t104.5 42.5t104.5 -42.5t43.5 -102.5t-43.5 -102t-104.5 -42q-62 0 -105 42t-43 102zM126 560q0 -33 22.5 -57t54.5 -24q31 0 54 24t23 57t-23 57.5t-54 24.5q-32 0 -54.5 -24.5t-22.5 -57.5z" />
    <glyph glyph-name="plusminus" unicode="&#xb1;" horiz-adv-x="650" 
d="M72 353v84h209v178h85v-178h211v-84h-211v-178h-85v178h-209zM72 0v83h505v-83h-505z" />
    <glyph glyph-name="twosuperior" unicode="&#xb2;" horiz-adv-x="345" 
d="M313 320h-270v63l149 141q37 35 37 67q0 22 -15 35.5t-40 13.5q-27 0 -42.5 -17t-15.5 -47h-78q0 58 35.5 91.5t102.5 33.5q60 0 95.5 -30t35.5 -78q0 -55 -63 -114l-98 -93h167v-66z" />
    <glyph glyph-name="threesuperior" unicode="&#xb3;" horiz-adv-x="357" 
d="M176 313q-69 0 -105 30t-38 83h77q2 -26 19.5 -41t45.5 -15q29 0 47 16.5t18 43.5q0 52 -76 52h-19v56h11q35 0 55 14.5t20 40.5q0 23 -16 36t-40 13q-27 0 -42 -15t-15 -43h-78q-2 54 34.5 85.5t103.5 31.5q61 0 94.5 -30.5t33.5 -74.5q0 -26 -16.5 -48.5t-42.5 -33.5
q29 -5 50.5 -28.5t21.5 -58.5q0 -52 -37.5 -83t-105.5 -31z" />
    <glyph glyph-name="acute" unicode="&#xb4;" horiz-adv-x="283" 
d="M147 694h116l-108 -142h-79z" />
    <glyph glyph-name="mu" unicode="&#xb5;" horiz-adv-x="590" 
d="M409 493h100v-493h-96v74q-55 -83 -159 -83q-43 0 -73 20v-186h-100v668h100v-288q0 -131 103 -131q57 0 91 42.5t34 105.5v271z" />
    <glyph glyph-name="paragraph" unicode="&#xb6;" horiz-adv-x="665" 
d="M49 484q0 210 250 210h97v-694h-93v274h-4q-250 0 -250 210zM477 0v694h93v-694h-93z" />
    <glyph glyph-name="periodcentered" unicode="&#xb7;" horiz-adv-x="279" 
d="M76 210v127h127v-127h-127z" />
    <glyph glyph-name="cedilla" unicode="&#xb8;" horiz-adv-x="318" 
d="M268 -108q-1 -40 -34.5 -61.5t-87.5 -21.5q-40 0 -74 12v57q40 -15 77 -15q52 0 52 30q0 26 -42 26q-19 0 -46 -10l-22 31l58 72h47l-38 -54q5 1 21 1q85 0 89 -67z" />
    <glyph glyph-name="onesuperior" unicode="&#xb9;" horiz-adv-x="286" 
d="M212 320h-78v296l-99 -64v76l101 66h76v-374z" />
    <glyph glyph-name="ordmasculine" unicode="&#xba;" horiz-adv-x="438" 
d="M66 230v65h310v-65h-310zM219 361q-76 0 -123 46t-47 126q0 79 47 125.5t123 46.5q77 0 124 -46.5t47 -125.5q0 -80 -47 -126t-124 -46zM219 420q43 0 66 31t23 82t-23 82t-66 31q-42 0 -65 -31t-23 -82t23 -82t65 -31z" />
    <glyph glyph-name="guillemotright" unicode="&#xbb;" horiz-adv-x="522" 
d="M257 34l113 200l-113 200h87l129 -200l-129 -200h-87zM57 34l113 200l-113 200h88l129 -200l-129 -200h-88z" />
    <glyph glyph-name="onequarter" unicode="&#xbc;" horiz-adv-x="792" 
d="M707 0h-73v77h-191v63l178 234h86v-237h52v-60h-52v-77zM634 137v157l-116 -157h116zM93 0l517 694h80l-515 -694h-82zM212 320h-78v296l-99 -64v76l101 66h76v-374z" />
    <glyph glyph-name="onehalf" unicode="&#xbd;" horiz-adv-x="823" 
d="M521 0v63l149 141q37 35 37 67q0 22 -15 35.5t-40 13.5q-27 0 -42.5 -17t-15.5 -47h-78q0 58 35.5 91.5t102.5 33.5q60 0 95.5 -30t35.5 -78q0 -55 -63 -114l-98 -93h167v-66h-270zM93 0l517 694h80l-515 -694h-82zM212 320h-78v296l-99 -64v76l101 66h76v-374z" />
    <glyph glyph-name="threequarters" unicode="&#xbe;" horiz-adv-x="860" 
d="M775 0h-73v77h-191v63l178 234h86v-237h52v-60h-52v-77zM702 137v157l-116 -157h116zM176 313q-69 0 -105 30t-38 83h77q2 -26 19.5 -41t45.5 -15q29 0 47 16.5t18 43.5q0 52 -76 52h-19v56h11q35 0 55 14.5t20 40.5q0 23 -16 36t-40 13q-27 0 -42 -15t-15 -43h-78
q-2 54 34.5 85.5t103.5 31.5q61 0 94.5 -30.5t33.5 -74.5q0 -26 -16.5 -48.5t-42.5 -33.5q29 -5 50.5 -28.5t21.5 -58.5q0 -52 -37.5 -83t-105.5 -31zM161 0l517 694h80l-515 -694h-82z" />
    <glyph glyph-name="questiondown" unicode="&#xbf;" horiz-adv-x="494" 
d="M23 -29q0 37 14 67.5t35 48.5t46 36t46 32t35.5 34t14.5 43v17h85v-17q1 -42 -16 -74t-42.5 -51.5t-51 -37.5t-43.5 -42.5t-18 -54.5q0 -40 31.5 -69t82.5 -29q56 0 89 32t36 87h104q-5 -95 -63.5 -150t-165.5 -55q-98 0 -158.5 52.5t-60.5 130.5zM320 493v-127h-127v127
h127z" />
    <glyph glyph-name="Agrave" unicode="&#xc0;" horiz-adv-x="726" 
d="M589 0l-69 178h-316l-70 -178h-110l272 694h133l273 -694h-113zM362 599l-126 -330h252zM219 886h116l71 -142h-79z" />
    <glyph glyph-name="Aacute" unicode="&#xc1;" horiz-adv-x="726" 
d="M589 0l-69 178h-316l-70 -178h-110l272 694h133l273 -694h-113zM362 599l-126 -330h252zM387 886h116l-108 -142h-79z" />
    <glyph glyph-name="Acircumflex" unicode="&#xc2;" horiz-adv-x="726" 
d="M589 0l-69 178h-316l-70 -178h-110l272 694h133l273 -694h-113zM362 599l-126 -330h252zM310 886h102l104 -142h-81l-74 76l-74 -76h-81z" />
    <glyph glyph-name="Atilde" unicode="&#xc3;" horiz-adv-x="726" 
d="M589 0l-69 178h-316l-70 -178h-110l272 694h133l273 -694h-113zM362 599l-126 -330h252zM429 749q-28 0 -70 27t-54 27q-32 0 -32 -50h-67q0 56 22 90.5t66 34.5q28 0 70 -27t54 -27q14 0 23.5 13t9.5 37h66q0 -57 -22 -91t-66 -34z" />
    <glyph glyph-name="Adieresis" unicode="&#xc4;" horiz-adv-x="726" 
d="M589 0l-69 178h-316l-70 -178h-110l272 694h133l273 -694h-113zM362 599l-126 -330h252zM211 762v101h105v-101h-105zM407 762v101h105v-101h-105z" />
    <glyph glyph-name="Aring" unicode="&#xc5;" horiz-adv-x="726" 
d="M252 744q0 44 32 75.5t78 31.5t78.5 -31.5t32.5 -75.5q0 -46 -35 -76l264 -668h-113l-69 178h-316l-70 -178h-110l263 668q-35 29 -35 76zM362 598l-126 -329h252zM311 744q0 -23 14.5 -38t36.5 -15q23 0 38 15t15 38t-15.5 39t-37.5 16t-36.5 -16t-14.5 -39z" />
    <glyph glyph-name="AE" unicode="&#xc6;" horiz-adv-x="1074" 
d="M1017 0h-506v178h-285l-121 -178h-121l468 694h559v-94h-393v-199h358v-92h-358v-214h399v-95zM511 269v332l-225 -332h225z" />
    <glyph glyph-name="Ccedilla" unicode="&#xc7;" horiz-adv-x="736" 
d="M465 -108q-1 -40 -34.5 -61.5t-86.5 -21.5q-40 0 -74 12v57q40 -15 77 -15q52 0 52 30q0 26 -43 26q-16 0 -46 -10l-21 31l41 52q-130 17 -206.5 113t-76.5 242q0 161 92.5 259.5t243.5 98.5q124 0 208.5 -67.5t98.5 -182.5h-113q-13 72 -66.5 115t-127.5 43
q-97 0 -160 -73t-63 -193t63 -193t160 -73q74 0 127.5 43t66.5 115h113q-14 -113 -96 -180.5t-204 -69.5h-13l-22 -31q5 1 22 1q84 0 88 -67z" />
    <glyph glyph-name="Egrave" unicode="&#xc8;" horiz-adv-x="649" 
d="M87 0v694h500v-94h-393v-199h357v-92h-357v-214h399v-95h-506zM194 886h116l71 -142h-79z" />
    <glyph glyph-name="Eacute" unicode="&#xc9;" horiz-adv-x="649" 
d="M362 886h116l-108 -142h-79zM87 0v694h500v-94h-393v-199h357v-92h-357v-214h399v-95h-506z" />
    <glyph glyph-name="Ecircumflex" unicode="&#xca;" horiz-adv-x="649" 
d="M285 886h102l104 -142h-81l-74 76l-74 -76h-81zM87 0v694h500v-94h-393v-199h357v-92h-357v-214h399v-95h-506z" />
    <glyph glyph-name="Edieresis" unicode="&#xcb;" horiz-adv-x="649" 
d="M184 762v101h105v-101h-105zM380 762v101h105v-101h-105zM87 0v694h500v-94h-393v-199h357v-92h-357v-214h399v-95h-506z" />
    <glyph glyph-name="Igrave" unicode="&#xcc;" horiz-adv-x="280" 
d="M87 0v694h107v-694h-107zM-1 886h116l71 -142h-79z" />
    <glyph glyph-name="Iacute" unicode="&#xcd;" horiz-adv-x="280" 
d="M87 0v694h107v-694h-107zM165 886h116l-108 -142h-79z" />
    <glyph glyph-name="Icircumflex" unicode="&#xce;" horiz-adv-x="280" 
d="M87 0v694h107v-694h-107zM90 886h102l104 -142h-81l-74 76l-74 -76h-81z" />
    <glyph glyph-name="Idieresis" unicode="&#xcf;" horiz-adv-x="280" 
d="M87 0v694h107v-694h-107zM-10 762v101h105v-101h-105zM186 762v101h105v-101h-105z" />
    <glyph glyph-name="Eth" unicode="&#xd0;" horiz-adv-x="763" 
d="M716 348q0 -156 -91.5 -252t-256.5 -96h-257v304h-79v85h79v305h257q166 0 257 -95t91 -251zM604 348q0 117 -64 185t-175 68h-147v-212h140v-85h-140v-211h147q111 0 175 68.5t64 186.5z" />
    <glyph glyph-name="Ntilde" unicode="&#xd1;" horiz-adv-x="767" 
d="M680 694v-694h-136l-354 567v-567h-103v694h136l354 -568v568h103zM451 749q-28 0 -70 27t-54 27q-32 0 -32 -50h-67q0 56 22 90.5t66 34.5q28 0 70 -27t54 -27q14 0 23.5 13t9.5 37h66q0 -57 -22 -91t-66 -34z" />
    <glyph glyph-name="Ograve" unicode="&#xd2;" horiz-adv-x="772" 
d="M725 347q0 -162 -93 -260t-246 -98t-246 98t-93 260t93 260t246 98t246 -98t93 -260zM613 347q0 121 -64 193.5t-163 72.5t-162.5 -72.5t-63.5 -193.5t63.5 -193.5t162.5 -72.5t163 72.5t64 193.5zM243 886h116l71 -142h-79z" />
    <glyph glyph-name="Oacute" unicode="&#xd3;" horiz-adv-x="772" 
d="M411 886h116l-108 -142h-79zM725 347q0 -162 -93 -260t-246 -98t-246 98t-93 260t93 260t246 98t246 -98t93 -260zM613 347q0 121 -64 193.5t-163 72.5t-162.5 -72.5t-63.5 -193.5t63.5 -193.5t162.5 -72.5t163 72.5t64 193.5z" />
    <glyph glyph-name="Ocircumflex" unicode="&#xd4;" horiz-adv-x="772" 
d="M334 886h102l104 -142h-81l-74 76l-74 -76h-81zM725 347q0 -162 -93 -260t-246 -98t-246 98t-93 260t93 260t246 98t246 -98t93 -260zM613 347q0 121 -64 193.5t-163 72.5t-162.5 -72.5t-63.5 -193.5t63.5 -193.5t162.5 -72.5t163 72.5t64 193.5z" />
    <glyph glyph-name="Otilde" unicode="&#xd5;" horiz-adv-x="772" 
d="M725 347q0 -162 -93 -260t-246 -98t-246 98t-93 260t93 260t246 98t246 -98t93 -260zM613 347q0 121 -64 193.5t-163 72.5t-162.5 -72.5t-63.5 -193.5t63.5 -193.5t162.5 -72.5t163 72.5t64 193.5zM453 749q-28 0 -70 27t-54 27q-32 0 -32 -50h-67q0 56 22 90.5t66 34.5
q28 0 70 -27t54 -27q14 0 23.5 13t9.5 37h66q0 -57 -22 -91t-66 -34z" />
    <glyph glyph-name="Odieresis" unicode="&#xd6;" horiz-adv-x="772" 
d="M234 762v101h105v-101h-105zM430 762v101h105v-101h-105zM725 347q0 -162 -93 -260t-246 -98t-246 98t-93 260t93 260t246 98t246 -98t93 -260zM613 347q0 121 -64 193.5t-163 72.5t-162.5 -72.5t-63.5 -193.5t63.5 -193.5t162.5 -72.5t163 72.5t64 193.5z" />
    <glyph glyph-name="multiply" unicode="&#xd7;" horiz-adv-x="650" 
d="M162 101l-59 58l162 163l-163 163l59 59l163 -162l164 163l59 -59l-164 -164l163 -163l-58 -59l-164 163z" />
    <glyph glyph-name="Oslash" unicode="&#xd8;" horiz-adv-x="782" 
d="M391 -11q-107 0 -188 50l-50 -64h-104l91 117q-88 97 -88 255q0 162 93 260t246 98q106 0 187 -50l50 64h105l-91 -118q88 -97 88 -254q0 -162 -93 -260t-246 -98zM620 347q0 101 -45 169l-311 -398q55 -40 127 -40q100 0 164.5 73.5t64.5 195.5zM162 347q0 -102 45 -169
l310 399q-56 39 -126 39q-100 0 -164.5 -73.5t-64.5 -195.5z" />
    <glyph glyph-name="Ugrave" unicode="&#xd9;" horiz-adv-x="713" 
d="M356 -11q-130 0 -206.5 71.5t-76.5 210.5v423h107v-423q0 -89 47.5 -139t128.5 -50q82 0 129.5 50t47.5 139v423h107v-423q0 -139 -76.5 -210.5t-207.5 -71.5zM213 886h116l71 -142h-79z" />
    <glyph glyph-name="Uacute" unicode="&#xda;" horiz-adv-x="713" 
d="M381 886h116l-108 -142h-79zM356 -11q-130 0 -206.5 71.5t-76.5 210.5v423h107v-423q0 -89 47.5 -139t128.5 -50q82 0 129.5 50t47.5 139v423h107v-423q0 -139 -76.5 -210.5t-207.5 -71.5z" />
    <glyph glyph-name="Ucircumflex" unicode="&#xdb;" horiz-adv-x="713" 
d="M304 886h102l104 -142h-81l-74 76l-74 -76h-81zM356 -11q-130 0 -206.5 71.5t-76.5 210.5v423h107v-423q0 -89 47.5 -139t128.5 -50q82 0 129.5 50t47.5 139v423h107v-423q0 -139 -76.5 -210.5t-207.5 -71.5z" />
    <glyph glyph-name="Udieresis" unicode="&#xdc;" horiz-adv-x="713" 
d="M204 762v101h105v-101h-105zM400 762v101h105v-101h-105zM356 -11q-130 0 -206.5 71.5t-76.5 210.5v423h107v-423q0 -89 47.5 -139t128.5 -50q82 0 129.5 50t47.5 139v423h107v-423q0 -139 -76.5 -210.5t-207.5 -71.5z" />
    <glyph glyph-name="Yacute" unicode="&#xdd;" horiz-adv-x="660" 
d="M275 0v263l-275 431h126l205 -327l206 327h121l-276 -432v-262h-107zM357 886h116l-108 -142h-79z" />
    <glyph glyph-name="Thorn" unicode="&#xde;" horiz-adv-x="655" 
d="M619 349q0 -218 -259 -218h-166v-131h-107v694h107v-128h166q259 0 259 -217zM508 349q0 66 -36 96.5t-116 30.5h-162v-254h162q80 0 116 30t36 97z" />
    <glyph glyph-name="germandbls" unicode="&#xdf;" horiz-adv-x="628" 
d="M306 3v87q46 -16 92 -16q49 0 78 19.5t29 54.5q0 26 -17 43t-53 36l-55 31q-66 34 -66 91q0 29 17 57t37.5 46.5t37.5 43.5t17 50q0 36 -27.5 58t-74.5 22q-49 0 -80.5 -27.5t-31.5 -81.5v-517h-100v408h-79v85h79v30q0 87 55.5 134t151.5 47q95 0 149 -43t54 -108
q0 -31 -16.5 -59t-36.5 -45t-36.5 -37t-16.5 -37q0 -29 40 -50l60 -34q94 -51 94 -141q0 -66 -55 -113t-152 -47q-53 0 -94 13z" />
    <glyph glyph-name="agrave" unicode="&#xe0;" horiz-adv-x="559" 
d="M489 0h-92v77q-55 -86 -182 -86q-71 0 -119 37t-48 105q0 63 43.5 100t115.5 50l184 31v21q0 90 -115 90q-103 0 -109 -78h-102q4 76 62 116t149 40q102 0 157.5 -44t55.5 -134v-325zM237 69q63 0 108.5 36t45.5 103v31l-155 -26q-89 -16 -89 -79q0 -30 23.5 -47.5
t66.5 -17.5zM133 694h116l71 -142h-79z" />
    <glyph glyph-name="aacute" unicode="&#xe1;" horiz-adv-x="559" 
d="M489 0h-92v77q-55 -86 -182 -86q-71 0 -119 37t-48 105q0 63 43.5 100t115.5 50l184 31v21q0 90 -115 90q-103 0 -109 -78h-102q4 76 62 116t149 40q102 0 157.5 -44t55.5 -134v-325zM237 69q63 0 108.5 36t45.5 103v31l-155 -26q-89 -16 -89 -79q0 -30 23.5 -47.5
t66.5 -17.5zM301 694h116l-108 -142h-79z" />
    <glyph glyph-name="acircumflex" unicode="&#xe2;" horiz-adv-x="559" 
d="M489 0h-92v77q-55 -86 -182 -86q-71 0 -119 37t-48 105q0 63 43.5 100t115.5 50l184 31v21q0 90 -115 90q-103 0 -109 -78h-102q4 76 62 116t149 40q102 0 157.5 -44t55.5 -134v-325zM237 69q63 0 108.5 36t45.5 103v31l-155 -26q-89 -16 -89 -79q0 -30 23.5 -47.5
t66.5 -17.5zM224 694h102l104 -142h-81l-74 76l-74 -76h-81z" />
    <glyph glyph-name="atilde" unicode="&#xe3;" horiz-adv-x="559" 
d="M489 0h-92v77q-55 -86 -182 -86q-71 0 -119 37t-48 105q0 63 43.5 100t115.5 50l184 31v21q0 90 -115 90q-103 0 -109 -78h-102q4 76 62 116t149 40q102 0 157.5 -44t55.5 -134v-325zM237 69q63 0 108.5 36t45.5 103v31l-155 -26q-89 -16 -89 -79q0 -30 23.5 -47.5
t66.5 -17.5zM343 565q-28 0 -70 27t-54 27q-32 0 -32 -50h-67q0 56 22 90.5t66 34.5q28 0 70 -27t54 -27q14 0 23.5 13t9.5 37h66q0 -57 -22 -91t-66 -34z" />
    <glyph glyph-name="adieresis" unicode="&#xe4;" horiz-adv-x="559" 
d="M489 0h-92v77q-55 -86 -182 -86q-71 0 -119 37t-48 105q0 63 43.5 100t115.5 50l184 31v21q0 90 -115 90q-103 0 -109 -78h-102q4 76 62 116t149 40q102 0 157.5 -44t55.5 -134v-325zM237 69q63 0 108.5 36t45.5 103v31l-155 -26q-89 -16 -89 -79q0 -30 23.5 -47.5
t66.5 -17.5zM125 578v101h105v-101h-105zM321 578v101h105v-101h-105z" />
    <glyph glyph-name="aring" unicode="&#xe5;" horiz-adv-x="559" 
d="M489 0h-92v77q-55 -86 -182 -86q-71 0 -119 37t-48 105q0 63 43.5 100t115.5 50l184 31v21q0 90 -115 90q-103 0 -109 -78h-102q4 76 62 116t149 40q102 0 157.5 -44t55.5 -134v-325zM237 69q63 0 108.5 36t45.5 103v31l-155 -26q-89 -16 -89 -79q0 -30 23.5 -47.5
t66.5 -17.5zM165 645q0 44 32 75t78 31t78.5 -31t32.5 -75t-32.5 -75t-78.5 -31t-78 31t-32 75zM223 645q0 -23 14.5 -38t37.5 -15t38 15t15 38t-15.5 39t-37.5 16t-37 -16t-15 -39z" />
    <glyph glyph-name="ae" unicode="&#xe6;" horiz-adv-x="912" 
d="M254 290h137v45q0 90 -115 90q-104 0 -109 -78h-102q4 76 62 116t149 40q133 0 181 -78q65 78 175 78q104 0 168 -66.5t64 -186.5v-34h-378q4 -64 42 -104.5t97 -40.5q47 0 81 21t45 62h105q-16 -79 -78 -121t-151 -42q-124 0 -189 102q-25 -46 -81 -74t-134 -28
q-80 0 -127.5 36.5t-47.5 104.5q0 76 56.5 117t149.5 41zM391 206v10h-129q-115 0 -115 -82q0 -31 23.5 -48t66.5 -17q65 0 109.5 34.5t44.5 102.5zM487 290h274q-3 62 -39.5 98.5t-92.5 36.5q-57 0 -95.5 -36.5t-46.5 -98.5z" />
    <glyph glyph-name="ccedilla" unicode="&#xe7;" horiz-adv-x="563" 
d="M380 -108q-1 -40 -34.5 -61.5t-86.5 -21.5q-39 0 -74 12v57q40 -15 77 -15q52 0 52 30q0 26 -42 26q-18 0 -46 -10l-22 31l43 54q-93 14 -148 81t-55 172q0 118 68 187t179 69q94 0 155 -49.5t70 -133.5h-104q-6 47 -39.5 74t-81.5 27q-66 0 -104 -48t-38 -126t38 -126.5
t104 -48.5q48 0 81.5 27t39.5 74h104q-9 -83 -68 -131.5t-150 -50.5h-4l-24 -33q5 1 23 1q83 0 87 -67z" />
    <glyph glyph-name="egrave" unicode="&#xe8;" horiz-adv-x="573" 
d="M44 247q0 116 67.5 186t176.5 70t173 -66t64 -187v-34h-378q2 -60 39.5 -103t99.5 -43q47 0 81 22t46 62h104q-16 -79 -78.5 -121t-151.5 -42q-107 0 -175 68.5t-68 187.5zM148 290h275q-3 62 -40 98.5t-93 36.5q-57 0 -95.5 -37t-46.5 -98zM145 694h116l71 -142h-79z
" />
    <glyph glyph-name="eacute" unicode="&#xe9;" horiz-adv-x="573" 
d="M313 694h116l-108 -142h-79zM44 247q0 116 67.5 186t176.5 70t173 -66t64 -187v-34h-378q2 -60 39.5 -103t99.5 -43q47 0 81 22t46 62h104q-16 -79 -78.5 -121t-151.5 -42q-107 0 -175 68.5t-68 187.5zM148 290h275q-3 62 -40 98.5t-93 36.5q-57 0 -95.5 -37t-46.5 -98z
" />
    <glyph glyph-name="ecircumflex" unicode="&#xea;" horiz-adv-x="573" 
d="M236 694h102l104 -142h-81l-74 76l-74 -76h-81zM44 247q0 116 67.5 186t176.5 70t173 -66t64 -187v-34h-378q2 -60 39.5 -103t99.5 -43q47 0 81 22t46 62h104q-16 -79 -78.5 -121t-151.5 -42q-107 0 -175 68.5t-68 187.5zM148 290h275q-3 62 -40 98.5t-93 36.5
q-57 0 -95.5 -37t-46.5 -98z" />
    <glyph glyph-name="edieresis" unicode="&#xeb;" horiz-adv-x="573" 
d="M136 578v101h105v-101h-105zM332 578v101h105v-101h-105zM44 247q0 116 67.5 186t176.5 70t173 -66t64 -187v-34h-378q2 -60 39.5 -103t99.5 -43q47 0 81 22t46 62h104q-16 -79 -78.5 -121t-151.5 -42q-107 0 -175 68.5t-68 187.5zM148 290h275q-3 62 -40 98.5t-93 36.5
q-57 0 -95.5 -37t-46.5 -98z" />
    <glyph glyph-name="igrave" unicode="&#xec;" horiz-adv-x="252" 
d="M75 493h101v-493h-101v493zM-15 694h116l71 -142h-79z" />
    <glyph glyph-name="iacute" unicode="&#xed;" horiz-adv-x="252" 
d="M151 694h116l-108 -142h-79zM75 493h101v-493h-101v493z" />
    <glyph glyph-name="icircumflex" unicode="&#xee;" horiz-adv-x="252" 
d="M76 694h102l104 -142h-81l-74 76l-74 -76h-81zM75 493h101v-493h-101v493z" />
    <glyph glyph-name="idieresis" unicode="&#xef;" horiz-adv-x="252" 
d="M-24 578v101h105v-101h-105zM172 578v101h105v-101h-105zM75 493h101v-493h-101v493z" />
    <glyph glyph-name="eth" unicode="&#xf0;" horiz-adv-x="583" 
d="M209 525l-21 64l86 25q-52 50 -92 80h118q28 -21 64 -54l106 32l18 -64l-75 -23q54 -63 89 -146t35 -169q0 -128 -63.5 -203.5t-182.5 -75.5q-109 0 -178 68t-69 185q0 114 65 181t164 67q82 0 136 -52q-28 56 -84 119zM149 244q0 -78 37.5 -126t104.5 -48q68 0 105.5 48
t37.5 126q0 77 -37.5 125.5t-105.5 48.5q-67 0 -104.5 -48.5t-37.5 -125.5z" />
    <glyph glyph-name="ntilde" unicode="&#xf1;" horiz-adv-x="581" 
d="M176 0h-101v493h96v-73q58 83 166 83q84 0 129 -50.5t45 -139.5v-313h-100v288q0 131 -107 131q-60 0 -94 -42t-34 -106v-271zM361 565q-28 0 -70 27t-54 27q-32 0 -32 -50h-67q0 56 22 90.5t66 34.5q28 0 70 -27t54 -27q14 0 23.5 13t9.5 37h66q0 -57 -22 -91t-66 -34z
" />
    <glyph glyph-name="ograve" unicode="&#xf2;" horiz-adv-x="583" 
d="M291 -9q-111 0 -179 68.5t-68 186.5t68 187.5t179 69.5t179.5 -69.5t68.5 -187.5t-68 -186.5t-180 -68.5zM291 72q68 0 105.5 49t37.5 125q0 77 -37.5 126t-105.5 49q-67 0 -104.5 -49t-37.5 -126q0 -76 37.5 -125t104.5 -49zM149 694h116l71 -142h-79z" />
    <glyph glyph-name="oacute" unicode="&#xf3;" horiz-adv-x="583" 
d="M317 694h116l-108 -142h-79zM291 -9q-111 0 -179 68.5t-68 186.5t68 187.5t179 69.5t179.5 -69.5t68.5 -187.5t-68 -186.5t-180 -68.5zM291 72q68 0 105.5 49t37.5 125q0 77 -37.5 126t-105.5 49q-67 0 -104.5 -49t-37.5 -126q0 -76 37.5 -125t104.5 -49z" />
    <glyph glyph-name="ocircumflex" unicode="&#xf4;" horiz-adv-x="583" 
d="M240 694h102l104 -142h-81l-74 76l-74 -76h-81zM291 -9q-111 0 -179 68.5t-68 186.5t68 187.5t179 69.5t179.5 -69.5t68.5 -187.5t-68 -186.5t-180 -68.5zM291 72q68 0 105.5 49t37.5 125q0 77 -37.5 126t-105.5 49q-67 0 -104.5 -49t-37.5 -126q0 -76 37.5 -125
t104.5 -49z" />
    <glyph glyph-name="otilde" unicode="&#xf5;" horiz-adv-x="583" 
d="M291 -9q-111 0 -179 68.5t-68 186.5t68 187.5t179 69.5t179.5 -69.5t68.5 -187.5t-68 -186.5t-180 -68.5zM291 72q68 0 105.5 49t37.5 125q0 77 -37.5 126t-105.5 49q-67 0 -104.5 -49t-37.5 -126q0 -76 37.5 -125t104.5 -49zM359 565q-28 0 -70 27t-54 27q-32 0 -32 -50
h-67q0 56 22 90.5t66 34.5q28 0 70 -27t54 -27q14 0 23.5 13t9.5 37h66q0 -57 -22 -91t-66 -34z" />
    <glyph glyph-name="odieresis" unicode="&#xf6;" horiz-adv-x="583" 
d="M140 578v101h105v-101h-105zM336 578v101h105v-101h-105zM291 -9q-111 0 -179 68.5t-68 186.5t68 187.5t179 69.5t179.5 -69.5t68.5 -187.5t-68 -186.5t-180 -68.5zM291 72q68 0 105.5 49t37.5 125q0 77 -37.5 126t-105.5 49q-67 0 -104.5 -49t-37.5 -126
q0 -76 37.5 -125t104.5 -49z" />
    <glyph glyph-name="divide" unicode="&#xf7;" horiz-adv-x="650" 
d="M87 281v83h476v-83h-476zM262 49v122h126v-122h-126zM262 474v122h126v-122h-126z" />
    <glyph glyph-name="oslash" unicode="&#xf8;" horiz-adv-x="593" 
d="M544 246q0 -118 -68.5 -186.5t-179.5 -68.5q-73 0 -127 30l-35 -46h-92l69 91q-62 67 -62 180q0 118 68 187.5t179 69.5q69 0 126 -31l34 44h93l-68 -89q63 -69 63 -181zM444 246q0 60 -22 103l-202 -262q34 -21 76 -21q69 0 108.5 50t39.5 130zM148 246q0 -61 22 -102
l202 261q-35 22 -76 22q-69 0 -108.5 -50.5t-39.5 -130.5z" />
    <glyph glyph-name="ugrave" unicode="&#xf9;" horiz-adv-x="574" 
d="M398 493h100v-493h-96v74q-54 -83 -161 -83q-82 0 -126.5 50.5t-44.5 138.5v313h100v-287q0 -132 104 -132q57 0 90.5 42.5t33.5 106.5v270zM141 694h116l71 -142h-79z" />
    <glyph glyph-name="uacute" unicode="&#xfa;" horiz-adv-x="574" 
d="M309 694h116l-108 -142h-79zM398 493h100v-493h-96v74q-54 -83 -161 -83q-82 0 -126.5 50.5t-44.5 138.5v313h100v-287q0 -132 104 -132q57 0 90.5 42.5t33.5 106.5v270z" />
    <glyph glyph-name="ucircumflex" unicode="&#xfb;" horiz-adv-x="574" 
d="M232 694h102l104 -142h-81l-74 76l-74 -76h-81zM398 493h100v-493h-96v74q-54 -83 -161 -83q-82 0 -126.5 50.5t-44.5 138.5v313h100v-287q0 -132 104 -132q57 0 90.5 42.5t33.5 106.5v270z" />
    <glyph glyph-name="udieresis" unicode="&#xfc;" horiz-adv-x="574" 
d="M132 578v101h105v-101h-105zM328 578v101h105v-101h-105zM398 493h100v-493h-96v74q-54 -83 -161 -83q-82 0 -126.5 50.5t-44.5 138.5v313h100v-287q0 -132 104 -132q57 0 90.5 42.5t33.5 106.5v270z" />
    <glyph glyph-name="yacute" unicode="&#xfd;" horiz-adv-x="527" 
d="M303 -53q-27 -69 -70.5 -98.5t-110.5 -29.5q-41 0 -66 5v86q30 -5 57 -5q73 0 95 63l5 13l-193 512h107l139 -393l139 393h105zM288 694h116l-108 -142h-79z" />
    <glyph glyph-name="thorn" unicode="&#xfe;" horiz-adv-x="604" 
d="M338 503q95 0 158 -69t63 -188q0 -118 -63 -186.5t-157 -68.5q-109 0 -163 76v-242h-101v869h101v-268q56 77 162 77zM312 421q-68 0 -105.5 -49t-37.5 -126q0 -76 37.5 -125t105.5 -49q67 0 104.5 49t37.5 125q0 77 -37.5 126t-104.5 49z" />
    <glyph glyph-name="ydieresis" unicode="&#xff;" horiz-adv-x="527" 
d="M303 -53q-27 -69 -70.5 -98.5t-110.5 -29.5q-41 0 -66 5v86q30 -5 57 -5q73 0 95 63l5 13l-193 512h107l139 -393l139 393h105zM111 578v101h105v-101h-105zM307 578v101h105v-101h-105z" />
    <glyph glyph-name="Amacron" unicode="&#x100;" horiz-adv-x="726" 
d="M589 0l-69 178h-316l-70 -178h-110l272 694h133l273 -694h-113zM362 599l-126 -330h252zM497 774h-271v75h271v-75z" />
    <glyph glyph-name="amacron" unicode="&#x101;" horiz-adv-x="559" 
d="M489 0h-92v77q-55 -86 -182 -86q-71 0 -119 37t-48 105q0 63 43.5 100t115.5 50l184 31v21q0 90 -115 90q-103 0 -109 -78h-102q4 76 62 116t149 40q102 0 157.5 -44t55.5 -134v-325zM237 69q63 0 108.5 36t45.5 103v31l-155 -26q-89 -16 -89 -79q0 -30 23.5 -47.5
t66.5 -17.5zM411 590h-271v75h271v-75z" />
    <glyph glyph-name="Abreve" unicode="&#x102;" horiz-adv-x="726" 
d="M589 0l-69 178h-316l-70 -178h-110l272 694h133l273 -694h-113zM362 599l-126 -330h252zM361 735q-63 0 -101 40.5t-38 102.5h71q0 -29 17 -50.5t52 -21.5t52 21.5t17 50.5h71q0 -62 -38.5 -102.5t-102.5 -40.5z" />
    <glyph glyph-name="abreve" unicode="&#x103;" horiz-adv-x="559" 
d="M489 0h-92v77q-55 -86 -182 -86q-71 0 -119 37t-48 105q0 63 43.5 100t115.5 50l184 31v21q0 90 -115 90q-103 0 -109 -78h-102q4 76 62 116t149 40q102 0 157.5 -44t55.5 -134v-325zM237 69q63 0 108.5 36t45.5 103v31l-155 -26q-89 -16 -89 -79q0 -30 23.5 -47.5
t66.5 -17.5zM275 553q-63 0 -101 40.5t-38 102.5h71q0 -29 17 -50.5t52 -21.5t52 21.5t17 50.5h71q0 -62 -38.5 -102.5t-102.5 -40.5z" />
    <glyph glyph-name="Aogonek" unicode="&#x104;" horiz-adv-x="726" 
d="M589 0l-69 178h-316l-70 -178h-110l272 694h133l273 -694h-54q-65 -59 -65 -92q0 -32 39 -32q25 0 58 11v-61q-34 -12 -79 -12q-43 0 -68.5 19.5t-25.5 53.5q0 49 82 113zM362 599l-126 -330h252z" />
    <glyph glyph-name="aogonek" unicode="&#x105;" horiz-adv-x="559" 
d="M489 0h-34q-63 -60 -63 -92t38 -32q24 0 59 11v-61q-34 -12 -79 -12q-43 0 -68.5 19.5t-25.5 53.5q0 50 81 113v77q-55 -86 -182 -86q-71 0 -119 37t-48 105q0 63 43.5 100t115.5 50l184 31v21q0 90 -115 90q-103 0 -109 -78h-102q4 76 62 116t149 40q102 0 157.5 -44
t55.5 -134v-325zM237 69q63 0 108.5 36t45.5 103v31l-155 -26q-89 -16 -89 -79q0 -30 23.5 -47.5t66.5 -17.5z" />
    <glyph glyph-name="Cacute" unicode="&#x106;" horiz-adv-x="736" 
d="M408 886h116l-108 -142h-79zM160 347q0 -120 63 -193t160 -73q74 0 127.5 43t66.5 115h113q-14 -115 -98.5 -182.5t-208.5 -67.5q-151 0 -243.5 98.5t-92.5 259.5t92.5 259.5t243.5 98.5q124 0 208.5 -67.5t98.5 -182.5h-113q-13 72 -66.5 115t-127.5 43q-97 0 -160 -73
t-63 -193z" />
    <glyph glyph-name="cacute" unicode="&#x107;" horiz-adv-x="563" 
d="M317 694h116l-108 -142h-79zM149 247q0 -78 38 -126.5t104 -48.5q47 0 81 27.5t40 73.5h104q-9 -84 -70 -133t-155 -49q-111 0 -179 69t-68 187t68 187t179 69q94 0 155 -49.5t70 -133.5h-104q-6 47 -39.5 74t-81.5 27q-66 0 -104 -48t-38 -126z" />
    <glyph glyph-name="Ccircumflex" unicode="&#x108;" horiz-adv-x="736" 
d="M331 886h102l104 -142h-81l-74 76l-74 -76h-81zM160 347q0 -120 63 -193t160 -73q74 0 127.5 43t66.5 115h113q-14 -115 -98.5 -182.5t-208.5 -67.5q-151 0 -243.5 98.5t-92.5 259.5t92.5 259.5t243.5 98.5q124 0 208.5 -67.5t98.5 -182.5h-113q-13 72 -66.5 115
t-127.5 43q-97 0 -160 -73t-63 -193z" />
    <glyph glyph-name="ccircumflex" unicode="&#x109;" horiz-adv-x="563" 
d="M240 694h102l104 -142h-81l-74 76l-74 -76h-81zM149 247q0 -78 38 -126.5t104 -48.5q47 0 81 27.5t40 73.5h104q-9 -84 -70 -133t-155 -49q-111 0 -179 69t-68 187t68 187t179 69q94 0 155 -49.5t70 -133.5h-104q-6 47 -39.5 74t-81.5 27q-66 0 -104 -48t-38 -126z" />
    <glyph glyph-name="Cdotaccent" unicode="&#x10a;" horiz-adv-x="736" 
d="M160 347q0 -120 63 -193t160 -73q74 0 127.5 43t66.5 115h113q-14 -115 -98.5 -182.5t-208.5 -67.5q-151 0 -243.5 98.5t-92.5 259.5t92.5 259.5t243.5 98.5q124 0 208.5 -67.5t98.5 -182.5h-113q-13 72 -66.5 115t-127.5 43q-97 0 -160 -73t-63 -193zM323 762v101h117
v-101h-117z" />
    <glyph glyph-name="cdotaccent" unicode="&#x10b;" horiz-adv-x="563" 
d="M149 247q0 -78 38 -126.5t104 -48.5q47 0 81 27.5t40 73.5h104q-9 -84 -70 -133t-155 -49q-111 0 -179 69t-68 187t68 187t179 69q94 0 155 -49.5t70 -133.5h-104q-6 47 -39.5 74t-81.5 27q-66 0 -104 -48t-38 -126zM232 578v101h117v-101h-117z" />
    <glyph glyph-name="Ccaron" unicode="&#x10c;" horiz-adv-x="736" 
d="M433 744h-102l-104 142h81l74 -76l74 76h81zM160 347q0 -120 63 -193t160 -73q74 0 127.5 43t66.5 115h113q-14 -115 -98.5 -182.5t-208.5 -67.5q-151 0 -243.5 98.5t-92.5 259.5t92.5 259.5t243.5 98.5q124 0 208.5 -67.5t98.5 -182.5h-113q-13 72 -66.5 115t-127.5 43
q-97 0 -160 -73t-63 -193z" />
    <glyph glyph-name="ccaron" unicode="&#x10d;" horiz-adv-x="563" 
d="M342 552h-102l-104 142h81l74 -76l74 76h81zM149 247q0 -78 38 -126.5t104 -48.5q47 0 81 27.5t40 73.5h104q-9 -84 -70 -133t-155 -49q-111 0 -179 69t-68 187t68 187t179 69q94 0 155 -49.5t70 -133.5h-104q-6 47 -39.5 74t-81.5 27q-66 0 -104 -48t-38 -126z" />
    <glyph glyph-name="Dcaron" unicode="&#x10e;" horiz-adv-x="738" 
d="M409 744h-102l-104 142h81l74 -76l74 76h81zM691 347q0 -156 -91 -251.5t-257 -95.5h-257v694h257q165 0 256.5 -95.5t91.5 -251.5zM578 347q0 118 -63.5 186t-174.5 68h-147v-508h147q111 0 174.5 68t63.5 186z" />
    <glyph glyph-name="dcaron" unicode="&#x10f;" horiz-adv-x="708" 
d="M631 694h105l-81 -177h-67zM267 503q104 0 162 -77v268h100v-694h-96v70q-55 -79 -168 -79q-94 0 -157 68.5t-63 186.5q0 119 63 188t159 69zM293 421q-68 0 -105.5 -49t-37.5 -126q0 -76 37.5 -125t105.5 -49q67 0 104.5 49t37.5 125q0 77 -37.5 126t-104.5 49z" />
    <glyph glyph-name="Dcroat" unicode="&#x110;" horiz-adv-x="763" 
d="M716 348q0 -156 -91.5 -252t-256.5 -96h-257v304h-79v85h79v305h257q166 0 257 -95t91 -251zM604 348q0 117 -64 185t-175 68h-147v-212h140v-85h-140v-211h147q111 0 175 68.5t64 186.5z" />
    <glyph glyph-name="dcroat" unicode="&#x111;" horiz-adv-x="616" 
d="M596 543h-67v-543h-96v70q-55 -79 -168 -79q-94 0 -157 68.5t-63 186.5q0 119 63 188t159 69q104 0 162 -77v117h-109v69h109v82h100v-82h67v-69zM293 421q-68 0 -105.5 -49t-37.5 -126q0 -76 37.5 -125t105.5 -49q67 0 104.5 49t37.5 125q0 77 -37.5 126t-104.5 49z" />
    <glyph glyph-name="Emacron" unicode="&#x112;" horiz-adv-x="649" 
d="M87 0v694h500v-94h-393v-199h357v-92h-357v-214h399v-95h-506zM471 774h-271v75h271v-75z" />
    <glyph glyph-name="emacron" unicode="&#x113;" horiz-adv-x="573" 
d="M44 247q0 116 67.5 186t176.5 70t173 -66t64 -187v-34h-378q2 -60 39.5 -103t99.5 -43q47 0 81 22t46 62h104q-16 -79 -78.5 -121t-151.5 -42q-107 0 -175 68.5t-68 187.5zM148 290h275q-3 62 -40 98.5t-93 36.5q-57 0 -95.5 -37t-46.5 -98zM422 590h-271v75h271v-75z
" />
    <glyph glyph-name="Ebreve" unicode="&#x114;" horiz-adv-x="649" 
d="M87 0v694h500v-94h-393v-199h357v-92h-357v-214h399v-95h-506zM336 735q-63 0 -101 40.5t-38 102.5h71q0 -29 17 -50.5t52 -21.5t52 21.5t17 50.5h71q0 -62 -38.5 -102.5t-102.5 -40.5z" />
    <glyph glyph-name="ebreve" unicode="&#x115;" horiz-adv-x="573" 
d="M44 247q0 116 67.5 186t176.5 70t173 -66t64 -187v-34h-378q2 -60 39.5 -103t99.5 -43q47 0 81 22t46 62h104q-16 -79 -78.5 -121t-151.5 -42q-107 0 -175 68.5t-68 187.5zM148 290h275q-3 62 -40 98.5t-93 36.5q-57 0 -95.5 -37t-46.5 -98zM287 551q-63 0 -101 40.5
t-38 102.5h71q0 -29 17 -50.5t52 -21.5t52 21.5t17 50.5h71q0 -62 -38.5 -102.5t-102.5 -40.5z" />
    <glyph glyph-name="Edotaccent" unicode="&#x116;" horiz-adv-x="649" 
d="M87 0v694h500v-94h-393v-199h357v-92h-357v-214h399v-95h-506zM276 762v101h117v-101h-117z" />
    <glyph glyph-name="edotaccent" unicode="&#x117;" horiz-adv-x="573" 
d="M44 247q0 116 67.5 186t176.5 70t173 -66t64 -187v-34h-378q2 -60 39.5 -103t99.5 -43q47 0 81 22t46 62h104q-16 -79 -78.5 -121t-151.5 -42q-107 0 -175 68.5t-68 187.5zM148 290h275q-3 62 -40 98.5t-93 36.5q-57 0 -95.5 -37t-46.5 -98zM228 578v101h117v-101h-117z
" />
    <glyph glyph-name="Eogonek" unicode="&#x118;" horiz-adv-x="649" 
d="M87 0v694h500v-94h-393v-199h357v-92h-357v-214h399v-95q-65 -59 -65 -92q0 -32 39 -32q23 0 58 11v-61q-34 -12 -79 -12q-43 0 -68.5 19.5t-25.5 53.5q0 50 81 113h-446z" />
    <glyph glyph-name="eogonek" unicode="&#x119;" horiz-adv-x="573" 
d="M44 247q0 116 67.5 186t176.5 70t173 -66t64 -187v-34h-378q3 -61 40.5 -103.5t98.5 -42.5q47 0 81 21.5t46 62.5h104q-14 -70 -72 -119q-108 -87 -108 -127q0 -32 39 -32q25 0 58 11v-61q-34 -12 -79 -12q-43 0 -68.5 19.5t-25.5 53.5q0 47 73 107q-21 -3 -47 -3
q-107 0 -175 68.5t-68 187.5zM148 290h275q-3 62 -40 98.5t-93 36.5q-57 0 -95.5 -36.5t-46.5 -98.5z" />
    <glyph glyph-name="Ecaron" unicode="&#x11a;" horiz-adv-x="649" 
d="M387 744h-102l-104 142h81l74 -76l74 76h81zM87 0v694h500v-94h-393v-199h357v-92h-357v-214h399v-95h-506z" />
    <glyph glyph-name="ecaron" unicode="&#x11b;" horiz-adv-x="573" 
d="M338 552h-102l-104 142h81l74 -76l74 76h81zM44 247q0 116 67.5 186t176.5 70t173 -66t64 -187v-34h-378q2 -60 39.5 -103t99.5 -43q47 0 81 22t46 62h104q-16 -79 -78.5 -121t-151.5 -42q-107 0 -175 68.5t-68 187.5zM148 290h275q-3 62 -40 98.5t-93 36.5
q-57 0 -95.5 -37t-46.5 -98z" />
    <glyph glyph-name="Gcircumflex" unicode="&#x11c;" horiz-adv-x="777" 
d="M331 886h102l104 -142h-81l-74 76l-74 -76h-81zM396 274v91h302v-365h-95v109q-75 -120 -236 -120q-143 0 -231.5 100.5t-88.5 257.5q0 160 92.5 259t244.5 99q121 0 207 -65t103 -180h-113q-13 71 -68.5 112t-126.5 41q-101 0 -163.5 -74t-62.5 -192q0 -119 62 -193
t161 -74q84 0 146 50.5t68 143.5h-201z" />
    <glyph glyph-name="gcircumflex" unicode="&#x11d;" horiz-adv-x="597" 
d="M249 694h102l104 -142h-81l-74 76l-74 -76h-81zM522 493v-464q0 -104 -64 -159.5t-171 -55.5q-110 0 -167.5 42.5t-60.5 114.5h102q9 -79 125 -79q136 0 136 129v63q-57 -69 -152 -69q-94 0 -159.5 65t-65.5 177q0 114 64.5 180t157.5 66q104 0 159 -76v66h96zM150 259
q0 -72 36 -117.5t102 -45.5q67 0 103.5 45.5t36.5 117.5t-36.5 117.5t-103.5 45.5q-65 0 -101.5 -45.5t-36.5 -117.5z" />
    <glyph glyph-name="Gbreve" unicode="&#x11e;" horiz-adv-x="777" 
d="M396 274v91h302v-365h-95v109q-75 -120 -236 -120q-143 0 -231.5 100.5t-88.5 257.5q0 160 92.5 259t244.5 99q121 0 207 -65t103 -180h-113q-13 71 -68.5 112t-126.5 41q-101 0 -163.5 -74t-62.5 -192q0 -119 62 -193t161 -74q84 0 146 50.5t68 143.5h-201zM382 735
q-63 0 -101 40.5t-38 102.5h71q0 -29 17 -50.5t52 -21.5t52 21.5t17 50.5h71q0 -62 -38.5 -102.5t-102.5 -40.5z" />
    <glyph glyph-name="gbreve" unicode="&#x11f;" horiz-adv-x="597" 
d="M522 493v-464q0 -104 -64 -159.5t-171 -55.5q-110 0 -167.5 42.5t-60.5 114.5h102q9 -79 125 -79q136 0 136 129v63q-57 -69 -152 -69q-94 0 -159.5 65t-65.5 177q0 114 64.5 180t157.5 66q104 0 159 -76v66h96zM150 259q0 -72 36 -117.5t102 -45.5q67 0 103.5 45.5
t36.5 117.5t-36.5 117.5t-103.5 45.5q-65 0 -101.5 -45.5t-36.5 -117.5zM300 551q-63 0 -101 40.5t-38 102.5h71q0 -29 17 -50.5t52 -21.5t52 21.5t17 50.5h71q0 -62 -38.5 -102.5t-102.5 -40.5z" />
    <glyph glyph-name="Gdotaccent" unicode="&#x120;" horiz-adv-x="777" 
d="M396 274v91h302v-365h-95v109q-75 -120 -236 -120q-143 0 -231.5 100.5t-88.5 257.5q0 160 92.5 259t244.5 99q121 0 207 -65t103 -180h-113q-13 71 -68.5 112t-126.5 41q-101 0 -163.5 -74t-62.5 -192q0 -119 62 -193t161 -74q84 0 146 50.5t68 143.5h-201zM323 762v101
h117v-101h-117z" />
    <glyph glyph-name="gdotaccent" unicode="&#x121;" horiz-adv-x="597" 
d="M522 493v-464q0 -104 -64 -159.5t-171 -55.5q-110 0 -167.5 42.5t-60.5 114.5h102q9 -79 125 -79q136 0 136 129v63q-57 -69 -152 -69q-94 0 -159.5 65t-65.5 177q0 114 64.5 180t157.5 66q104 0 159 -76v66h96zM150 259q0 -72 36 -117.5t102 -45.5q67 0 103.5 45.5
t36.5 117.5t-36.5 117.5t-103.5 45.5q-65 0 -101.5 -45.5t-36.5 -117.5zM241 578v101h117v-101h-117z" />
    <glyph glyph-name="Gcommaaccent" unicode="&#x122;" horiz-adv-x="777" 
d="M436 -45v-87q0 -102 -116 -102v51q32 0 43.5 11.5t11.5 31.5v8h-54v87h115zM396 274v91h302v-365h-95v109q-75 -120 -236 -120q-143 0 -231.5 100.5t-88.5 257.5q0 160 92.5 259t244.5 99q121 0 207 -65t103 -180h-113q-13 71 -68.5 112t-126.5 41q-101 0 -163.5 -74
t-62.5 -192q0 -119 62 -193t161 -74q84 0 146 50.5t68 143.5h-201z" />
    <glyph glyph-name="gcommaaccent" unicode="&#x123;" horiz-adv-x="597" 
d="M522 493v-464q0 -104 -64 -159.5t-171 -55.5q-110 0 -167.5 42.5t-60.5 114.5h102q9 -79 125 -79q136 0 136 129v63q-57 -69 -152 -69q-94 0 -159.5 65t-65.5 177q0 114 64.5 180t157.5 66q104 0 159 -76v66h96zM150 259q0 -72 36 -117.5t102 -45.5q67 0 103.5 45.5
t36.5 117.5t-36.5 117.5t-103.5 45.5q-65 0 -101.5 -45.5t-36.5 -117.5zM241 553v87q0 102 116 102v-51q-32 0 -43 -11.5t-11 -32.5v-7h53v-87h-115z" />
    <glyph glyph-name="Hcircumflex" unicode="&#x124;" horiz-adv-x="757" 
d="M326 886h102l104 -142h-81l-74 76l-74 -76h-81zM87 0v694h107v-286h369v286h106v-694h-106v312h-369v-312h-107z" />
    <glyph glyph-name="hcircumflex" unicode="&#x125;" horiz-adv-x="581" 
d="M75 866h102l104 -142h-81l-74 76l-74 -76h-81zM411 0v289q0 130 -107 130q-60 0 -94 -42t-34 -105v-272h-101v694h101v-271q53 80 161 80q84 0 129 -50.5t45 -139.5v-313h-100z" />
    <glyph glyph-name="Hbar" unicode="&#x126;" horiz-adv-x="796" 
d="M768 458h-78v-458h-107v242h-369v-242h-107v458h-78v84h78v152h107v-152h369v152h107v-152h78v-84zM214 338h369v120h-369v-120z" />
    <glyph glyph-name="hbar" unicode="&#x127;" horiz-adv-x="596" 
d="M422 0v290q0 129 -107 129q-60 0 -94 -42t-34 -105v-272h-100v543h-68v69h68v82h100v-82h108v-69h-108v-120q53 80 161 80q84 0 129.5 -50.5t45.5 -139.5v-313h-101z" />
    <glyph glyph-name="Itilde" unicode="&#x128;" horiz-adv-x="280" 
d="M87 0v694h107v-694h-107zM214 749q-28 0 -70 27t-54 27q-32 0 -32 -50h-67q0 56 22 90.5t66 34.5q28 0 70 -27t54 -27q14 0 23.5 13t9.5 37h66q0 -57 -22 -91t-66 -34z" />
    <glyph glyph-name="itilde" unicode="&#x129;" horiz-adv-x="252" 
d="M75 493h101v-493h-101v493zM195 565q-28 0 -70 27t-54 27q-32 0 -32 -50h-67q0 56 22 90.5t66 34.5q28 0 70 -27t54 -27q14 0 23.5 13t9.5 37h66q0 -57 -22 -91t-66 -34z" />
    <glyph glyph-name="Imacron" unicode="&#x12a;" horiz-adv-x="280" 
d="M87 0v694h107v-694h-107zM276 774h-271v75h271v-75z" />
    <glyph glyph-name="imacron" unicode="&#x12b;" horiz-adv-x="252" 
d="M75 493h101v-493h-101v493zM262 590h-271v75h271v-75z" />
    <glyph glyph-name="Ibreve" unicode="&#x12c;" horiz-adv-x="280" 
d="M87 0v694h107v-694h-107zM141 735q-63 0 -101 40.5t-38 102.5h71q0 -29 17 -50.5t52 -21.5t52 21.5t17 50.5h71q0 -62 -38.5 -102.5t-102.5 -40.5z" />
    <glyph glyph-name="ibreve" unicode="&#x12d;" horiz-adv-x="252" 
d="M75 493h101v-493h-101v493zM127 551q-63 0 -101 40.5t-38 102.5h71q0 -29 17 -50.5t52 -21.5t52 21.5t17 50.5h71q0 -62 -38.5 -102.5t-102.5 -40.5z" />
    <glyph glyph-name="Iogonek" unicode="&#x12e;" horiz-adv-x="280" 
d="M134 -186q-42 0 -67.5 19.5t-25.5 53.5q0 28 25.5 59t59.5 54h-39v694h107v-694q-77 -54 -77 -92q0 -32 38 -32q25 0 58 11v-61q-34 -12 -79 -12z" />
    <glyph glyph-name="iogonek" unicode="&#x12f;" horiz-adv-x="252" 
d="M117 -186q-42 0 -67.5 19.5t-25.5 53.5q0 29 24.5 59.5t59.5 53.5h-33v493h101v-493q-76 -54 -76 -92q0 -32 38 -32q25 0 58 11v-61q-34 -12 -79 -12zM67 578v101h117v-101h-117z" />
    <glyph glyph-name="Idotaccent" unicode="&#x130;" horiz-adv-x="280" 
d="M87 0v694h107v-694h-107zM80 762v101h117v-101h-117z" />
    <glyph glyph-name="dotlessi" unicode="&#x131;" horiz-adv-x="252" 
d="M75 493h101v-493h-101v493z" />
    <glyph glyph-name="IJ" unicode="&#x132;" horiz-adv-x="893" 
d="M87 0v694h107v-694h-107zM565 82q67 0 105 42.5t38 121.5v448h107v-447q0 -117 -61 -187.5t-189 -70.5t-189 71t-61 187v22h108v-23q0 -79 38 -121.5t104 -42.5z" />
    <glyph glyph-name="ij" unicode="&#x133;" horiz-adv-x="503" 
d="M75 493h101v-493h-101v493zM67 578v101h117v-101h-117zM207 -177v86q26 -4 45 -4q39 0 57 20.5t18 65.5v502h100v-514q0 -79 -43 -119.5t-120 -40.5q-30 0 -57 4zM318 578v101h117v-101h-117z" />
    <glyph glyph-name="Jcircumflex" unicode="&#x134;" horiz-adv-x="610" 
d="M430 886h102l104 -142h-81l-74 76l-74 -76h-81zM285 82q67 0 105 42.5t38 121.5v448h107v-447q0 -117 -61 -187.5t-189 -70.5t-189 71t-61 187v22h108v-23q0 -79 38 -121.5t104 -42.5z" />
    <glyph glyph-name="jcircumflex" unicode="&#x135;" horiz-adv-x="252" 
d="M-47 -177v86q28 -4 45 -4q40 0 59 20.5t19 65.5v502h100v-514q0 -79 -43.5 -119.5t-122.5 -40.5q-30 0 -57 4zM75 694h102l104 -142h-81l-74 76l-74 -76h-81z" />
    <glyph glyph-name="Kcommaaccent" unicode="&#x136;" horiz-adv-x="691" 
d="M409 -45v-87q0 -102 -116 -102v51q32 0 43.5 11.5t11.5 31.5v8h-54v87h115zM87 0v694h107v-346l343 346h136l-286 -291l284 -403h-131l-234 333l-112 -112v-221h-107z" />
    <glyph glyph-name="kcommaaccent" unicode="&#x137;" horiz-adv-x="549" 
d="M340 -45v-87q0 -102 -116 -102v51q32 0 43.5 11.5t11.5 31.5v8h-54v87h115zM324 296l210 -296h-121l-166 232l-71 -70v-162h-101v694h101v-417l223 216h128z" />
    <glyph glyph-name="kgreenlandic" unicode="&#x138;" horiz-adv-x="549" 
d="M176 0h-101v493h101v-216l223 216h128l-203 -197l210 -296h-121l-166 232l-71 -70v-162z" />
    <glyph glyph-name="Lacute" unicode="&#x139;" horiz-adv-x="593" 
d="M168 886h116l-108 -142h-79zM87 0v694h107v-597h364v-97h-471z" />
    <glyph glyph-name="lacute" unicode="&#x13a;" horiz-adv-x="252" 
d="M154 866h116l-108 -142h-79zM75 694h101v-694h-101v694z" />
    <glyph glyph-name="Lcommaaccent" unicode="&#x13b;" horiz-adv-x="593" 
d="M379 -45v-87q0 -102 -116 -102v51q32 0 43.5 11.5t11.5 31.5v8h-54v87h115zM87 0v694h107v-597h364v-97h-471z" />
    <glyph glyph-name="lcommaaccent" unicode="&#x13c;" horiz-adv-x="252" 
d="M185 -45v-87q0 -102 -116 -102v51q32 0 43.5 11.5t11.5 31.5v8h-54v87h115zM75 694h101v-694h-101v694z" />
    <glyph glyph-name="Lcaron" unicode="&#x13d;" horiz-adv-x="593" 
d="M375 694h105l-81 -177h-67zM87 0v694h107v-597h364v-97h-471z" />
    <glyph glyph-name="lcaron" unicode="&#x13e;" horiz-adv-x="355" 
d="M278 694h105l-81 -177h-67zM75 694h101v-694h-101v694z" />
    <glyph glyph-name="Ldot" unicode="&#x13f;" horiz-adv-x="599" 
d="M87 0v694h107v-597h364v-97h-471zM363 299v127h127v-127h-127z" />
    <glyph glyph-name="ldot" unicode="&#x140;" horiz-adv-x="402" 
d="M75 694h101v-694h-101v694zM262 223v127h127v-127h-127z" />
    <glyph glyph-name="Lslash" unicode="&#x141;" horiz-adv-x="617" 
d="M32 221v91l78 37v345h107v-296l142 70v-91l-142 -69v-211h364v-97h-471v258z" />
    <glyph glyph-name="lslash" unicode="&#x142;" horiz-adv-x="293" 
d="M196 0h-100v241l-67 -38v81l67 39v371h100v-318l68 38v-81l-68 -38v-295z" />
    <glyph glyph-name="Nacute" unicode="&#x143;" horiz-adv-x="767" 
d="M409 886h116l-108 -142h-79zM680 694v-694h-136l-354 567v-567h-103v694h136l354 -568v568h103z" />
    <glyph glyph-name="nacute" unicode="&#x144;" horiz-adv-x="581" 
d="M292 694h116l-108 -142h-79zM176 0h-101v493h96v-73q58 83 166 83q84 0 129 -50.5t45 -139.5v-313h-100v288q0 131 -107 131q-60 0 -94 -42t-34 -106v-271z" />
    <glyph glyph-name="Ncommaaccent" unicode="&#x145;" horiz-adv-x="767" 
d="M439 -45v-87q0 -102 -116 -102v51q32 0 43.5 11.5t11.5 31.5v8h-54v87h115zM680 694v-694h-136l-354 567v-567h-103v694h136l354 -568v568h103z" />
    <glyph glyph-name="ncommaaccent" unicode="&#x146;" horiz-adv-x="581" 
d="M349 -45v-87q0 -102 -116 -102v51q32 0 43.5 11.5t11.5 31.5v8h-54v87h115zM176 0h-101v493h96v-73q58 83 166 83q84 0 129 -50.5t45 -139.5v-313h-100v288q0 131 -107 131q-60 0 -94 -42t-34 -106v-271z" />
    <glyph glyph-name="Ncaron" unicode="&#x147;" horiz-adv-x="767" 
d="M434 744h-102l-104 142h81l74 -76l74 76h81zM680 694v-694h-136l-354 567v-567h-103v694h136l354 -568v568h103z" />
    <glyph glyph-name="ncaron" unicode="&#x148;" horiz-adv-x="581" 
d="M349 552h-102l-104 142h81l74 -76l74 76h81zM176 0h-101v493h96v-73q58 83 166 83q84 0 129 -50.5t45 -139.5v-313h-100v288q0 131 -107 131q-60 0 -94 -42t-34 -106v-271z" />
    <glyph glyph-name="napostrophe" unicode="&#x149;" horiz-adv-x="752" 
d="M165 694v-135q0 -64 -35.5 -97.5t-103.5 -33.5v59q74 1 74 71v17h-57v119h122zM346 0h-101v493h96v-73q58 83 166 83q84 0 129 -50.5t45 -139.5v-313h-100v288q0 131 -107 131q-60 0 -94 -42t-34 -106v-271z" />
    <glyph glyph-name="Eng" unicode="&#x14a;" horiz-adv-x="767" 
d="M512 -181q-30 0 -57 4v86q28 -4 47 -4q76 0 76 79v16h-35l-353 567v-567h-104v694h136l354 -568v568h103v-715q0 -79 -44 -119.5t-123 -40.5z" />
    <glyph glyph-name="eng" unicode="&#x14b;" horiz-adv-x="581" 
d="M176 0h-101v493h96v-73q58 83 166 83q84 0 129 -50.5t45 -139.5v-334q0 -79 -44 -119.5t-122 -40.5q-31 0 -58 4v86q28 -4 45 -4q79 0 79 86v298q0 130 -107 130q-60 0 -94 -42t-34 -105v-272z" />
    <glyph glyph-name="Omacron" unicode="&#x14c;" horiz-adv-x="772" 
d="M521 774h-271v75h271v-75zM725 347q0 -162 -93 -260t-246 -98t-246 98t-93 260t93 260t246 98t246 -98t93 -260zM613 347q0 121 -64 193.5t-163 72.5t-162.5 -72.5t-63.5 -193.5t63.5 -193.5t162.5 -72.5t163 72.5t64 193.5z" />
    <glyph glyph-name="omacron" unicode="&#x14d;" horiz-adv-x="583" 
d="M426 590h-271v75h271v-75zM291 -9q-111 0 -179 68.5t-68 186.5t68 187.5t179 69.5t179.5 -69.5t68.5 -187.5t-68 -186.5t-180 -68.5zM291 72q68 0 105.5 49t37.5 125q0 77 -37.5 126t-105.5 49q-67 0 -104.5 -49t-37.5 -126q0 -76 37.5 -125t104.5 -49z" />
    <glyph glyph-name="Obreve" unicode="&#x14e;" horiz-adv-x="772" 
d="M725 347q0 -162 -93 -260t-246 -98t-246 98t-93 260t93 260t246 98t246 -98t93 -260zM613 347q0 121 -64 193.5t-163 72.5t-162.5 -72.5t-63.5 -193.5t63.5 -193.5t162.5 -72.5t163 72.5t64 193.5zM385 735q-63 0 -101 40.5t-38 102.5h71q0 -29 17 -50.5t52 -21.5
t52 21.5t17 50.5h71q0 -62 -38.5 -102.5t-102.5 -40.5z" />
    <glyph glyph-name="obreve" unicode="&#x14f;" horiz-adv-x="583" 
d="M291 -9q-111 0 -179 68.5t-68 186.5t68 187.5t179 69.5t179.5 -69.5t68.5 -187.5t-68 -186.5t-180 -68.5zM291 72q68 0 105.5 49t37.5 125q0 77 -37.5 126t-105.5 49q-67 0 -104.5 -49t-37.5 -126q0 -76 37.5 -125t104.5 -49zM291 551q-63 0 -101 40.5t-38 102.5h71
q0 -29 17 -50.5t52 -21.5t52 21.5t17 50.5h71q0 -62 -38.5 -102.5t-102.5 -40.5z" />
    <glyph glyph-name="Ohungarumlaut" unicode="&#x150;" horiz-adv-x="772" 
d="M335 886h101l-97 -148h-69zM480 886h101l-97 -148h-69zM725 347q0 -162 -93 -260t-246 -98t-246 98t-93 260t93 260t246 98t246 -98t93 -260zM613 347q0 121 -64 193.5t-163 72.5t-162.5 -72.5t-63.5 -193.5t63.5 -193.5t162.5 -72.5t163 72.5t64 193.5z" />
    <glyph glyph-name="ohungarumlaut" unicode="&#x151;" horiz-adv-x="583" 
d="M241 694h101l-97 -148h-69zM386 694h101l-97 -148h-69zM291 -9q-111 0 -179 68.5t-68 186.5t68 187.5t179 69.5t179.5 -69.5t68.5 -187.5t-68 -186.5t-180 -68.5zM291 72q68 0 105.5 49t37.5 125q0 77 -37.5 126t-105.5 49q-67 0 -104.5 -49t-37.5 -126q0 -76 37.5 -125
t104.5 -49z" />
    <glyph glyph-name="OE" unicode="&#x152;" horiz-adv-x="1176" 
d="M613 0v90q-87 -101 -231 -101q-151 0 -243 98.5t-92 259.5t92 259.5t243 98.5q143 0 231 -102v91h500v-94h-392v-199h356v-92h-356v-214h398v-95h-506zM613 347q0 121 -64 193.5t-163 72.5t-162.5 -72.5t-63.5 -193.5t63.5 -193.5t162.5 -72.5t163 72.5t64 193.5z" />
    <glyph glyph-name="oe" unicode="&#x153;" horiz-adv-x="959" 
d="M675 -9q-60 0 -110 26.5t-80 74.5q-30 -48 -81 -74.5t-115 -26.5q-110 0 -177.5 68.5t-67.5 186.5t68 187.5t177 69.5q64 0 115 -27t80 -76q30 48 81 75.5t113 27.5q106 0 170 -66.5t64 -186.5q0 -26 -1 -34h-377q3 -61 40.5 -103t98.5 -42q47 0 81 21t46 62h104
q-16 -79 -78.5 -121t-150.5 -42zM149 246q0 -77 37.5 -125.5t104.5 -48.5q68 0 105.5 48.5t37.5 125.5q0 78 -37.5 126.5t-105.5 48.5q-67 0 -104.5 -49t-37.5 -126zM535 290h275q-3 62 -40 98.5t-93 36.5q-57 0 -95.5 -37t-46.5 -98z" />
    <glyph glyph-name="Racute" unicode="&#x154;" horiz-adv-x="706" 
d="M368 886h116l-108 -142h-79zM87 0v694h303q120 0 183.5 -52t63.5 -151q0 -74 -39.5 -123t-109.5 -68l180 -300h-121l-170 283h-183v-283h-107zM194 373h186q146 0 146 115q0 116 -146 116h-186v-231z" />
    <glyph glyph-name="racute" unicode="&#x155;" horiz-adv-x="384" 
d="M210 694h116l-108 -142h-79zM361 501v-100q-17 1 -48 1q-60 0 -98.5 -38.5t-38.5 -105.5v-258h-101v493h96v-96q45 105 163 105q14 0 27 -1z" />
    <glyph glyph-name="Rcommaaccent" unicode="&#x156;" horiz-adv-x="706" 
d="M409 -45v-87q0 -102 -116 -102v51q32 0 43.5 11.5t11.5 31.5v8h-54v87h115zM87 0v694h303q120 0 183.5 -52t63.5 -151q0 -74 -39.5 -123t-109.5 -68l180 -300h-121l-170 283h-183v-283h-107zM194 373h186q146 0 146 115q0 116 -146 116h-186v-231z" />
    <glyph glyph-name="rcommaaccent" unicode="&#x157;" horiz-adv-x="384" 
d="M184 -45v-87q0 -102 -116 -102v51q32 0 43.5 11.5t11.5 31.5v8h-54v87h115zM361 501v-100q-17 1 -48 1q-60 0 -98.5 -38.5t-38.5 -105.5v-258h-101v493h96v-96q45 105 163 105q14 0 27 -1z" />
    <glyph glyph-name="Rcaron" unicode="&#x158;" horiz-adv-x="706" 
d="M403 744h-102l-104 142h81l74 -76l74 76h81zM87 0v694h303q120 0 183.5 -52t63.5 -151q0 -74 -39.5 -123t-109.5 -68l180 -300h-121l-170 283h-183v-283h-107zM194 373h186q146 0 146 115q0 116 -146 116h-186v-231z" />
    <glyph glyph-name="rcaron" unicode="&#x159;" horiz-adv-x="384" 
d="M250 552h-102l-104 142h81l74 -76l74 76h81zM361 501v-100q-17 1 -48 1q-60 0 -98.5 -38.5t-38.5 -105.5v-258h-101v493h96v-96q45 105 163 105q14 0 27 -1z" />
    <glyph glyph-name="Sacute" unicode="&#x15a;" horiz-adv-x="662" 
d="M349 886h116l-108 -142h-79zM336 -11q-132 0 -208.5 58t-80.5 165h111q4 -62 54 -98.5t127 -36.5q75 0 120.5 30.5t45.5 80.5q0 71 -94 93l-182 42q-162 37 -162 185q0 88 72.5 142.5t184.5 54.5q118 0 194 -56t77 -156h-111q-5 62 -48 93t-111 31q-67 0 -109.5 -29
t-42.5 -76q0 -72 93 -93l182 -42q77 -17 120 -64t43 -121q0 -92 -74.5 -147.5t-200.5 -55.5z" />
    <glyph glyph-name="sacute" unicode="&#x15b;" horiz-adv-x="530" 
d="M290 694h116l-108 -142h-79zM62 354q0 68 56.5 108.5t145.5 40.5q86 0 146 -40t61 -115h-101q-2 37 -31 57.5t-77 20.5q-45 0 -72.5 -18t-27.5 -47q0 -45 74 -60l106 -21q138 -26 138 -138q0 -69 -56 -110t-155 -41q-101 0 -159.5 44t-60.5 119h104q3 -40 33.5 -63.5
t86.5 -23.5q55 0 81.5 18.5t26.5 49.5q0 46 -74 60l-107 21q-138 26 -138 138z" />
    <glyph glyph-name="Scircumflex" unicode="&#x15c;" horiz-adv-x="662" 
d="M272 886h102l104 -142h-81l-74 76l-74 -76h-81zM336 -11q-132 0 -208.5 58t-80.5 165h111q4 -62 54 -98.5t127 -36.5q75 0 120.5 30.5t45.5 80.5q0 71 -94 93l-182 42q-162 37 -162 185q0 88 72.5 142.5t184.5 54.5q118 0 194 -56t77 -156h-111q-5 62 -48 93t-111 31
q-67 0 -109.5 -29t-42.5 -76q0 -72 93 -93l182 -42q77 -17 120 -64t43 -121q0 -92 -74.5 -147.5t-200.5 -55.5z" />
    <glyph glyph-name="scircumflex" unicode="&#x15d;" horiz-adv-x="530" 
d="M213 694h102l104 -142h-81l-74 76l-74 -76h-81zM62 354q0 68 56.5 108.5t145.5 40.5q86 0 146 -40t61 -115h-101q-2 37 -31 57.5t-77 20.5q-45 0 -72.5 -18t-27.5 -47q0 -45 74 -60l106 -21q138 -26 138 -138q0 -69 -56 -110t-155 -41q-101 0 -159.5 44t-60.5 119h104
q3 -40 33.5 -63.5t86.5 -23.5q55 0 81.5 18.5t26.5 49.5q0 46 -74 60l-107 21q-138 26 -138 138z" />
    <glyph glyph-name="Scedilla" unicode="&#x15e;" horiz-adv-x="662" 
d="M420 -108q-1 -40 -34.5 -61.5t-86.5 -21.5q-39 0 -74 12v57q40 -15 77 -15q52 0 52 30q0 26 -43 26q-16 0 -46 -10l-21 31l41 51q-109 11 -172 68t-66 153h111q4 -62 54 -98.5t127 -36.5q75 0 120.5 30.5t45.5 78.5q0 74 -94 95l-182 42q-162 37 -162 185
q0 88 72.5 142.5t184.5 54.5q118 0 194 -56t77 -156h-111q-5 62 -48 93t-111 31q-67 0 -109.5 -29t-42.5 -75q0 -73 93 -94l182 -42q77 -17 120 -64t43 -121q0 -89 -71 -145t-193 -58h-15l-22 -31q5 1 22 1q84 0 88 -67z" />
    <glyph glyph-name="scedilla" unicode="&#x15f;" horiz-adv-x="530" 
d="M362 -108q-1 -40 -34.5 -61.5t-86.5 -21.5q-39 0 -74 12v57q37 -15 77 -15q52 0 52 30q0 26 -43 26q-16 0 -46 -10l-21 31l42 53q-84 8 -130.5 50.5t-48.5 110.5h104q3 -40 33.5 -63.5t86.5 -23.5q55 0 81.5 18.5t26.5 49.5q0 46 -74 60l-107 21q-138 26 -138 138
q0 68 56.5 108.5t145.5 40.5q86 0 146 -40t61 -115h-101q-2 37 -31 57.5t-77 20.5q-45 0 -72.5 -18t-27.5 -47q0 -45 74 -60l106 -21q138 -26 138 -138q0 -67 -54.5 -108.5t-149.5 -42.5l-24 -33q5 1 22 1q84 0 88 -67z" />
    <glyph glyph-name="Scaron" unicode="&#x160;" horiz-adv-x="662" 
d="M374 744h-102l-104 142h81l74 -76l74 76h81zM336 -11q-132 0 -208.5 58t-80.5 165h111q4 -62 54 -98.5t127 -36.5q75 0 120.5 30.5t45.5 80.5q0 71 -94 93l-182 42q-162 37 -162 185q0 88 72.5 142.5t184.5 54.5q118 0 194 -56t77 -156h-111q-5 62 -48 93t-111 31
q-67 0 -109.5 -29t-42.5 -76q0 -72 93 -93l182 -42q77 -17 120 -64t43 -121q0 -92 -74.5 -147.5t-200.5 -55.5z" />
    <glyph glyph-name="scaron" unicode="&#x161;" horiz-adv-x="530" 
d="M315 552h-102l-104 142h81l74 -76l74 76h81zM62 354q0 68 56.5 108.5t145.5 40.5q86 0 146 -40t61 -115h-101q-2 37 -31 57.5t-77 20.5q-45 0 -72.5 -18t-27.5 -47q0 -45 74 -60l106 -21q138 -26 138 -138q0 -69 -56 -110t-155 -41q-101 0 -159.5 44t-60.5 119h104
q3 -40 33.5 -63.5t86.5 -23.5q55 0 81.5 18.5t26.5 49.5q0 46 -74 60l-107 21q-138 26 -138 138z" />
    <glyph glyph-name="Tcommaaccent" unicode="&#x162;" horiz-adv-x="640" 
d="M425 -108q-1 -40 -34.5 -61.5t-86.5 -21.5q-38 0 -74 12v57q40 -15 77 -15q52 0 52 30q0 26 -42 26q-19 0 -46 -10l-21 31l47 60h-31v599h-239v95h586v-95h-240v-599h-27l-30 -42q4 1 21 1q84 0 88 -67z" />
    <glyph glyph-name="tcommaaccent" unicode="&#x163;" horiz-adv-x="381" 
d="M313 -108q-1 -40 -34.5 -61.5t-86.5 -21.5q-40 0 -74 12v57q40 -15 77 -15q52 0 52 30q0 26 -43 26q-16 0 -46 -10l-21 31l51 62q-82 32 -82 143v263h-79v85h81v128h98v-128h136v-85h-136v-241q0 -43 16 -64.5t52 -21.5q33 0 68 8v-86q-48 -10 -91 -10q-6 0 -22 2
l-26 -37q5 1 22 1q84 0 88 -67z" />
    <glyph glyph-name="Tcaron" unicode="&#x164;" horiz-adv-x="640" 
d="M369 744h-102l-104 142h81l74 -76l74 76h81zM27 597v97h586v-97h-240v-597h-107v597h-239z" />
    <glyph glyph-name="tcaron" unicode="&#x165;" horiz-adv-x="381" 
d="M300 744h105l-81 -177h-67zM27 408v85h81v128h98v-128h136v-85h-136v-240q0 -44 16 -65.5t52 -21.5q33 0 68 8v-86q-43 -10 -94 -10q-70 0 -106 39.5t-36 113.5v262h-79z" />
    <glyph glyph-name="Tbar" unicode="&#x166;" horiz-adv-x="640" 
d="M504 298h-131v-298h-107v298h-130v84h130v217h-239v95h586v-95h-240v-217h131v-84z" />
    <glyph glyph-name="tbar" unicode="&#x167;" horiz-adv-x="393" 
d="M211 244v-76q0 -44 15 -65.5t52 -21.5q38 0 69 8v-87q-47 -9 -93 -9q-70 0 -107 39t-37 113v99h-77v73h77v91h-78v85h81v128h98v-128h136v-85h-136v-91h117v-73h-117z" />
    <glyph glyph-name="Utilde" unicode="&#x168;" horiz-adv-x="713" 
d="M356 -11q-130 0 -206.5 71.5t-76.5 210.5v423h107v-423q0 -89 47.5 -139t128.5 -50q82 0 129.5 50t47.5 139v423h107v-423q0 -139 -76.5 -210.5t-207.5 -71.5zM423 749q-28 0 -70 27t-54 27q-32 0 -32 -50h-67q0 56 22 90.5t66 34.5q28 0 70 -27t54 -27q14 0 23.5 13
t9.5 37h66q0 -57 -22 -91t-66 -34z" />
    <glyph glyph-name="utilde" unicode="&#x169;" horiz-adv-x="574" 
d="M398 493h100v-493h-96v74q-54 -83 -161 -83q-82 0 -126.5 50.5t-44.5 138.5v313h100v-287q0 -132 104 -132q57 0 90.5 42.5t33.5 106.5v270zM351 565q-28 0 -70 27t-54 27q-32 0 -32 -50h-67q0 56 22 90.5t66 34.5q28 0 70 -27t54 -27q14 0 23.5 13t9.5 37h66
q0 -57 -22 -91t-66 -34z" />
    <glyph glyph-name="Umacron" unicode="&#x16a;" horiz-adv-x="713" 
d="M356 -11q-130 0 -206.5 71.5t-76.5 210.5v423h107v-423q0 -89 47.5 -139t128.5 -50q82 0 129.5 50t47.5 139v423h107v-423q0 -139 -76.5 -210.5t-207.5 -71.5zM490 774h-271v75h271v-75z" />
    <glyph glyph-name="umacron" unicode="&#x16b;" horiz-adv-x="574" 
d="M398 493h100v-493h-96v74q-54 -83 -161 -83q-82 0 -126.5 50.5t-44.5 138.5v313h100v-287q0 -132 104 -132q57 0 90.5 42.5t33.5 106.5v270zM419 590h-271v75h271v-75z" />
    <glyph glyph-name="Ubreve" unicode="&#x16c;" horiz-adv-x="713" 
d="M356 -11q-130 0 -206.5 71.5t-76.5 210.5v423h107v-423q0 -89 47.5 -139t128.5 -50q82 0 129.5 50t47.5 139v423h107v-423q0 -139 -76.5 -210.5t-207.5 -71.5zM355 735q-63 0 -101 40.5t-38 102.5h71q0 -29 17 -50.5t52 -21.5t52 21.5t17 50.5h71q0 -62 -38.5 -102.5
t-102.5 -40.5z" />
    <glyph glyph-name="ubreve" unicode="&#x16d;" horiz-adv-x="574" 
d="M398 493h100v-493h-96v74q-54 -83 -161 -83q-82 0 -126.5 50.5t-44.5 138.5v313h100v-287q0 -132 104 -132q57 0 90.5 42.5t33.5 106.5v270zM283 551q-63 0 -101 40.5t-38 102.5h71q0 -29 17 -50.5t52 -21.5t52 21.5t17 50.5h71q0 -62 -38.5 -102.5t-102.5 -40.5z" />
    <glyph glyph-name="Uring" unicode="&#x16e;" horiz-adv-x="713" 
d="M245 829q0 44 32 75t78 31t78.5 -31t32.5 -75t-32.5 -75t-78.5 -31t-78 31t-32 75zM303 829q0 -23 14.5 -38t37.5 -15t38 15t15 38t-15.5 39t-37.5 16t-37 -16t-15 -39zM356 -11q-130 0 -206.5 71.5t-76.5 210.5v423h107v-423q0 -89 47.5 -139t128.5 -50q82 0 129.5 50
t47.5 139v423h107v-423q0 -139 -76.5 -210.5t-207.5 -71.5z" />
    <glyph glyph-name="uring" unicode="&#x16f;" horiz-adv-x="574" 
d="M173 645q0 44 32 75t78 31t78.5 -31t32.5 -75t-32.5 -75t-78.5 -31t-78 31t-32 75zM231 645q0 -23 14.5 -38t37.5 -15t38 15t15 38t-15.5 39t-37.5 16t-37 -16t-15 -39zM398 493h100v-493h-96v74q-54 -83 -161 -83q-82 0 -126.5 50.5t-44.5 138.5v313h100v-287
q0 -132 104 -132q57 0 90.5 42.5t33.5 106.5v270z" />
    <glyph glyph-name="Uhungarumlaut" unicode="&#x170;" horiz-adv-x="713" 
d="M356 -11q-130 0 -206.5 71.5t-76.5 210.5v423h107v-423q0 -89 47.5 -139t128.5 -50q82 0 129.5 50t47.5 139v423h107v-423q0 -139 -76.5 -210.5t-207.5 -71.5zM305 886h101l-97 -148h-69zM450 886h101l-97 -148h-69z" />
    <glyph glyph-name="uhungarumlaut" unicode="&#x171;" horiz-adv-x="574" 
d="M398 493h100v-493h-96v74q-54 -83 -161 -83q-82 0 -126.5 50.5t-44.5 138.5v313h100v-287q0 -132 104 -132q57 0 90.5 42.5t33.5 106.5v270zM233 694h101l-97 -148h-69zM378 694h101l-97 -148h-69z" />
    <glyph glyph-name="Uogonek" unicode="&#x172;" horiz-adv-x="713" 
d="M640 271q0 -130 -67 -200.5t-184 -79.5q-53 -53 -53 -83q0 -32 38 -32q23 0 58 11v-61q-34 -12 -79 -12q-42 0 -67.5 19.5t-25.5 53.5q0 44 67 103q-117 8 -185.5 79t-68.5 202v423h107v-423q0 -89 47.5 -139t128.5 -50q82 0 129.5 50t47.5 139v423h107v-423z" />
    <glyph glyph-name="uogonek" unicode="&#x173;" horiz-adv-x="574" 
d="M402 0v74q-54 -83 -161 -83q-82 0 -126.5 50.5t-44.5 138.5v313h100v-288q0 -131 104 -131q57 0 90.5 42.5t33.5 105.5v271h100v-493h-36q-64 -58 -64 -92q0 -32 38 -32q25 0 58 11v-61q-34 -12 -79 -12q-43 0 -68.5 19.5t-25.5 53.5q0 46 81 113z" />
    <glyph glyph-name="Wcircumflex" unicode="&#x174;" horiz-adv-x="1024" 
d="M460 886h102l104 -142h-81l-74 76l-74 -76h-81zM812 0h-138l-162 585l-161 -585h-138l-184 694h110l150 -582l160 582h128l160 -583l151 583h107z" />
    <glyph glyph-name="wcircumflex" unicode="&#x175;" horiz-adv-x="794" 
d="M345 694h102l104 -142h-81l-74 76l-74 -76h-81zM397 387l-107 -387h-119l-146 493h104l108 -396l107 396h108l107 -396l108 396h101l-145 -493h-119z" />
    <glyph glyph-name="Ycircumflex" unicode="&#x176;" horiz-adv-x="660" 
d="M275 0v263l-275 431h126l205 -327l206 327h121l-276 -432v-262h-107zM280 886h102l104 -142h-81l-74 76l-74 -76h-81z" />
    <glyph glyph-name="ycircumflex" unicode="&#x177;" horiz-adv-x="527" 
d="M303 -53q-27 -69 -70.5 -98.5t-110.5 -29.5q-41 0 -66 5v86q30 -5 57 -5q73 0 95 63l5 13l-193 512h107l139 -393l139 393h105zM211 694h102l104 -142h-81l-74 76l-74 -76h-81z" />
    <glyph glyph-name="Ydieresis" unicode="&#x178;" horiz-adv-x="660" 
d="M275 0v263l-275 431h126l205 -327l206 327h121l-276 -432v-262h-107zM181 762v101h105v-101h-105zM377 762v101h105v-101h-105z" />
    <glyph glyph-name="Zacute" unicode="&#x179;" horiz-adv-x="641" 
d="M352 886h116l-108 -142h-79zM71 694h513v-82l-404 -517h420v-95h-559v82l404 517h-374v95z" />
    <glyph glyph-name="zacute" unicode="&#x17a;" horiz-adv-x="502" 
d="M280 694h116l-108 -142h-79zM55 493h400v-74l-282 -333h282v-86h-414v74l281 334h-267v85z" />
    <glyph glyph-name="Zdotaccent" unicode="&#x17b;" horiz-adv-x="641" 
d="M71 694h513v-82l-404 -517h420v-95h-559v82l404 517h-374v95zM267 762v101h117v-101h-117z" />
    <glyph glyph-name="zdotaccent" unicode="&#x17c;" horiz-adv-x="502" 
d="M55 493h400v-74l-282 -333h282v-86h-414v74l281 334h-267v85zM196 578v101h117v-101h-117z" />
    <glyph glyph-name="Zcaron" unicode="&#x17d;" horiz-adv-x="641" 
d="M377 744h-102l-104 142h81l74 -76l74 76h81zM71 694h513v-82l-404 -517h420v-95h-559v82l404 517h-374v95z" />
    <glyph glyph-name="zcaron" unicode="&#x17e;" horiz-adv-x="502" 
d="M305 552h-102l-104 142h81l74 -76l74 76h81zM55 493h400v-74l-282 -333h282v-86h-414v74l281 334h-267v85z" />
    <glyph glyph-name="florin" unicode="&#x192;" horiz-adv-x="452" 
d="M383 298h-123v-319q0 -79 -44 -119.5t-123 -40.5q-30 0 -57 4v86q28 -4 45 -4q79 0 79 86v307h-88v81h88v163q0 79 43 120t122 41q43 0 72 -7v-84q-27 5 -58 5q-41 0 -60 -19.5t-19 -63.5v-155h123v-81z" />
    <glyph glyph-name="uni01B5" unicode="&#x1b5;" horiz-adv-x="641" 
d="M71 694h514v-82l-176 -224h104v-82h-169l-164 -211h420v-95h-559v82l175 224h-104v82h170l164 212h-375v94z" />
    <glyph glyph-name="uni01B6" unicode="&#x1b6;" horiz-adv-x="505" 
d="M57 493h400v-74l-121 -139h68v-67h-125l-107 -127h285v-86h-414v74l119 139h-64v67h122l107 127h-270v86z" />
    <glyph glyph-name="Aringacute" unicode="&#x1fa;" horiz-adv-x="726" 
d="M340 943h100l-83 -91q47 3 81.5 -28.5t34.5 -77.5q0 -45 -35 -75l264 -671h-113l-69 178h-316l-70 -178h-110l263 671q-35 29 -35 75q0 27 18 61zM362 598l-126 -329h252zM311 746q0 -23 14.5 -38t36.5 -15t37.5 15.5t15.5 37.5q0 23 -15.5 39t-37.5 16t-36.5 -16
t-14.5 -39z" />
    <glyph glyph-name="aringacute" unicode="&#x1fb;" horiz-adv-x="559" 
d="M489 0h-92v77q-55 -86 -182 -86q-71 0 -119 37t-48 105q0 63 43.5 100t115.5 50l184 31v21q0 90 -115 90q-103 0 -109 -78h-102q4 76 62 116t149 40q102 0 157.5 -44t55.5 -134v-325zM237 69q63 0 108.5 36t45.5 103v31l-155 -26q-89 -16 -89 -79q0 -30 23.5 -47.5
t66.5 -17.5zM275 538q-46 0 -78 30.5t-32 74.5q0 26 17 62l71 135h100l-84 -90q49 3 83 -29t34 -78q0 -43 -32.5 -74t-78.5 -31zM275 591q23 0 38 15t15 37q0 24 -15 40t-38 16q-22 0 -37 -16t-15 -40q0 -23 14.5 -37.5t37.5 -14.5z" />
    <glyph glyph-name="AEacute" unicode="&#x1fc;" horiz-adv-x="1074" 
d="M712 886h116l-108 -142h-79zM1017 0h-506v178h-285l-121 -178h-121l468 694h559v-94h-393v-199h358v-92h-358v-214h399v-95zM511 269v332l-225 -332h225z" />
    <glyph glyph-name="aeacute" unicode="&#x1fd;" horiz-adv-x="912" 
d="M486 694h116l-108 -142h-79zM254 290h137v45q0 90 -115 90q-104 0 -109 -78h-102q4 76 62 116t149 40q133 0 181 -78q65 78 175 78q104 0 168 -66.5t64 -186.5v-34h-378q4 -64 42 -104.5t97 -40.5q47 0 81 21t45 62h105q-16 -79 -78 -121t-151 -42q-124 0 -189 102
q-25 -46 -81 -74t-134 -28q-80 0 -127.5 36.5t-47.5 104.5q0 76 56.5 117t149.5 41zM391 206v10h-129q-115 0 -115 -82q0 -31 23.5 -48t66.5 -17q65 0 109.5 34.5t44.5 102.5zM487 290h274q-3 62 -39.5 98.5t-92.5 36.5q-57 0 -95.5 -36.5t-46.5 -98.5z" />
    <glyph glyph-name="Oslashacute" unicode="&#x1fe;" horiz-adv-x="782" 
d="M391 -11q-107 0 -188 50l-50 -64h-104l91 117q-88 97 -88 255q0 162 93 260t246 98q106 0 187 -50l50 64h105l-91 -118q88 -97 88 -254q0 -162 -93 -260t-246 -98zM620 347q0 101 -45 169l-311 -398q55 -40 127 -40q100 0 164.5 73.5t64.5 195.5zM162 347q0 -102 45 -169
l310 399q-56 39 -126 39q-100 0 -164.5 -73.5t-64.5 -195.5zM415 886h116l-108 -142h-79z" />
    <glyph glyph-name="oslashacute" unicode="&#x1ff;" horiz-adv-x="593" 
d="M544 246q0 -118 -68.5 -186.5t-179.5 -68.5q-73 0 -127 30l-35 -46h-92l69 91q-62 67 -62 180q0 118 68 187.5t179 69.5q69 0 126 -31l34 44h93l-68 -89q63 -69 63 -181zM444 246q0 60 -22 103l-202 -262q34 -21 76 -21q69 0 108.5 50t39.5 130zM148 246q0 -61 22 -102
l202 261q-35 22 -76 22q-69 0 -108.5 -50.5t-39.5 -130.5zM321 694h116l-108 -142h-79z" />
    <glyph glyph-name="Scommaaccent" unicode="&#x218;" horiz-adv-x="662" 
d="M390 -45v-87q0 -102 -116 -102v51q32 0 43.5 11.5t11.5 31.5v8h-54v87h115zM336 -11q-132 0 -208.5 58t-80.5 165h111q4 -62 54 -98.5t127 -36.5q75 0 120.5 30.5t45.5 80.5q0 71 -94 93l-182 42q-162 37 -162 185q0 88 72.5 142.5t184.5 54.5q118 0 194 -56t77 -156
h-111q-5 62 -48 93t-111 31q-67 0 -109.5 -29t-42.5 -76q0 -72 93 -93l182 -42q77 -17 120 -64t43 -121q0 -92 -74.5 -147.5t-200.5 -55.5z" />
    <glyph glyph-name="scommaaccent" unicode="&#x219;" horiz-adv-x="530" 
d="M325 -45v-87q0 -102 -116 -102v51q32 0 43.5 11.5t11.5 31.5v8h-54v87h115zM62 354q0 68 56.5 108.5t145.5 40.5q86 0 146 -40t61 -115h-101q-2 37 -31 57.5t-77 20.5q-45 0 -72.5 -18t-27.5 -47q0 -45 74 -60l106 -21q138 -26 138 -138q0 -69 -56 -110t-155 -41
q-101 0 -159.5 44t-60.5 119h104q3 -40 33.5 -63.5t86.5 -23.5q55 0 81.5 18.5t26.5 49.5q0 46 -74 60l-107 21q-138 26 -138 138z" />
    <glyph glyph-name="uni021A" unicode="&#x21a;" horiz-adv-x="640" 
d="M376 -45v-87q0 -102 -116 -102v51q32 0 43.5 11.5t11.5 31.5v8h-54v87h115zM27 597v97h586v-97h-240v-597h-107v597h-239z" />
    <glyph glyph-name="uni021B" unicode="&#x21b;" horiz-adv-x="381" 
d="M270 -45v-87q0 -102 -116 -102v51q32 0 43.5 11.5t11.5 31.5v8h-54v87h115zM27 408v85h81v128h98v-128h136v-85h-136v-240q0 -44 16 -65.5t52 -21.5q33 0 68 8v-86q-43 -10 -94 -10q-70 0 -106 39.5t-36 113.5v262h-79z" />
    <glyph glyph-name="dotlessj" unicode="&#x237;" horiz-adv-x="252" 
d="M-47 -177v86q28 -4 45 -4q40 0 59 20.5t19 65.5v502h100v-514q0 -79 -43.5 -119.5t-122.5 -40.5q-30 0 -57 4z" />
    <glyph glyph-name="circumflex" unicode="&#x2c6;" horiz-adv-x="400" 
d="M149 694h102l104 -142h-81l-74 76l-74 -76h-81z" />
    <glyph glyph-name="caron" unicode="&#x2c7;" horiz-adv-x="400" 
d="M251 552h-102l-104 142h81l74 -76l74 76h81z" />
    <glyph glyph-name="breve" unicode="&#x2d8;" horiz-adv-x="372" 
d="M185 551q-63 0 -101 40.5t-38 102.5h71q0 -29 17 -50.5t52 -21.5t52 21.5t17 50.5h71q0 -62 -38.5 -102.5t-102.5 -40.5z" />
    <glyph glyph-name="dotaccent" unicode="&#x2d9;" horiz-adv-x="227" 
d="M55 578v101h117v-101h-117z" />
    <glyph glyph-name="ring" unicode="&#x2da;" horiz-adv-x="319" 
d="M49 645q0 44 32 75t78 31t78.5 -31t32.5 -75t-32.5 -75t-78.5 -31t-78 31t-32 75zM107 645q0 -23 14.5 -38t37.5 -15t38 15t15 38t-15.5 39t-37.5 16t-37 -16t-15 -39z" />
    <glyph glyph-name="ogonek" unicode="&#x2db;" horiz-adv-x="250" 
d="M136 6h59q-70 -64 -70 -98q0 -32 38 -32q24 0 59 11v-61q-34 -12 -80 -12q-42 0 -67.5 19.5t-25.5 53.5q0 52 87 119z" />
    <glyph glyph-name="tilde" unicode="&#x2dc;" horiz-adv-x="397" 
d="M266 565q-28 0 -70 27t-54 27q-32 0 -32 -50h-67q0 56 22 90.5t66 34.5q28 0 70 -27t54 -27q14 0 23.5 13t9.5 37h66q0 -57 -22 -91t-66 -34z" />
    <glyph glyph-name="hungarumlaut" unicode="&#x2dd;" horiz-adv-x="426" 
d="M122 694h101l-97 -148h-69zM267 694h101l-97 -148h-69z" />
    <glyph glyph-name="pi" unicode="&#x3c0;" horiz-adv-x="622" 
d="M577 408h-78v-408h-101v408h-174v-408h-100v408h-79v85h532v-85z" />
    <glyph glyph-name="Wgrave" unicode="&#x1e80;" horiz-adv-x="1024" 
d="M812 0h-138l-162 585l-161 -585h-138l-184 694h110l150 -582l160 582h128l160 -583l151 583h107zM369 886h116l71 -142h-79z" />
    <glyph glyph-name="wgrave" unicode="&#x1e81;" horiz-adv-x="794" 
d="M397 387l-107 -387h-119l-146 493h104l108 -396l107 396h108l107 -396l108 396h101l-145 -493h-119zM254 694h116l71 -142h-79z" />
    <glyph glyph-name="Wacute" unicode="&#x1e82;" horiz-adv-x="1024" 
d="M537 886h116l-108 -142h-79zM812 0h-138l-162 585l-161 -585h-138l-184 694h110l150 -582l160 582h128l160 -583l151 583h107z" />
    <glyph glyph-name="wacute" unicode="&#x1e83;" horiz-adv-x="794" 
d="M422 694h116l-108 -142h-79zM397 387l-107 -387h-119l-146 493h104l108 -396l107 396h108l107 -396l108 396h101l-145 -493h-119z" />
    <glyph glyph-name="Wdieresis" unicode="&#x1e84;" horiz-adv-x="1024" 
d="M359 762v101h105v-101h-105zM555 762v101h105v-101h-105zM812 0h-138l-162 585l-161 -585h-138l-184 694h110l150 -582l160 582h128l160 -583l151 583h107z" />
    <glyph glyph-name="wdieresis" unicode="&#x1e85;" horiz-adv-x="794" 
d="M244 578v101h105v-101h-105zM440 578v101h105v-101h-105zM397 387l-107 -387h-119l-146 493h104l108 -396l107 396h108l107 -396l108 396h101l-145 -493h-119z" />
    <glyph glyph-name="uni1E8A" unicode="&#x1e8a;" horiz-adv-x="681" 
d="M147 0h-125l254 346l-254 348h131l187 -266l191 266h126l-253 -346l255 -348h-130l-190 266zM281 760v101h117v-101h-117z" />
    <glyph glyph-name="uni1E8B" unicode="&#x1e8b;" horiz-adv-x="534" 
d="M140 0h-114l180 248l-181 245h117l126 -175l123 175h115l-179 -245l182 -248h-118l-126 177zM209 578v101h117v-101h-117z" />
    <glyph glyph-name="Ygrave" unicode="&#x1ef2;" horiz-adv-x="660" 
d="M275 0v263l-275 431h126l205 -327l206 327h121l-276 -432v-262h-107zM189 886h116l71 -142h-79z" />
    <glyph glyph-name="ygrave" unicode="&#x1ef3;" horiz-adv-x="527" 
d="M303 -53q-27 -69 -70.5 -98.5t-110.5 -29.5q-41 0 -66 5v86q30 -5 57 -5q73 0 95 63l5 13l-193 512h107l139 -393l139 393h105zM120 694h116l71 -142h-79z" />
    <glyph glyph-name="endash" unicode="&#x2013;" horiz-adv-x="500" 
d="M39 228v79h422v-79h-422z" />
    <glyph glyph-name="emdash" unicode="&#x2014;" horiz-adv-x="1000" 
d="M39 228v79h922v-79h-922z" />
    <glyph glyph-name="quoteleft" unicode="&#x2018;" horiz-adv-x="246" 
d="M58 437v135q0 64 35.5 97t103.5 33v-59q-74 0 -74 -71v-16h57v-119h-122z" />
    <glyph glyph-name="quoteright" unicode="&#x2019;" horiz-adv-x="246" 
d="M188 694v-135q0 -64 -35.5 -97.5t-103.5 -33.5v59q74 1 74 71v17h-57v119h122z" />
    <glyph glyph-name="quotesinglbase" unicode="&#x201a;" horiz-adv-x="246" 
d="M188 119v-135q0 -130 -139 -130v59q74 0 74 71v16h-57v119h122z" />
    <glyph glyph-name="quotedblleft" unicode="&#x201c;" horiz-adv-x="449" 
d="M260 437v135q0 64 36 97t104 33v-59q-75 0 -75 -71v-16h57v-119h-122zM58 437v135q0 64 35.5 97t103.5 33v-59q-74 0 -74 -71v-16h57v-119h-122z" />
    <glyph glyph-name="quotedblright" unicode="&#x201d;" horiz-adv-x="449" 
d="M188 694v-135q0 -64 -35.5 -97.5t-103.5 -33.5v59q74 1 74 71v17h-57v119h122zM391 694v-135q0 -64 -36 -97.5t-104 -33.5v59q75 1 75 71v17h-58v119h123z" />
    <glyph glyph-name="quotedblbase" unicode="&#x201e;" horiz-adv-x="449" 
d="M188 119v-135q0 -64 -35.5 -97.5t-103.5 -33.5v59q74 1 74 71v17h-57v119h122zM391 119v-135q0 -64 -36 -97.5t-104 -33.5v59q75 1 75 71v17h-58v119h123z" />
    <glyph glyph-name="dagger" unicode="&#x2020;" horiz-adv-x="424" 
d="M373 564v-71h-125v-249h-74v249h-124v71h124v130h74v-130h125z" />
    <glyph glyph-name="daggerdbl" unicode="&#x2021;" horiz-adv-x="434" 
d="M378 404v-70h-125v-128h-74v128h-124v70h124v89h-124v71h124v130h74v-130h125v-71h-125v-89h125z" />
    <glyph glyph-name="bullet" unicode="&#x2022;" horiz-adv-x="417" 
d="M84 290q0 52 36.5 88.5t88.5 36.5t88.5 -36.5t36.5 -88.5t-36.5 -88.5t-88.5 -36.5t-88.5 36.5t-36.5 88.5z" />
    <glyph glyph-name="ellipsis" unicode="&#x2026;" horiz-adv-x="777" 
d="M76 0v127h127v-127h-127zM325 0v127h127v-127h-127zM574 0v127h126v-127h-126z" />
    <glyph glyph-name="perthousand" unicode="&#x2030;" horiz-adv-x="1247" 
d="M269 0h-84l412 694h84zM129 528q0 -51 23.5 -80t63.5 -29t63.5 29t23.5 80q0 50 -23.5 79t-63.5 29t-63.5 -29t-23.5 -79zM384 528q0 -84 -49.5 -130.5t-118.5 -46.5t-118.5 46.5t-49.5 130.5t49.5 130.5t118.5 46.5t118.5 -46.5t49.5 -130.5zM565 166q0 -50 24 -79.5
t63 -29.5t63 29.5t24 79.5t-24 79.5t-63 29.5t-63 -29.5t-24 -79.5zM820 166q0 -84 -49.5 -130.5t-118.5 -46.5t-119 46.5t-50 130.5t50 130.5t119 46.5t118.5 -46.5t49.5 -130.5zM961 166q0 -51 23.5 -80t62.5 -29q40 0 63.5 29t23.5 80t-23.5 80t-63.5 29q-39 0 -62.5 -29
t-23.5 -80zM1216 166q0 -84 -50 -130.5t-119 -46.5q-68 0 -118 46.5t-50 130.5t50 130.5t118 46.5q69 0 119 -46.5t50 -130.5z" />
    <glyph glyph-name="guilsinglleft" unicode="&#x2039;" horiz-adv-x="323" 
d="M152 234l113 -200h-87l-129 200l129 200h87z" />
    <glyph glyph-name="guilsinglright" unicode="&#x203a;" horiz-adv-x="323" 
d="M57 34l113 200l-113 200h88l129 -200l-129 -200h-88z" />
    <glyph glyph-name="fraction" unicode="&#x2044;" horiz-adv-x="197" 
d="M-200 0l517 694h80l-515 -694h-82z" />
    <glyph glyph-name="uni2070" unicode="&#x2070;" horiz-adv-x="374" 
d="M186 313q-67 0 -108.5 46.5t-41.5 148.5q0 99 42 146t108 47q67 0 109 -46.5t42 -146.5q0 -101 -42 -148t-109 -47zM186 374q71 0 71 134q0 131 -71 131q-70 0 -70 -131q0 -134 70 -134z" />
    <glyph glyph-name="uni2074" unicode="&#x2074;" horiz-adv-x="377" 
d="M292 320h-73v77h-191v63l178 234h86v-237h52v-60h-52v-77zM219 457v157l-116 -157h116z" />
    <glyph glyph-name="uni2075" unicode="&#x2075;" horiz-adv-x="351" 
d="M176 313q-66 0 -103 30t-37 83h75q2 -26 19.5 -41t44.5 -15q30 0 48.5 20t18.5 51t-18 49t-47 18q-46 0 -59 -36h-71l22 222h221v-65h-161l-9 -91q27 29 82 29q51 0 83.5 -34.5t32.5 -88.5q0 -57 -37 -94t-105 -37z" />
    <glyph glyph-name="uni2076" unicode="&#x2076;" horiz-adv-x="362" 
d="M188 313q-71 0 -111.5 48t-40.5 145q0 99 41 147t113 48q59 0 94 -28.5t38 -74.5h-77q-6 43 -56 43q-74 0 -75 -125q28 51 94 51q51 0 84.5 -33.5t33.5 -92.5q0 -60 -40 -94t-98 -34zM187 370q29 0 46 20t17 51q0 30 -17 48.5t-46 18.5t-46 -19.5t-17 -47.5q0 -31 17 -51
t46 -20z" />
    <glyph glyph-name="uni2077" unicode="&#x2077;" horiz-adv-x="324" 
d="M26 626v68h270v-65l-144 -309h-81l143 306h-188z" />
    <glyph glyph-name="uni2078" unicode="&#x2078;" horiz-adv-x="367" 
d="M184 313q-69 0 -108.5 30t-39.5 82q0 30 19 55t51 35q-26 11 -40.5 33.5t-14.5 47.5q0 46 36.5 75.5t96.5 29.5t97 -29.5t37 -75.5q0 -25 -15.5 -47.5t-40.5 -33.5q32 -10 50 -34.5t18 -55.5q0 -52 -38.5 -82t-107.5 -30zM184 369q31 0 49.5 16.5t18.5 42.5
q0 25 -18.5 41.5t-49.5 16.5t-49.5 -16.5t-18.5 -41.5q0 -26 18.5 -42.5t49.5 -16.5zM184 540q28 0 43 14t15 39q0 23 -15.5 36.5t-42.5 13.5t-43 -13.5t-16 -36.5q0 -25 16 -39t43 -14z" />
    <glyph glyph-name="uni2079" unicode="&#x2079;" horiz-adv-x="362" 
d="M176 701q70 0 110 -48t40 -145q0 -195 -152 -195q-59 0 -93.5 28t-37.5 73h77q3 -19 17.5 -31t37.5 -12q74 0 75 124q-31 -48 -93 -48q-51 0 -86 33t-35 91q0 60 40.5 95t99.5 35zM176 642q-29 0 -45.5 -19t-16.5 -50q0 -30 16.5 -49t45.5 -19q30 0 47.5 20t17.5 48
q0 31 -17.5 50t-47.5 19z" />
    <glyph glyph-name="parenleft.sups" unicode="&#x207d;" horiz-adv-x="231" 
d="M130 506q1 -118 75 -218h-73q-77 102 -77 218q0 118 77 218h73q-74 -103 -75 -218z" />
    <glyph glyph-name="parenright.sups" unicode="&#x207e;" horiz-adv-x="231" 
d="M101 506q-1 115 -75 218h74q77 -100 77 -218q0 -116 -77 -218h-74q74 100 75 218z" />
    <glyph glyph-name="uni2080" unicode="&#x2080;" horiz-adv-x="374" 
d="M186 -116q-67 0 -108.5 46.5t-41.5 148.5q0 99 42 146t108 47q67 0 109 -46.5t42 -146.5q0 -101 -42 -148t-109 -47zM186 -55q71 0 71 134q0 131 -71 131q-70 0 -70 -131q0 -134 70 -134z" />
    <glyph glyph-name="uni2081" unicode="&#x2081;" horiz-adv-x="286" 
d="M212 -110h-78v296l-99 -64v76l101 66h76v-374z" />
    <glyph glyph-name="uni2082" unicode="&#x2082;" horiz-adv-x="345" 
d="M43 -110v63l149 141q37 35 37 67q0 22 -15 35.5t-40 13.5q-27 0 -42.5 -17t-15.5 -47h-78q0 58 35.5 91.5t102.5 33.5q60 0 95.5 -30t35.5 -78q0 -55 -63 -114l-98 -93h167v-66h-270z" />
    <glyph glyph-name="uni2083" unicode="&#x2083;" horiz-adv-x="357" 
d="M176 -117q-69 0 -105 30t-38 83h77q2 -26 19.5 -41t45.5 -15q29 0 47 16.5t18 43.5q0 52 -76 52h-19v56h11q35 0 55 14.5t20 40.5q0 23 -16 36t-40 13q-27 0 -42 -15t-15 -43h-78q-2 54 34.5 85.5t103.5 31.5q61 0 94.5 -30.5t33.5 -74.5q0 -26 -16.5 -48.5t-42.5 -33.5
q29 -5 50.5 -28.5t21.5 -58.5q0 -52 -37.5 -83t-105.5 -31z" />
    <glyph glyph-name="uni2084" unicode="&#x2084;" horiz-adv-x="377" 
d="M292 -110h-73v77h-191v63l178 234h86v-237h52v-60h-52v-77zM219 27v157l-116 -157h116z" />
    <glyph glyph-name="uni2085" unicode="&#x2085;" horiz-adv-x="351" 
d="M176 -117q-66 0 -103 30t-37 83h75q2 -26 19.5 -41t44.5 -15q30 0 48.5 20t18.5 51t-18 49t-47 18q-46 0 -59 -36h-71l22 222h221v-65h-161l-9 -91q27 29 82 29q51 0 83.5 -34.5t32.5 -88.5q0 -57 -37 -94t-105 -37z" />
    <glyph glyph-name="uni2086" unicode="&#x2086;" horiz-adv-x="362" 
d="M188 -117q-71 0 -111.5 48t-40.5 145q0 99 41 147t113 48q59 0 94 -28.5t38 -74.5h-77q-6 43 -56 43q-74 0 -75 -125q28 51 94 51q51 0 84.5 -33.5t33.5 -92.5q0 -60 -40 -94t-98 -34zM187 -60q29 0 46 20t17 51q0 30 -17 48.5t-46 18.5t-46 -19.5t-17 -47.5
q0 -31 17 -51t46 -20z" />
    <glyph glyph-name="uni2087" unicode="&#x2087;" horiz-adv-x="322" 
d="M26 196v68h268v-65l-144 -309h-82l143 306h-185z" />
    <glyph glyph-name="uni2088" unicode="&#x2088;" horiz-adv-x="367" 
d="M184 -117q-69 0 -108.5 30t-39.5 82q0 30 19 55t51 35q-26 11 -40.5 33.5t-14.5 47.5q0 46 36.5 75.5t96.5 29.5t97 -29.5t37 -75.5q0 -25 -15.5 -47.5t-40.5 -33.5q32 -10 50 -34.5t18 -55.5q0 -52 -38.5 -82t-107.5 -30zM184 -61q31 0 49.5 16.5t18.5 42.5
q0 25 -18.5 41.5t-49.5 16.5t-49.5 -16.5t-18.5 -41.5q0 -26 18.5 -42.5t49.5 -16.5zM184 110q28 0 43 14t15 39q0 23 -15.5 36.5t-42.5 13.5t-43 -13.5t-16 -36.5q0 -25 16 -39t43 -14z" />
    <glyph glyph-name="uni2089" unicode="&#x2089;" horiz-adv-x="362" 
d="M176 271q70 0 110 -48t40 -145q0 -195 -152 -195q-59 0 -93.5 28t-37.5 73h77q3 -19 17.5 -31t37.5 -12q74 0 75 124q-31 -48 -93 -48q-51 0 -86 33t-35 91q0 60 40.5 95t99.5 35zM176 212q-29 0 -45.5 -19t-16.5 -50q0 -30 16.5 -49t45.5 -19q30 0 47.5 20t17.5 48
q0 31 -17.5 50t-47.5 19z" />
    <glyph glyph-name="Euro" unicode="&#x20ac;" horiz-adv-x="727" 
d="M60 384v74h80q21 116 89 181.5t172 65.5q106 0 172.5 -58.5t77.5 -167.5h-103q-12 69 -50.5 103.5t-95.5 34.5q-59 0 -100.5 -41.5t-58.5 -117.5h197v-74h-207q-1 -11 -1 -37q0 -28 1 -39h207v-74h-196q17 -75 58 -116t100 -41q56 0 95 35t51 104h104
q-12 -110 -78.5 -168.5t-172.5 -58.5q-104 0 -171.5 64.5t-89.5 180.5h-80v74h71q-1 11 -1 39q0 26 1 37h-71z" />
    <glyph glyph-name="trademark" unicode="&#x2122;" horiz-adv-x="839" 
d="M40 629v65h299v-65h-115v-266h-69v266h-115zM545 362l-95 258v-258h-68v332h102l98 -268l99 268h102v-332h-68v258l-94 -258h-76z" />
    <glyph glyph-name="Omega" unicode="&#x2126;" horiz-adv-x="818" 
d="M635 360q0 112 -64 182t-162 70q-97 0 -161.5 -70t-64.5 -182q0 -110 44 -178.5t123 -91.5v-90h-286v92h129q-123 80 -123 275q0 147 93.5 242.5t245.5 95.5t246 -95.5t94 -242.5q0 -194 -124 -275h130v-92h-287v90q79 23 123 91.5t44 178.5z" />
    <glyph glyph-name="uni2153" unicode="&#x2153;" horiz-adv-x="827" 
d="M93 0l517 694h80l-515 -694h-82zM212 320h-78v296l-99 -64v76l101 66h76v-374zM646 -7q-69 0 -105 30t-38 83h77q2 -26 19.5 -41t45.5 -15q29 0 47 16.5t18 43.5q0 52 -76 52h-19v56h11q35 0 55 14.5t20 40.5q0 23 -16 36t-40 13q-27 0 -42 -15t-15 -43h-78
q-2 54 34.5 85.5t103.5 31.5q61 0 94.5 -30.5t33.5 -74.5q0 -26 -16.5 -48.5t-42.5 -33.5q29 -5 50.5 -28.5t21.5 -58.5q0 -52 -37.5 -83t-105.5 -31z" />
    <glyph glyph-name="uni2154" unicode="&#x2154;" horiz-adv-x="879" 
d="M303 320h-270v63l149 141q37 35 37 67q0 22 -15 35.5t-40 13.5q-27 0 -42.5 -17t-15.5 -47h-78q0 58 35.5 91.5t102.5 33.5q60 0 95.5 -30t35.5 -78q0 -55 -63 -114l-98 -93h167v-66zM149 0l517 694h80l-515 -694h-82zM698 -7q-69 0 -105 30t-38 83h77q2 -26 19.5 -41
t45.5 -15q29 0 47 16.5t18 43.5q0 52 -76 52h-19v56h11q35 0 55 14.5t20 40.5q0 23 -16 36t-40 13q-27 0 -42 -15t-15 -43h-78q-2 54 34.5 85.5t103.5 31.5q61 0 94.5 -30.5t33.5 -74.5q0 -26 -16.5 -48.5t-42.5 -33.5q29 -5 50.5 -28.5t21.5 -58.5q0 -52 -37.5 -83
t-105.5 -31z" />
    <glyph glyph-name="uni2155" unicode="&#x2155;" horiz-adv-x="823" 
d="M93 0l517 694h80l-515 -694h-82zM212 320h-78v296l-99 -64v76l101 66h76v-374zM648 -7q-66 0 -103 30t-37 83h75q2 -26 19.5 -41t44.5 -15q30 0 48.5 20t18.5 51t-18 49t-47 18q-46 0 -59 -36h-71l22 222h221v-65h-161l-9 -91q27 29 82 29q51 0 83.5 -34.5t32.5 -88.5
q0 -57 -37 -94t-105 -37z" />
    <glyph glyph-name="uni2156" unicode="&#x2156;" horiz-adv-x="879" 
d="M303 320h-270v63l149 141q37 35 37 67q0 22 -15 35.5t-40 13.5q-27 0 -42.5 -17t-15.5 -47h-78q0 58 35.5 91.5t102.5 33.5q60 0 95.5 -30t35.5 -78q0 -55 -63 -114l-98 -93h167v-66zM704 -7q-66 0 -103 30t-37 83h75q2 -26 19.5 -41t44.5 -15q30 0 48.5 20t18.5 51
t-18 49t-47 18q-46 0 -59 -36h-71l22 222h221v-65h-161l-9 -91q27 29 82 29q51 0 83.5 -34.5t32.5 -88.5q0 -57 -37 -94t-105 -37zM149 0l517 694h80l-515 -694h-82z" />
    <glyph glyph-name="uni2157" unicode="&#x2157;" horiz-adv-x="891" 
d="M176 313q-69 0 -105 30t-38 83h77q2 -26 19.5 -41t45.5 -15q29 0 47 16.5t18 43.5q0 52 -76 52h-19v56h11q35 0 55 14.5t20 40.5q0 23 -16 36t-40 13q-27 0 -42 -15t-15 -43h-78q-2 54 34.5 85.5t103.5 31.5q61 0 94.5 -30.5t33.5 -74.5q0 -26 -16.5 -48.5t-42.5 -33.5
q29 -5 50.5 -28.5t21.5 -58.5q0 -52 -37.5 -83t-105.5 -31zM716 -7q-66 0 -103 30t-37 83h75q2 -26 19.5 -41t44.5 -15q30 0 48.5 20t18.5 51t-18 49t-47 18q-46 0 -59 -36h-71l22 222h221v-65h-161l-9 -91q27 29 82 29q51 0 83.5 -34.5t32.5 -88.5q0 -57 -37 -94t-105 -37z
M161 0l517 694h80l-515 -694h-82z" />
    <glyph glyph-name="uni2158" unicode="&#x2158;" horiz-adv-x="913" 
d="M292 320h-73v77h-191v63l178 234h86v-237h52v-60h-52v-77zM219 457v157l-116 -157h116zM738 -7q-66 0 -103 30t-37 83h75q2 -26 19.5 -41t44.5 -15q30 0 48.5 20t18.5 51t-18 49t-47 18q-46 0 -59 -36h-71l22 222h221v-65h-161l-9 -91q27 29 82 29q51 0 83.5 -34.5
t32.5 -88.5q0 -57 -37 -94t-105 -37zM183 0l517 694h80l-515 -694h-82z" />
    <glyph glyph-name="uni2159" unicode="&#x2159;" horiz-adv-x="830" 
d="M656 -7q-71 0 -111.5 48t-40.5 145q0 99 41 147t113 48q59 0 94 -28.5t38 -74.5h-77q-6 43 -56 43q-74 0 -75 -125q28 51 94 51q51 0 84.5 -33.5t33.5 -92.5q0 -60 -40 -94t-98 -34zM655 50q29 0 46 20t17 51q0 30 -17 48.5t-46 18.5t-46 -19.5t-17 -47.5q0 -31 17 -51
t46 -20zM93 0l517 694h80l-515 -694h-82zM212 320h-78v296l-99 -64v76l101 66h76v-374z" />
    <glyph glyph-name="uni215A" unicode="&#x215a;" horiz-adv-x="894" 
d="M176 313q-66 0 -103 30t-37 83h75q2 -26 19.5 -41t44.5 -15q30 0 48.5 20t18.5 51t-18 49t-47 18q-46 0 -59 -36h-71l22 222h221v-65h-161l-9 -91q27 29 82 29q51 0 83.5 -34.5t32.5 -88.5q0 -57 -37 -94t-105 -37zM720 -7q-71 0 -111.5 48t-40.5 145q0 99 41 147t113 48
q59 0 94 -28.5t38 -74.5h-77q-6 43 -56 43q-74 0 -75 -125q28 51 94 51q51 0 84.5 -33.5t33.5 -92.5q0 -60 -40 -94t-98 -34zM719 50q29 0 46 20t17 51q0 30 -17 48.5t-46 18.5t-46 -19.5t-17 -47.5q0 -31 17 -51t46 -20zM156 0l517 694h80l-515 -694h-82z" />
    <glyph glyph-name="uni215B" unicode="&#x215b;" horiz-adv-x="843" 
d="M660 -7q-69 0 -108.5 30t-39.5 82q0 30 19 55t51 35q-26 11 -40.5 33.5t-14.5 47.5q0 46 36.5 75.5t96.5 29.5t97 -29.5t37 -75.5q0 -25 -15.5 -47.5t-40.5 -33.5q32 -10 50 -34.5t18 -55.5q0 -52 -38.5 -82t-107.5 -30zM660 49q31 0 49.5 16.5t18.5 42.5
q0 25 -18.5 41.5t-49.5 16.5t-49.5 -16.5t-18.5 -41.5q0 -26 18.5 -42.5t49.5 -16.5zM660 220q28 0 43 14t15 39q0 23 -15.5 36.5t-42.5 13.5t-43 -13.5t-16 -36.5q0 -25 16 -39t43 -14zM99 0l517 694h80l-515 -694h-82zM212 320h-78v296l-99 -64v76l101 66h76v-374z" />
    <glyph glyph-name="uni215C" unicode="&#x215c;" horiz-adv-x="905" 
d="M722 -7q-69 0 -108.5 30t-39.5 82q0 30 19 55t51 35q-26 11 -40.5 33.5t-14.5 47.5q0 46 36.5 75.5t96.5 29.5t97 -29.5t37 -75.5q0 -25 -15.5 -47.5t-40.5 -33.5q32 -10 50 -34.5t18 -55.5q0 -52 -38.5 -82t-107.5 -30zM722 49q31 0 49.5 16.5t18.5 42.5
q0 25 -18.5 41.5t-49.5 16.5t-49.5 -16.5t-18.5 -41.5q0 -26 18.5 -42.5t49.5 -16.5zM722 220q28 0 43 14t15 39q0 23 -15.5 36.5t-42.5 13.5t-43 -13.5t-16 -36.5q0 -25 16 -39t43 -14zM176 313q-69 0 -105 30t-38 83h77q2 -26 19.5 -41t45.5 -15q29 0 47 16.5t18 43.5
q0 52 -76 52h-19v56h11q35 0 55 14.5t20 40.5q0 23 -16 36t-40 13q-27 0 -42 -15t-15 -43h-78q-2 54 34.5 85.5t103.5 31.5q61 0 94.5 -30.5t33.5 -74.5q0 -26 -16.5 -48.5t-42.5 -33.5q29 -5 50.5 -28.5t21.5 -58.5q0 -52 -37.5 -83t-105.5 -31zM161 0l517 694h80
l-515 -694h-82z" />
    <glyph glyph-name="uni215D" unicode="&#x215d;" horiz-adv-x="900" 
d="M717 -7q-69 0 -108.5 30t-39.5 82q0 30 19 55t51 35q-26 11 -40.5 33.5t-14.5 47.5q0 46 36.5 75.5t96.5 29.5t97 -29.5t37 -75.5q0 -25 -15.5 -47.5t-40.5 -33.5q32 -10 50 -34.5t18 -55.5q0 -52 -38.5 -82t-107.5 -30zM717 49q31 0 49.5 16.5t18.5 42.5
q0 25 -18.5 41.5t-49.5 16.5t-49.5 -16.5t-18.5 -41.5q0 -26 18.5 -42.5t49.5 -16.5zM717 220q28 0 43 14t15 39q0 23 -15.5 36.5t-42.5 13.5t-43 -13.5t-16 -36.5q0 -25 16 -39t43 -14zM176 313q-66 0 -103 30t-37 83h75q2 -26 19.5 -41t44.5 -15q30 0 48.5 20t18.5 51
t-18 49t-47 18q-46 0 -59 -36h-71l22 222h221v-65h-161l-9 -91q27 29 82 29q51 0 83.5 -34.5t32.5 -88.5q0 -57 -37 -94t-105 -37zM156 0l517 694h80l-515 -694h-82z" />
    <glyph glyph-name="uni215E" unicode="&#x215e;" horiz-adv-x="840" 
d="M26 626v68h270v-65l-144 -309h-81l143 306h-188zM96 0l517 694h80l-515 -694h-82zM657 -7q-69 0 -108.5 30t-39.5 82q0 30 19 55t51 35q-26 11 -40.5 33.5t-14.5 47.5q0 46 36.5 75.5t96.5 29.5t97 -29.5t37 -75.5q0 -25 -15.5 -47.5t-40.5 -33.5q32 -10 50 -34.5
t18 -55.5q0 -52 -38.5 -82t-107.5 -30zM657 49q31 0 49.5 16.5t18.5 42.5q0 25 -18.5 41.5t-49.5 16.5t-49.5 -16.5t-18.5 -41.5q0 -26 18.5 -42.5t49.5 -16.5zM657 220q28 0 43 14t15 39q0 23 -15.5 36.5t-42.5 13.5t-43 -13.5t-16 -36.5q0 -25 16 -39t43 -14z" />
    <glyph glyph-name="uni2190" unicode="&#x2190;" 
d="M335 644h99l-258 -260h609v-71h-612l261 -263h-99l-296 297z" />
    <glyph glyph-name="uni2191" unicode="&#x2191;" 
d="M115 325v99l297 296l297 -296v-99l-263 261v-612h-71v609z" />
    <glyph glyph-name="uni2192" unicode="&#x2192;" 
d="M390 644h99l296 -297l-296 -297h-99l261 263h-612v71h609z" />
    <glyph glyph-name="uni2193" unicode="&#x2193;" 
d="M115 270v99l260 -258v609h71v-612l263 261v-99l-297 -296z" />
    <glyph glyph-name="partialdiff" unicode="&#x2202;" horiz-adv-x="583" 
d="M180 694h125q41 -30 79.5 -71t74 -94.5t57 -120.5t21.5 -136q0 -130 -63.5 -205.5t-182.5 -75.5q-110 0 -178.5 68.5t-68.5 186.5q0 117 65.5 185.5t167.5 68.5q70 0 121 -43q-74 135 -218 237zM149 246q0 -79 37.5 -127.5t104.5 -48.5q68 0 105.5 48.5t37.5 127.5
t-37.5 128t-105.5 49q-67 0 -104.5 -49t-37.5 -128z" />
    <glyph glyph-name="Delta" unicode="&#x2206;" horiz-adv-x="717" 
d="M663 87v-87h-612v86l240 608h132zM357 599l-192 -502h382z" />
    <glyph glyph-name="product" unicode="&#x220f;" horiz-adv-x="757" 
d="M86 0v694h584v-694h-108v598h-368v-598h-108z" />
    <glyph glyph-name="summation" unicode="&#x2211;" horiz-adv-x="617" 
d="M61 93l234 264l-234 244v93h500v-94h-361l192 -200v-91l-189 -214h364v-95h-506v93z" />
    <glyph glyph-name="minus" unicode="&#x2212;" horiz-adv-x="650" 
d="M97 281v83h456v-83h-456z" />
    <glyph glyph-name="radical" unicode="&#x221a;" horiz-adv-x="662" 
d="M45 279v88h174l97 -269l216 596h98l-256 -694h-121l-104 279h-104z" />
    <glyph glyph-name="infinity" unicode="&#x221e;" horiz-adv-x="664" 
d="M184 473q88 0 148 -87q61 87 149 87q70 0 111.5 -43t41.5 -110q0 -68 -41 -111t-112 -43q-90 0 -149 87q-59 -87 -148 -87q-70 0 -111.5 43t-41.5 111q0 67 41.5 110t111.5 43zM478 403q-58 0 -104 -84q46 -82 104 -82q36 0 56.5 24t20.5 59t-21 59t-56 24zM187 237
q59 0 104 83q-46 83 -104 83q-35 0 -56.5 -24.5t-21.5 -58.5t21.5 -58.5t56.5 -24.5z" />
    <glyph glyph-name="integral" unicode="&#x222b;" horiz-adv-x="424" 
d="M256 534v-555q0 -79 -44.5 -119.5t-122.5 -40.5q-30 0 -57 4v86q28 -4 45 -4q79 0 79 86v551q0 79 43 120t122 41q43 0 72 -7v-84q-27 5 -58 5q-41 0 -60 -19.5t-19 -63.5z" />
    <glyph glyph-name="approxequal" unicode="&#x2248;" horiz-adv-x="650" 
d="M455 358q-41 0 -131 30t-115 30q-36 0 -36 -46v-16h-84v33q0 50 30 80.5t76 30.5q40 0 131 -29.5t115 -29.5q36 0 36 45v16h84v-33q0 -50 -30 -80.5t-76 -30.5zM455 151q-41 0 -131 30t-115 30q-36 0 -36 -46v-16h-84v33q0 50 30 80.5t76 30.5q40 0 131 -29.5t115 -29.5
q36 0 36 45v16h84v-33q0 -50 -30 -80.5t-76 -30.5z" />
    <glyph glyph-name="notequal" unicode="&#x2260;" horiz-adv-x="650" 
d="M92 392v80h249l40 99h83l-39 -99h133v-80h-164l-55 -139h219v-80h-251l-39 -99h-83l38 99h-131v80h163l55 139h-218z" />
    <glyph glyph-name="lessequal" unicode="&#x2264;" horiz-adv-x="650" 
d="M94 351v89l460 163v-88l-358 -119l358 -120v-89zM86 0v83h470v-83h-470z" />
    <glyph glyph-name="greaterequal" unicode="&#x2265;" horiz-adv-x="650" 
d="M555 440v-89l-459 -164v89l358 120l-358 119v88zM564 83v-83h-471v83h471z" />
    <glyph glyph-name="uni2295" unicode="&#x2295;" 
d="M770 347q0 -151 -103.5 -254.5t-254.5 -103.5t-254.5 103.5t-103.5 254.5t103.5 254.5t254.5 103.5t254.5 -103.5t103.5 -254.5zM448 62q99 12 167.5 81t80.5 169h-248v-250zM128 312q11 -100 79.5 -169t168.5 -81v250h-248zM448 631v-248h248q-11 99 -80 168t-168 80z
M376 631q-99 -11 -168 -80t-80 -168h248v248z" />
    <glyph glyph-name="uni2296" unicode="&#x2296;" 
d="M412 -11q-151 0 -254.5 103.5t-103.5 254.5t103.5 254.5t254.5 103.5t254.5 -103.5t103.5 -254.5t-103.5 -254.5t-254.5 -103.5zM412 60q111 0 191.5 71.5t92.5 180.5h-569q13 -109 93 -180.5t192 -71.5zM412 634q-112 0 -192 -71t-93 -180h569q-13 109 -92.5 180
t-191.5 71z" />
    <glyph glyph-name="uni2297" unicode="&#x2297;" 
d="M770 347q0 -151 -103.5 -254.5t-254.5 -103.5t-254.5 103.5t-103.5 254.5t103.5 254.5t254.5 103.5t254.5 -103.5t103.5 -254.5zM125 347q0 -100 59 -177l177 177l-177 177q-59 -78 -59 -177zM412 60q99 0 177 59l-177 177l-177 -177q77 -59 177 -59zM412 634
q-100 0 -177 -59l177 -177l177 177q-80 59 -177 59zM699 347q0 97 -59 177l-177 -177l176 -177q60 76 60 177z" />
    <glyph glyph-name="uni2299" unicode="&#x2299;" 
d="M286 347q0 53 36.5 89.5t89.5 36.5t89.5 -36.5t36.5 -89.5t-36.5 -89.5t-89.5 -36.5t-89.5 36.5t-36.5 89.5zM125 347q0 -121 82.5 -204t204.5 -83t204.5 83t82.5 204t-82.5 204t-204.5 83t-204.5 -83t-82.5 -204zM770 347q0 -151 -103.5 -254.5t-254.5 -103.5
t-254.5 103.5t-103.5 254.5t103.5 254.5t254.5 103.5t254.5 -103.5t103.5 -254.5z" />
    <glyph glyph-name="uni22A0" unicode="&#x22a0;" 
d="M759 0h-694v694h694v-694zM638 71l-226 225l-225 -225h451zM688 122v450l-225 -225zM637 623h-449l224 -225zM136 573v-451l225 225z" />
    <glyph glyph-name="uni2460" unicode="&#x2460;" horiz-adv-x="950" 
d="M475 696q-147 0 -248 -101t-101 -248t101 -248t248 -101t248 101t101 248t-101 248t-248 101zM475 767q177 0 298.5 -121.5t121.5 -298.5t-121.5 -298.5t-298.5 -121.5t-298.5 121.5t-121.5 298.5t121.5 298.5t298.5 121.5zM529 95h-90v406l-111 -77v93l113 82h88v-504z
" />
    <glyph glyph-name="uni2461" unicode="&#x2461;" horiz-adv-x="950" 
d="M304 95v78l192 188q54 52 54 102q0 31 -21.5 51t-55.5 20q-38 0 -60.5 -24.5t-22.5 -70.5h-93q0 79 46.5 123t129.5 44q75 0 122 -40t47 -101q0 -77 -84 -157l-135 -133h223v-80h-342zM475 696q-147 0 -248 -101t-101 -248t101 -248t248 -101t248 101t101 248t-101 248
t-248 101zM475 767q177 0 298.5 -121.5t121.5 -298.5t-121.5 -298.5t-298.5 -121.5t-298.5 121.5t-121.5 298.5t121.5 298.5t298.5 121.5z" />
    <glyph glyph-name="uni2462" unicode="&#x2462;" horiz-adv-x="950" 
d="M470 88q-84 0 -132.5 40t-50.5 108h95q1 -34 24.5 -55t62.5 -21q41 0 65.5 22t24.5 58q0 78 -100 78h-25v68h17q48 0 73 22t25 57q0 32 -22.5 51t-56.5 19q-37 0 -59.5 -22t-22.5 -62h-93q2 72 48 114t129 42q79 0 124 -40.5t45 -98.5q0 -38 -21.5 -67.5t-57.5 -42.5
q38 -10 64 -40.5t26 -78.5q0 -68 -47.5 -109.5t-134.5 -41.5zM475 696q-147 0 -248 -101t-101 -248t101 -248t248 -101t248 101t101 248t-101 248t-248 101zM475 767q177 0 298.5 -121.5t121.5 -298.5t-121.5 -298.5t-298.5 -121.5t-298.5 121.5t-121.5 298.5t121.5 298.5
t298.5 121.5z" />
    <glyph glyph-name="uni2463" unicode="&#x2463;" horiz-adv-x="950" 
d="M578 95h-88v107h-250v78l231 319h107v-321h64v-76h-64v-107zM490 278v221l-158 -221h158zM475 696q-147 0 -248 -101t-101 -248t101 -248t248 -101t248 101t101 248t-101 248t-248 101zM475 767q177 0 298.5 -121.5t121.5 -298.5t-121.5 -298.5t-298.5 -121.5
t-298.5 121.5t-121.5 298.5t121.5 298.5t298.5 121.5z" />
    <glyph glyph-name="uni2464" unicode="&#x2464;" horiz-adv-x="950" 
d="M470 158q42 0 67 27t25 70t-24 70t-63 27q-63 0 -82 -53h-86l30 298h283v-80h-209l-15 -134q36 39 103 39q66 0 111 -46t45 -121q0 -73 -50 -121t-133 -48q-84 0 -132 41.5t-48 107.5h93q2 -33 25 -55t60 -22zM475 696q-147 0 -248 -101t-101 -248t101 -248t248 -101
t248 101t101 248t-101 248t-248 101zM475 767q177 0 298.5 -121.5t121.5 -298.5t-121.5 -298.5t-298.5 -121.5t-298.5 121.5t-121.5 298.5t121.5 298.5t298.5 121.5z" />
    <glyph glyph-name="uni2465" unicode="&#x2465;" horiz-adv-x="950" 
d="M472 88q-89 0 -139.5 65t-50.5 195q0 131 52 195t142 64q75 0 119 -37.5t48 -96.5h-94q-3 29 -22.5 45.5t-51.5 16.5q-101 0 -102 -177q40 68 121 68q68 0 114 -45t46 -120q0 -80 -53 -126.5t-129 -46.5zM472 160q42 0 65.5 26.5t23.5 71.5q0 43 -24 70t-62 27
q-41 0 -65 -28t-24 -69q0 -45 23 -71.5t63 -26.5zM475 696q-147 0 -248 -101t-101 -248t101 -248t248 -101t248 101t101 248t-101 248t-248 101zM475 767q177 0 298.5 -121.5t121.5 -298.5t-121.5 -298.5t-298.5 -121.5t-298.5 121.5t-121.5 298.5t121.5 298.5t298.5 121.5z
" />
    <glyph glyph-name="uni2466" unicode="&#x2466;" horiz-adv-x="950" 
d="M300 515v84h336v-79l-186 -425h-99l184 420h-235zM475 696q-147 0 -248 -101t-101 -248t101 -248t248 -101t248 101t101 248t-101 248t-248 101zM475 767q177 0 298.5 -121.5t121.5 -298.5t-121.5 -298.5t-298.5 -121.5t-298.5 121.5t-121.5 298.5t121.5 298.5
t298.5 121.5z" />
    <glyph glyph-name="uni2467" unicode="&#x2467;" horiz-adv-x="950" 
d="M475 699q-149 0 -250.5 -101.5t-101.5 -250.5t101.5 -250.5t250.5 -101.5t250.5 101.5t101.5 250.5t-101.5 250.5t-250.5 101.5zM475 767q177 0 298.5 -121.5t121.5 -298.5t-121.5 -298.5t-298.5 -121.5t-298.5 121.5t-121.5 298.5t121.5 298.5t298.5 121.5zM480 88
q-87 0 -136.5 40t-49.5 107q0 41 23.5 75t63.5 48q-33 14 -52.5 44t-19.5 65q0 60 47 100t124 40t123.5 -40t46.5 -100q0 -35 -19.5 -65t-51.5 -44q40 -14 63 -48t23 -75q0 -67 -49 -107t-136 -40zM480 157q42 0 67 23t25 59q0 37 -25 60t-67 23q-43 0 -67.5 -23t-24.5 -60
q0 -36 24.5 -59t67.5 -23zM480 387q35 0 57 22t22 56q0 31 -22 52t-57 21q-36 0 -58 -21t-22 -52q0 -34 22 -56t58 -22z" />
    <glyph glyph-name="uni2468" unicode="&#x2468;" horiz-adv-x="950" 
d="M478 606q89 0 139.5 -65t50.5 -195q0 -131 -52 -195t-142 -64q-75 0 -119 37.5t-48 96.5h94q3 -29 22.5 -45.5t51.5 -16.5q101 0 102 177q-40 -68 -121 -68q-68 0 -114 45t-46 120q0 80 53 126.5t129 46.5zM478 534q-42 0 -65.5 -26.5t-23.5 -71.5q0 -43 24 -70t62 -27
q41 0 65 28t24 69q0 45 -23 71.5t-63 26.5zM475 -2q147 0 248 101t101 248t-101 248t-248 101t-248 -101t-101 -248t101 -248t248 -101zM475 -73q-177 0 -298.5 121.5t-121.5 298.5t121.5 298.5t298.5 121.5t298.5 -121.5t121.5 -298.5t-121.5 -298.5t-298.5 -121.5z" />
    <glyph glyph-name="uni2469" unicode="&#x2469;" horiz-adv-x="950" 
d="M475 699q-149 0 -250.5 -101.5t-101.5 -250.5t101.5 -250.5t250.5 -101.5t250.5 101.5t101.5 250.5t-101.5 250.5t-250.5 101.5zM475 767q177 0 298.5 -121.5t121.5 -298.5t-121.5 -298.5t-298.5 -121.5t-298.5 121.5t-121.5 298.5t121.5 298.5t298.5 121.5zM556 87
q-74 0 -112 62t-38 198t38 198t112 62t112 -62t38 -198t-38 -198t-112 -62zM556 162q35 0 50 42.5t15 142.5t-15 142.5t-50 42.5q-37 0 -51.5 -42t-14.5 -143t14.5 -143t51.5 -42zM282 95v504h82v-504h-82z" />
    <glyph glyph-name="uni25A0" unicode="&#x25a0;" 
d="M759 694v-694h-694v694h694z" />
    <glyph glyph-name="uni25A1" unicode="&#x25a1;" 
d="M759 694v-694h-694v694h694zM136 623v-552h552v552h-552z" />
    <glyph glyph-name="uni25B2" unicode="&#x25b2;" 
d="M412 705l355 -705h-709z" />
    <glyph glyph-name="uni25B3" unicode="&#x25b3;" 
d="M412 705l355 -705h-709zM174 71h477l-239 473z" />
    <glyph glyph-name="uni25B6" unicode="&#x25b6;" 
d="M60 702l705 -355l-705 -354v709z" />
    <glyph glyph-name="uni25B7" unicode="&#x25b7;" 
d="M59 701l705 -354l-705 -355v709zM131 586v-478l472 239z" />
    <glyph glyph-name="uni25BC" unicode="&#x25bc;" 
d="M767 694l-355 -705l-354 705h709z" />
    <glyph glyph-name="uni25BD" unicode="&#x25bd;" 
d="M767 694l-355 -705l-354 705h709zM651 623h-477l238 -473z" />
    <glyph glyph-name="uni25C0" unicode="&#x25c0;" 
d="M60 347l705 355v-709z" />
    <glyph glyph-name="uni25C1" unicode="&#x25c1;" 
d="M60 347l705 354v-709zM694 108v478l-473 -239z" />
    <glyph glyph-name="lozenge" unicode="&#x25ca;" horiz-adv-x="719" 
d="M29 347l273 347h115l273 -347l-273 -347h-115zM361 608l-203 -261l202 -261l202 261z" />
    <glyph glyph-name="uni25CB" unicode="&#x25cb;" 
d="M125 347q0 -121 82.5 -204t204.5 -83t204.5 83t82.5 204t-82.5 204t-204.5 83t-204.5 -83t-82.5 -204zM770 347q0 -151 -103.5 -254.5t-254.5 -103.5t-254.5 103.5t-103.5 254.5t103.5 254.5t254.5 103.5t254.5 -103.5t103.5 -254.5z" />
    <glyph glyph-name="uni25CF" unicode="&#x25cf;" 
d="M54 347q0 151 103.5 254.5t254.5 103.5t254.5 -103.5t103.5 -254.5t-103.5 -254.5t-254.5 -103.5t-254.5 103.5t-103.5 254.5z" />
    <glyph glyph-name="uni25D0" unicode="&#x25d0;" 
d="M412 634v-574q122 0 204.5 83t82.5 204t-82.5 204t-204.5 83zM412 -11q-151 0 -254.5 103.5t-103.5 254.5t103.5 254.5t254.5 103.5t254.5 -103.5t103.5 -254.5t-103.5 -254.5t-254.5 -103.5z" />
    <glyph glyph-name="uni25D1" unicode="&#x25d1;" 
d="M412 60v574q-122 0 -204.5 -83t-82.5 -204t82.5 -204t204.5 -83zM412 -11q-151 0 -254.5 103.5t-103.5 254.5t103.5 254.5t254.5 103.5t254.5 -103.5t103.5 -254.5t-103.5 -254.5t-254.5 -103.5z" />
    <glyph glyph-name="uni25D2" unicode="&#x25d2;" 
d="M125 347h574q0 121 -82.5 204t-204.5 83t-204.5 -83t-82.5 -204zM770 347q0 -151 -103.5 -254.5t-254.5 -103.5t-254.5 103.5t-103.5 254.5t103.5 254.5t254.5 103.5t254.5 -103.5t103.5 -254.5z" />
    <glyph glyph-name="uni25D3" unicode="&#x25d3;" 
d="M699 347h-574q0 -121 82.5 -204t204.5 -83t204.5 83t82.5 204zM770 347q0 -151 -103.5 -254.5t-254.5 -103.5t-254.5 103.5t-103.5 254.5t103.5 254.5t254.5 103.5t254.5 -103.5t103.5 -254.5z" />
    <glyph glyph-name="uni25D4" unicode="&#x25d4;" 
d="M770 347q0 -151 -103.5 -254.5t-254.5 -103.5t-254.5 103.5t-103.5 254.5t103.5 254.5t254.5 103.5t254.5 -103.5t103.5 -254.5zM699 347h-287v287q-122 0 -204.5 -83t-82.5 -204t82.5 -204t204.5 -83t204.5 83t82.5 204z" />
    <glyph glyph-name="uni25D5" unicode="&#x25d5;" 
d="M412 347v287q-122 0 -204.5 -83t-82.5 -204h287zM412 -11q-151 0 -254.5 103.5t-103.5 254.5t103.5 254.5t254.5 103.5t254.5 -103.5t103.5 -254.5t-103.5 -254.5t-254.5 -103.5z" />
    <glyph glyph-name="uni25E7" unicode="&#x25e7;" 
d="M65 694h694v-694h-694v694zM688 71v552h-276v-552h276z" />
    <glyph glyph-name="uni25E8" unicode="&#x25e8;" 
d="M65 694h694v-694h-694v694zM136 623v-552h276v552h-276z" />
    <glyph glyph-name="uni25E9" unicode="&#x25e9;" 
d="M65 0v694h694v-694h-694zM688 71v552l-552 -552h552z" />
    <glyph glyph-name="uni25EA" unicode="&#x25ea;" 
d="M759 694v-694h-694v694h694zM136 623v-552l552 552h-552z" />
    <glyph glyph-name="uni2690" unicode="&#x2690;" 
d="M136 293v-293h-71v694h694v-401h-623zM136 623v-258h552v258h-552z" />
    <glyph glyph-name="uni2691" unicode="&#x2691;" 
d="M136 293v-293h-71v694h694v-401h-623z" />
    <glyph glyph-name="uni278A" unicode="&#x278a;" horiz-adv-x="950" 
d="M475 767q177 0 298.5 -121.5t121.5 -298.5t-121.5 -298.5t-298.5 -121.5t-298.5 121.5t-121.5 298.5t121.5 298.5t298.5 121.5zM439 95h90v504h-88l-113 -82v-93l111 77v-406z" />
    <glyph glyph-name="uni278B" unicode="&#x278b;" horiz-adv-x="950" 
d="M304 173v-78h342v80h-223l135 133q84 80 84 157q0 61 -47 101t-122 40q-83 0 -129.5 -44t-46.5 -123h93q0 46 22.5 70.5t60.5 24.5q34 0 55.5 -20t21.5 -51q0 -50 -54 -102zM475 767q177 0 298.5 -121.5t121.5 -298.5t-121.5 -298.5t-298.5 -121.5t-298.5 121.5
t-121.5 298.5t121.5 298.5t298.5 121.5z" />
    <glyph glyph-name="uni278C" unicode="&#x278c;" horiz-adv-x="950" 
d="M470 88q87 0 134.5 41.5t47.5 109.5q0 48 -26 78.5t-64 40.5q36 13 57.5 42.5t21.5 67.5q0 58 -45 98.5t-124 40.5q-83 0 -129 -42t-48 -114h93q0 40 22.5 62t59.5 22q34 0 56.5 -19t22.5 -51q0 -35 -25 -57t-73 -22h-17v-68h25q100 0 100 -78q0 -36 -24.5 -58t-65.5 -22
q-39 0 -62.5 21t-24.5 55h-95q2 -68 50.5 -108t132.5 -40zM475 767q177 0 298.5 -121.5t121.5 -298.5t-121.5 -298.5t-298.5 -121.5t-298.5 121.5t-121.5 298.5t121.5 298.5t298.5 121.5z" />
    <glyph glyph-name="uni278D" unicode="&#x278d;" horiz-adv-x="950" 
d="M490 95h88v107h64v76h-64v321h-107l-231 -319v-78h250v-107zM490 499v-221h-158zM475 767q177 0 298.5 -121.5t121.5 -298.5t-121.5 -298.5t-298.5 -121.5t-298.5 121.5t-121.5 298.5t121.5 298.5t298.5 121.5z" />
    <glyph glyph-name="uni278E" unicode="&#x278e;" horiz-adv-x="950" 
d="M470 158q-37 0 -60 22t-25 55h-93q0 -66 48 -107.5t132 -41.5q83 0 133 48t50 121q0 75 -45 121t-111 46q-67 0 -103 -39l15 134h209v80h-283l-30 -298h86q19 53 82 53q39 0 63 -27t24 -70t-25 -70t-67 -27zM475 767q177 0 298.5 -121.5t121.5 -298.5t-121.5 -298.5
t-298.5 -121.5t-298.5 121.5t-121.5 298.5t121.5 298.5t298.5 121.5z" />
    <glyph glyph-name="uni278F" unicode="&#x278f;" horiz-adv-x="950" 
d="M472 88q76 0 129 46.5t53 126.5q0 75 -46 120t-114 45q-81 0 -121 -68q1 177 102 177q32 0 51.5 -16.5t22.5 -45.5h94q-4 59 -48 96.5t-119 37.5q-90 0 -142 -64t-52 -195q0 -130 50.5 -195t139.5 -65zM472 160q-40 0 -63 26.5t-23 71.5q0 41 24 69t65 28q38 0 62 -27
t24 -70q0 -45 -23.5 -71.5t-65.5 -26.5zM475 767q177 0 298.5 -121.5t121.5 -298.5t-121.5 -298.5t-298.5 -121.5t-298.5 121.5t-121.5 298.5t121.5 298.5t298.5 121.5z" />
    <glyph glyph-name="uni2790" unicode="&#x2790;" horiz-adv-x="950" 
d="M300 599v-84h235l-184 -420h99l186 425v79h-336zM475 767q177 0 298.5 -121.5t121.5 -298.5t-121.5 -298.5t-298.5 -121.5t-298.5 121.5t-121.5 298.5t121.5 298.5t298.5 121.5z" />
    <glyph glyph-name="uni2791" unicode="&#x2791;" horiz-adv-x="950" 
d="M475 767q177 0 298.5 -121.5t121.5 -298.5t-121.5 -298.5t-298.5 -121.5t-298.5 121.5t-121.5 298.5t121.5 298.5t298.5 121.5zM480 88q87 0 136 40t49 107q0 41 -23 75t-63 48q32 14 51.5 44t19.5 65q0 60 -46.5 100t-123.5 40t-124 -40t-47 -100q0 -35 19.5 -65
t52.5 -44q-40 -14 -63.5 -48t-23.5 -75q0 -67 49.5 -107t136.5 -40zM480 157q-43 0 -67.5 23t-24.5 59q0 37 24.5 60t67.5 23q42 0 67 -23t25 -60q0 -36 -25 -59t-67 -23zM480 387q-36 0 -58 22t-22 56q0 31 22 52t58 21q35 0 57 -21t22 -52q0 -34 -22 -56t-57 -22z" />
    <glyph glyph-name="uni2792" unicode="&#x2792;" horiz-adv-x="950" 
d="M478 606q-76 0 -129 -46.5t-53 -126.5q0 -75 46 -120t114 -45q81 0 121 68q-1 -177 -102 -177q-32 0 -51.5 16.5t-22.5 45.5h-94q4 -59 48 -96.5t119 -37.5q90 0 142 64t52 195q0 130 -50.5 195t-139.5 65zM478 534q40 0 63 -26.5t23 -71.5q0 -41 -24 -69t-65 -28
q-38 0 -62 27t-24 70q0 45 23.5 71.5t65.5 26.5zM475 -73q-177 0 -298.5 121.5t-121.5 298.5t121.5 298.5t298.5 121.5t298.5 -121.5t121.5 -298.5t-121.5 -298.5t-298.5 -121.5z" />
    <glyph glyph-name="uni2793" unicode="&#x2793;" horiz-adv-x="950" 
d="M475 767q177 0 298.5 -121.5t121.5 -298.5t-121.5 -298.5t-298.5 -121.5t-298.5 121.5t-121.5 298.5t121.5 298.5t298.5 121.5zM556 87q74 0 112 62t38 198t-38 198t-112 62t-112 -62t-38 -198t38 -198t112 -62zM556 162q-37 0 -51.5 42t-14.5 143t14.5 143t51.5 42
q35 0 50 -42.5t15 -142.5t-15 -142.5t-50 -42.5zM282 599v-504h82v504h-82z" />
    <glyph glyph-name="uni29B6" unicode="&#x29b6;" 
d="M770 347q0 -151 -103.5 -254.5t-254.5 -103.5t-254.5 103.5t-103.5 254.5t103.5 254.5t254.5 103.5t254.5 -103.5t103.5 -254.5zM699 347q0 111 -71.5 191.5t-179.5 92.5v-569q109 13 180 93t71 192zM125 347q0 -112 71 -192t180 -93v569q-109 -13 -180 -92.5t-71 -191.5
z" />
    <glyph glyph-name="uni2B12" unicode="&#x2b12;" 
d="M759 694v-694h-694v694h694zM136 71h552v276h-552v-276z" />
    <glyph glyph-name="uni2B13" unicode="&#x2b13;" 
d="M759 694v-694h-694v694h694zM688 623h-552v-276h552v276z" />
    <glyph glyph-name="uni2B14" unicode="&#x2b14;" 
d="M759 694v-694h-694v694h694zM136 623v-552h552z" />
    <glyph glyph-name="uni2B15" unicode="&#x2b15;" 
d="M65 0v694h694v-694h-694zM688 71v552h-552z" />
    <glyph glyph-name="uni2B16" unicode="&#x2b16;" 
d="M413 -14l-361 361l361 361l361 -361zM672 347l-259 261v-522z" />
    <glyph glyph-name="uni2B17" unicode="&#x2b17;" 
d="M774 347l-361 -361l-361 361l361 361zM413 608l-260 -261l260 -261v522z" />
    <glyph glyph-name="uni2B18" unicode="&#x2b18;" 
d="M774 347l-361 -361l-361 361l361 361zM413 607l-261 -260h522z" />
    <glyph glyph-name="uni2B19" unicode="&#x2b19;" 
d="M413 708l361 -361l-361 -361l-361 361zM152 347l261 -260l261 260h-522z" />
    <glyph glyph-name="uni2B2C" unicode="&#x2b2c;" 
d="M770 348q0 -94 -103.5 -158t-254.5 -64t-254.5 64t-103.5 158t103.5 158t254.5 64t254.5 -64t103.5 -158z" />
    <glyph glyph-name="uni2B2D" unicode="&#x2b2d;" 
d="M126 348q0 -65 82.5 -110.5t203.5 -45.5t203.5 45.5t82.5 110.5t-82.5 110.5t-203.5 45.5t-203.5 -45.5t-82.5 -110.5zM770 348q0 -94 -103.5 -158t-254.5 -64t-254.5 64t-103.5 158t103.5 158t254.5 64t254.5 -64t103.5 -158z" />
    <glyph glyph-name="uni2B2E" unicode="&#x2b2e;" 
d="M412 706q94 0 158 -103.5t64 -254.5t-64 -254.5t-158 -103.5t-158 103.5t-64 254.5t64 254.5t158 103.5z" />
    <glyph glyph-name="uni2B2F" unicode="&#x2b2f;" 
d="M412 62q65 0 109 82t44 204t-44 204t-109 82t-109 -82t-44 -204t44 -204t109 -82zM412 706q94 0 158 -103.5t64 -254.5t-64 -254.5t-158 -103.5t-158 103.5t-64 254.5t64 254.5t158 103.5z" />
    <glyph glyph-name="commaaccent" unicode="&#xf6c3;" horiz-adv-x="238" 
d="M185 -45v-87q0 -102 -116 -102v51q32 0 43.5 11.5t11.5 31.5v8h-54v87h115z" />
    <glyph glyph-name="Jacute" horiz-adv-x="610" 
d="M509 886h116l-108 -142h-79zM285 82q67 0 105 42.5t38 121.5v448h107v-447q0 -117 -61 -187.5t-189 -70.5t-189 71t-61 187v22h108v-23q0 -79 38 -121.5t104 -42.5z" />
    <glyph glyph-name="i.trk" horiz-adv-x="252" 
d="M75 493h101v-493h-101v493zM67 578v101h117v-101h-117z" />
    <glyph glyph-name="jacute" horiz-adv-x="252" 
d="M-47 -177v86q28 -4 45 -4q40 0 59 20.5t19 65.5v502h100v-514q0 -79 -43.5 -119.5t-122.5 -40.5q-30 0 -57 4zM151 694h116l-108 -142h-79z" />
    <glyph glyph-name="ringacute" horiz-adv-x="319" 
d="M159 538q-46 0 -78 30.5t-32 74.5q0 26 17 62l71 135h100l-84 -90q49 3 83 -29t34 -78q0 -43 -32.5 -74t-78.5 -31zM159 591q23 0 38 15t15 37q0 24 -15 40t-38 16q-22 0 -37 -16t-15 -40q0 -23 14.5 -37.5t37.5 -14.5z" />
    <glyph glyph-name="commatop" horiz-adv-x="238" 
d="M53 553v87q0 102 116 102v-51q-32 0 -43 -11.5t-11 -32.5v-7h53v-87h-115z" />
    <glyph glyph-name="caron.slovak" horiz-adv-x="242" 
d="M95 694h105l-81 -177h-67z" />
    <glyph glyph-name="parenleft.subs" horiz-adv-x="231" 
d="M130 79q1 -118 75 -219h-73q-77 103 -77 219t77 218h73q-74 -103 -75 -218z" />
    <glyph glyph-name="parenright.subs" horiz-adv-x="231" 
d="M101 79q-1 117 -75 218h74q77 -100 77 -218t-77 -219h-74q74 99 75 219z" />
    <glyph glyph-name="zero.dnom" horiz-adv-x="374" 
d="M186 -6q-67 0 -108.5 46.5t-41.5 148.5q0 99 42 146t108 47q67 0 109 -46.5t42 -146.5q0 -101 -42 -148t-109 -47zM186 55q71 0 71 134q0 131 -71 131q-70 0 -70 -131q0 -134 70 -134z" />
    <glyph glyph-name="one.dnom" horiz-adv-x="286" 
d="M212 0h-78v296l-99 -64v76l101 66h76v-374z" />
    <glyph glyph-name="two.dnom" horiz-adv-x="345" 
d="M43 0v63l149 141q37 35 37 67q0 22 -15 35.5t-40 13.5q-27 0 -42.5 -17t-15.5 -47h-78q0 58 35.5 91.5t102.5 33.5q60 0 95.5 -30t35.5 -78q0 -55 -63 -114l-98 -93h167v-66h-270z" />
    <glyph glyph-name="three.dnom" horiz-adv-x="357" 
d="M176 -7q-69 0 -105 30t-38 83h77q2 -26 19.5 -41t45.5 -15q29 0 47 16.5t18 43.5q0 52 -76 52h-19v56h11q35 0 55 14.5t20 40.5q0 23 -16 36t-40 13q-27 0 -42 -15t-15 -43h-78q-2 54 34.5 85.5t103.5 31.5q61 0 94.5 -30.5t33.5 -74.5q0 -26 -16.5 -48.5t-42.5 -33.5
q29 -5 50.5 -28.5t21.5 -58.5q0 -52 -37.5 -83t-105.5 -31z" />
    <glyph glyph-name="four.dnom" horiz-adv-x="377" 
d="M292 0h-73v77h-191v63l178 234h86v-237h52v-60h-52v-77zM219 137v157l-116 -157h116z" />
    <glyph glyph-name="five.dnom" horiz-adv-x="351" 
d="M176 -7q-66 0 -103 30t-37 83h75q2 -26 19.5 -41t44.5 -15q30 0 48.5 20t18.5 51t-18 49t-47 18q-46 0 -59 -36h-71l22 222h221v-65h-161l-9 -91q27 29 82 29q51 0 83.5 -34.5t32.5 -88.5q0 -57 -37 -94t-105 -37z" />
    <glyph glyph-name="six.dnom" horiz-adv-x="362" 
d="M188 -7q-71 0 -111.5 48t-40.5 145q0 99 41 147t113 48q59 0 94 -28.5t38 -74.5h-77q-6 43 -56 43q-74 0 -75 -125q28 51 94 51q51 0 84.5 -33.5t33.5 -92.5q0 -60 -40 -94t-98 -34zM187 50q29 0 46 20t17 51q0 30 -17 48.5t-46 18.5t-46 -19.5t-17 -47.5q0 -31 17 -51
t46 -20z" />
    <glyph glyph-name="seven.dnom" horiz-adv-x="322" 
d="M26 306v68h268v-65l-144 -309h-82l143 306h-185z" />
    <glyph glyph-name="eight.dnom" horiz-adv-x="367" 
d="M184 -7q-69 0 -108.5 30t-39.5 82q0 30 19 55t51 35q-26 11 -40.5 33.5t-14.5 47.5q0 46 36.5 75.5t96.5 29.5t97 -29.5t37 -75.5q0 -25 -15.5 -47.5t-40.5 -33.5q32 -10 50 -34.5t18 -55.5q0 -52 -38.5 -82t-107.5 -30zM184 49q31 0 49.5 16.5t18.5 42.5
q0 25 -18.5 41.5t-49.5 16.5t-49.5 -16.5t-18.5 -41.5q0 -26 18.5 -42.5t49.5 -16.5zM184 220q28 0 43 14t15 39q0 23 -15.5 36.5t-42.5 13.5t-43 -13.5t-16 -36.5q0 -25 16 -39t43 -14z" />
    <glyph glyph-name="nine.dnom" horiz-adv-x="362" 
d="M176 381q70 0 110 -48t40 -145q0 -195 -152 -195q-59 0 -93.5 28t-37.5 73h77q3 -19 17.5 -31t37.5 -12q74 0 75 124q-31 -48 -93 -48q-51 0 -86 33t-35 91q0 60 40.5 95t99.5 35zM176 322q-29 0 -45.5 -19t-16.5 -50q0 -30 16.5 -49t45.5 -19q30 0 47.5 20t17.5 48
q0 31 -17.5 50t-47.5 19z" />
    <glyph glyph-name="parenleft.dnum" horiz-adv-x="231" 
d="M130 189q1 -118 75 -219h-73q-77 103 -77 219t77 218h73q-74 -103 -75 -218z" />
    <glyph glyph-name="parenright.dnum" horiz-adv-x="231" 
d="M101 189q-1 117 -75 218h74q77 -100 77 -218t-77 -219h-74q74 99 75 219z" />
    <glyph glyph-name="backslash.case" horiz-adv-x="449" 
d="M327 -62l-297 814h92l297 -814h-92z" />
    <glyph glyph-name="bar.case" horiz-adv-x="298" 
d="M104 -62v814h90v-814h-90z" />
    <glyph glyph-name="braceleft.case" horiz-adv-x="385" 
d="M352 17v-79h-87q-71 0 -100 40.5t-29 118.5v97q0 60 -21.5 82.5t-74.5 27.5v82q53 5 74.5 27.5t21.5 82.5v97q0 78 29 118.5t100 40.5h87v-79h-46q-49 0 -65.5 -18.5t-16.5 -81.5v-98q0 -111 -90 -130q90 -19 90 -130v-98q0 -63 16.5 -81.5t65.5 -18.5h46z" />
    <glyph glyph-name="braceright.case" horiz-adv-x="385" 
d="M34 -62v80h45q49 0 65.5 18t16.5 81v98q0 111 90 130q-90 19 -90 130v98q0 63 -16.5 81t-65.5 18h-45v80h86q71 0 100 -40.5t29 -118.5v-97q0 -60 21.5 -82.5t74.5 -27.5v-82q-53 -5 -74.5 -27.5t-21.5 -82.5v-97q0 -78 -29 -118.5t-100 -40.5h-86z" />
    <glyph glyph-name="bracketleft.case" horiz-adv-x="341" 
d="M306 673h-128v-656h128v-79h-219v814h219v-79z" />
    <glyph glyph-name="bracketright.case" horiz-adv-x="341" 
d="M253 -62h-218v79h128v656h-128v79h218v-814z" />
    <glyph glyph-name="emdash.case" horiz-adv-x="1000" 
d="M39 299v79h922v-79h-922z" />
    <glyph glyph-name="endash.case" horiz-adv-x="500" 
d="M39 299v79h422v-79h-422z" />
    <glyph glyph-name="guillemotleft.case" horiz-adv-x="522" 
d="M152 331l113 -200h-87l-129 200l129 200h87zM352 331l113 -200h-88l-129 200l129 200h88z" />
    <glyph glyph-name="guillemotright.case" horiz-adv-x="522" 
d="M257 131l113 200l-113 200h87l129 -200l-129 -200h-87zM57 131l113 200l-113 200h88l129 -200l-129 -200h-88z" />
    <glyph glyph-name="guilsinglleft.case" horiz-adv-x="323" 
d="M152 331l113 -200h-87l-129 200l129 200h87z" />
    <glyph glyph-name="guilsinglright.case" horiz-adv-x="323" 
d="M57 131l113 200l-113 200h88l129 -200l-129 -200h-88z" />
    <glyph glyph-name="hyphen.case" horiz-adv-x="388" 
d="M59 295v91h270v-91h-270z" />
    <glyph glyph-name="parenleft.case" horiz-adv-x="326" 
d="M161 345q4 -221 143 -407h-97q-64 86 -102.5 192.5t-38.5 214.5t38.5 214.5t102.5 192.5h97q-139 -186 -143 -407z" />
    <glyph glyph-name="parenright.case" horiz-adv-x="326" 
d="M164 345q-4 221 -143 407h97q64 -86 103 -192.5t39 -214.5t-39 -214.5t-103 -192.5h-97q139 186 143 407z" />
    <glyph glyph-name="slash.case" horiz-adv-x="449" 
d="M419 752l-297 -814h-92l297 814h92z" />
    <glyph glyph-name="questiondown.case" horiz-adv-x="494" 
d="M23 172q0 37 14 67.5t35 48.5t46 36t46 32t35.5 34t14.5 43v17h85v-17q1 -42 -16 -74t-42.5 -51.5t-51 -37.5t-43.5 -42.5t-18 -54.5q0 -40 31.5 -69t82.5 -29q56 0 89 32t36 87h104q-5 -95 -63.5 -150t-165.5 -55q-98 0 -158.5 52.5t-60.5 130.5zM320 694v-127h-127v127
h127z" />
    <glyph glyph-name="exclamdown.case" horiz-adv-x="289" 
d="M111 450h67l19 -318v-132h-106v132zM81 567v127h127v-127h-127z" />
    <glyph glyph-name="zero.tf" horiz-adv-x="650" 
d="M325 -11q-115 0 -186.5 87.5t-71.5 270.5t71.5 270.5t186.5 87.5t186.5 -87.5t71.5 -270.5t-71.5 -270.5t-186.5 -87.5zM162 347q0 -80 18 -142l247 369q-39 49 -102 49q-74 0 -118.5 -67.5t-44.5 -208.5zM325 71q74 0 118.5 67.5t44.5 208.5q0 78 -18 142l-247 -370
q41 -48 102 -48z" />
    <glyph glyph-name="one.tf" horiz-adv-x="650" 
d="M95 0v92h207v488l-186 -111v109l190 116h101v-602h154v-92h-466z" />
    <glyph glyph-name="two.tf" horiz-adv-x="650" 
d="M102 0v92l263 267q81 79 81 153q0 48 -33 77.5t-86 29.5q-59 0 -94 -36.5t-35 -105.5h-106q1 108 63.5 168t171.5 60q102 0 163.5 -55t61.5 -138q0 -98 -116 -218l-198 -201h322v-93h-458z" />
    <glyph glyph-name="three.tf" horiz-adv-x="650" 
d="M325 -11q-113 0 -178 55.5t-67 151.5h107q3 -55 39 -88.5t98 -33.5q61 0 98.5 34t37.5 87q0 116 -154 116h-30v86h21q72 0 109 32.5t37 83.5q0 48 -33.5 77.5t-86.5 29.5q-56 0 -90 -33t-37 -89h-106q4 96 64.5 151.5t170.5 55.5q104 0 164 -55t60 -135q0 -53 -30.5 -95
t-79.5 -60q52 -12 89 -55t37 -110q0 -91 -64.5 -148.5t-175.5 -57.5z" />
    <glyph glyph-name="four.tf" horiz-adv-x="650" 
d="M499 0h-101v154h-347v90l323 450h125v-451h94v-89h-94v-154zM398 243v335l-239 -335h239z" />
    <glyph glyph-name="five.tf" horiz-adv-x="650" 
d="M323 -11q-113 0 -177.5 56.5t-66.5 150.5h107q2 -54 38.5 -88t96.5 -34q66 0 104 40.5t38 106.5q0 65 -38 106.5t-95 41.5q-45 0 -78 -21.5t-48 -59.5h-99l42 406h375v-93h-291l-24 -207q51 58 147 58q88 0 151.5 -64t63.5 -167q0 -101 -66.5 -166.5t-179.5 -65.5z" />
    <glyph glyph-name="six.tf" horiz-adv-x="650" 
d="M335 -11q-120 0 -188 88.5t-68 271.5t71.5 269.5t189.5 86.5q98 0 156.5 -51t63.5 -131h-107q-5 45 -35.5 71t-80.5 26q-153 0 -156 -270q25 51 72.5 77t103.5 26q94 0 157.5 -62t63.5 -167q0 -109 -70 -172t-173 -63zM334 74q63 0 100.5 41t37.5 108q0 65 -37.5 105.5
t-96.5 40.5q-60 0 -98.5 -42t-38.5 -104q0 -67 36.5 -108t96.5 -41z" />
    <glyph glyph-name="seven.tf" horiz-adv-x="650" 
d="M82 598v96h479v-90l-274 -604h-113l271 598h-363z" />
    <glyph glyph-name="eight.tf" horiz-adv-x="650" 
d="M325 -11q-116 0 -182.5 54.5t-66.5 146.5q0 57 33.5 104.5t89.5 65.5q-46 21 -73.5 63t-27.5 89q0 83 62.5 138t164.5 55q101 0 163.5 -55t62.5 -138q0 -47 -27 -89t-74 -63q56 -18 89.5 -65.5t33.5 -104.5q0 -92 -66.5 -146.5t-181.5 -54.5zM325 72q65 0 103.5 34
t38.5 87q0 54 -38.5 88.5t-103.5 34.5q-66 0 -104 -34.5t-38 -88.5q0 -53 38 -87t104 -34zM325 397q55 0 88 32.5t33 82.5q0 48 -33 79t-88 31t-89 -31t-34 -79q0 -50 34 -82.5t89 -32.5z" />
    <glyph glyph-name="nine.tf" horiz-adv-x="650" 
d="M314 705q120 0 188.5 -88.5t68.5 -271.5t-72 -269.5t-190 -86.5q-98 0 -156.5 51t-62.5 131h106q5 -45 35.5 -71t80.5 -26q153 0 156 270q-25 -51 -72 -77t-104 -26q-94 0 -157 62t-63 167q0 109 69.5 172t172.5 63zM315 620q-63 0 -100.5 -41t-37.5 -108
q0 -65 37.5 -105.5t96.5 -40.5q60 0 98.5 42t38.5 104q0 67 -36.5 108t-96.5 41z" />
    <glyph glyph-name="cent.tf" horiz-adv-x="650" 
d="M362 0h-75v95q-93 12 -150 78.5t-57 173.5t57 173t150 78v96h75v-94q82 -4 137.5 -53t64.5 -126h-103q-4 40 -31.5 66t-67.5 32v-345q40 6 67.5 32t31.5 67h103q-9 -78 -64.5 -127.5t-137.5 -53.5v-92zM186 347q0 -139 101 -168v335q-101 -29 -101 -167z" />
    <glyph glyph-name="dollar.tf" horiz-adv-x="650" 
d="M95 504q0 77 53.5 130t142.5 62v104h74v-104q91 -11 146.5 -66t56.5 -138h-103q-9 99 -100 119v-221l63 -16q71 -19 110.5 -64t39.5 -115q0 -82 -57.5 -136.5t-155.5 -61.5v-103h-74v104q-102 9 -159 65t-61 149h101q4 -52 35.5 -85.5t83.5 -43.5v229l-45 12
q-72 18 -111.5 64t-39.5 116zM394 285l-29 8v-212q53 6 83.5 34t30.5 72q0 77 -85 98zM195 510q0 -73 78 -96q1 0 9 -2.5t9 -2.5v203q-45 -7 -70.5 -34t-25.5 -68z" />
    <glyph glyph-name="yen.tf" horiz-adv-x="650" 
d="M93 259v74h139l-215 361h116l195 -334l196 334h111l-216 -361h138v-74h-180v-71h180v-75h-180v-113h-103v113h-181v75h181v71h-181z" />
    <glyph glyph-name="sterling.tf" horiz-adv-x="650" 
d="M78 270v76h73q-1 3 -11.5 25.5t-13.5 31.5l-9.5 28.5t-9 36.5t-2.5 36q0 83 60.5 142t163.5 59q111 0 174.5 -61.5t62.5 -166.5h-105q0 68 -35.5 104.5t-95.5 36.5q-55 0 -86.5 -32t-31.5 -84q0 -21 5 -43.5t11 -38t16.5 -39t14.5 -35.5h192v-76h-172l3 -30
q0 -100 -59 -145h350v-95h-496v93q22 7 38 16t33.5 24.5t27 41.5t9.5 60q0 15 -5 35h-102z" />
    <glyph glyph-name="Euro.tf" horiz-adv-x="650" 
d="M34 384v74h80q21 116 88.5 181.5t169.5 65.5t167.5 -59t76.5 -167h-104q-11 69 -48.5 103.5t-90.5 34.5q-58 0 -98.5 -41.5t-57.5 -117.5h192v-74h-202q-1 -8 -1 -37q0 -31 1 -39h202v-74h-191q17 -75 57 -116t98 -41q53 0 90.5 35t48.5 104h104q-11 -109 -76.5 -168
t-167.5 -59t-169.5 65t-88.5 180h-80v74h71q-1 11 -1 39q0 26 1 37h-71z" />
    <glyph glyph-name="a.ord" horiz-adv-x="378" 
d="M335 320h-72v52q-35 -58 -121 -58q-49 0 -81.5 25t-32.5 70q0 82 108 101l122 21v13q0 59 -71 59q-68 0 -71 -52h-76q2 52 42 79t105 27q148 0 148 -123v-214zM162 370q40 0 68 22.5t28 66.5v21l-97 -16q-57 -10 -57 -51q0 -20 15.5 -31.5t42.5 -11.5z" />
    <glyph glyph-name="b.ord" horiz-adv-x="410" 
d="M232 657q65 0 107.5 -46t42.5 -126q0 -79 -42 -125t-106 -46q-77 0 -112 52v-46h-74v465h77v-177q39 49 107 49zM211 599q-42 0 -65.5 -31.5t-23.5 -82.5q0 -50 23.5 -81t65.5 -31t66 31.5t24 80.5q0 51 -24 82.5t-66 31.5z" />
    <glyph glyph-name="c.ord" horiz-adv-x="384" 
d="M109 485q0 -51 23.5 -81.5t65.5 -30.5q30 0 51 17.5t24 48.5h81q-5 -59 -47.5 -92t-108.5 -33q-77 0 -124 46t-47 125t47 125.5t124 46.5q66 0 108.5 -33t47.5 -92h-81q-3 31 -24 49t-51 18q-42 0 -65.5 -31t-23.5 -83z" />
    <glyph glyph-name="d.ord" horiz-adv-x="410" 
d="M177 657q69 0 108 -49v177h78v-465h-75v46q-37 -52 -111 -52q-64 0 -106.5 46t-42.5 125q0 80 42 126t107 46zM200 599q-42 0 -66 -31.5t-24 -82.5q0 -50 24 -81t66 -31t65.5 31t23.5 81q0 51 -23.5 82.5t-65.5 31.5z" />
    <glyph glyph-name="e.ord" horiz-adv-x="390" 
d="M27 485q0 78 46 125t122 47q77 0 121.5 -44.5t44.5 -125.5q0 -18 -1 -23h-253q2 -39 26 -65.5t62 -26.5q64 0 79 54h81q-10 -54 -53.5 -83t-106.5 -29q-73 0 -120.5 45.5t-47.5 125.5zM108 516h173q-2 41 -25 63t-58 22q-37 0 -61 -22.5t-29 -62.5z" />
    <glyph glyph-name="f.ord" horiz-adv-x="257" 
d="M240 786v-61q-36 4 -41 4q-51 0 -51 -55v-23h92v-62h-92v-269h-77v269h-52v62h52v30q0 55 30 82.5t85 27.5q34 0 54 -5z" />
    <glyph glyph-name="g.ord" horiz-adv-x="406" 
d="M359 651v-311q0 -72 -43.5 -109t-119.5 -37q-78 0 -118 29.5t-42 79.5h81q4 -53 78 -53q86 0 86 84v42q-38 -46 -102 -46q-63 0 -107 44.5t-44 118.5q0 76 43.5 120t107.5 44q67 0 106 -49v43h74zM110 494q0 -47 23 -76t64 -29q42 0 64.5 29t22.5 76t-22.5 76t-64.5 29
q-41 0 -64 -29t-23 -76z" />
    <glyph glyph-name="h.ord" horiz-adv-x="394" 
d="M272 320v192q0 83 -67 83q-38 0 -59 -26t-21 -67v-182h-77v465h77v-181q35 53 108 53q56 0 86.5 -33.5t30.5 -92.5v-211h-78z" />
    <glyph glyph-name="i.ord" horiz-adv-x="172" 
d="M48 651h77v-331h-77v331zM42 705v72h89v-72h-89z" />
    <glyph glyph-name="j.ord" horiz-adv-x="173" 
d="M-31 201v63q10 -2 30 -2q49 0 49 55v334h78v-343q0 -54 -30.5 -82t-84.5 -28q-19 0 -42 3zM42 705v72h90v-72h-90z" />
    <glyph glyph-name="k.ord" horiz-adv-x="375" 
d="M231 519l138 -199h-92l-105 150l-47 -48v-102h-77v465h77v-275l143 141h95z" />
    <glyph glyph-name="l.ord" horiz-adv-x="172" 
d="M48 785h77v-465h-77v465z" />
    <glyph glyph-name="m.ord" horiz-adv-x="595" 
d="M551 530v-210h-78v196q0 79 -64 79q-29 0 -50 -23t-21 -63v-189h-78v193q0 82 -63 82q-31 0 -51.5 -25t-20.5 -68v-182h-77v331h74v-49q34 55 103 55q72 0 99 -56q39 56 110 56q54 0 85.5 -30.5t31.5 -96.5z" />
    <glyph glyph-name="n.ord" horiz-adv-x="394" 
d="M125 320h-77v331h74v-49q37 55 110 55q57 0 87.5 -33.5t30.5 -92.5v-211h-78v192q0 83 -67 83q-38 0 -59 -26.5t-21 -67.5v-181z" />
    <glyph glyph-name="o.ord" horiz-adv-x="396" 
d="M198 314q-77 0 -124 46t-47 125t47 125.5t124 46.5t124 -46.5t47 -125.5t-47 -125t-124 -46zM198 373q42 0 65.5 31t23.5 81q0 51 -23.5 82.5t-65.5 31.5t-65.5 -31.5t-23.5 -82.5q0 -50 23.5 -81t65.5 -31z" />
    <glyph glyph-name="p.ord" horiz-adv-x="410" 
d="M232 314q-68 0 -107 49v-160h-77v448h74v-46q35 52 112 52q64 0 106 -46t42 -126q0 -79 -42.5 -125t-107.5 -46zM211 373q42 0 66 31.5t24 80.5q0 51 -24 82.5t-66 31.5t-65.5 -31.5t-23.5 -82.5q0 -50 23.5 -81t65.5 -31z" />
    <glyph glyph-name="q.ord" horiz-adv-x="410" 
d="M177 314q-65 0 -107 46t-42 125q0 80 42 126t107 46q74 0 111 -52v46h75v-448h-78v160q-39 -49 -108 -49zM200 373q42 0 65.5 31t23.5 81q0 51 -23.5 82.5t-65.5 31.5t-66 -31.5t-24 -82.5q0 -50 24 -81t66 -31z" />
    <glyph glyph-name="r.ord" horiz-adv-x="264" 
d="M250 657v-76q-7 0 -18 0.5t-16 0.5q-41 0 -66 -25.5t-25 -69.5v-167h-77v331h74v-67q28 73 112 73h16z" />
    <glyph glyph-name="s.ord" horiz-adv-x="361" 
d="M39 556q0 46 39 73.5t103 27.5q61 0 102.5 -26.5t42.5 -77.5h-76q-1 25 -20 38t-49 13t-47 -11.5t-17 -29.5q0 -31 46 -38l74 -15q95 -17 95 -93q0 -47 -39.5 -75t-109.5 -28q-72 0 -112 29.5t-42 82.5h80q2 -59 76 -59q67 0 67 43q0 30 -46 40l-72 13q-95 19 -95 93z
" />
    <glyph glyph-name="t.ord" horiz-adv-x="264" 
d="M19 589v62h52v85h77v-85h90v-62h-90v-152q0 -57 46 -57q19 0 44 5v-63q-29 -7 -68 -7q-99 0 -99 106v168h-52z" />
    <glyph glyph-name="u.ord" horiz-adv-x="388" 
d="M263 651h78v-331h-75v50q-36 -56 -108 -56q-55 0 -84.5 33.5t-29.5 92.5v211h78v-190q0 -84 64 -84q36 0 56.5 26.5t20.5 67.5v180z" />
    <glyph glyph-name="v.ord" horiz-adv-x="363" 
d="M183 397l88 254h80l-123 -331h-94l-123 331h84z" />
    <glyph glyph-name="w.ord" horiz-adv-x="545" 
d="M272 569l-69 -249h-89l-100 331h82l68 -255l69 255h80l69 -255l69 255h78l-98 -331h-90z" />
    <glyph glyph-name="x.ord" horiz-adv-x="363" 
d="M101 320h-88l122 166l-123 165h90l81 -112l80 112h88l-122 -164l123 -167h-90l-81 113z" />
    <glyph glyph-name="y.ord" horiz-adv-x="362" 
d="M214 288q-19 -50 -50.5 -70t-79.5 -20q-25 0 -46 3v64q12 -3 38 -3q46 0 62 40l2 8l-129 341h83l88 -254l88 254h82z" />
    <glyph glyph-name="z.ord" horiz-adv-x="343" 
d="M37 651h274v-54l-184 -215h186v-62h-287v55l184 214h-173v62z" />
    </font>
</defs>
</svg>
