<svg xmlns="http://www.w3.org/2000/svg" width="40" height="40" viewBox="0 0 40 40">
    <g fill="none" fill-rule="evenodd">
        <g fill="#FFF">
            <g>
                <g>
                    <path d="M30 70h40V30H30v40zm30.37-11.852h7.26V32.37h-7.26v25.778zm-9.185-9.481H58V32.37h-6.815v16.297zm-18.815-9.63h16.445V32.37H32.37v6.667zm0 9.63h16.445v-7.26H32.37v7.26zm18.815 9.481H58v-7.111h-6.815v7.111zm-9.778 0h7.408v-7.111h-7.408v7.111zm-9.037 0h6.667v-7.111H32.37v7.111zm28 9.482h7.26v-7.26h-7.26v7.26zm-18.963 0H58v-7.26H41.407v7.26zm-9.037 0h6.667v-7.26H32.37v7.26z" transform="translate(-520 -850) translate(180 820) translate(310)"/>
                </g>
            </g>
        </g>
    </g>
</svg>
