<svg xmlns="http://www.w3.org/2000/svg" xmlns:xlink="http://www.w3.org/1999/xlink" width="30" height="30" viewBox="0 0 30 30">
    <defs>
        <path id="ea8cfxrv6a" d="M0 0L30 0 30 30 0 30z"/>
    </defs>
    <g fill="none" fill-rule="evenodd">
        <g>
            <g>
                <g>
                    <g>
                        <g transform="translate(-210 -11160) translate(180 10223) translate(0 533) translate(0 84) translate(30 320)">
                            <mask id="hiyo9p6i5b" fill="#fff">
                                <use xlink:href="#ea8cfxrv6a"/>
                            </mask>
                            <path fill="#000" d="M15 17.458c-1.357 0-2.458-1.1-2.458-2.458 0-1.357 1.1-2.458 2.458-2.458 1.357 0 2.458 1.1 2.458 2.458 0 1.357-1.1 2.458-2.458 2.458m0-7.636C9.611 9.822 6.771 15 6.771 15s2.84 5.178 8.229 5.178c6.173 0 8.229-5.178 8.229-5.178S20.389 9.822 15 9.822m0 18.1C7.875 27.921 2.079 22.124 2.079 15 2.079 7.875 7.875 2.079 15 2.079c7.125 0 12.921 5.796 12.921 12.921 0 7.125-5.796 12.921-12.921 12.921M15 0C6.73 0 0 6.729 0 15c0 8.27 6.73 15 15 15 8.271 0 15-6.73 15-15 0-8.271-6.729-15-15-15" mask="url(#hiyo9p6i5b)"/>
                        </g>
                    </g>
                </g>
            </g>
        </g>
    </g>
</svg>
